<?xml version="1.0" standalone="no"?>
<!DOCTYPE svg PUBLIC "-//W3C//DTD SVG 1.1//EN" "http://www.w3.org/Graphics/SVG/1.1/DTD/svg11.dtd" >
<svg xmlns="http://www.w3.org/2000/svg" xmlns:xlink="http://www.w3.org/1999/xlink" version="1.1">
<metadata>
Created by FontForge 20170731 at Mon Aug 22 17:18:23 2016
 By Aleksey,,,
Copyright (c) 2016 Monotype Imaging Inc. All rights reserved.
</metadata>
<defs>
<font id="ZEISSFrutigerNextW1G-Medium" horiz-adv-x="430" >
  <font-face 
    font-family="ZEISS Frutiger Next W1G Medium"
    font-weight="500"
    font-stretch="normal"
    units-per-em="1000"
    panose-1="2 11 6 3 4 2 4 2 2 3"
    ascent="721"
    descent="-279"
    x-height="500"
    cap-height="667"
    bbox="-197 -301 1248 905"
    underline-thickness="50"
    underline-position="-175"
    unicode-range="U+000D-FB04"
  />
<missing-glyph horiz-adv-x="512" 
d="M50 50h412v617h-412v-617zM0 0v718h512v-718h-512zM216 241v9q0 31 8.5 53t20.5 39.5t27 32.5t27 30.5t20.5 35t8.5 45.5q0 33 -22 55t-60 22q-25 0 -49.5 -5.5t-48.5 -15.5l-4 47q25 10 49 15t53 5q60 0 97 -32t37 -92q0 -29 -8.5 -50t-21.5 -38t-28.5 -32t-28.5 -31.5
t-21.5 -36t-8.5 -45.5v-11h-47zM210 117v64h59v-64h-59z" />
    <glyph glyph-name="IJ" unicode="IJ" horiz-adv-x="602" 
d="M80 0v667h109v-667h-109zM268 87q14 -6 28 -8t29 -2q27 0 45 9.5t29.5 25t16.5 36.5t5 44v475h109v-486q0 -43 -11 -78t-32.5 -60.5t-54.5 -39.5t-78 -14q-48 0 -91 15z" />
    <glyph glyph-name="ij" unicode="ij" horiz-adv-x="469" 
d="M69 0v500h100v-500h-100zM69 603v97h100v-97h-100zM202 -142q16 -6 36 -6q21 0 33.5 7.5t18.5 19.5t8 28t2 33v560h101v-572q0 -33 -6.5 -61t-21.5 -49t-39.5 -33t-60.5 -12q-20 0 -39 1.5t-38 6.5zM300 603v97h101v-97h-101z" />
    <glyph glyph-name="f_f" unicode="ff" horiz-adv-x="664" 
d="M114 0v428h-95v72h95v58q0 31 5.5 61.5t21 55.5t44.5 40.5t76 15.5q19 0 40.5 -2t38.5 -9l-6 -72q-23 9 -49 9t-40 -11t-20.5 -27t-8 -32.5t-1.5 -26.5v-60h110v-72h-109v-428h-102zM441 0v428h-95v72h95v58q0 31 5.5 61.5t21 55.5t44.5 40.5t76 15.5q19 0 40.5 -2
t38.5 -9l-6 -72q-23 9 -49 9t-40 -11t-20.5 -27t-8 -32.5t-1.5 -26.5v-60h110v-72h-109v-428h-102z" />
    <glyph glyph-name="fi" unicode="fi" horiz-adv-x="566" 
d="M114 0v428h-95v72h95v58q0 31 5.5 61.5t21 55.5t44.5 40.5t76 15.5q19 0 40.5 -2t38.5 -9l-6 -72q-23 9 -49 9t-40 -11t-20.5 -27t-8 -32.5t-1.5 -26.5v-60h110v-72h-109v-428h-102zM397 0v500h100v-500h-100zM397 603v97h100v-97h-100z" />
    <glyph glyph-name="fl" unicode="fl" horiz-adv-x="566" 
d="M114 0v428h-95v72h95v58q0 31 5.5 61.5t21 55.5t44.5 40.5t76 15.5q19 0 40.5 -2t38.5 -9l-6 -72q-23 9 -49 9t-40 -11t-20.5 -27t-8 -32.5t-1.5 -26.5v-60h110v-72h-109v-428h-102zM397 0v721h100v-721h-100z" />
    <glyph glyph-name="f_f_i" unicode="ffi" horiz-adv-x="892" 
d="M114 0v428h-95v72h95v58q0 31 5.5 61.5t21 55.5t44.5 40.5t76 15.5q19 0 40.5 -2t38.5 -9l-6 -72q-23 9 -49 9t-40 -11t-20.5 -27t-8 -32.5t-1.5 -26.5v-60h110v-72h-109v-428h-102zM441 0v428h-95v72h95v58q0 31 5.5 61.5t21 55.5t44.5 40.5t76 15.5q19 0 40.5 -2
t38.5 -9l-6 -72q-23 9 -49 9t-40 -11t-20.5 -27t-8 -32.5t-1.5 -26.5v-60h110v-72h-109v-428h-102zM724 0v500h100v-500h-100zM724 603v97h100v-97h-100z" />
    <glyph glyph-name="f_f_l" unicode="ffl" horiz-adv-x="892" 
d="M114 0v428h-95v72h95v58q0 31 5.5 61.5t21 55.5t44.5 40.5t76 15.5q19 0 40.5 -2t38.5 -9l-6 -72q-23 9 -49 9t-40 -11t-20.5 -27t-8 -32.5t-1.5 -26.5v-60h110v-72h-109v-428h-102zM441 0v428h-95v72h95v58q0 31 5.5 61.5t21 55.5t44.5 40.5t76 15.5q19 0 40.5 -2
t38.5 -9l-6 -72q-23 9 -49 9t-40 -11t-20.5 -27t-8 -32.5t-1.5 -26.5v-60h110v-72h-109v-428h-102zM724 0v721h100v-721h-100z" />
    <glyph glyph-name=".notdef" horiz-adv-x="512" 
d="M50 50h412v617h-412v-617zM0 0v718h512v-718h-512zM216 241v9q0 31 8.5 53t20.5 39.5t27 32.5t27 30.5t20.5 35t8.5 45.5q0 33 -22 55t-60 22q-25 0 -49.5 -5.5t-48.5 -15.5l-4 47q25 10 49 15t53 5q60 0 97 -32t37 -92q0 -29 -8.5 -50t-21.5 -38t-28.5 -32t-28.5 -31.5
t-21.5 -36t-8.5 -45.5v-11h-47zM210 117v64h59v-64h-59z" />
    <glyph glyph-name=".null" horiz-adv-x="0" 
 />
    <glyph glyph-name="nonmarkingreturn" unicode="&#xd;" horiz-adv-x="281" 
 />
    <glyph glyph-name="NULL" horiz-adv-x="0" 
 />
    <glyph glyph-name="NULL" horiz-adv-x="0" 
 />
    <glyph glyph-name="space" unicode=" " horiz-adv-x="281" 
 />
    <glyph glyph-name="exclam" unicode="!" horiz-adv-x="278" 
d="M86 0v103h107v-103h-107zM98 179l-17 488h117l-17 -488h-83z" />
    <glyph glyph-name="quotedbl" unicode="&#x22;" horiz-adv-x="438" 
d="M100 459v208h81v-208h-81zM258 459v208h81v-208h-81z" />
    <glyph glyph-name="numbersign" unicode="#" horiz-adv-x="562" 
d="M191 267h160l21 134h-160zM84 0l30 203h-80v64h89l21 134h-79v64h89l30 202h68l-31 -202h161l30 202h68l-30 -202h79v-64h-89l-21 -134h79v-64h-88l-30 -203h-68l30 203h-161l-30 -203h-67z" />
    <glyph glyph-name="dollar" unicode="$" horiz-adv-x="562" 
d="M242 -108v97q-42 1 -83 7.5t-79 21.5l5 93q36 -21 78.5 -30.5t85.5 -9.5q27 0 52 6t44 19.5t30.5 34.5t11.5 51q0 21 -10.5 37.5t-27 30.5t-38 25.5t-43.5 22.5l-69 34q-24 12 -46.5 27.5t-40 35t-27.5 44t-10 56.5q0 41 14.5 71.5t39 52.5t57 35t67.5 19v101h67v-97
q73 0 138 -21l-6 -88q-28 14 -63.5 20.5t-70.5 6.5q-24 0 -48.5 -4.5t-44.5 -15.5t-32.5 -29t-12.5 -46q0 -19 9 -34t23 -27t32.5 -22t36.5 -19l70 -34q27 -13 52.5 -29t45.5 -37t32.5 -49t12.5 -64q0 -43 -14.5 -76t-40 -57t-59 -38.5t-72.5 -20.5v-101h-66z" />
    <glyph glyph-name="percent" unicode="%" horiz-adv-x="950" 
d="M163 374q9 -22 25 -36t45 -14q28 0 44.5 14t24.5 36t10.5 48t2.5 49q0 25 -2.5 51t-10.5 47.5t-24.5 35t-44.5 13.5q-27 0 -43.5 -14t-25 -35.5t-11 -47.5t-2.5 -50t2 -49.5t10 -47.5zM649 98q8 -22 24 -36t45 -14q28 0 44 14t24.5 36t10.5 48t2 49q0 25 -2 51
t-10.5 47.5t-24.5 35t-44 13.5q-27 0 -43.5 -14t-24.5 -35.5t-10.5 -47.5t-2.5 -50t2 -49.5t10 -47.5zM153 283q-47 29 -64.5 80t-17.5 108q0 36 7.5 73t26.5 66.5t50 48t78 18.5t78.5 -18.5t50 -48t26 -66.5t7.5 -73q0 -37 -7.5 -73.5t-26 -66t-49.5 -48t-79 -18.5
q-49 0 -80 18zM229 -24l424 715h70l-424 -715h-70zM638 7q-47 29 -64.5 80t-17.5 108q0 36 7.5 73t26.5 66.5t50 48t78 18.5t78.5 -18.5t50 -48t26 -66.5t7.5 -73q0 -37 -7.5 -73.5t-26 -66t-49.5 -48t-79 -18.5q-49 0 -80 18z" />
    <glyph glyph-name="ampersand" unicode="&#x26;" horiz-adv-x="670" 
d="M324 309q-35 0 -65.5 -6.5t-53.5 -21.5t-36.5 -39.5t-13.5 -59.5t14 -57.5t37.5 -35.5t54 -18.5t63.5 -5.5q32 0 61 4t61 14v226h-122zM546 19q-21 -6 -49 -11.5t-58 -9.5t-60 -6.5t-55 -2.5q-54 0 -103 9t-87 31t-60.5 58.5t-22.5 91.5q0 35 12.5 64t34.5 50.5
t51.5 34.5t64.5 16q-70 7 -107.5 46.5t-37.5 103.5q0 45 20.5 79.5t55 57.5t80.5 34.5t97 11.5q46 0 88 -7t80 -20l-4 -83q-78 35 -165 35q-29 0 -56 -7t-48.5 -20.5t-34.5 -34t-13 -47.5q0 -33 12 -54.5t32.5 -34t49 -17.5t61.5 -5h122v71h100v-71h105v-73h-105v-290z" />
    <glyph glyph-name="quotesingle" unicode="'" horiz-adv-x="281" 
d="M100 459v208h81v-208h-81z" />
    <glyph glyph-name="parenleft" unicode="(" horiz-adv-x="281" 
d="M202 -128q-31 48 -58.5 98.5t-48.5 103.5t-33 108.5t-12 114.5q0 58 12 113.5t33 108.5t48.5 103.5t58.5 98.5h75q-26 -50 -50 -100.5t-42.5 -103.5t-29.5 -108t-11 -112t10.5 -112t29 -108.5t42.5 -104.5t51 -100h-75z" />
    <glyph glyph-name="parenright" unicode=")" horiz-adv-x="281" 
d="M5 -128q27 49 51.5 100t42.5 104.5t29 108.5t11 112t-11 112t-29.5 108t-42.5 103.5t-51 100.5h75q30 -48 57.5 -98.5t48.5 -103t33.5 -108t12.5 -114.5t-12 -114.5t-33 -108.5t-48.5 -103.5t-58.5 -98.5h-75z" />
    <glyph glyph-name="asterisk" unicode="*" horiz-adv-x="414" 
d="M83 375l78 108l-119 35l23 74l115 -53l-11 128h78l-11 -128l114 53l23 -74l-118 -35l76 -108l-64 -40l-59 114l-60 -114z" />
    <glyph glyph-name="plus" unicode="+" horiz-adv-x="562" 
d="M26 211v78h214v211h82v-211h215v-78h-215v-211h-82v211h-214z" />
    <glyph glyph-name="comma" unicode="," horiz-adv-x="281" 
d="M35 -128l58 231h104l-88 -231h-74z" />
    <glyph glyph-name="hyphen" unicode="-" horiz-adv-x="326" 
d="M40 269v82h246v-82h-246z" />
    <glyph glyph-name="period" unicode="." horiz-adv-x="281" 
d="M87 0v103h107v-103h-107z" />
    <glyph glyph-name="slash" unicode="/" horiz-adv-x="301" 
d="M-23 0l262 667h86l-262 -667h-86z" />
    <glyph glyph-name="zero" unicode="0" horiz-adv-x="562" 
d="M169 160q13 -40 39.5 -66t72.5 -26q45 0 71.5 26.5t40 66t17 86t3.5 86.5q0 42 -3.5 88.5t-17 86t-40 65t-71.5 25.5t-71.5 -26t-40 -65t-17 -85.5t-3.5 -88.5t3.5 -87.5t16.5 -85.5zM161 20q-35 22 -58.5 57t-37 77t-19 88t-5.5 91q0 59 11 120.5t38 111t73.5 81
t117.5 31.5t117.5 -31.5t73.5 -81.5t38 -111t11 -120t-10.5 -120.5t-37.5 -111t-73.5 -81t-118.5 -31.5q-74 0 -120 31z" />
    <glyph glyph-name="one" unicode="1" horiz-adv-x="562" 
d="M266 0v556l-119 -96l-43 72l175 135h92v-667h-105z" />
    <glyph glyph-name="two" unicode="2" horiz-adv-x="562" 
d="M49 0v82l138 143q24 24 55 54t59 63.5t47 70t19 72.5q0 26 -10.5 46.5t-28 34.5t-40 21t-47.5 7q-45 0 -85.5 -13t-78.5 -32l-5 86q43 18 88.5 30t93.5 12q44 0 84 -10.5t70.5 -32.5t48.5 -56.5t18 -83.5q0 -45 -21 -87t-51.5 -81t-65.5 -74t-63 -66l-97 -105h309v-81
h-437z" />
    <glyph glyph-name="three" unicode="3" horiz-adv-x="562" 
d="M53 101q38 -16 81.5 -23t81.5 -7q33 0 63 7.5t52.5 23t36 40t13.5 59.5q0 32 -13.5 53t-36 33.5t-51 17.5t-58.5 5h-88v75h75q35 0 64.5 5.5t51.5 19t34 35t12 54.5q0 28 -13 47.5t-33.5 30.5t-47 16t-53.5 5q-36 0 -76.5 -8.5t-76.5 -23.5l-6 82q85 29 174 29
q44 0 87 -8.5t76.5 -28t54.5 -52t21 -80.5q0 -64 -38 -103.5t-98 -54.5q31 -4 58 -16t47 -31t32 -45t12 -58q0 -56 -23.5 -96t-61.5 -65.5t-87.5 -37.5t-101.5 -12q-46 0 -87 6t-83 20z" />
    <glyph glyph-name="four" unicode="4" horiz-adv-x="562" 
d="M26 147v92l299 428h119v-440h96v-80h-96v-147h-103v147h-315zM110 226h232v345z" />
    <glyph glyph-name="five" unicode="5" horiz-adv-x="562" 
d="M72 102q34 -15 69 -22t70 -7q32 0 63.5 6.5t56 23t40 43t15.5 67.5q0 36 -13 60t-35.5 38.5t-52 21t-61.5 6.5t-65.5 -5.5t-75.5 -18.5l6 352h375v-79h-277l-6 -186q20 5 42 7.5t44 2.5q45 0 86.5 -10.5t73 -33.5t50.5 -59.5t19 -88.5q0 -60 -23 -103.5t-61.5 -72
t-88 -42t-101.5 -13.5q-37 0 -77.5 5.5t-78.5 19.5z" />
    <glyph glyph-name="six" unicode="6" horiz-adv-x="562" 
d="M485 577q-29 11 -59 16t-62 5q-56 0 -96 -21t-65.5 -56t-37.5 -80.5t-12 -94.5q12 19 30 33t39 24t44 15t45 5q99 0 156 -56t57 -155q0 -52 -18 -93.5t-50 -70t-75 -44t-94 -15.5q-71 0 -116.5 28t-72.5 73.5t-37.5 103t-10.5 116.5q0 76 18 143t56 116.5t97 78.5t142 29
q62 0 128 -17zM192 112q16 -21 40 -34t56 -13q64 0 99 39t35 102q0 61 -30.5 101t-95.5 40q-27 0 -51 -8.5t-43 -25t-30 -40.5t-11 -55q0 -61 31 -106z" />
    <glyph glyph-name="seven" unicode="7" horiz-adv-x="562" 
d="M121 0l269 580h-338v87h444v-86l-255 -581h-120z" />
    <glyph glyph-name="eight" unicode="8" horiz-adv-x="562" 
d="M79 286q41 41 106 60q-57 22 -91 57.5t-34 99.5q0 46 21.5 79t54 54t71.5 31t74 10q38 0 77.5 -9t71.5 -29.5t52.5 -53.5t20.5 -82q0 -30 -11 -54t-29.5 -43t-41.5 -33.5t-47 -24.5q34 -11 62 -25.5t47.5 -34.5t30 -47.5t10.5 -65.5q0 -50 -22 -85.5t-57 -58t-78.5 -32.5
t-85.5 -10q-43 0 -86 10t-77.5 32t-56.5 57t-22 85q0 73 40 113zM236 399q24 -11 46 -18q22 8 44 19t38.5 25.5t27 33.5t10.5 45t-10.5 45t-27.5 31t-39 18t-44 6q-23 0 -44.5 -6.5t-38 -19.5t-27 -32t-10.5 -44q0 -39 21.5 -62.5t53.5 -40.5zM333 294q-27 13 -52 21
q-30 -8 -55 -19.5t-43.5 -28t-29 -38.5t-10.5 -50q0 -29 11 -50t30 -35.5t44 -21.5t53 -7t53 7t44 21t30.5 35.5t11.5 50.5q0 43 -24.5 70.5t-62.5 44.5z" />
    <glyph glyph-name="nine" unicode="9" horiz-adv-x="562" 
d="M78 89q29 -11 59 -16t62 -5q56 0 96 21t65.5 56t37.5 80.5t12 94.5q-12 -19 -30 -33.5t-39 -24t-44 -14.5t-45 -5q-99 0 -156 56t-57 155q0 52 18 93.5t50 70t75 44t94 15.5q70 0 116 -28t73 -73.5t37.5 -103t10.5 -116.5q0 -76 -18 -143t-56 -116.5t-97.5 -78.5
t-141.5 -29q-62 0 -128 17zM171 359q31 -40 96 -40q27 0 51 8.5t43 25t30 40.5t11 55q0 29 -8 56.5t-23.5 49t-39.5 34.5t-56 13q-64 0 -99 -39t-35 -102q0 -61 30 -101z" />
    <glyph glyph-name="colon" unicode=":" horiz-adv-x="281" 
d="M87 0v103h107v-103h-107zM87 398v102h107v-102h-107z" />
    <glyph glyph-name="semicolon" unicode=";" horiz-adv-x="281" 
d="M35 -128l58 231h104l-88 -231h-74zM87 398v102h106v-102h-106z" />
    <glyph glyph-name="less" unicode="&#x3c;" horiz-adv-x="562" 
d="M26 207v84l511 204v-85l-417 -161l417 -160v-84z" />
    <glyph glyph-name="equal" unicode="=" horiz-adv-x="562" 
d="M26 111v77h511v-77h-511zM26 310v78h511v-78h-511z" />
    <glyph glyph-name="greater" unicode="&#x3e;" horiz-adv-x="562" 
d="M26 5v84l416 160l-416 161v85l510 -204v-84z" />
    <glyph glyph-name="question" unicode="?" horiz-adv-x="426" 
d="M123 0v103h107v-103h-107zM131 179v13q0 43 11.5 73.5t28 53.5t36.5 42t36.5 38.5t28 43t11.5 56.5q0 24 -9.5 41.5t-25 29.5t-36 18t-42.5 6q-35 0 -69 -8t-66 -19l-6 83q38 11 74.5 19t83.5 8q40 0 76.5 -10t64.5 -30.5t45 -52t17 -74.5q0 -38 -12.5 -66.5t-31 -51.5
t-40.5 -43t-40.5 -42.5t-31 -49.5t-12.5 -63v-15h-91z" />
    <glyph glyph-name="at" unicode="@" horiz-adv-x="1055" 
d="M849 -171q-37 -15 -73 -25.5t-73.5 -17t-77.5 -10t-85 -3.5q-107 0 -195 31.5t-150.5 89.5t-96.5 140.5t-34 185.5q0 114 38 208.5t106 161.5t160.5 104t202.5 37q90 0 166.5 -27t133 -78.5t88.5 -126.5t32 -172q0 -74 -20.5 -136t-55.5 -107t-82 -70t-100 -25
q-51 0 -84.5 28t-37.5 89q-68 -117 -174 -117q-67 0 -109 45t-42 126q0 72 23 135.5t65.5 111.5t103 75.5t134.5 27.5q33 0 66.5 -4.5t78.5 -17.5l-67 -314q-2 -11 -3.5 -25.5t-1.5 -22.5q0 -32 15 -51t47 -19q31 0 60.5 19t51.5 54.5t35.5 85t13.5 110.5q0 83 -26.5 145.5
t-73 104t-109.5 62.5t-136 21q-89 0 -164.5 -31.5t-130.5 -89t-86.5 -138t-31.5 -178.5q0 -88 28 -157.5t80 -118t126 -74t167 -25.5q79 0 147 14t142 46zM659 431q-19 5 -31 6t-29 1q-52 0 -93 -24t-70 -62.5t-44.5 -87t-15.5 -97.5q0 -51 22 -78.5t64 -27.5q28 0 53 14.5
t45.5 39.5t35.5 59t23 72z" />
    <glyph glyph-name="A" unicode="A" horiz-adv-x="662" 
d="M201 255h255l-127 335zM2 0l260 667h137l262 -667h-114l-64 175h-309l-66 -175h-106z" />
    <glyph glyph-name="B" unicode="B" horiz-adv-x="582" 
d="M186 75h70q29 0 58.5 4.5t53 17.5t38.5 35.5t15 57.5q0 38 -15.5 61.5t-40.5 36.5t-56 17.5t-62 4.5h-61v-235zM186 380h72q28 0 54.5 5.5t47 18t33 34t12.5 54.5q0 28 -11.5 47.5t-30 31t-42 16.5t-48.5 5h-87v-212zM80 0v667h217q41 0 80 -8t69.5 -27t49 -50.5
t18.5 -79.5q0 -63 -34.5 -101.5t-94.5 -52.5q63 -11 105 -51.5t42 -107.5q0 -59 -22.5 -95.5t-59.5 -57.5t-83.5 -28.5t-95.5 -7.5h-191z" />
    <glyph glyph-name="C" unicode="C" horiz-adv-x="595" 
d="M562 18q-35 -16 -79.5 -22.5t-83.5 -6.5q-80 0 -145 23.5t-111 68t-71.5 108.5t-25.5 144q0 76 26.5 139.5t73.5 109t111.5 70.5t141.5 25q38 0 82 -6t79 -19l-6 -88q-31 14 -69.5 21t-73.5 7q-59 0 -105.5 -19.5t-78.5 -54t-49.5 -82t-17.5 -103.5q0 -58 16.5 -105.5
t48.5 -81.5t78 -53t106 -19q38 0 75.5 6.5t71.5 22.5z" />
    <glyph glyph-name="D" unicode="D" horiz-adv-x="672" 
d="M80 0v667h205q161 0 251 -80t90 -244q0 -87 -27 -151.5t-76 -107t-117.5 -63.5t-150.5 -21h-175zM189 81h55q129 0 198.5 64.5t69.5 197.5q0 115 -60 179t-178 64h-85v-505z" />
    <glyph glyph-name="E" unicode="E" horiz-adv-x="517" 
d="M80 0v667h383v-81h-276v-205h263v-80h-263v-220h286v-81h-393z" />
    <glyph glyph-name="F" unicode="F" horiz-adv-x="489" 
d="M80 0v667h374v-81h-265v-210h254v-79h-254v-297h-109z" />
    <glyph glyph-name="G" unicode="G" horiz-adv-x="681" 
d="M615 30q-54 -21 -103.5 -31t-107.5 -10q-80 0 -145.5 23.5t-113 68t-73.5 108.5t-26 144q0 77 28 140.5t77.5 108.5t117 70t146.5 25q46 0 95 -6.5t92 -23.5l-6 -90q-39 20 -84 28.5t-90 8.5q-59 0 -107.5 -19t-83 -53.5t-53 -82.5t-18.5 -106q0 -56 16 -103.5
t47.5 -82.5t78 -54.5t106.5 -19.5q31 0 55 3t52 11v207h-141v77h241v-341z" />
    <glyph glyph-name="H" unicode="H" horiz-adv-x="676" 
d="M80 0v667h109v-279h299v279h109v-667h-109v298h-299v-298h-109z" />
    <glyph glyph-name="I" unicode="I" horiz-adv-x="268" 
d="M80 0v667h109v-667h-109z" />
    <glyph glyph-name="J" unicode="J" horiz-adv-x="344" 
d="M10 87q14 -6 28 -8t29 -2q27 0 45 9.5t29.5 25t16.5 36.5t5 44v475h109v-486q0 -43 -11 -78t-32.5 -60.5t-54.5 -39.5t-78 -14q-48 0 -91 15z" />
    <glyph glyph-name="K" unicode="K" horiz-adv-x="619" 
d="M80 0v667h109v-295l269 295h132l-301 -312l327 -355h-140l-287 326v-326h-109z" />
    <glyph glyph-name="L" unicode="L" horiz-adv-x="484" 
d="M80 0v667h109v-577h277v-90h-386z" />
    <glyph glyph-name="M" unicode="M" horiz-adv-x="898" 
d="M80 0v667h164l206 -548l204 548h165v-667h-103v589l-219 -589h-99l-220 589v-589h-98z" />
    <glyph glyph-name="N" unicode="N" horiz-adv-x="703" 
d="M80 0v667h156l289 -568v568h99v-667h-157l-289 568v-568h-98z" />
    <glyph glyph-name="O" unicode="O" horiz-adv-x="716" 
d="M206 156q24 -37 61 -61t91 -24q55 0 92.5 23.5t61 61t34 84t10.5 93.5q0 46 -10.5 93t-34 84.5t-61 61t-92.5 23.5q-54 0 -91.5 -24t-61 -61.5t-34.5 -84t-11 -92.5t11 -92.5t35 -84.5zM221 15q-88 39 -131.5 122.5t-43.5 195.5q0 72 20 134.5t59.5 109t97.5 73.5t135 27
q78 0 136.5 -26t97.5 -72t58.5 -109t19.5 -137q0 -73 -20 -135.5t-59 -109t-97.5 -73t-135.5 -26.5t-137 26z" />
    <glyph glyph-name="P" unicode="P" horiz-adv-x="549" 
d="M80 0v667h189q50 0 96 -9t81 -31t56 -59t21 -93q0 -58 -21 -98t-56.5 -64.5t-83 -35.5t-100.5 -11h-75v-266h-107zM187 346h51q33 0 64.5 4.5t56 18t39 39t14.5 66.5q0 31 -12 53t-32 35.5t-47.5 19.5t-58.5 6h-75v-242z" />
    <glyph glyph-name="Q" unicode="Q" horiz-adv-x="716" 
d="M206 156q24 -37 61 -61t91 -24q55 0 92.5 23.5t61 61t34 84t10.5 93.5q0 46 -10.5 93t-34 84.5t-61 61t-92.5 23.5q-54 0 -91.5 -24t-61 -61.5t-34.5 -84t-11 -92.5t11 -92.5t35 -84.5zM514 -128l-113 120q-20 -3 -43 -3q-78 0 -136.5 26t-97.5 72t-58.5 109t-19.5 137
q0 72 20 134.5t59.5 109t97.5 73.5t135 27q78 0 136.5 -26t97.5 -72t58.5 -109t19.5 -137q0 -52 -10 -100t-30.5 -89t-51.5 -73t-73 -51l141 -148h-132z" />
    <glyph glyph-name="R" unicode="R" horiz-adv-x="583" 
d="M80 0v667h198q44 0 87 -7t77 -26t55 -52.5t21 -86.5q0 -33 -12 -60.5t-33 -48t-49 -34t-59 -18.5q35 -5 59 -29.5t39 -61.5l99 -243h-119l-82 207q-10 25 -20.5 42t-24 27t-31.5 14t-44 4h-54v-294h-107zM187 374h68q27 0 54.5 5.5t49 19t35 35t13.5 53.5t-12 52t-32 31
t-47 14.5t-57 3.5h-72v-214z" />
    <glyph glyph-name="S" unicode="S" horiz-adv-x="513" 
d="M63 109q39 -20 77.5 -29t83.5 -9q24 0 47 6t41 19t29 34t11 51q0 24 -9.5 41.5t-25 31.5t-36.5 25t-44 22l-52 25q-24 12 -46 26.5t-38 34t-25.5 45t-9.5 59.5q0 49 19.5 84.5t51 58t70.5 33t78 10.5q82 0 151 -21l-6 -88q-32 14 -68.5 20.5t-70.5 6.5q-21 0 -42.5 -5
t-38.5 -16.5t-28 -30t-11 -46.5q0 -21 7.5 -36t20.5 -27t30 -21.5t35 -18.5l55 -25q30 -14 55.5 -29.5t44.5 -36.5t30 -49t11 -67q0 -51 -18 -88.5t-49.5 -61.5t-73.5 -36t-90 -12q-39 0 -83.5 6.5t-87.5 20.5z" />
    <glyph glyph-name="T" unicode="T" horiz-adv-x="535" 
d="M213 0v577h-203v90h516v-90h-204v-577h-109z" />
    <glyph glyph-name="U" unicode="U" horiz-adv-x="670" 
d="M181 242q0 -36 9.5 -67t28.5 -53.5t48 -35t68 -12.5t68 12.5t48.5 35t29 53t9.5 67.5v425h109v-424q0 -60 -19.5 -107.5t-54.5 -80t-84 -49.5t-107 -17q-59 0 -107 16.5t-82.5 48.5t-53.5 78.5t-19 107.5v427h109v-425z" />
    <glyph glyph-name="V" unicode="V" horiz-adv-x="625" 
d="M250 0l-247 667h116l196 -562l198 562h110l-250 -667h-123z" />
    <glyph glyph-name="W" unicode="W" horiz-adv-x="951" 
d="M195 0l-186 667h108l147 -563l157 563h118l155 -563l148 563h100l-185 -667h-124l-156 564l-157 -564h-125z" />
    <glyph glyph-name="X" unicode="X" horiz-adv-x="636" 
d="M6 0l245 349l-221 318h125l170 -257l168 257h117l-222 -318l243 -349h-129l-185 289l-192 -289h-119z" />
    <glyph glyph-name="Y" unicode="Y" horiz-adv-x="599" 
d="M244 0v266l-246 401h120l185 -318l183 318h116l-249 -401v-266h-109z" />
    <glyph glyph-name="Z" unicode="Z" horiz-adv-x="523" 
d="M26 0v88l345 495h-333v84h451v-88l-340 -495h349v-84h-472z" />
    <glyph glyph-name="bracketleft" unicode="[" horiz-adv-x="287" 
d="M85 -128v849h190v-66h-102v-716h102v-67h-190z" />
    <glyph glyph-name="backslash" unicode="\" horiz-adv-x="301" 
d="M239 0l-262 667h86l262 -667h-86z" />
    <glyph glyph-name="bracketright" unicode="]" horiz-adv-x="287" 
d="M13 -128v67h102v716h-102v66h190v-849h-190z" />
    <glyph glyph-name="asciicircum" unicode="^" horiz-adv-x="562" 
d="M71 245l172 422h77l172 -422h-87l-125 326l-122 -326h-87z" />
    <glyph glyph-name="underscore" unicode="_" horiz-adv-x="500" 
d="M0 -125v50h500v-50h-500z" />
    <glyph glyph-name="grave" unicode="`" horiz-adv-x="237" 
d="M93 584l-104 136h108l72 -136h-76z" />
    <glyph glyph-name="a" unicode="a" horiz-adv-x="517" 
d="M358 0l-3 79q-23 -42 -63 -66t-94 -24q-34 0 -64 8.5t-52.5 26.5t-36 46t-13.5 67q0 49 20.5 81.5t56.5 52t84 28t103 8.5h27.5t28.5 -1v21q0 55 -27 84t-87 29q-38 0 -75.5 -9.5t-71.5 -30.5l-6 77q35 14 79.5 23.5t82.5 9.5q97 0 150 -44.5t53 -145.5v-209
q0 -32 1.5 -58.5t4.5 -52.5h-98zM325 245q-37 0 -72 -3.5t-62 -14.5t-43.5 -31t-16.5 -53q0 -43 25.5 -62t65.5 -19q34 0 58.5 12.5t40.5 34t23.5 49.5t7.5 60v27h-27z" />
    <glyph glyph-name="b" unicode="b" horiz-adv-x="565" 
d="M193 129q15 -27 39.5 -45t60.5 -18q38 0 62.5 17.5t38.5 44.5t19.5 60t5.5 64t-5 63t-19 58.5t-38 43t-63 16.5q-36 0 -60.5 -17t-39.5 -43.5t-21.5 -58.5t-6.5 -62t6 -62.5t21 -60.5zM69 0v721h100v-304q19 45 62 69t91 24q57 0 96 -21.5t63.5 -57.5t35 -82.5
t10.5 -96.5t-11 -97t-36 -84t-64 -59.5t-96 -22.5q-52 0 -92.5 23t-64.5 71l-2 -83h-92z" />
    <glyph glyph-name="c" unicode="c" horiz-adv-x="457" 
d="M426 8q-30 -11 -60.5 -15t-65.5 -4q-65 0 -113.5 19.5t-81.5 54.5t-49.5 83.5t-16.5 105.5q0 58 19 105.5t53.5 81.5t83 52.5t107.5 18.5q33 0 63 -3t62 -14l-6 -80q-45 22 -105 22q-41 0 -72.5 -14t-53 -38.5t-32.5 -58t-11 -72.5q0 -38 10.5 -71.5t32.5 -59.5t55 -41
t77 -15q28 0 51 5.5t48 16.5z" />
    <glyph glyph-name="d" unicode="d" horiz-adv-x="565" 
d="M172 128q14 -27 38.5 -44.5t62.5 -17.5q36 0 60.5 18t39.5 45t21 59.5t6 62.5t-6.5 62t-21.5 59t-39.5 44t-60.5 17q-39 0 -63 -16.5t-38 -43t-19 -59t-5 -63.5t5.5 -63.5t19.5 -59.5zM409 0l-6 83q-23 -48 -64 -71t-93 -23q-57 0 -96 22.5t-64 59.5t-36 84t-11 97
t11 96.5t36 82.5t64 57.5t96 21.5q48 0 90 -24t61 -69v304h100v-571q0 -42 1.5 -78.5t3.5 -71.5h-93z" />
    <glyph glyph-name="e" unicode="e" horiz-adv-x="510" 
d="M142 228q0 -35 10.5 -65.5t31.5 -53.5t52.5 -36.5t72.5 -13.5q34 0 69.5 7.5t65.5 23.5l6 -74q-35 -14 -74 -20.5t-81 -6.5q-63 0 -111 19t-80.5 54t-48.5 83t-16 107q0 51 15.5 98t45 82.5t72 56.5t96.5 21q59 0 99 -19.5t64.5 -53.5t35 -80t10.5 -99v-30h-335zM381 290
q0 28 -5 55.5t-17.5 48.5t-34 34t-55.5 13q-32 0 -55.5 -13.5t-39.5 -35t-24 -48.5t-9 -54h240z" />
    <glyph glyph-name="f" unicode="f" horiz-adv-x="337" 
d="M114 0v428h-95v72h95v58q0 31 5.5 61.5t21 55.5t44.5 40.5t76 15.5q19 0 40.5 -2t38.5 -9l-6 -72q-23 9 -49 9t-40 -11t-20.5 -27t-8 -32.5t-1.5 -26.5v-60h110v-72h-109v-428h-102z" />
    <glyph glyph-name="g" unicode="g" horiz-adv-x="565" 
d="M172 134q14 -25 38 -41t62 -16q36 0 60.5 16.5t39.5 42t21.5 56t6.5 59.5q0 30 -6 62t-21 59t-39.5 44t-60.5 17q-39 0 -63.5 -16.5t-38.5 -43t-19 -59t-5 -63.5q0 -29 5.5 -60t19.5 -57zM85 -115q33 -17 71.5 -26.5t77.5 -9.5q43 0 74 13t51 36.5t29 56.5t9 73v59
q-24 -42 -65.5 -64.5t-89.5 -22.5q-55 0 -93.5 22t-63 57.5t-35.5 80.5t-11 92q0 50 11 96.5t36 82.5t63.5 57.5t94.5 21.5q52 0 92.5 -22.5t64.5 -70.5v83h96v-472q0 -123 -61 -189t-187 -66q-43 0 -85.5 7t-84.5 20z" />
    <glyph glyph-name="h" unicode="h" horiz-adv-x="559" 
d="M69 0v721h100v-304q46 93 155 93q45 0 76.5 -14.5t52 -40t29.5 -61t9 -78.5v-316h-101v295q0 27 -3.5 51.5t-14 43.5t-30 30.5t-51.5 11.5q-35 0 -58 -14t-37.5 -36.5t-20.5 -51t-6 -57.5v-273h-100z" />
    <glyph glyph-name="i" unicode="i" horiz-adv-x="237" 
d="M69 0v500h100v-500h-100zM69 603v97h100v-97h-100z" />
    <glyph glyph-name="j" unicode="j" horiz-adv-x="243" 
d="M-24 -142q16 -6 36 -6q21 0 33.5 7.5t18.5 19.5t8 28t2 33v560h101v-572q0 -33 -6.5 -61t-21.5 -49t-39.5 -33t-60.5 -12q-20 0 -39 1.5t-38 6.5zM74 603v97h101v-97h-101z" />
    <glyph glyph-name="k" unicode="k" horiz-adv-x="517" 
d="M69 0v721h100v-427l199 206h122l-219 -222l242 -278h-126l-218 258v-258h-100z" />
    <glyph glyph-name="l" unicode="l" horiz-adv-x="237" 
d="M69 0v721h100v-721h-100z" />
    <glyph glyph-name="m" unicode="m" horiz-adv-x="839" 
d="M69 0v385q0 29 -1 57.5t-4 57.5h94l3 -86q49 96 153 96q60 0 97 -30t49 -72q9 23 25 42t36.5 32.5t44 20.5t47.5 7q81 0 119.5 -49.5t38.5 -127.5v-333h-101v321q0 22 -4 42.5t-14 35.5t-27.5 24t-43.5 9q-31 0 -52 -14t-34 -36.5t-19 -51t-6 -57.5v-273h-100v321
q0 22 -4 42.5t-14 35.5t-27.5 24t-43.5 9q-31 0 -52 -14t-34.5 -36.5t-19.5 -51t-6 -57.5v-273h-100z" />
    <glyph glyph-name="n" unicode="n" horiz-adv-x="559" 
d="M69 0v385q0 29 -1 57.5t-4 57.5h94l3 -86q52 96 162 96q46 0 78.5 -14t52 -39.5t28.5 -61.5t9 -79v-316h-101v295q0 26 -3.5 51t-14 44t-30 30.5t-51.5 11.5q-35 0 -58.5 -14t-37.5 -36.5t-20 -51t-6 -58.5v-272h-100z" />
    <glyph glyph-name="o" unicode="o" horiz-adv-x="570" 
d="M178 124q17 -26 43 -42.5t64 -16.5q37 0 63.5 16.5t43 42.5t24 59.5t7.5 68.5q0 33 -7 66t-23.5 59t-42.5 42t-65 16q-38 0 -64 -16t-42.5 -42.5t-24 -59t-7.5 -65.5q0 -34 7.5 -67.5t23.5 -60.5zM179 8q-69 30 -104.5 94t-35.5 150q0 57 17.5 104.5t49.5 81.5t77.5 53
t101.5 19q59 0 105 -18.5t77.5 -52t47.5 -81.5t16 -106q0 -57 -16 -105t-47.5 -83.5t-77.5 -55t-105 -19.5q-61 0 -106 19z" />
    <glyph glyph-name="p" unicode="p" horiz-adv-x="565" 
d="M193 129q15 -27 39.5 -45t60.5 -18q38 0 62.5 17.5t38.5 44.5t19.5 60t5.5 64t-5 63t-19 58.5t-38 43t-63 16.5q-36 0 -60.5 -17t-39.5 -43.5t-21.5 -58.5t-6.5 -62t6 -62.5t21 -60.5zM69 -216v558q0 45 -1.5 83t-3.5 75h95l4 -86q10 22 27 40t38 30.5t45.5 19t48.5 6.5
q57 0 96 -21.5t63.5 -57.5t35 -82.5t10.5 -96.5t-11 -97t-36 -84t-64 -59.5t-96 -22.5q-48 0 -90 23.5t-61 68.5v-297h-100z" />
    <glyph glyph-name="q" unicode="q" horiz-adv-x="565" 
d="M172 128q14 -27 38.5 -44.5t62.5 -17.5q36 0 60.5 18t39.5 45.5t21 60t6 62.5t-6.5 62t-21.5 58.5t-39.5 43.5t-60.5 17q-39 0 -63 -16.5t-38 -42.5t-19 -58.5t-5 -63.5t5.5 -64t19.5 -60zM397 -216v299q-19 -45 -61 -69.5t-90 -24.5q-57 0 -96 22.5t-64 59.5t-36 84
t-11 97t11 96.5t36 82.5t63.5 57.5t94.5 21.5q54 0 94.5 -22.5t64.5 -70.5l1 83h93v-716h-100z" />
    <glyph glyph-name="r" unicode="r" horiz-adv-x="352" 
d="M69 0v385q0 29 -1 57.5t-4 57.5h94l3 -96q8 20 21 39t30.5 34t39 24t45.5 9q11 0 21 -0.5t21 -3.5l-5 -95q-10 4 -20 5t-21 1q-37 0 -61 -17t-38 -43.5t-19.5 -58t-5.5 -60.5v-238h-100z" />
    <glyph glyph-name="s" unicode="s" horiz-adv-x="413" 
d="M47 90q32 -16 63 -23t66 -7q40 0 67.5 17t27.5 58q0 28 -16.5 45.5t-41.5 31t-54 25t-54 28.5t-41.5 42t-16.5 64q0 40 16 66.5t42 42.5t58.5 23t65.5 7q34 0 64 -5t59 -16l-6 -73q-57 23 -112 23q-17 0 -33 -2.5t-28.5 -9.5t-20.5 -19.5t-8 -31.5q0 -24 16.5 -39t42 -27
t54.5 -24t54.5 -30t42 -45.5t16.5 -69.5q0 -41 -17 -70t-44 -47t-61.5 -26.5t-68.5 -8.5q-37 0 -69 4.5t-69 16.5z" />
    <glyph glyph-name="t" unicode="t" horiz-adv-x="350" 
d="M330 6q-48 -17 -96 -17q-40 0 -65 13t-38.5 36t-18.5 54.5t-5 67.5v268h-92v72h92v108l101 33v-141h112v-72h-112v-280q0 -16 2.5 -30.5t9.5 -25.5t19 -17.5t31 -6.5q28 0 55 12z" />
    <glyph glyph-name="u" unicode="u" horiz-adv-x="555" 
d="M167 206q0 -26 3.5 -51t14 -44.5t30 -31t51.5 -11.5q34 0 57.5 14t37.5 36.5t20 51t6 58.5v272h100v-385q0 -29 1 -57.5t4 -57.5h-94l-3 85q-53 -96 -161 -96q-47 0 -78.5 14.5t-51.5 40.5t-28.5 62t-8.5 79v315h100v-294z" />
    <glyph glyph-name="v" unicode="v" horiz-adv-x="470" 
d="M173 0l-164 500h107l122 -418l122 418h102l-165 -500h-124z" />
    <glyph glyph-name="w" unicode="w" horiz-adv-x="805" 
d="M163 0l-152 500h105l115 -415l117 415h120l117 -415l114 415h95l-149 -500h-124l-116 416l-118 -416h-124z" />
    <glyph glyph-name="x" unicode="x" horiz-adv-x="486" 
d="M11 0l171 262l-154 238h113l108 -186l105 186h107l-152 -238l168 -262h-114l-119 208l-125 -208h-108z" />
    <glyph glyph-name="y" unicode="y" horiz-adv-x="469" 
d="M36 -143q24 -7 49 -7q38 0 57.5 25t35.5 76l10 31l-179 518h109l122 -411l120 411h102l-191 -567q-10 -29 -23 -57.5t-32 -51.5t-46.5 -37t-66.5 -14q-41 0 -73 7z" />
    <glyph glyph-name="z" unicode="z" horiz-adv-x="451" 
d="M30 0v81l278 347h-267v72h379v-81l-277 -346h279v-73h-392z" />
    <glyph glyph-name="braceleft" unicode="{" horiz-adv-x="289" 
d="M207 -128q-26 0 -45 10.5t-32.5 27.5t-20 39t-6.5 45v161q0 18 -3.5 37.5t-12 36t-23 27.5t-35.5 11v61q21 0 35.5 11t23 28t12 36.5t3.5 37.5v159q0 23 7 45t20 39t32.5 27t45.5 10h72v-59h-41q-15 0 -24.5 -8t-15 -20t-7.5 -26.5t-2 -26.5v-157q0 -21 -5.5 -41t-17 -37
t-28 -30t-37.5 -19q43 -12 65.5 -49t22.5 -79v-155q0 -12 2 -26.5t7.5 -27t15 -21t24.5 -8.5h41v-59h-73z" />
    <glyph glyph-name="bar" unicode="|" horiz-adv-x="215" 
d="M64 -216v991h88v-991h-88z" />
    <glyph glyph-name="braceright" unicode="}" horiz-adv-x="289" 
d="M9 -128v59h42q15 0 24 8.5t14.5 21t7.5 27t2 26.5v155q0 42 22.5 79t65.5 49q-42 12 -65 48.5t-23 78.5v157q0 12 -2 26t-7.5 26.5t-14.5 20.5t-24 8h-42v59h73q25 0 45 -10t33 -27t20 -39t7 -45v-159q0 -18 3.5 -37.5t12 -36.5t23 -28t35.5 -11v-61q-21 0 -35.5 -11
t-23 -27.5t-12 -36t-3.5 -37.5v-161q0 -23 -7 -45t-20 -39t-33 -27.5t-45 -10.5h-73z" />
    <glyph glyph-name="asciitilde" unicode="~" horiz-adv-x="562" 
d="M14 171q3 27 11.5 54.5t24.5 49.5t39 36t55 14q33 0 69.5 -11t72.5 -24.5t70 -24.5t64 -11q34 0 51 23t23 52h54q-2 -27 -10 -54.5t-23.5 -49t-38.5 -35.5t-55 -14q-34 0 -70 11t-72 24t-70.5 24t-64.5 11q-32 0 -51 -22.5t-23 -52.5h-56z" />
    <glyph glyph-name="uni00A0" unicode="&#xa0;" horiz-adv-x="281" 
 />
    <glyph glyph-name="exclamdown" unicode="&#xa1;" horiz-adv-x="278" 
d="M81 -167l17 488h83l17 -488h-117zM86 398v102h107v-102h-107z" />
    <glyph glyph-name="cent" unicode="&#xa2;" horiz-adv-x="562" 
d="M284 0v93q-47 6 -83.5 27t-61 53t-37.5 73.5t-13 89.5t13.5 88.5t39 72t61.5 52t81 27.5v91h59v-89q27 0 54.5 -6t54.5 -15l-6 -76q-23 11 -47 18t-49 7q-38 0 -67.5 -13t-49.5 -35.5t-30.5 -54t-10.5 -67.5q0 -35 10 -66t29.5 -55t48 -38t65.5 -14q48 0 102 23l6 -76
q-28 -10 -54.5 -15t-55.5 -5v-90h-59z" />
    <glyph glyph-name="sterling" unicode="&#xa3;" horiz-adv-x="562" 
d="M80 0v77h79v240h-75v75h75v55q0 105 53.5 167.5t170.5 62.5q29 0 63 -4.5t62 -15.5l-9 -80q-23 12 -49.5 16.5t-52.5 4.5q-43 0 -69.5 -13t-41 -34.5t-19.5 -50.5t-5 -60v-48h166v-75h-166v-240h237v-77h-419z" />
    <glyph glyph-name="currency" unicode="&#xa4;" horiz-adv-x="562" 
d="M153 279q17 -37 50.5 -61t77.5 -24q29 0 54.5 11t44 29.5t29.5 44t11 54.5q0 28 -11 53.5t-29.5 44.5t-44 30t-54.5 11t-54 -11t-44 -29.5t-29.5 -44t-10.5 -54.5q0 -30 10 -54zM94 94l-51 51l64 64q-20 29 -30 58.5t-10 65.5q0 68 40 124l-64 65l50 50l64 -65
q56 40 124 40q36 0 65.5 -9.5t59.5 -29.5l64 63l50 -50l-64 -64q19 -29 29.5 -59.5t10.5 -65.5q0 -67 -40 -122l64 -66l-50 -50l-65 65q-56 -41 -123 -41q-34 0 -65 11t-59 30z" />
    <glyph glyph-name="yen" unicode="&#xa5;" horiz-adv-x="562" 
d="M79 138v68h146v67h-146v68h113l-169 326h109l150 -309l151 309h107l-176 -326h118v-68h-152v-67h152v-68h-152v-138h-105v138h-146z" />
    <glyph glyph-name="brokenbar" unicode="&#xa6;" horiz-adv-x="215" 
d="M64 -216v397h88v-397h-88zM64 379v396h88v-396h-88z" />
    <glyph glyph-name="section" unicode="&#xa7;" horiz-adv-x="562" 
d="M94 -20q72 -31 157 -31q19 0 40.5 4.5t39.5 15t29.5 26.5t11.5 39q0 15 -7.5 26.5t-19 20.5t-26 16.5t-28.5 13.5l-107 45q-42 18 -71.5 50.5t-29.5 83.5q0 22 7.5 40.5t20 34.5t28 29.5t31.5 25.5q-32 17 -50 45t-18 66q0 39 17 66.5t44 45t61.5 26t69.5 8.5q45 0 79 -5
t73 -16l-6 -76q-28 11 -63 17.5t-64 6.5q-17 0 -36.5 -3.5t-36.5 -12t-28 -22t-11 -34.5q0 -18 6 -30t18 -21t28.5 -17t37.5 -17l88 -38q22 -10 41.5 -21t33 -25t21.5 -33.5t8 -47.5q0 -45 -21.5 -74t-53.5 -57q32 -22 47.5 -49.5t15.5 -67.5q0 -41 -19 -70.5t-49 -49
t-67 -29t-74 -9.5q-89 0 -174 27zM344 178q19 19 34.5 42.5t15.5 51.5q0 17 -7.5 29.5t-19 22t-26.5 16.5t-30 13l-81 33q-24 -14 -41 -37t-17 -52q0 -28 22 -45.5t49 -29.5z" />
    <glyph glyph-name="dieresis" unicode="&#xa8;" horiz-adv-x="237" 
d="M-8 603v97h83v-97h-83zM163 603v97h83v-97h-83z" />
    <glyph glyph-name="copyright" unicode="&#xa9;" horiz-adv-x="780" 
d="M519 159q-22 -9 -47 -13.5t-49 -4.5q-49 0 -88.5 13t-67.5 38t-43.5 61t-15.5 81q0 44 16 79.5t45 61t68 39t86 13.5q23 0 48.5 -4t47.5 -12l-4 -58q-19 8 -41 13t-43 5q-72 0 -111 -37t-39 -100t39 -99.5t111 -36.5q23 0 43 5t41 14zM192 133q38 -39 89 -62t109 -23
t109 23t88 62t58.5 91t21.5 110t-21.5 109.5t-59 90.5t-88 61.5t-108.5 22.5q-59 0 -109.5 -22.5t-88 -61.5t-59 -90.5t-21.5 -109.5t21.5 -110t58.5 -91zM256 16q-47 20 -85.5 52t-66 73t-43 90t-15.5 103q0 71 27 133.5t73.5 109t109.5 73.5t134 27t134 -27t109.5 -73.5
t73.5 -109t27 -133.5t-27 -134t-73.5 -110t-109.5 -74t-134 -27t-134 27z" />
    <glyph glyph-name="ordfeminine" unicode="&#xaa;" horiz-adv-x="380" 
d="M248 366l-3 47q-16 -27 -44 -40.5t-60 -13.5q-45 0 -74.5 22.5t-29.5 70.5q0 30 13 50t35 32t51 17t62 5h46v8q0 61 -75 61q-49 0 -93 -23l-4 56q22 9 51 14t55 5q63 0 100.5 -27t37.5 -91v-122q0 -23 1.5 -39.5t3.5 -31.5h-73zM221 511q-20 0 -39.5 -2t-36 -7.5
t-26.5 -16t-10 -28.5q0 -24 16.5 -35t38.5 -11q42 0 61 26t19 60v14h-23z" />
    <glyph glyph-name="guillemotleft" unicode="&#xab;" horiz-adv-x="465" 
d="M159 55l-132 201l132 199h85l-126 -199l126 -201h-85zM343 55l-132 201l132 199h86l-126 -199l126 -201h-86z" />
    <glyph glyph-name="logicalnot" unicode="&#xac;" horiz-adv-x="562" 
d="M26 310v78h511v-277h-81v199h-430z" />
    <glyph glyph-name="uni00AD" unicode="&#xad;" horiz-adv-x="326" 
d="M40 269v82h246v-82h-246z" />
    <glyph glyph-name="registered" unicode="&#xae;" horiz-adv-x="780" 
d="M323 365h42q16 0 32.5 2.5t29.5 9.5t21 18.5t8 29.5q0 16 -8 26.5t-21 16t-29.5 7.5t-33.5 2h-41v-112zM254 153v376h141q26 0 50 -5.5t42.5 -17.5t29.5 -31t11 -46q0 -38 -28 -62t-66 -30q25 -5 39 -18t23 -34l56 -132h-74l-47 112q-11 27 -25.5 38t-48.5 11h-33v-161
h-70zM193 133q38 -39 88.5 -62t108.5 -23t109 23t88.5 62t59 91t21.5 110t-21.5 109.5t-59 90.5t-88.5 61.5t-109 22.5t-108.5 -22.5t-88 -61.5t-59 -90.5t-21.5 -109.5t21.5 -110t58.5 -91zM256 16q-47 20 -85.5 52t-66 73t-43 90t-15.5 103q0 71 27 133.5t73.5 109
t109.5 73.5t134 27t134 -27t109.5 -73.5t73.5 -109t27 -133.5t-27 -134t-73.5 -110t-109.5 -74t-134 -27t-134 27z" />
    <glyph glyph-name="macron" unicode="&#xaf;" horiz-adv-x="237" 
d="M-16 623v59h270v-59h-270z" />
    <glyph glyph-name="degree" unicode="&#xb0;" horiz-adv-x="400" 
d="M114 494q12 -23 35 -38.5t51 -15.5q18 0 35 7t30 19t20.5 28t7.5 35q0 42 -26.5 66.5t-66.5 24.5t-66.5 -24.5t-26.5 -66.5q0 -20 7 -35zM93 423q-20 20 -32 47t-12 59t12 59t32.5 47t48 31t58.5 11t58.5 -11t48.5 -30.5t33 -47t12 -59.5t-12 -59t-33 -46.5t-48.5 -30.5
t-58.5 -11t-58.5 11t-48.5 30z" />
    <glyph glyph-name="plusminus" unicode="&#xb1;" horiz-adv-x="562" 
d="M26 -19v77h511v-77h-511zM26 270v78h215v170h81v-170h215v-78h-215v-168h-81v168h-215z" />
    <glyph glyph-name="twosuperior" unicode="&#xb2;" 
d="M63 370v61l75 63q58 49 91.5 87t33.5 76q0 29 -21.5 45.5t-56.5 16.5q-32 0 -57.5 -7.5t-48.5 -17.5l-3 62q30 11 59 17.5t61 6.5q28 0 55 -6.5t48 -20t33.5 -36t12.5 -53.5q0 -26 -10.5 -50t-27.5 -46.5t-39 -43.5t-45 -41l-62 -54h190v-59h-288z" />
    <glyph glyph-name="threesuperior" unicode="&#xb3;" 
d="M65 438q23 -9 51 -13t54 -4q20 0 38.5 4t33 12.5t23 22t8.5 31.5t-9 29.5t-23.5 19t-33 10.5t-37.5 3h-53v54h44q45 0 75.5 13t30.5 48q0 15 -8 25.5t-21.5 17t-30 9.5t-32.5 3q-25 0 -51 -4.5t-48 -13.5l-3 58q25 8 54.5 12.5t58.5 4.5q27 0 55.5 -5t52 -17t38 -32
t14.5 -51q0 -38 -21 -61t-55 -32q34 -7 59 -30.5t25 -60.5q0 -35 -15.5 -59.5t-40.5 -39.5t-56.5 -22t-64.5 -7q-30 0 -58.5 3.5t-56.5 11.5z" />
    <glyph glyph-name="acute" unicode="&#xb4;" horiz-adv-x="237" 
d="M65 584l71 136h109l-103 -136h-77z" />
    <glyph glyph-name="mu" unicode="&#xb5;" horiz-adv-x="562" 
d="M68 -216v716h101v-296q0 -27 3.5 -51.5t14 -43.5t30 -30.5t51.5 -11.5q35 0 58 13.5t37 36t19.5 51t5.5 58.5v274h100v-385q0 -31 1 -59.5t4 -55.5h-94l-3 87q-23 -45 -59 -70t-84 -25q-55 0 -85 32v-240h-100z" />
    <glyph glyph-name="paragraph" unicode="&#xb6;" horiz-adv-x="562" 
d="M239 -108v430q-39 0 -75.5 11.5t-64.5 33t-45 54t-17 74.5q0 51 17.5 85.5t48 55.5t71 30t85.5 9h255v-783h-78v720h-119v-720h-78z" />
    <glyph glyph-name="periodcentered" unicode="&#xb7;" horiz-adv-x="281" 
d="M87 259v102h107v-102h-107z" />
    <glyph glyph-name="cedilla" unicode="&#xb8;" horiz-adv-x="237" 
d="M31 -128q24 -9 44 -12.5t37 -3.5q21 0 33.5 8.5t12.5 22.5q0 17 -11.5 24t-24.5 7q-11 0 -22.5 -1.5t-23.5 -6.5l-16 23l49 67h46l-38 -52q15 4 37 4q26 0 47 -16t21 -46q0 -35 -29.5 -55t-77.5 -20q-22 0 -45 3.5t-52 14.5z" />
    <glyph glyph-name="onesuperior" unicode="&#xb9;" 
d="M206 370v323l-88 -63l-32 55l131 89h67v-404h-78z" />
    <glyph glyph-name="ordmasculine" unicode="&#xba;" horiz-adv-x="380" 
d="M189 359q-78 0 -119 43.5t-41 115.5t43.5 115.5t118.5 43.5q76 0 118 -43t42 -116q0 -72 -43 -115.5t-119 -43.5zM127 448q10 -15 25 -24t37 -9q23 0 38.5 9t25.5 23t14 32.5t4 38.5q0 18 -4 36t-13.5 33t-25 24.5t-37.5 9.5q-23 0 -38 -9t-25 -23.5t-14 -33t-4 -37.5
q0 -18 4 -36.5t13 -33.5z" />
    <glyph glyph-name="guillemotright" unicode="&#xbb;" horiz-adv-x="465" 
d="M37 55l126 200l-126 200h85l132 -200l-132 -200h-85zM221 55l126 200l-126 200h86l132 -200l-132 -200h-86z" />
    <glyph glyph-name="onequarter" unicode="&#xbc;" horiz-adv-x="950" 
d="M203 266v323l-88 -63l-32 55l131 89h67v-404h-78zM197 -24l423 715h69l-424 -715h-68zM506 86v68l189 250h86v-259h60v-59h-60v-86h-76v86h-199zM565 144h140v191z" />
    <glyph glyph-name="onehalf" unicode="&#xbd;" horiz-adv-x="950" 
d="M174 266v323l-88 -63l-32 55l131 89h67v-404h-78zM167 -24l423 715h69l-424 -715h-68zM551 0v61l75 63q58 49 91.5 87t33.5 76q0 29 -21.5 45.5t-56.5 16.5q-32 0 -57.5 -7.5t-48.5 -17.5l-3 62q30 11 59 17.5t61 6.5q28 0 55 -6.5t48 -20t33.5 -36t12.5 -53.5
q0 -26 -10.5 -50t-27.5 -46.5t-39 -43.5t-45 -41l-62 -54h190v-59h-288z" />
    <glyph glyph-name="threequarters" unicode="&#xbe;" horiz-adv-x="950" 
d="M68 334q23 -9 51 -13t54 -4q20 0 38.5 4t33 12.5t23 22t8.5 31.5t-9 29.5t-23.5 19t-33 10.5t-37.5 3h-53v54h44q45 0 75.5 13t30.5 48q0 15 -8 25.5t-21.5 17t-30 9.5t-32.5 3q-25 0 -51 -4.5t-48 -13.5l-3 58q25 8 54.5 12.5t58.5 4.5q27 0 55.5 -5t52 -17t38 -32
t14.5 -51q0 -38 -21 -61t-55 -32q34 -7 59 -30.5t25 -60.5q0 -35 -15.5 -59.5t-40.5 -39.5t-56.5 -22t-64.5 -7q-30 0 -58.5 3.5t-56.5 11.5zM256 -24l423 715h69l-424 -715h-68zM566 86v68l189 250h86v-259h60v-59h-60v-86h-76v86h-199zM625 144h140v191z" />
    <glyph glyph-name="questiondown" unicode="&#xbf;" horiz-adv-x="426" 
d="M397 -150q-38 -11 -74 -19t-83 -8q-40 0 -76.5 10t-65 31t-45.5 52.5t-17 74.5q0 38 12.5 66.5t31 51.5t40.5 43t40.5 42.5t31 49.5t12.5 63v14h91v-13q0 -43 -11 -73.5t-28 -53.5t-36.5 -42t-36.5 -38.5t-28 -43t-11 -56.5q0 -47 33.5 -70.5t78.5 -23.5q35 0 69 7.5
t66 18.5zM196 398v102h107v-102h-107z" />
    <glyph glyph-name="Agrave" unicode="&#xc0;" horiz-adv-x="662" 
d="M201 255h255l-127 335zM2 0l260 667h137l262 -667h-114l-64 175h-309l-66 -175h-106zM306 724l-104 136h108l72 -136h-76z" />
    <glyph glyph-name="Aacute" unicode="&#xc1;" horiz-adv-x="662" 
d="M201 255h255l-127 335zM2 0l260 667h137l262 -667h-114l-64 175h-309l-66 -175h-106zM284 724l71 136h109l-103 -136h-77z" />
    <glyph glyph-name="Acircumflex" unicode="&#xc2;" horiz-adv-x="662" 
d="M201 255h255l-127 335zM2 0l260 667h137l262 -667h-114l-64 175h-309l-66 -175h-106zM180 724l103 136h92l103 -136h-77l-72 92l-72 -92h-77z" />
    <glyph glyph-name="Atilde" unicode="&#xc3;" horiz-adv-x="662" 
d="M201 255h255l-127 335zM2 0l260 667h137l262 -667h-114l-64 175h-309l-66 -175h-106zM175 735q1 19 7.5 38.5t18 35t28.5 25t40 9.5q19 0 36 -6.5t33 -14t30 -13.5t27 -6q19 0 28.5 14t10.5 29h55q0 -18 -7 -37t-19 -34.5t-29 -25.5t-38 -10q-20 0 -36 6t-30.5 13.5
t-28 13.5t-28.5 6q-17 0 -30 -14t-13 -29h-55z" />
    <glyph glyph-name="Adieresis" unicode="&#xc4;" horiz-adv-x="662" 
d="M201 255h255l-127 335zM2 0l260 667h137l262 -667h-114l-64 175h-309l-66 -175h-106zM375 743v97h83v-97h-83zM204 743v97h83v-97h-83z" />
    <glyph glyph-name="Aring" unicode="&#xc5;" horiz-adv-x="662" 
d="M201 255h255l-127 335zM2 0l260 667h137l262 -667h-114l-64 175h-309l-66 -175h-106zM260 724q-13 13 -21 30.5t-8 37.5t7.5 37.5t21 30.5t31.5 20.5t38 7.5q19 0 37 -7.5t31.5 -20.5t21.5 -30.5t8 -37.5t-7.5 -37.5t-21 -30.5t-31.5 -20.5t-38 -7.5t-37.5 7.5
t-31.5 20.5zM272 792q0 -24 17 -40t40 -16q24 0 40.5 16t16.5 40q0 23 -16.5 39.5t-40.5 16.5t-40.5 -16.5t-16.5 -39.5z" />
    <glyph glyph-name="AE" unicode="&#xc6;" horiz-adv-x="895" 
d="M256 255h211v345zM-7 0l412 667h436v-81h-267v-206h253v-79h-253v-220h277v-81h-384v175h-255l-106 -175h-113z" />
    <glyph glyph-name="Ccedilla" unicode="&#xc7;" horiz-adv-x="595" 
d="M269 -128q24 -9 44 -12.5t37 -3.5q21 0 33.5 8.5t12.5 22.5q0 17 -11.5 24t-24.5 7q-11 0 -22.5 -1.5t-23.5 -6.5l-16 23l43 60q-67 8 -121.5 35t-93 70.5t-59.5 102.5t-21 132q0 76 26.5 139.5t73.5 109t111.5 70.5t141.5 25q38 0 82 -6t79 -19l-6 -88q-31 14 -69.5 21
t-73.5 7q-59 0 -105.5 -19.5t-78.5 -54t-49.5 -82t-17.5 -103.5q0 -58 16.5 -105.5t48.5 -81.5t78 -53t106 -19q38 0 75.5 6.5t71.5 22.5l6 -85q-35 -16 -79.5 -22.5t-83.5 -6.5h-14l-30 -41q15 4 37 4q26 0 47 -16t21 -46q0 -35 -29.5 -55t-77.5 -20q-22 0 -45 3.5
t-52 14.5z" />
    <glyph glyph-name="Egrave" unicode="&#xc8;" horiz-adv-x="517" 
d="M80 0v667h383v-81h-276v-205h263v-80h-263v-220h286v-81h-393zM253 724l-104 136h108l72 -136h-76z" />
    <glyph glyph-name="Eacute" unicode="&#xc9;" horiz-adv-x="517" 
d="M80 0v667h383v-81h-276v-205h263v-80h-263v-220h286v-81h-393zM214 724l71 136h109l-103 -136h-77z" />
    <glyph glyph-name="Ecircumflex" unicode="&#xca;" horiz-adv-x="517" 
d="M80 0v667h383v-81h-276v-205h263v-80h-263v-220h286v-81h-393zM121 724l103 136h92l103 -136h-77l-72 92l-72 -92h-77z" />
    <glyph glyph-name="Edieresis" unicode="&#xcb;" horiz-adv-x="517" 
d="M80 0v667h383v-81h-276v-205h263v-80h-263v-220h286v-81h-393zM317 743v97h83v-97h-83zM146 743v97h83v-97h-83z" />
    <glyph glyph-name="Igrave" unicode="&#xcc;" horiz-adv-x="268" 
d="M80 0v667h109v-667h-109zM109 724l-104 136h108l72 -136h-76z" />
    <glyph glyph-name="Iacute" unicode="&#xcd;" horiz-adv-x="268" 
d="M80 0v667h109v-667h-109zM83 724l71 136h109l-103 -136h-77z" />
    <glyph glyph-name="Icircumflex" unicode="&#xce;" horiz-adv-x="268" 
d="M80 0v667h109v-667h-109zM-15 724l103 136h92l103 -136h-77l-72 92l-72 -92h-77z" />
    <glyph glyph-name="Idieresis" unicode="&#xcf;" horiz-adv-x="268" 
d="M80 0v667h109v-667h-109zM178 743v97h83v-97h-83zM7 743v97h83v-97h-83z" />
    <glyph glyph-name="Eth" unicode="&#xd0;" horiz-adv-x="672" 
d="M80 0v304h-75v70h75v293h205q161 0 251 -80t90 -244q0 -87 -27 -151.5t-76 -107t-117.5 -63.5t-150.5 -21h-175zM189 81h55q129 0 198.5 64.5t69.5 197.5q0 115 -60 179t-178 64h-85v-212h161v-70h-161v-223z" />
    <glyph glyph-name="Ntilde" unicode="&#xd1;" horiz-adv-x="703" 
d="M80 0v667h156l289 -568v568h99v-667h-157l-289 568v-568h-98zM204 735q1 19 7.5 38.5t18 35t28.5 25t40 9.5q19 0 36 -6.5t33 -14t30 -13.5t27 -6q19 0 28.5 14t10.5 29h55q0 -18 -7 -37t-19 -34.5t-29 -25.5t-38 -10q-20 0 -36 6t-30.5 13.5t-28 13.5t-28.5 6
q-17 0 -30 -14t-13 -29h-55z" />
    <glyph glyph-name="Ograve" unicode="&#xd2;" horiz-adv-x="716" 
d="M206 156q24 -37 61 -61t91 -24q55 0 92.5 23.5t61 61t34 84t10.5 93.5q0 46 -10.5 93t-34 84.5t-61 61t-92.5 23.5q-54 0 -91.5 -24t-61 -61.5t-34.5 -84t-11 -92.5t11 -92.5t35 -84.5zM221 15q-88 39 -131.5 122.5t-43.5 195.5q0 72 20 134.5t59.5 109t97.5 73.5t135 27
q78 0 136.5 -26t97.5 -72t58.5 -109t19.5 -137q0 -73 -20 -135.5t-59 -109t-97.5 -73t-135.5 -26.5t-137 26zM329 724l-104 136h108l72 -136h-76z" />
    <glyph glyph-name="Oacute" unicode="&#xd3;" horiz-adv-x="716" 
d="M206 156q24 -37 61 -61t91 -24q55 0 92.5 23.5t61 61t34 84t10.5 93.5q0 46 -10.5 93t-34 84.5t-61 61t-92.5 23.5q-54 0 -91.5 -24t-61 -61.5t-34.5 -84t-11 -92.5t11 -92.5t35 -84.5zM221 15q-88 39 -131.5 122.5t-43.5 195.5q0 72 20 134.5t59.5 109t97.5 73.5t135 27
q78 0 136.5 -26t97.5 -72t58.5 -109t19.5 -137q0 -73 -20 -135.5t-59 -109t-97.5 -73t-135.5 -26.5t-137 26zM311 724l71 136h109l-103 -136h-77z" />
    <glyph glyph-name="Ocircumflex" unicode="&#xd4;" horiz-adv-x="716" 
d="M206 156q24 -37 61 -61t91 -24q55 0 92.5 23.5t61 61t34 84t10.5 93.5q0 46 -10.5 93t-34 84.5t-61 61t-92.5 23.5q-54 0 -91.5 -24t-61 -61.5t-34.5 -84t-11 -92.5t11 -92.5t35 -84.5zM221 15q-88 39 -131.5 122.5t-43.5 195.5q0 72 20 134.5t59.5 109t97.5 73.5t135 27
q78 0 136.5 -26t97.5 -72t58.5 -109t19.5 -137q0 -73 -20 -135.5t-59 -109t-97.5 -73t-135.5 -26.5t-137 26zM209 724l103 136h92l103 -136h-77l-72 92l-72 -92h-77z" />
    <glyph glyph-name="Otilde" unicode="&#xd5;" horiz-adv-x="716" 
d="M206 156q24 -37 61 -61t91 -24q55 0 92.5 23.5t61 61t34 84t10.5 93.5q0 46 -10.5 93t-34 84.5t-61 61t-92.5 23.5q-54 0 -91.5 -24t-61 -61.5t-34.5 -84t-11 -92.5t11 -92.5t35 -84.5zM221 15q-88 39 -131.5 122.5t-43.5 195.5q0 72 20 134.5t59.5 109t97.5 73.5t135 27
q78 0 136.5 -26t97.5 -72t58.5 -109t19.5 -137q0 -73 -20 -135.5t-59 -109t-97.5 -73t-135.5 -26.5t-137 26zM201 735q1 19 7.5 38.5t18 35t28.5 25t40 9.5q19 0 36 -6.5t33 -14t30 -13.5t27 -6q19 0 28.5 14t10.5 29h55q0 -18 -7 -37t-19 -34.5t-29 -25.5t-38 -10
q-20 0 -36 6t-30.5 13.5t-28 13.5t-28.5 6q-17 0 -30 -14t-13 -29h-55z" />
    <glyph glyph-name="Odieresis" unicode="&#xd6;" horiz-adv-x="716" 
d="M206 156q24 -37 61 -61t91 -24q55 0 92.5 23.5t61 61t34 84t10.5 93.5q0 46 -10.5 93t-34 84.5t-61 61t-92.5 23.5q-54 0 -91.5 -24t-61 -61.5t-34.5 -84t-11 -92.5t11 -92.5t35 -84.5zM221 15q-88 39 -131.5 122.5t-43.5 195.5q0 72 20 134.5t59.5 109t97.5 73.5t135 27
q78 0 136.5 -26t97.5 -72t58.5 -109t19.5 -137q0 -73 -20 -135.5t-59 -109t-97.5 -73t-135.5 -26.5t-137 26zM402 743v97h83v-97h-83zM231 743v97h83v-97h-83z" />
    <glyph glyph-name="multiply" unicode="&#xd7;" horiz-adv-x="562" 
d="M39 63l187 187l-187 186l56 57l186 -188l187 187l56 -56l-186 -186l186 -187l-56 -56l-186 187l-187 -186z" />
    <glyph glyph-name="Oslash" unicode="&#xd8;" horiz-adv-x="716" 
d="M32 16l79 90q-65 89 -65 227q0 72 20 134.5t59.5 109t97.5 73.5t135 27q66 0 116 -18.5t88 -51.5l75 84l45 -41l-77 -89q32 -45 48.5 -103t16.5 -125q0 -73 -20 -135.5t-59 -109t-97.5 -73t-135.5 -26.5q-66 0 -116.5 18.5t-88.5 52.5l-76 -85zM496 536q-24 27 -56 43
t-80 16q-56 0 -94 -24t-62 -61.5t-34.5 -84t-10.5 -92.5q0 -37 6.5 -76.5t23.5 -70.5zM221 132q23 -29 56 -45t81 -16q55 0 93 23.5t62 61t34.5 84t10.5 93.5q0 38 -7 78.5t-21 68.5z" />
    <glyph glyph-name="Ugrave" unicode="&#xd9;" horiz-adv-x="670" 
d="M181 242q0 -36 9.5 -67t28.5 -53.5t48 -35t68 -12.5t68 12.5t48.5 35t29 53t9.5 67.5v425h109v-424q0 -60 -19.5 -107.5t-54.5 -80t-84 -49.5t-107 -17q-59 0 -107 16.5t-82.5 48.5t-53.5 78.5t-19 107.5v427h109v-425zM318 724l-104 136h108l72 -136h-76z" />
    <glyph glyph-name="Uacute" unicode="&#xda;" horiz-adv-x="670" 
d="M181 242q0 -36 9.5 -67t28.5 -53.5t48 -35t68 -12.5t68 12.5t48.5 35t29 53t9.5 67.5v425h109v-424q0 -60 -19.5 -107.5t-54.5 -80t-84 -49.5t-107 -17q-59 0 -107 16.5t-82.5 48.5t-53.5 78.5t-19 107.5v427h109v-425zM276 724l71 136h109l-103 -136h-77z" />
    <glyph glyph-name="Ucircumflex" unicode="&#xdb;" horiz-adv-x="670" 
d="M181 242q0 -36 9.5 -67t28.5 -53.5t48 -35t68 -12.5t68 12.5t48.5 35t29 53t9.5 67.5v425h109v-424q0 -60 -19.5 -107.5t-54.5 -80t-84 -49.5t-107 -17q-59 0 -107 16.5t-82.5 48.5t-53.5 78.5t-19 107.5v427h109v-425zM185 724l103 136h92l103 -136h-77l-72 92l-72 -92
h-77z" />
    <glyph glyph-name="Udieresis" unicode="&#xdc;" horiz-adv-x="670" 
d="M181 242q0 -36 9.5 -67t28.5 -53.5t48 -35t68 -12.5t68 12.5t48.5 35t29 53t9.5 67.5v425h109v-424q0 -60 -19.5 -107.5t-54.5 -80t-84 -49.5t-107 -17q-59 0 -107 16.5t-82.5 48.5t-53.5 78.5t-19 107.5v427h109v-425zM380 743v97h83v-97h-83zM209 743v97h83v-97h-83z
" />
    <glyph glyph-name="Yacute" unicode="&#xdd;" horiz-adv-x="599" 
d="M244 0v266l-246 401h120l185 -318l183 318h116l-249 -401v-266h-109zM251 724l71 136h109l-103 -136h-77z" />
    <glyph glyph-name="Thorn" unicode="&#xde;" horiz-adv-x="549" 
d="M187 217h51q33 0 64.5 3.5t56 16.5t39 37.5t14.5 65.5q0 61 -38.5 90t-96.5 29h-90v-242zM80 0v667h107v-128h117q46 0 86.5 -12.5t69.5 -37.5t46 -62t17 -86q0 -52 -18 -90t-48.5 -63t-71 -37.5t-85.5 -12.5h-113v-138h-107z" />
    <glyph glyph-name="germandbls" unicode="&#xdf;" horiz-adv-x="577" 
d="M69 0v457q0 135 62.5 204.5t174.5 69.5q46 0 83.5 -11.5t64 -36.5t41 -64t14.5 -93q0 -12 -1.5 -29.5t-3.5 -31.5q-30 -1 -55.5 -3.5t-44.5 -10.5t-30 -24t-11 -44q0 -22 13.5 -37.5t34 -29.5t44 -28.5t44 -33.5t34 -45.5t13.5 -63.5q0 -39 -13.5 -68.5t-36.5 -49
t-53.5 -29t-64.5 -9.5q-26 0 -59.5 5t-65.5 18l6 77q23 -12 50 -19t53 -7q38 0 60.5 19.5t22.5 59.5q0 28 -13 47t-33 34t-43 28.5t-43 30.5t-33 41t-13 59q0 33 12 57t31.5 40.5t45.5 25t55 10.5q3 16 3 35q0 48 -26 78t-84 30q-40 0 -66 -16.5t-41.5 -44.5t-21.5 -65
t-6 -79v-453h-100z" />
    <glyph glyph-name="agrave" unicode="&#xe0;" horiz-adv-x="517" 
d="M358 0l-3 79q-23 -42 -63 -66t-94 -24q-34 0 -64 8.5t-52.5 26.5t-36 46t-13.5 67q0 49 20.5 81.5t56.5 52t84 28t103 8.5h27.5t28.5 -1v21q0 55 -27 84t-87 29q-38 0 -75.5 -9.5t-71.5 -30.5l-6 77q35 14 79.5 23.5t82.5 9.5q97 0 150 -44.5t53 -145.5v-209
q0 -32 1.5 -58.5t4.5 -52.5h-98zM325 245q-37 0 -72 -3.5t-62 -14.5t-43.5 -31t-16.5 -53q0 -43 25.5 -62t65.5 -19q34 0 58.5 12.5t40.5 34t23.5 49.5t7.5 60v27h-27zM233 584l-104 136h108l72 -136h-76z" />
    <glyph glyph-name="aacute" unicode="&#xe1;" horiz-adv-x="517" 
d="M358 0l-3 79q-23 -42 -63 -66t-94 -24q-34 0 -64 8.5t-52.5 26.5t-36 46t-13.5 67q0 49 20.5 81.5t56.5 52t84 28t103 8.5h27.5t28.5 -1v21q0 55 -27 84t-87 29q-38 0 -75.5 -9.5t-71.5 -30.5l-6 77q35 14 79.5 23.5t82.5 9.5q97 0 150 -44.5t53 -145.5v-209
q0 -32 1.5 -58.5t4.5 -52.5h-98zM325 245q-37 0 -72 -3.5t-62 -14.5t-43.5 -31t-16.5 -53q0 -43 25.5 -62t65.5 -19q34 0 58.5 12.5t40.5 34t23.5 49.5t7.5 60v27h-27zM199 584l71 136h109l-103 -136h-77z" />
    <glyph glyph-name="acircumflex" unicode="&#xe2;" horiz-adv-x="517" 
d="M358 0l-3 79q-23 -42 -63 -66t-94 -24q-34 0 -64 8.5t-52.5 26.5t-36 46t-13.5 67q0 49 20.5 81.5t56.5 52t84 28t103 8.5h27.5t28.5 -1v21q0 55 -27 84t-87 29q-38 0 -75.5 -9.5t-71.5 -30.5l-6 77q35 14 79.5 23.5t82.5 9.5q97 0 150 -44.5t53 -145.5v-209
q0 -32 1.5 -58.5t4.5 -52.5h-98zM325 245q-37 0 -72 -3.5t-62 -14.5t-43.5 -31t-16.5 -53q0 -43 25.5 -62t65.5 -19q34 0 58.5 12.5t40.5 34t23.5 49.5t7.5 60v27h-27zM110 584l103 136h92l103 -136h-77l-72 92l-72 -92h-77z" />
    <glyph glyph-name="atilde" unicode="&#xe3;" horiz-adv-x="517" 
d="M358 0l-3 79q-23 -42 -63 -66t-94 -24q-34 0 -64 8.5t-52.5 26.5t-36 46t-13.5 67q0 49 20.5 81.5t56.5 52t84 28t103 8.5h27.5t28.5 -1v21q0 55 -27 84t-87 29q-38 0 -75.5 -9.5t-71.5 -30.5l-6 77q35 14 79.5 23.5t82.5 9.5q97 0 150 -44.5t53 -145.5v-209
q0 -32 1.5 -58.5t4.5 -52.5h-98zM325 245q-37 0 -72 -3.5t-62 -14.5t-43.5 -31t-16.5 -53q0 -43 25.5 -62t65.5 -19q34 0 58.5 12.5t40.5 34t23.5 49.5t7.5 60v27h-27zM105 595q1 19 7.5 38.5t18 35t28.5 25t40 9.5q19 0 36 -6.5t33 -14t30 -13.5t27 -6q19 0 28.5 14
t10.5 29h55q0 -18 -7 -37t-19 -34.5t-29 -25.5t-38 -10q-20 0 -36 6t-30.5 13.5t-28 13.5t-28.5 6q-17 0 -30 -14t-13 -29h-55z" />
    <glyph glyph-name="adieresis" unicode="&#xe4;" horiz-adv-x="517" 
d="M358 0l-3 79q-23 -42 -63 -66t-94 -24q-34 0 -64 8.5t-52.5 26.5t-36 46t-13.5 67q0 49 20.5 81.5t56.5 52t84 28t103 8.5h27.5t28.5 -1v21q0 55 -27 84t-87 29q-38 0 -75.5 -9.5t-71.5 -30.5l-6 77q35 14 79.5 23.5t82.5 9.5q97 0 150 -44.5t53 -145.5v-209
q0 -32 1.5 -58.5t4.5 -52.5h-98zM325 245q-37 0 -72 -3.5t-62 -14.5t-43.5 -31t-16.5 -53q0 -43 25.5 -62t65.5 -19q34 0 58.5 12.5t40.5 34t23.5 49.5t7.5 60v27h-27zM131 603v97h83v-97h-83zM302 603v97h83v-97h-83z" />
    <glyph glyph-name="aring" unicode="&#xe5;" horiz-adv-x="517" 
d="M358 0l-3 79q-23 -42 -63 -66t-94 -24q-34 0 -64 8.5t-52.5 26.5t-36 46t-13.5 67q0 49 20.5 81.5t56.5 52t84 28t103 8.5h27.5t28.5 -1v21q0 55 -27 84t-87 29q-38 0 -75.5 -9.5t-71.5 -30.5l-6 77q35 14 79.5 23.5t82.5 9.5q97 0 150 -44.5t53 -145.5v-209
q0 -32 1.5 -58.5t4.5 -52.5h-98zM325 245q-37 0 -72 -3.5t-62 -14.5t-43.5 -31t-16.5 -53q0 -43 25.5 -62t65.5 -19q34 0 58.5 12.5t40.5 34t23.5 49.5t7.5 60v27h-27zM196 652q0 -24 17 -40t40 -16q24 0 40.5 16t16.5 40q0 23 -16.5 39.5t-40.5 16.5t-40.5 -16.5
t-16.5 -39.5zM184 584q-13 13 -21 30.5t-8 37.5t7.5 37.5t21 30.5t31.5 20.5t38 7.5q19 0 37 -7.5t31.5 -20.5t21.5 -30.5t8 -37.5t-7.5 -37.5t-21 -30.5t-31.5 -20.5t-38 -7.5t-37.5 7.5t-31.5 20.5z" />
    <glyph glyph-name="ae" unicode="&#xe6;" horiz-adv-x="811" 
d="M85 477q35 14 79 23.5t82 9.5q60 0 100.5 -19.5t60.5 -64.5q30 40 69.5 62t90.5 22q59 0 99 -19.5t64.5 -53.5t35 -80t10.5 -99v-30h-335q0 -35 10.5 -65.5t31.5 -53.5t52.5 -36.5t72.5 -13.5q34 0 69.5 7.5t65.5 23.5l6 -74q-35 -14 -74 -20.5t-81 -6.5q-66 0 -121 22
t-87 78q-28 -52 -76.5 -76t-111.5 -24q-31 0 -61 7.5t-53.5 25t-38 45t-14.5 67.5q0 50 23 81t60.5 48t85.5 23t98 6h25t25 -1v37q0 54 -27 83t-84 29q-39 0 -75.5 -9.5t-70.5 -30.5zM320 232q-40 0 -74.5 -2t-60.5 -11t-41 -27.5t-15 -50.5q0 -42 25.5 -60.5t62.5 -18.5
q33 0 58 11.5t41 31.5t24 47t8 59v21h-28zM680 290q0 28 -5 55.5t-17.5 48.5t-34 34t-55.5 13q-32 0 -55.5 -13.5t-39.5 -35t-24 -48.5t-9 -54h240z" />
    <glyph glyph-name="ccedilla" unicode="&#xe7;" horiz-adv-x="457" 
d="M183 -128q24 -9 44 -12.5t37 -3.5q21 0 33.5 8.5t12.5 22.5q0 17 -11.5 24t-24.5 7q-11 0 -22.5 -1.5t-23.5 -6.5l-16 23l40 59q-53 7 -93 29t-66.5 56t-40 78.5t-13.5 96.5q0 58 19 105.5t53.5 81.5t83 52.5t107.5 18.5q33 0 63 -3t62 -14l-6 -80q-45 22 -105 22
q-41 0 -72.5 -14t-53 -38.5t-32.5 -58t-11 -72.5q0 -38 10.5 -71.5t32.5 -59.5t55 -41t77 -15q28 0 51 5.5t48 16.5l5 -79q-30 -11 -60.5 -15t-65.5 -4h-3l-28 -41q15 4 37 4q26 0 47 -16t21 -46q0 -35 -29.5 -55t-77.5 -20q-22 0 -45 3.5t-52 14.5z" />
    <glyph glyph-name="egrave" unicode="&#xe8;" horiz-adv-x="510" 
d="M142 228q0 -35 10.5 -65.5t31.5 -53.5t52.5 -36.5t72.5 -13.5q34 0 69.5 7.5t65.5 23.5l6 -74q-35 -14 -74 -20.5t-81 -6.5q-63 0 -111 19t-80.5 54t-48.5 83t-16 107q0 51 15.5 98t45 82.5t72 56.5t96.5 21q59 0 99 -19.5t64.5 -53.5t35 -80t10.5 -99v-30h-335zM381 290
q0 28 -5 55.5t-17.5 48.5t-34 34t-55.5 13q-32 0 -55.5 -13.5t-39.5 -35t-24 -48.5t-9 -54h240zM241 584l-104 136h108l72 -136h-76z" />
    <glyph glyph-name="eacute" unicode="&#xe9;" horiz-adv-x="510" 
d="M142 228q0 -35 10.5 -65.5t31.5 -53.5t52.5 -36.5t72.5 -13.5q34 0 69.5 7.5t65.5 23.5l6 -74q-35 -14 -74 -20.5t-81 -6.5q-63 0 -111 19t-80.5 54t-48.5 83t-16 107q0 51 15.5 98t45 82.5t72 56.5t96.5 21q59 0 99 -19.5t64.5 -53.5t35 -80t10.5 -99v-30h-335zM381 290
q0 28 -5 55.5t-17.5 48.5t-34 34t-55.5 13q-32 0 -55.5 -13.5t-39.5 -35t-24 -48.5t-9 -54h240zM211 584l71 136h109l-103 -136h-77z" />
    <glyph glyph-name="ecircumflex" unicode="&#xea;" horiz-adv-x="510" 
d="M142 228q0 -35 10.5 -65.5t31.5 -53.5t52.5 -36.5t72.5 -13.5q34 0 69.5 7.5t65.5 23.5l6 -74q-35 -14 -74 -20.5t-81 -6.5q-63 0 -111 19t-80.5 54t-48.5 83t-16 107q0 51 15.5 98t45 82.5t72 56.5t96.5 21q59 0 99 -19.5t64.5 -53.5t35 -80t10.5 -99v-30h-335zM381 290
q0 28 -5 55.5t-17.5 48.5t-34 34t-55.5 13q-32 0 -55.5 -13.5t-39.5 -35t-24 -48.5t-9 -54h240zM114 584l103 136h92l103 -136h-77l-72 92l-72 -92h-77z" />
    <glyph glyph-name="edieresis" unicode="&#xeb;" horiz-adv-x="510" 
d="M142 228q0 -35 10.5 -65.5t31.5 -53.5t52.5 -36.5t72.5 -13.5q34 0 69.5 7.5t65.5 23.5l6 -74q-35 -14 -74 -20.5t-81 -6.5q-63 0 -111 19t-80.5 54t-48.5 83t-16 107q0 51 15.5 98t45 82.5t72 56.5t96.5 21q59 0 99 -19.5t64.5 -53.5t35 -80t10.5 -99v-30h-335zM381 290
q0 28 -5 55.5t-17.5 48.5t-34 34t-55.5 13q-32 0 -55.5 -13.5t-39.5 -35t-24 -48.5t-9 -54h240zM136 603v97h83v-97h-83zM307 603v97h83v-97h-83z" />
    <glyph glyph-name="igrave" unicode="&#xec;" horiz-adv-x="237" 
d="M69 0v500h100v-500h-100zM97 584l-104 136h108l72 -136h-76z" />
    <glyph glyph-name="iacute" unicode="&#xed;" horiz-adv-x="237" 
d="M69 0v500h100v-500h-100zM62 584l71 136h109l-103 -136h-77z" />
    <glyph glyph-name="icircumflex" unicode="&#xee;" horiz-adv-x="237" 
d="M69 0v500h100v-500h-100zM-30 584l103 136h92l103 -136h-77l-72 92l-72 -92h-77z" />
    <glyph glyph-name="idieresis" unicode="&#xef;" horiz-adv-x="237" 
d="M69 0v500h100v-500h-100zM-8 603v97h83v-97h-83zM163 603v97h83v-97h-83z" />
    <glyph glyph-name="eth" unicode="&#xf0;" horiz-adv-x="570" 
d="M178 121q17 -25 43.5 -40.5t63.5 -15.5t63.5 15.5t43 41t24 58t7.5 67.5q0 33 -7 64.5t-23.5 56.5t-43 40t-64.5 15t-64 -15.5t-42.5 -40t-24 -56t-7.5 -64.5q0 -35 7.5 -67.5t23.5 -58.5zM196 536l-39 43l97 53q-26 16 -59 28t-62 18l45 53q37 -5 77.5 -21.5t72.5 -36.5
l104 58l39 -43l-87 -49q42 -35 70 -76.5t45 -87.5t24.5 -95t7.5 -100q0 -62 -15.5 -115t-46 -92t-77 -61.5t-108.5 -22.5q-59 0 -104.5 18.5t-77 52.5t-47.5 81.5t-16 105.5q0 52 15 98t44 80t72 53.5t99 19.5q48 0 85 -18.5t69 -55.5q-14 51 -43 96.5t-71 77.5z" />
    <glyph glyph-name="ntilde" unicode="&#xf1;" horiz-adv-x="559" 
d="M69 0v385q0 29 -1 57.5t-4 57.5h94l3 -86q52 96 162 96q46 0 78.5 -14t52 -39.5t28.5 -61.5t9 -79v-316h-101v295q0 26 -3.5 51t-14 44t-30 30.5t-51.5 11.5q-35 0 -58.5 -14t-37.5 -36.5t-20 -51t-6 -58.5v-272h-100zM125 595q1 19 7.5 38.5t18 35t28.5 25t40 9.5
q19 0 36 -6.5t33 -14t30 -13.5t27 -6q19 0 28.5 14t10.5 29h55q0 -18 -7 -37t-19 -34.5t-29 -25.5t-38 -10q-20 0 -36 6t-30.5 13.5t-28 13.5t-28.5 6q-17 0 -30 -14t-13 -29h-55z" />
    <glyph glyph-name="ograve" unicode="&#xf2;" horiz-adv-x="570" 
d="M178 124q17 -26 43 -42.5t64 -16.5q37 0 63.5 16.5t43 42.5t24 59.5t7.5 68.5q0 33 -7 66t-23.5 59t-42.5 42t-65 16q-38 0 -64 -16t-42.5 -42.5t-24 -59t-7.5 -65.5q0 -34 7.5 -67.5t23.5 -60.5zM179 8q-69 30 -104.5 94t-35.5 150q0 57 17.5 104.5t49.5 81.5t77.5 53
t101.5 19q59 0 105 -18.5t77.5 -52t47.5 -81.5t16 -106q0 -57 -16 -105t-47.5 -83.5t-77.5 -55t-105 -19.5q-61 0 -106 19zM260 584l-104 136h108l72 -136h-76z" />
    <glyph glyph-name="oacute" unicode="&#xf3;" horiz-adv-x="570" 
d="M178 124q17 -26 43 -42.5t64 -16.5q37 0 63.5 16.5t43 42.5t24 59.5t7.5 68.5q0 33 -7 66t-23.5 59t-42.5 42t-65 16q-38 0 -64 -16t-42.5 -42.5t-24 -59t-7.5 -65.5q0 -34 7.5 -67.5t23.5 -60.5zM179 8q-69 30 -104.5 94t-35.5 150q0 57 17.5 104.5t49.5 81.5t77.5 53
t101.5 19q59 0 105 -18.5t77.5 -52t47.5 -81.5t16 -106q0 -57 -16 -105t-47.5 -83.5t-77.5 -55t-105 -19.5q-61 0 -106 19zM231 584l71 136h109l-103 -136h-77z" />
    <glyph glyph-name="ocircumflex" unicode="&#xf4;" horiz-adv-x="570" 
d="M178 124q17 -26 43 -42.5t64 -16.5q37 0 63.5 16.5t43 42.5t24 59.5t7.5 68.5q0 33 -7 66t-23.5 59t-42.5 42t-65 16q-38 0 -64 -16t-42.5 -42.5t-24 -59t-7.5 -65.5q0 -34 7.5 -67.5t23.5 -60.5zM179 8q-69 30 -104.5 94t-35.5 150q0 57 17.5 104.5t49.5 81.5t77.5 53
t101.5 19q59 0 105 -18.5t77.5 -52t47.5 -81.5t16 -106q0 -57 -16 -105t-47.5 -83.5t-77.5 -55t-105 -19.5q-61 0 -106 19zM136 584l103 136h92l103 -136h-77l-72 92l-72 -92h-77z" />
    <glyph glyph-name="otilde" unicode="&#xf5;" horiz-adv-x="570" 
d="M178 124q17 -26 43 -42.5t64 -16.5q37 0 63.5 16.5t43 42.5t24 59.5t7.5 68.5q0 33 -7 66t-23.5 59t-42.5 42t-65 16q-38 0 -64 -16t-42.5 -42.5t-24 -59t-7.5 -65.5q0 -34 7.5 -67.5t23.5 -60.5zM179 8q-69 30 -104.5 94t-35.5 150q0 57 17.5 104.5t49.5 81.5t77.5 53
t101.5 19q59 0 105 -18.5t77.5 -52t47.5 -81.5t16 -106q0 -57 -16 -105t-47.5 -83.5t-77.5 -55t-105 -19.5q-61 0 -106 19zM129 595q1 19 7.5 38.5t18 35t28.5 25t40 9.5q19 0 36 -6.5t33 -14t30 -13.5t27 -6q19 0 28.5 14t10.5 29h55q0 -18 -7 -37t-19 -34.5t-29 -25.5
t-38 -10q-20 0 -36 6t-30.5 13.5t-28 13.5t-28.5 6q-17 0 -30 -14t-13 -29h-55z" />
    <glyph glyph-name="odieresis" unicode="&#xf6;" horiz-adv-x="570" 
d="M178 124q17 -26 43 -42.5t64 -16.5q37 0 63.5 16.5t43 42.5t24 59.5t7.5 68.5q0 33 -7 66t-23.5 59t-42.5 42t-65 16q-38 0 -64 -16t-42.5 -42.5t-24 -59t-7.5 -65.5q0 -34 7.5 -67.5t23.5 -60.5zM179 8q-69 30 -104.5 94t-35.5 150q0 57 17.5 104.5t49.5 81.5t77.5 53
t101.5 19q59 0 105 -18.5t77.5 -52t47.5 -81.5t16 -106q0 -57 -16 -105t-47.5 -83.5t-77.5 -55t-105 -19.5q-61 0 -106 19zM158 603v97h83v-97h-83zM329 603v97h83v-97h-83z" />
    <glyph glyph-name="divide" unicode="&#xf7;" horiz-adv-x="562" 
d="M281 4q-25 0 -42 17.5t-17 43.5q0 25 17 42.5t42 17.5t42.5 -17.5t17.5 -42.5t-17 -43t-43 -18zM26 210v79h511v-79h-511zM281 374q-25 0 -42 17t-17 43q0 25 17 42.5t42 17.5t42.5 -17.5t17.5 -42.5t-17 -42.5t-43 -17.5z" />
    <glyph glyph-name="oslash" unicode="&#xf8;" horiz-adv-x="570" 
d="M26 5l66 73q-26 34 -39 78.5t-13 95.5q0 57 17 104.5t48.5 81.5t77.5 53t103 19q97 0 158 -49l59 65l41 -32l-64 -71q26 -31 39 -75t13 -96q0 -57 -16 -105t-47.5 -83.5t-77.5 -55t-105 -19.5q-51 0 -90 13.5t-69 38.5l-60 -68zM382 393q-16 19 -38.5 30.5t-57.5 11.5
q-38 0 -64.5 -16t-43 -42t-24.5 -59.5t-8 -67.5q0 -25 4 -51.5t16 -48.5zM189 109q16 -20 40.5 -32t56.5 -12q37 0 63.5 16t43 42t24 59.5t7.5 69.5q0 28 -4.5 54t-13.5 46z" />
    <glyph glyph-name="ugrave" unicode="&#xf9;" horiz-adv-x="555" 
d="M167 206q0 -26 3.5 -51t14 -44.5t30 -31t51.5 -11.5q34 0 57.5 14t37.5 36.5t20 51t6 58.5v272h100v-385q0 -29 1 -57.5t4 -57.5h-94l-3 85q-53 -96 -161 -96q-47 0 -78.5 14.5t-51.5 40.5t-28.5 62t-8.5 79v315h100v-294zM257 584l-104 136h108l72 -136h-76z" />
    <glyph glyph-name="uacute" unicode="&#xfa;" horiz-adv-x="555" 
d="M167 206q0 -26 3.5 -51t14 -44.5t30 -31t51.5 -11.5q34 0 57.5 14t37.5 36.5t20 51t6 58.5v272h100v-385q0 -29 1 -57.5t4 -57.5h-94l-3 85q-53 -96 -161 -96q-47 0 -78.5 14.5t-51.5 40.5t-28.5 62t-8.5 79v315h100v-294zM222 584l71 136h109l-103 -136h-77z" />
    <glyph glyph-name="ucircumflex" unicode="&#xfb;" horiz-adv-x="555" 
d="M167 206q0 -26 3.5 -51t14 -44.5t30 -31t51.5 -11.5q34 0 57.5 14t37.5 36.5t20 51t6 58.5v272h100v-385q0 -29 1 -57.5t4 -57.5h-94l-3 85q-53 -96 -161 -96q-47 0 -78.5 14.5t-51.5 40.5t-28.5 62t-8.5 79v315h100v-294zM129 584l103 136h92l103 -136h-77l-72 92
l-72 -92h-77z" />
    <glyph glyph-name="udieresis" unicode="&#xfc;" horiz-adv-x="555" 
d="M167 206q0 -26 3.5 -51t14 -44.5t30 -31t51.5 -11.5q34 0 57.5 14t37.5 36.5t20 51t6 58.5v272h100v-385q0 -29 1 -57.5t4 -57.5h-94l-3 85q-53 -96 -161 -96q-47 0 -78.5 14.5t-51.5 40.5t-28.5 62t-8.5 79v315h100v-294zM151 603v97h83v-97h-83zM322 603v97h83v-97h-83
z" />
    <glyph glyph-name="yacute" unicode="&#xfd;" horiz-adv-x="469" 
d="M36 -143q24 -7 49 -7q38 0 57.5 25t35.5 76l10 31l-179 518h109l122 -411l120 411h102l-191 -567q-10 -29 -23 -57.5t-32 -51.5t-46.5 -37t-66.5 -14q-41 0 -73 7zM195 584l71 136h109l-103 -136h-77z" />
    <glyph glyph-name="thorn" unicode="&#xfe;" horiz-adv-x="565" 
d="M193 129q15 -27 39.5 -45t60.5 -18q38 0 62.5 17.5t38.5 44.5t19.5 60t5.5 64t-5 63t-19 58.5t-38 43t-63 16.5q-36 0 -60.5 -17t-39.5 -43.5t-21.5 -58.5t-6.5 -62t6 -62.5t21 -60.5zM69 -216v937h100v-304q19 45 62 69t91 24q57 0 96 -21.5t63.5 -57.5t35 -82.5
t10.5 -96.5t-11 -97t-36 -84t-64 -59.5t-96 -22.5q-48 0 -90 23.5t-61 68.5v-297h-100z" />
    <glyph glyph-name="ydieresis" unicode="&#xff;" horiz-adv-x="469" 
d="M36 -143q24 -7 49 -7q38 0 57.5 25t35.5 76l10 31l-179 518h109l122 -411l120 411h102l-191 -567q-10 -29 -23 -57.5t-32 -51.5t-46.5 -37t-66.5 -14q-41 0 -73 7zM113 603v97h83v-97h-83zM284 603v97h83v-97h-83z" />
    <glyph glyph-name="Amacron" unicode="&#x100;" horiz-adv-x="662" 
d="M201 255h255l-127 335zM2 0l260 667h137l262 -667h-114l-64 175h-309l-66 -175h-106zM196 763v59h270v-59h-270z" />
    <glyph glyph-name="amacron" unicode="&#x101;" horiz-adv-x="517" 
d="M358 0l-3 79q-23 -42 -63 -66t-94 -24q-34 0 -64 8.5t-52.5 26.5t-36 46t-13.5 67q0 49 20.5 81.5t56.5 52t84 28t103 8.5h27.5t28.5 -1v21q0 55 -27 84t-87 29q-38 0 -75.5 -9.5t-71.5 -30.5l-6 77q35 14 79.5 23.5t82.5 9.5q97 0 150 -44.5t53 -145.5v-209
q0 -32 1.5 -58.5t4.5 -52.5h-98zM325 245q-37 0 -72 -3.5t-62 -14.5t-43.5 -31t-16.5 -53q0 -43 25.5 -62t65.5 -19q34 0 58.5 12.5t40.5 34t23.5 49.5t7.5 60v27h-27zM122 623v59h270v-59h-270z" />
    <glyph glyph-name="Abreve" unicode="&#x102;" horiz-adv-x="662" 
d="M201 255h255l-127 335zM2 0l260 667h137l262 -667h-114l-64 175h-309l-66 -175h-106zM255 853q3 -29 22.5 -48.5t54.5 -19.5t55 19.5t23 48.5h53q0 -15 -7 -36.5t-22.5 -41t-40.5 -33t-61 -13.5t-61 13.5t-40.5 33t-22.5 41t-7 36.5h54z" />
    <glyph glyph-name="abreve" unicode="&#x103;" horiz-adv-x="517" 
d="M358 0l-3 79q-23 -42 -63 -66t-94 -24q-34 0 -64 8.5t-52.5 26.5t-36 46t-13.5 67q0 49 20.5 81.5t56.5 52t84 28t103 8.5h27.5t28.5 -1v21q0 55 -27 84t-87 29q-38 0 -75.5 -9.5t-71.5 -30.5l-6 77q35 14 79.5 23.5t82.5 9.5q97 0 150 -44.5t53 -145.5v-209
q0 -32 1.5 -58.5t4.5 -52.5h-98zM325 245q-37 0 -72 -3.5t-62 -14.5t-43.5 -31t-16.5 -53q0 -43 25.5 -62t65.5 -19q34 0 58.5 12.5t40.5 34t23.5 49.5t7.5 60v27h-27zM181 713q3 -29 22.5 -48.5t54.5 -19.5t55 19.5t23 48.5h53q0 -15 -7 -36.5t-22.5 -41t-40.5 -33
t-61 -13.5t-61 13.5t-40.5 33t-22.5 41t-7 36.5h54z" />
    <glyph glyph-name="Aogonek" unicode="&#x104;" horiz-adv-x="662" 
d="M2 0l260 667h137l262 -667h-45q-42 -26 -57 -50t-15 -45q0 -23 14.5 -34t33.5 -11q15 0 27 3.5t31 12.5l13 -40q-20 -10 -39.5 -15.5t-45.5 -5.5q-48 0 -73.5 21.5t-25.5 55.5t21.5 61t60.5 47h-14l-64 175h-309l-66 -175h-106zM201 255h255l-127 335z" />
    <glyph glyph-name="aogonek" unicode="&#x105;" horiz-adv-x="517" 
d="M465 -164q-20 -10 -39.5 -15.5t-45.5 -5.5q-48 0 -73.5 21.5t-25.5 55.5t23 61t62 47h-8l-3 79q-23 -42 -63 -66t-94 -24q-34 0 -64 8.5t-52.5 26.5t-36 46t-13.5 67q0 49 20.5 81.5t56.5 52t84 28t103 8.5h27.5t28.5 -1v21q0 55 -27 84t-87 29q-38 0 -75.5 -9.5
t-71.5 -30.5l-6 77q35 14 79.5 23.5t82.5 9.5q97 0 150 -44.5t53 -145.5v-209q0 -32 1.5 -58.5t4.5 -52.5h-38q-42 -29 -57 -51.5t-15 -43.5q0 -23 14.5 -34t33.5 -11q15 0 27 3.5t31 12.5zM325 245q-37 0 -72 -3.5t-62 -14.5t-43.5 -31t-16.5 -53q0 -43 25.5 -62t65.5 -19
q34 0 58.5 12.5t40.5 34t23.5 49.5t7.5 60v27h-27z" />
    <glyph glyph-name="Cacute" unicode="&#x106;" horiz-adv-x="595" 
d="M562 18q-35 -16 -79.5 -22.5t-83.5 -6.5q-80 0 -145 23.5t-111 68t-71.5 108.5t-25.5 144q0 76 26.5 139.5t73.5 109t111.5 70.5t141.5 25q38 0 82 -6t79 -19l-6 -88q-31 14 -69.5 21t-73.5 7q-59 0 -105.5 -19.5t-78.5 -54t-49.5 -82t-17.5 -103.5q0 -58 16.5 -105.5
t48.5 -81.5t78 -53t106 -19q38 0 75.5 6.5t71.5 22.5zM328 724l71 136h109l-103 -136h-77z" />
    <glyph glyph-name="cacute" unicode="&#x107;" horiz-adv-x="457" 
d="M426 8q-30 -11 -60.5 -15t-65.5 -4q-65 0 -113.5 19.5t-81.5 54.5t-49.5 83.5t-16.5 105.5q0 58 19 105.5t53.5 81.5t83 52.5t107.5 18.5q33 0 63 -3t62 -14l-6 -80q-45 22 -105 22q-41 0 -72.5 -14t-53 -38.5t-32.5 -58t-11 -72.5q0 -38 10.5 -71.5t32.5 -59.5t55 -41
t77 -15q28 0 51 5.5t48 16.5zM224 584l71 136h109l-103 -136h-77z" />
    <glyph glyph-name="Ccircumflex" unicode="&#x108;" horiz-adv-x="595" 
d="M562 18q-35 -16 -79.5 -22.5t-83.5 -6.5q-80 0 -145 23.5t-111 68t-71.5 108.5t-25.5 144q0 76 26.5 139.5t73.5 109t111.5 70.5t141.5 25q38 0 82 -6t79 -19l-6 -88q-31 14 -69.5 21t-73.5 7q-59 0 -105.5 -19.5t-78.5 -54t-49.5 -82t-17.5 -103.5q0 -58 16.5 -105.5
t48.5 -81.5t78 -53t106 -19q38 0 75.5 6.5t71.5 22.5zM230 724l103 136h92l103 -136h-77l-72 92l-72 -92h-77z" />
    <glyph glyph-name="ccircumflex" unicode="&#x109;" horiz-adv-x="457" 
d="M426 8q-30 -11 -60.5 -15t-65.5 -4q-65 0 -113.5 19.5t-81.5 54.5t-49.5 83.5t-16.5 105.5q0 58 19 105.5t53.5 81.5t83 52.5t107.5 18.5q33 0 63 -3t62 -14l-6 -80q-45 22 -105 22q-41 0 -72.5 -14t-53 -38.5t-32.5 -58t-11 -72.5q0 -38 10.5 -71.5t32.5 -59.5t55 -41
t77 -15q28 0 51 5.5t48 16.5zM132 584l103 136h92l103 -136h-77l-72 92l-72 -92h-77z" />
    <glyph glyph-name="Cdotaccent" unicode="&#x10a;" horiz-adv-x="595" 
d="M562 18q-35 -16 -79.5 -22.5t-83.5 -6.5q-80 0 -145 23.5t-111 68t-71.5 108.5t-25.5 144q0 76 26.5 139.5t73.5 109t111.5 70.5t141.5 25q38 0 82 -6t79 -19l-6 -88q-31 14 -69.5 21t-73.5 7q-59 0 -105.5 -19.5t-78.5 -54t-49.5 -82t-17.5 -103.5q0 -58 16.5 -105.5
t48.5 -81.5t78 -53t106 -19q38 0 75.5 6.5t71.5 22.5zM328 743v97h100v-97h-100z" />
    <glyph glyph-name="cdotaccent" unicode="&#x10b;" horiz-adv-x="457" 
d="M426 8q-30 -11 -60.5 -15t-65.5 -4q-65 0 -113.5 19.5t-81.5 54.5t-49.5 83.5t-16.5 105.5q0 58 19 105.5t53.5 81.5t83 52.5t107.5 18.5q33 0 63 -3t62 -14l-6 -80q-45 22 -105 22q-41 0 -72.5 -14t-53 -38.5t-32.5 -58t-11 -72.5q0 -38 10.5 -71.5t32.5 -59.5t55 -41
t77 -15q28 0 51 5.5t48 16.5zM230 603v97h100v-97h-100z" />
    <glyph glyph-name="Ccaron" unicode="&#x10c;" horiz-adv-x="595" 
d="M562 18q-35 -16 -79.5 -22.5t-83.5 -6.5q-80 0 -145 23.5t-111 68t-71.5 108.5t-25.5 144q0 76 26.5 139.5t73.5 109t111.5 70.5t141.5 25q38 0 82 -6t79 -19l-6 -88q-31 14 -69.5 21t-73.5 7q-59 0 -105.5 -19.5t-78.5 -54t-49.5 -82t-17.5 -103.5q0 -58 16.5 -105.5
t48.5 -81.5t78 -53t106 -19q38 0 75.5 6.5t71.5 22.5zM334 724l-103 136h77l72 -92l72 92h77l-103 -136h-92z" />
    <glyph glyph-name="ccaron" unicode="&#x10d;" horiz-adv-x="457" 
d="M426 8q-30 -11 -60.5 -15t-65.5 -4q-65 0 -113.5 19.5t-81.5 54.5t-49.5 83.5t-16.5 105.5q0 58 19 105.5t53.5 81.5t83 52.5t107.5 18.5q33 0 63 -3t62 -14l-6 -80q-45 22 -105 22q-41 0 -72.5 -14t-53 -38.5t-32.5 -58t-11 -72.5q0 -38 10.5 -71.5t32.5 -59.5t55 -41
t77 -15q28 0 51 5.5t48 16.5zM235 584l-103 136h77l72 -92l72 92h77l-103 -136h-92z" />
    <glyph glyph-name="Dcaron" unicode="&#x10e;" horiz-adv-x="672" 
d="M80 0v667h205q161 0 251 -80t90 -244q0 -87 -27 -151.5t-76 -107t-117.5 -63.5t-150.5 -21h-175zM189 81h55q129 0 198.5 64.5t69.5 197.5q0 115 -60 179t-178 64h-85v-505zM250 724l-103 136h77l72 -92l72 92h77l-103 -136h-92z" />
    <glyph glyph-name="dcaron" unicode="&#x10f;" horiz-adv-x="565" 
d="M172 128q14 -27 38.5 -44.5t62.5 -17.5q36 0 60.5 18t39.5 45t21 59.5t6 62.5t-6.5 62t-21.5 59t-39.5 44t-60.5 17q-39 0 -63 -16.5t-38 -43t-19 -59t-5 -63.5t5.5 -63.5t19.5 -59.5zM409 0l-6 83q-23 -48 -64 -71t-93 -23q-57 0 -96 22.5t-64 59.5t-36 84t-11 97
t11 96.5t36 82.5t64 57.5t96 21.5q48 0 90 -24t61 -69v304h100v-571q0 -42 1.5 -78.5t3.5 -71.5h-93zM559 561l20 159h93l-43 -159h-70z" />
    <glyph glyph-name="Dcroat" unicode="&#x110;" horiz-adv-x="672" 
d="M80 0v304h-75v70h75v293h205q161 0 251 -80t90 -244q0 -87 -27 -151.5t-76 -107t-117.5 -63.5t-150.5 -21h-175zM189 81h55q129 0 198.5 64.5t69.5 197.5q0 115 -60 179t-178 64h-85v-212h161v-70h-161v-223z" />
    <glyph glyph-name="dcroat" unicode="&#x111;" horiz-adv-x="565" 
d="M172 128q14 -27 38.5 -44.5t62.5 -17.5q36 0 60.5 18t39.5 45t21 59.5t6 62.5t-6.5 62t-21.5 59t-39.5 44t-60.5 17q-39 0 -63 -16.5t-38 -43t-19 -59t-5 -63.5t5.5 -63.5t19.5 -59.5zM409 0l-6 83q-23 -48 -64 -71t-93 -23q-57 0 -96 22.5t-64 59.5t-36 84t-11 97
t11 96.5t36 82.5t64 57.5t96 21.5q48 0 90 -24t61 -69v173h-150v60h150v71h100v-71h80v-60h-80v-440q0 -42 1.5 -78.5t3.5 -71.5h-93z" />
    <glyph glyph-name="Emacron" unicode="&#x112;" horiz-adv-x="517" 
d="M80 0v667h383v-81h-276v-205h263v-80h-263v-220h286v-81h-393zM137 763v59h270v-59h-270z" />
    <glyph glyph-name="emacron" unicode="&#x113;" horiz-adv-x="510" 
d="M142 228q0 -35 10.5 -65.5t31.5 -53.5t52.5 -36.5t72.5 -13.5q34 0 69.5 7.5t65.5 23.5l6 -74q-35 -14 -74 -20.5t-81 -6.5q-63 0 -111 19t-80.5 54t-48.5 83t-16 107q0 51 15.5 98t45 82.5t72 56.5t96.5 21q59 0 99 -19.5t64.5 -53.5t35 -80t10.5 -99v-30h-335zM381 290
q0 28 -5 55.5t-17.5 48.5t-34 34t-55.5 13q-32 0 -55.5 -13.5t-39.5 -35t-24 -48.5t-9 -54h240zM129 623v59h270v-59h-270z" />
    <glyph glyph-name="Ebreve" unicode="&#x114;" horiz-adv-x="517" 
d="M80 0v667h383v-81h-276v-205h263v-80h-263v-220h286v-81h-393zM195 853q3 -29 22.5 -48.5t54.5 -19.5t55 19.5t23 48.5h53q0 -15 -7 -36.5t-22.5 -41t-40.5 -33t-61 -13.5t-61 13.5t-40.5 33t-22.5 41t-7 36.5h54z" />
    <glyph glyph-name="ebreve" unicode="&#x115;" horiz-adv-x="510" 
d="M142 228q0 -35 10.5 -65.5t31.5 -53.5t52.5 -36.5t72.5 -13.5q34 0 69.5 7.5t65.5 23.5l6 -74q-35 -14 -74 -20.5t-81 -6.5q-63 0 -111 19t-80.5 54t-48.5 83t-16 107q0 51 15.5 98t45 82.5t72 56.5t96.5 21q59 0 99 -19.5t64.5 -53.5t35 -80t10.5 -99v-30h-335zM381 290
q0 28 -5 55.5t-17.5 48.5t-34 34t-55.5 13q-32 0 -55.5 -13.5t-39.5 -35t-24 -48.5t-9 -54h240zM186 713q3 -29 22.5 -48.5t54.5 -19.5t55 19.5t23 48.5h53q0 -15 -7 -36.5t-22.5 -41t-40.5 -33t-61 -13.5t-61 13.5t-40.5 33t-22.5 41t-7 36.5h54z" />
    <glyph glyph-name="Edotaccent" unicode="&#x116;" horiz-adv-x="517" 
d="M80 0v667h383v-81h-276v-205h263v-80h-263v-220h286v-81h-393zM222 743v97h100v-97h-100z" />
    <glyph glyph-name="edotaccent" unicode="&#x117;" horiz-adv-x="510" 
d="M142 228q0 -35 10.5 -65.5t31.5 -53.5t52.5 -36.5t72.5 -13.5q34 0 69.5 7.5t65.5 23.5l6 -74q-35 -14 -74 -20.5t-81 -6.5q-63 0 -111 19t-80.5 54t-48.5 83t-16 107q0 51 15.5 98t45 82.5t72 56.5t96.5 21q59 0 99 -19.5t64.5 -53.5t35 -80t10.5 -99v-30h-335zM381 290
q0 28 -5 55.5t-17.5 48.5t-34 34t-55.5 13q-32 0 -55.5 -13.5t-39.5 -35t-24 -48.5t-9 -54h240zM213 603v97h100v-97h-100z" />
    <glyph glyph-name="Eogonek" unicode="&#x118;" horiz-adv-x="517" 
d="M80 0v667h383v-81h-276v-205h263v-80h-263v-220h286v-81h-55q-42 -29 -57 -51.5t-15 -43.5q0 -23 14.5 -34t33.5 -11q15 0 27 3.5t31 12.5l13 -40q-20 -10 -39.5 -15.5t-45.5 -5.5q-48 0 -73.5 21.5t-25.5 55.5t23 61t62 47h-286z" />
    <glyph glyph-name="eogonek" unicode="&#x119;" horiz-adv-x="510" 
d="M389 -164q-20 -10 -39.5 -15.5t-45.5 -5.5q-48 0 -73.5 21.5t-25.5 55.5q0 29 17.5 54t46.5 44q-57 4 -100 24.5t-72 55t-43.5 80.5t-14.5 102q0 51 15.5 98t45 82.5t72 56.5t96.5 21q59 0 99 -19.5t64.5 -53.5t35 -80t10.5 -99v-30h-335q0 -35 10.5 -65.5t31.5 -53.5
t52.5 -36.5t72.5 -13.5q34 0 69.5 7.5t65.5 23.5l6 -74q-29 -12 -60.5 -18t-64.5 -8q-31 -24 -43 -45t-12 -40q0 -23 14.5 -34t33.5 -11q15 0 27 3.5t31 12.5zM381 290q0 28 -5 55.5t-17.5 48.5t-34 34t-55.5 13q-32 0 -55.5 -13.5t-39.5 -35t-24 -48.5t-9 -54h240z" />
    <glyph glyph-name="Ecaron" unicode="&#x11a;" horiz-adv-x="517" 
d="M80 0v667h383v-81h-276v-205h263v-80h-263v-220h286v-81h-393zM225 724l-103 136h77l72 -92l72 92h77l-103 -136h-92z" />
    <glyph glyph-name="ecaron" unicode="&#x11b;" horiz-adv-x="510" 
d="M142 228q0 -35 10.5 -65.5t31.5 -53.5t52.5 -36.5t72.5 -13.5q34 0 69.5 7.5t65.5 23.5l6 -74q-35 -14 -74 -20.5t-81 -6.5q-63 0 -111 19t-80.5 54t-48.5 83t-16 107q0 51 15.5 98t45 82.5t72 56.5t96.5 21q59 0 99 -19.5t64.5 -53.5t35 -80t10.5 -99v-30h-335zM381 290
q0 28 -5 55.5t-17.5 48.5t-34 34t-55.5 13q-32 0 -55.5 -13.5t-39.5 -35t-24 -48.5t-9 -54h240zM218 584l-103 136h77l72 -92l72 92h77l-103 -136h-92z" />
    <glyph glyph-name="Gcircumflex" unicode="&#x11c;" horiz-adv-x="681" 
d="M615 30q-54 -21 -103.5 -31t-107.5 -10q-80 0 -145.5 23.5t-113 68t-73.5 108.5t-26 144q0 77 28 140.5t77.5 108.5t117 70t146.5 25q46 0 95 -6.5t92 -23.5l-6 -90q-39 20 -84 28.5t-90 8.5q-59 0 -107.5 -19t-83 -53.5t-53 -82.5t-18.5 -106q0 -56 16 -103.5
t47.5 -82.5t78 -54.5t106.5 -19.5q31 0 55 3t52 11v207h-141v77h241v-341zM242 724l103 136h92l103 -136h-77l-72 92l-72 -92h-77z" />
    <glyph glyph-name="gcircumflex" unicode="&#x11d;" horiz-adv-x="565" 
d="M172 134q14 -25 38 -41t62 -16q36 0 60.5 16.5t39.5 42t21.5 56t6.5 59.5q0 30 -6 62t-21 59t-39.5 44t-60.5 17q-39 0 -63.5 -16.5t-38.5 -43t-19 -59t-5 -63.5q0 -29 5.5 -60t19.5 -57zM85 -115q33 -17 71.5 -26.5t77.5 -9.5q43 0 74 13t51 36.5t29 56.5t9 73v59
q-24 -42 -65.5 -64.5t-89.5 -22.5q-55 0 -93.5 22t-63 57.5t-35.5 80.5t-11 92q0 50 11 96.5t36 82.5t63.5 57.5t94.5 21.5q52 0 92.5 -22.5t64.5 -70.5v83h96v-472q0 -123 -61 -189t-187 -66q-43 0 -85.5 7t-84.5 20zM134 584l103 136h92l103 -136h-77l-72 92l-72 -92h-77z
" />
    <glyph glyph-name="Gbreve" unicode="&#x11e;" horiz-adv-x="681" 
d="M615 30q-54 -21 -103.5 -31t-107.5 -10q-80 0 -145.5 23.5t-113 68t-73.5 108.5t-26 144q0 77 28 140.5t77.5 108.5t117 70t146.5 25q46 0 95 -6.5t92 -23.5l-6 -90q-39 20 -84 28.5t-90 8.5q-59 0 -107.5 -19t-83 -53.5t-53 -82.5t-18.5 -106q0 -56 16 -103.5
t47.5 -82.5t78 -54.5t106.5 -19.5q31 0 55 3t52 11v207h-141v77h241v-341zM316 853q3 -29 22.5 -48.5t54.5 -19.5t55 19.5t23 48.5h53q0 -15 -7 -36.5t-22.5 -41t-40.5 -33t-61 -13.5t-61 13.5t-40.5 33t-22.5 41t-7 36.5h54z" />
    <glyph glyph-name="gbreve" unicode="&#x11f;" horiz-adv-x="565" 
d="M172 134q14 -25 38 -41t62 -16q36 0 60.5 16.5t39.5 42t21.5 56t6.5 59.5q0 30 -6 62t-21 59t-39.5 44t-60.5 17q-39 0 -63.5 -16.5t-38.5 -43t-19 -59t-5 -63.5q0 -29 5.5 -60t19.5 -57zM85 -115q33 -17 71.5 -26.5t77.5 -9.5q43 0 74 13t51 36.5t29 56.5t9 73v59
q-24 -42 -65.5 -64.5t-89.5 -22.5q-55 0 -93.5 22t-63 57.5t-35.5 80.5t-11 92q0 50 11 96.5t36 82.5t63.5 57.5t94.5 21.5q52 0 92.5 -22.5t64.5 -70.5v83h96v-472q0 -123 -61 -189t-187 -66q-43 0 -85.5 7t-84.5 20zM206 713q3 -29 22.5 -48.5t54.5 -19.5t55 19.5t23 48.5
h53q0 -15 -7 -36.5t-22.5 -41t-40.5 -33t-61 -13.5t-61 13.5t-40.5 33t-22.5 41t-7 36.5h54z" />
    <glyph glyph-name="Gdotaccent" unicode="&#x120;" horiz-adv-x="681" 
d="M615 30q-54 -21 -103.5 -31t-107.5 -10q-80 0 -145.5 23.5t-113 68t-73.5 108.5t-26 144q0 77 28 140.5t77.5 108.5t117 70t146.5 25q46 0 95 -6.5t92 -23.5l-6 -90q-39 20 -84 28.5t-90 8.5q-59 0 -107.5 -19t-83 -53.5t-53 -82.5t-18.5 -106q0 -56 16 -103.5
t47.5 -82.5t78 -54.5t106.5 -19.5q31 0 55 3t52 11v207h-141v77h241v-341zM341 743v97h100v-97h-100z" />
    <glyph glyph-name="gdotaccent" unicode="&#x121;" horiz-adv-x="565" 
d="M172 134q14 -25 38 -41t62 -16q36 0 60.5 16.5t39.5 42t21.5 56t6.5 59.5q0 30 -6 62t-21 59t-39.5 44t-60.5 17q-39 0 -63.5 -16.5t-38.5 -43t-19 -59t-5 -63.5q0 -29 5.5 -60t19.5 -57zM85 -115q33 -17 71.5 -26.5t77.5 -9.5q43 0 74 13t51 36.5t29 56.5t9 73v59
q-24 -42 -65.5 -64.5t-89.5 -22.5q-55 0 -93.5 22t-63 57.5t-35.5 80.5t-11 92q0 50 11 96.5t36 82.5t63.5 57.5t94.5 21.5q52 0 92.5 -22.5t64.5 -70.5v83h96v-472q0 -123 -61 -189t-187 -66q-43 0 -85.5 7t-84.5 20zM233 603v97h100v-97h-100z" />
    <glyph glyph-name="Gcommaaccent" unicode="&#x122;" horiz-adv-x="681" 
d="M615 30q-54 -21 -103.5 -31t-107.5 -10q-80 0 -145.5 23.5t-113 68t-73.5 108.5t-26 144q0 77 28 140.5t77.5 108.5t117 70t146.5 25q46 0 95 -6.5t92 -23.5l-6 -90q-39 20 -84 28.5t-90 8.5q-59 0 -107.5 -19t-83 -53.5t-53 -82.5t-18.5 -106q0 -56 16 -103.5
t47.5 -82.5t78 -54.5t106.5 -19.5q31 0 55 3t52 11v207h-141v77h241v-341zM319 -227l44 159h87l-67 -159h-64z" />
    <glyph glyph-name="gcommaaccent" unicode="&#x123;" horiz-adv-x="565" 
d="M172 134q14 -25 38 -41t62 -16q36 0 60.5 16.5t39.5 42t21.5 56t6.5 59.5q0 30 -6 62t-21 59t-39.5 44t-60.5 17q-39 0 -63.5 -16.5t-38.5 -43t-19 -59t-5 -63.5q0 -29 5.5 -60t19.5 -57zM85 -115q33 -17 71.5 -26.5t77.5 -9.5q43 0 74 13t51 36.5t29 56.5t9 73v59
q-24 -42 -65.5 -64.5t-89.5 -22.5q-55 0 -93.5 22t-63 57.5t-35.5 80.5t-11 92q0 50 11 96.5t36 82.5t63.5 57.5t94.5 21.5q52 0 92.5 -22.5t64.5 -70.5v83h96v-472q0 -123 -61 -189t-187 -66q-43 0 -85.5 7t-84.5 20zM236 584l59 136h61l-35 -136h-85z" />
    <glyph glyph-name="Hcircumflex" unicode="&#x124;" horiz-adv-x="676" 
d="M80 0v667h109v-279h299v279h109v-667h-109v298h-299v-298h-109zM192 724l103 136h92l103 -136h-77l-72 92l-72 -92h-77z" />
    <glyph glyph-name="hcircumflex" unicode="&#x125;" horiz-adv-x="559" 
d="M69 0v721h100v-304q46 93 155 93q45 0 76.5 -14.5t52 -40t29.5 -61t9 -78.5v-316h-101v295q0 27 -3.5 51.5t-14 43.5t-30 30.5t-51.5 11.5q-35 0 -58 -14t-37.5 -36.5t-20.5 -51t-6 -57.5v-273h-100zM118 769l103 136h92l103 -136h-77l-72 92l-72 -92h-77z" />
    <glyph glyph-name="Hbar" unicode="&#x126;" horiz-adv-x="676" 
d="M80 0v667h109v-131h299v131h109v-667h-109v267h-299v-267h-109zM189 353h299v111h-299v-111z" />
    <glyph glyph-name="hbar" unicode="&#x127;" horiz-adv-x="559" 
d="M69 0v590h-79v60h79v71h100v-71h151v-60h-151v-173q46 93 155 93q45 0 76.5 -14.5t52 -40t29.5 -61t9 -78.5v-316h-101v295q0 27 -3.5 51.5t-14 43.5t-30 30.5t-51.5 11.5q-35 0 -58 -14t-37.5 -36.5t-20.5 -51t-6 -57.5v-273h-100z" />
    <glyph glyph-name="Itilde" unicode="&#x128;" horiz-adv-x="268" 
d="M80 0v667h109v-667h-109zM-22 735q1 19 7.5 38.5t18 35t28.5 25t40 9.5q19 0 36 -6.5t33 -14t30 -13.5t27 -6q19 0 28.5 14t10.5 29h55q0 -18 -7 -37t-19 -34.5t-29 -25.5t-38 -10q-20 0 -36 6t-30.5 13.5t-28 13.5t-28.5 6q-17 0 -30 -14t-13 -29h-55z" />
    <glyph glyph-name="itilde" unicode="&#x129;" horiz-adv-x="237" 
d="M69 0v500h100v-500h-100zM-37 595q1 19 7.5 38.5t18 35t28.5 25t40 9.5q19 0 36 -6.5t33 -14t30 -13.5t27 -6q19 0 28.5 14t10.5 29h55q0 -18 -7 -37t-19 -34.5t-29 -25.5t-38 -10q-20 0 -36 6t-30.5 13.5t-28 13.5t-28.5 6q-17 0 -30 -14t-13 -29h-55z" />
    <glyph glyph-name="Imacron" unicode="&#x12a;" horiz-adv-x="268" 
d="M80 0v667h109v-667h-109zM-1 763v59h270v-59h-270z" />
    <glyph glyph-name="imacron" unicode="&#x12b;" horiz-adv-x="237" 
d="M69 0v500h100v-500h-100zM-16 623v59h270v-59h-270z" />
    <glyph glyph-name="Ibreve" unicode="&#x12c;" horiz-adv-x="268" 
d="M80 0v667h109v-667h-109zM57 853q3 -29 22.5 -48.5t54.5 -19.5t55 19.5t23 48.5h53q0 -15 -7 -36.5t-22.5 -41t-40.5 -33t-61 -13.5t-61 13.5t-40.5 33t-22.5 41t-7 36.5h54z" />
    <glyph glyph-name="ibreve" unicode="&#x12d;" horiz-adv-x="237" 
d="M69 0v500h100v-500h-100zM42 713q3 -29 22.5 -48.5t54.5 -19.5t55 19.5t23 48.5h53q0 -15 -7 -36.5t-22.5 -41t-40.5 -33t-61 -13.5t-61 13.5t-40.5 33t-22.5 41t-7 36.5h54z" />
    <glyph glyph-name="Iogonek" unicode="&#x12e;" horiz-adv-x="268" 
d="M221 -168q-17 -8 -33.5 -12.5t-40.5 -4.5q-46 0 -71.5 21.5t-25.5 55.5t24.5 60.5t61.5 47.5h-56v667h109v-667q-42 -29 -58 -51.5t-16 -43.5q0 -23 14.5 -34t31.5 -11q11 0 22 3t25 9z" />
    <glyph glyph-name="iogonek" unicode="&#x12f;" horiz-adv-x="237" 
d="M205 -168q-17 -8 -33.5 -12.5t-40.5 -4.5q-46 0 -71.5 21.5t-25.5 55.5t23.5 60.5t58.5 47.5h-47v500h100v-500h-1q-41 -29 -55 -51.5t-14 -43.5q0 -23 14.5 -34t31.5 -11q11 0 22 3t25 9zM69 603v97h100v-97h-100z" />
    <glyph glyph-name="Idotaccent" unicode="&#x130;" horiz-adv-x="268" 
d="M80 0v667h109v-667h-109zM85 743v97h100v-97h-100z" />
    <glyph glyph-name="dotlessi" unicode="&#x131;" horiz-adv-x="237" 
d="M69 0v500h100v-500h-100z" />
    <glyph glyph-name="Jcircumflex" unicode="&#x134;" horiz-adv-x="344" 
d="M10 87q14 -6 28 -8t29 -2q27 0 45 9.5t29.5 25t16.5 36.5t5 44v475h109v-486q0 -43 -11 -78t-32.5 -60.5t-54.5 -39.5t-78 -14q-48 0 -91 15zM64 724l103 136h92l103 -136h-77l-72 92l-72 -92h-77z" />
    <glyph glyph-name="jcircumflex" unicode="&#x135;" horiz-adv-x="243" 
d="M-24 -142q16 -6 36 -6q21 0 33.5 7.5t18.5 19.5t8 28t2 33v560h101v-572q0 -33 -6.5 -61t-21.5 -49t-39.5 -33t-60.5 -12q-20 0 -39 1.5t-38 6.5zM-30 584l103 136h92l103 -136h-77l-72 92l-72 -92h-77z" />
    <glyph glyph-name="Kcommaaccent" unicode="&#x136;" horiz-adv-x="619" 
d="M80 0v667h109v-295l269 295h132l-301 -312l327 -355h-140l-287 326v-326h-109zM234 -227l44 159h87l-67 -159h-64z" />
    <glyph glyph-name="kcommaaccent" unicode="&#x137;" horiz-adv-x="517" 
d="M69 0v721h100v-427l199 206h122l-219 -222l242 -278h-126l-218 258v-258h-100zM191 -227l44 159h87l-67 -159h-64z" />
    <glyph glyph-name="kgreenlandic" unicode="&#x138;" horiz-adv-x="517" 
d="M69 0v500h100v-206l199 206h122l-219 -222l242 -278h-126l-218 258v-258h-100z" />
    <glyph glyph-name="Lacute" unicode="&#x139;" horiz-adv-x="484" 
d="M80 0v667h109v-577h277v-90h-386zM98 724l71 136h109l-103 -136h-77z" />
    <glyph glyph-name="lacute" unicode="&#x13a;" horiz-adv-x="237" 
d="M69 0v721h100v-721h-100zM71 769l71 136h109l-103 -136h-77z" />
    <glyph glyph-name="Lcommaaccent" unicode="&#x13b;" horiz-adv-x="484" 
d="M80 0v667h109v-577h277v-90h-386zM191 -227l44 159h87l-67 -159h-64z" />
    <glyph glyph-name="lcommaaccent" unicode="&#x13c;" horiz-adv-x="237" 
d="M69 0v721h100v-721h-100zM30 -227l44 159h87l-67 -159h-64z" />
    <glyph glyph-name="Lcaron" unicode="&#x13d;" horiz-adv-x="484" 
d="M80 0v667h109v-577h277v-90h-386zM277 561l20 159h93l-43 -159h-70z" />
    <glyph glyph-name="lcaron" unicode="&#x13e;" horiz-adv-x="237" 
d="M69 0v721h100v-721h-100zM231 561l20 159h93l-43 -159h-70z" />
    <glyph glyph-name="Ldot" unicode="&#x13f;" horiz-adv-x="484" 
d="M80 0v667h109v-577h277v-90h-386zM320 298v97h100v-97h-100z" />
    <glyph glyph-name="ldot" unicode="&#x140;" horiz-adv-x="367" 
d="M69 0v721h100v-721h-100zM257 298v97h100v-97h-100z" />
    <glyph glyph-name="Lslash" unicode="&#x141;" horiz-adv-x="484" 
d="M80 0v286l-77 -66v75l77 66v306h109v-235l139 121v-76l-139 -120v-267h277v-90h-386z" />
    <glyph glyph-name="lslash" unicode="&#x142;" horiz-adv-x="237" 
d="M69 0v321l-71 -62v75l71 62v325h101v-259l71 62v-75l-71 -62v-387h-101z" />
    <glyph glyph-name="Nacute" unicode="&#x143;" horiz-adv-x="703" 
d="M80 0v667h156l289 -568v568h99v-667h-157l-289 568v-568h-98zM308 724l71 136h109l-103 -136h-77z" />
    <glyph glyph-name="nacute" unicode="&#x144;" horiz-adv-x="559" 
d="M69 0v385q0 29 -1 57.5t-4 57.5h94l3 -86q52 96 162 96q46 0 78.5 -14t52 -39.5t28.5 -61.5t9 -79v-316h-101v295q0 26 -3.5 51t-14 44t-30 30.5t-51.5 11.5q-35 0 -58.5 -14t-37.5 -36.5t-20 -51t-6 -58.5v-272h-100zM225 584l71 136h109l-103 -136h-77z" />
    <glyph glyph-name="Ncommaaccent" unicode="&#x145;" horiz-adv-x="703" 
d="M80 0v667h156l289 -568v568h99v-667h-157l-289 568v-568h-98zM277 -227l44 159h87l-67 -159h-64z" />
    <glyph glyph-name="ncommaaccent" unicode="&#x146;" horiz-adv-x="559" 
d="M69 0v385q0 29 -1 57.5t-4 57.5h94l3 -86q52 96 162 96q46 0 78.5 -14t52 -39.5t28.5 -61.5t9 -79v-316h-101v295q0 26 -3.5 51t-14 44t-30 30.5t-51.5 11.5q-35 0 -58.5 -14t-37.5 -36.5t-20 -51t-6 -58.5v-272h-100zM194 -227l44 159h87l-67 -159h-64z" />
    <glyph glyph-name="Ncaron" unicode="&#x147;" horiz-adv-x="703" 
d="M80 0v667h156l289 -568v568h99v-667h-157l-289 568v-568h-98zM313 724l-103 136h77l72 -92l72 92h77l-103 -136h-92z" />
    <glyph glyph-name="ncaron" unicode="&#x148;" horiz-adv-x="559" 
d="M69 0v385q0 29 -1 57.5t-4 57.5h94l3 -86q52 96 162 96q46 0 78.5 -14t52 -39.5t28.5 -61.5t9 -79v-316h-101v295q0 26 -3.5 51t-14 44t-30 30.5t-51.5 11.5q-35 0 -58.5 -14t-37.5 -36.5t-20 -51t-6 -58.5v-272h-100zM235 584l-103 136h77l72 -92l72 92h77l-103 -136
h-92z" />
    <glyph glyph-name="napostrophe" unicode="&#x149;" horiz-adv-x="610" 
d="M120 0v385q0 29 -1 57.5t-4 57.5h94l3 -86q52 96 162 96q46 0 78.5 -14t52 -39.5t28.5 -61.5t9 -79v-316h-101v295q0 26 -3.5 51t-14 44t-30 30.5t-51.5 11.5q-35 0 -58.5 -14t-37.5 -36.5t-20 -51t-6 -58.5v-272h-100zM-23 491l58 230h104l-88 -230h-74z" />
    <glyph glyph-name="Eng" unicode="&#x14a;" horiz-adv-x="699" 
d="M460 -227q-17 0 -34.5 3t-31.5 7l6 80q18 -8 39 -8q43 0 62 20.5t20 68.5v28l-343 596v-568h-98v667h156l285 -502v502h99v-709q0 -96 -39.5 -140.5t-120.5 -44.5z" />
    <glyph glyph-name="eng" unicode="&#x14b;" horiz-adv-x="559" 
d="M390 295q0 26 -3.5 51t-14 44t-30 30.5t-52.5 11.5q-35 0 -58 -14t-37 -36.5t-20 -51t-6 -58.5v-272h-100v385q0 29 -1 57.5t-4 57.5h94l2 -86q52 96 162 96q46 0 78.5 -14.5t52.5 -40t29 -61.5t9 -79v-389q0 -78 -37.5 -115.5t-106.5 -37.5q-17 0 -32.5 2.5t-27.5 6.5
l6 77q17 -7 31 -7q32 0 49 18t17 64v361z" />
    <glyph glyph-name="Omacron" unicode="&#x14c;" horiz-adv-x="716" 
d="M206 156q24 -37 61 -61t91 -24q55 0 92.5 23.5t61 61t34 84t10.5 93.5q0 46 -10.5 93t-34 84.5t-61 61t-92.5 23.5q-54 0 -91.5 -24t-61 -61.5t-34.5 -84t-11 -92.5t11 -92.5t35 -84.5zM221 15q-88 39 -131.5 122.5t-43.5 195.5q0 72 20 134.5t59.5 109t97.5 73.5t135 27
q78 0 136.5 -26t97.5 -72t58.5 -109t19.5 -137q0 -73 -20 -135.5t-59 -109t-97.5 -73t-135.5 -26.5t-137 26zM223 763v59h270v-59h-270z" />
    <glyph glyph-name="omacron" unicode="&#x14d;" horiz-adv-x="570" 
d="M178 124q17 -26 43 -42.5t64 -16.5q37 0 63.5 16.5t43 42.5t24 59.5t7.5 68.5q0 33 -7 66t-23.5 59t-42.5 42t-65 16q-38 0 -64 -16t-42.5 -42.5t-24 -59t-7.5 -65.5q0 -34 7.5 -67.5t23.5 -60.5zM179 8q-69 30 -104.5 94t-35.5 150q0 57 17.5 104.5t49.5 81.5t77.5 53
t101.5 19q59 0 105 -18.5t77.5 -52t47.5 -81.5t16 -106q0 -57 -16 -105t-47.5 -83.5t-77.5 -55t-105 -19.5q-61 0 -106 19zM150 623v59h270v-59h-270z" />
    <glyph glyph-name="Obreve" unicode="&#x14e;" horiz-adv-x="716" 
d="M206 156q24 -37 61 -61t91 -24q55 0 92.5 23.5t61 61t34 84t10.5 93.5q0 46 -10.5 93t-34 84.5t-61 61t-92.5 23.5q-54 0 -91.5 -24t-61 -61.5t-34.5 -84t-11 -92.5t11 -92.5t35 -84.5zM221 15q-88 39 -131.5 122.5t-43.5 195.5q0 72 20 134.5t59.5 109t97.5 73.5t135 27
q78 0 136.5 -26t97.5 -72t58.5 -109t19.5 -137q0 -73 -20 -135.5t-59 -109t-97.5 -73t-135.5 -26.5t-137 26zM281 853q3 -29 22.5 -48.5t54.5 -19.5t55 19.5t23 48.5h53q0 -15 -7 -36.5t-22.5 -41t-40.5 -33t-61 -13.5t-61 13.5t-40.5 33t-22.5 41t-7 36.5h54z" />
    <glyph glyph-name="obreve" unicode="&#x14f;" horiz-adv-x="570" 
d="M178 124q17 -26 43 -42.5t64 -16.5q37 0 63.5 16.5t43 42.5t24 59.5t7.5 68.5q0 33 -7 66t-23.5 59t-42.5 42t-65 16q-38 0 -64 -16t-42.5 -42.5t-24 -59t-7.5 -65.5q0 -34 7.5 -67.5t23.5 -60.5zM179 8q-69 30 -104.5 94t-35.5 150q0 57 17.5 104.5t49.5 81.5t77.5 53
t101.5 19q59 0 105 -18.5t77.5 -52t47.5 -81.5t16 -106q0 -57 -16 -105t-47.5 -83.5t-77.5 -55t-105 -19.5q-61 0 -106 19zM208 713q3 -29 22.5 -48.5t54.5 -19.5t55 19.5t23 48.5h53q0 -15 -7 -36.5t-22.5 -41t-40.5 -33t-61 -13.5t-61 13.5t-40.5 33t-22.5 41t-7 36.5h54z
" />
    <glyph glyph-name="Ohungarumlaut" unicode="&#x150;" horiz-adv-x="716" 
d="M206 156q24 -37 61 -61t91 -24q55 0 92.5 23.5t61 61t34 84t10.5 93.5q0 46 -10.5 93t-34 84.5t-61 61t-92.5 23.5q-54 0 -91.5 -24t-61 -61.5t-34.5 -84t-11 -92.5t11 -92.5t35 -84.5zM221 15q-88 39 -131.5 122.5t-43.5 195.5q0 72 20 134.5t59.5 109t97.5 73.5t135 27
q78 0 136.5 -26t97.5 -72t58.5 -109t19.5 -137q0 -73 -20 -135.5t-59 -109t-97.5 -73t-135.5 -26.5t-137 26zM411 724l72 136h108l-103 -136h-77zM221 724l72 136h108l-103 -136h-77z" />
    <glyph glyph-name="ohungarumlaut" unicode="&#x151;" horiz-adv-x="570" 
d="M178 124q17 -26 43 -42.5t64 -16.5q37 0 63.5 16.5t43 42.5t24 59.5t7.5 68.5q0 33 -7 66t-23.5 59t-42.5 42t-65 16q-38 0 -64 -16t-42.5 -42.5t-24 -59t-7.5 -65.5q0 -34 7.5 -67.5t23.5 -60.5zM179 8q-69 30 -104.5 94t-35.5 150q0 57 17.5 104.5t49.5 81.5t77.5 53
t101.5 19q59 0 105 -18.5t77.5 -52t47.5 -81.5t16 -106q0 -57 -16 -105t-47.5 -83.5t-77.5 -55t-105 -19.5q-61 0 -106 19zM142 584l72 136h108l-103 -136h-77zM332 584l72 136h108l-103 -136h-77z" />
    <glyph glyph-name="OE" unicode="&#x152;" horiz-adv-x="903" 
d="M500 0q-26 -5 -51.5 -8t-60.5 -3q-86 0 -150 26t-107 72t-64 109t-21 137q0 72 22 134.5t65 109t107 73.5t148 27q34 0 60 -2.5t52 -7.5h350v-81h-269v-205h254v-79h-254v-221h278v-81h-359zM476 587q-20 5 -39 6.5t-46 1.5q-63 0 -107 -23.5t-71.5 -61t-40.5 -84.5
t-13 -93q0 -47 13.5 -93.5t42 -84t72.5 -61t106 -23.5q28 0 45 2t38 7v507z" />
    <glyph glyph-name="oe" unicode="&#x153;" horiz-adv-x="889" 
d="M518 228q0 -35 10.5 -65.5t31.5 -53.5t52.5 -36.5t72.5 -13.5q34 0 69.5 7.5t65.5 23.5l6 -74q-35 -14 -74 -20.5t-81 -6.5q-70 0 -121 26t-80 77q-29 -48 -78 -75.5t-115 -27.5q-59 0 -103.5 20.5t-74.5 56t-45 83.5t-15 103q0 54 16.5 101.5t47 82t75 54.5t100.5 20
q69 0 116.5 -27t77.5 -76q26 45 69 74t104 29q59 0 99 -19.5t64 -53.5t34.5 -80t10.5 -99v-30h-335zM174 124q17 -26 43 -42.5t64 -16.5q37 0 63.5 16.5t43 42.5t24 59.5t7.5 68.5q0 33 -7 66t-23.5 59t-42.5 42t-65 16q-38 0 -64 -16t-42.5 -42.5t-24 -59t-7.5 -65.5
q0 -34 7.5 -67.5t23.5 -60.5zM757 290q0 28 -5 55.5t-17.5 48.5t-34 34t-55.5 13q-32 0 -55.5 -13.5t-39.5 -35t-24 -48.5t-9 -54h240z" />
    <glyph glyph-name="Racute" unicode="&#x154;" horiz-adv-x="583" 
d="M80 0v667h198q44 0 87 -7t77 -26t55 -52.5t21 -86.5q0 -33 -12 -60.5t-33 -48t-49 -34t-59 -18.5q35 -5 59 -29.5t39 -61.5l99 -243h-119l-82 207q-10 25 -20.5 42t-24 27t-31.5 14t-44 4h-54v-294h-107zM187 374h68q27 0 54.5 5.5t49 19t35 35t13.5 53.5t-12 52t-32 31
t-47 14.5t-57 3.5h-72v-214zM223 724l71 136h109l-103 -136h-77z" />
    <glyph glyph-name="racute" unicode="&#x155;" horiz-adv-x="352" 
d="M69 0v385q0 29 -1 57.5t-4 57.5h94l3 -96q8 20 21 39t30.5 34t39 24t45.5 9q11 0 21 -0.5t21 -3.5l-5 -95q-10 4 -20 5t-21 1q-37 0 -61 -17t-38 -43.5t-19.5 -58t-5.5 -60.5v-238h-100zM153 584l71 136h109l-103 -136h-77z" />
    <glyph glyph-name="Rcommaaccent" unicode="&#x156;" horiz-adv-x="583" 
d="M80 0v667h198q44 0 87 -7t77 -26t55 -52.5t21 -86.5q0 -33 -12 -60.5t-33 -48t-49 -34t-59 -18.5q35 -5 59 -29.5t39 -61.5l99 -243h-119l-82 207q-10 25 -20.5 42t-24 27t-31.5 14t-44 4h-54v-294h-107zM187 374h68q27 0 54.5 5.5t49 19t35 35t13.5 53.5t-12 52t-32 31
t-47 14.5t-57 3.5h-72v-214zM233 -227l44 159h87l-67 -159h-64z" />
    <glyph glyph-name="rcommaaccent" unicode="&#x157;" horiz-adv-x="352" 
d="M69 0v385q0 29 -1 57.5t-4 57.5h94l3 -96q8 20 21 39t30.5 34t39 24t45.5 9q11 0 21 -0.5t21 -3.5l-5 -95q-10 4 -20 5t-21 1q-37 0 -61 -17t-38 -43.5t-19.5 -58t-5.5 -60.5v-238h-100zM32 -227l44 159h87l-67 -159h-64z" />
    <glyph glyph-name="Rcaron" unicode="&#x158;" horiz-adv-x="583" 
d="M80 0v667h198q44 0 87 -7t77 -26t55 -52.5t21 -86.5q0 -33 -12 -60.5t-33 -48t-49 -34t-59 -18.5q35 -5 59 -29.5t39 -61.5l99 -243h-119l-82 207q-10 25 -20.5 42t-24 27t-31.5 14t-44 4h-54v-294h-107zM187 374h68q27 0 54.5 5.5t49 19t35 35t13.5 53.5t-12 52t-32 31
t-47 14.5t-57 3.5h-72v-214zM228 724l-103 136h77l72 -92l72 92h77l-103 -136h-92z" />
    <glyph glyph-name="rcaron" unicode="&#x159;" horiz-adv-x="352" 
d="M69 0v385q0 29 -1 57.5t-4 57.5h94l3 -96q8 20 21 39t30.5 34t39 24t45.5 9q11 0 21 -0.5t21 -3.5l-5 -95q-10 4 -20 5t-21 1q-37 0 -61 -17t-38 -43.5t-19.5 -58t-5.5 -60.5v-238h-100zM162 584l-103 136h77l72 -92l72 92h77l-103 -136h-92z" />
    <glyph glyph-name="Sacute" unicode="&#x15a;" horiz-adv-x="513" 
d="M63 109q39 -20 77.5 -29t83.5 -9q24 0 47 6t41 19t29 34t11 51q0 24 -9.5 41.5t-25 31.5t-36.5 25t-44 22l-52 25q-24 12 -46 26.5t-38 34t-25.5 45t-9.5 59.5q0 49 19.5 84.5t51 58t70.5 33t78 10.5q82 0 151 -21l-6 -88q-32 14 -68.5 20.5t-70.5 6.5q-21 0 -42.5 -5
t-38.5 -16.5t-28 -30t-11 -46.5q0 -21 7.5 -36t20.5 -27t30 -21.5t35 -18.5l55 -25q30 -14 55.5 -29.5t44.5 -36.5t30 -49t11 -67q0 -51 -18 -88.5t-49.5 -61.5t-73.5 -36t-90 -12q-39 0 -83.5 6.5t-87.5 20.5zM213 724l71 136h109l-103 -136h-77z" />
    <glyph glyph-name="sacute" unicode="&#x15b;" horiz-adv-x="413" 
d="M47 90q32 -16 63 -23t66 -7q40 0 67.5 17t27.5 58q0 28 -16.5 45.5t-41.5 31t-54 25t-54 28.5t-41.5 42t-16.5 64q0 40 16 66.5t42 42.5t58.5 23t65.5 7q34 0 64 -5t59 -16l-6 -73q-57 23 -112 23q-17 0 -33 -2.5t-28.5 -9.5t-20.5 -19.5t-8 -31.5q0 -24 16.5 -39t42 -27
t54.5 -24t54.5 -30t42 -45.5t16.5 -69.5q0 -41 -17 -70t-44 -47t-61.5 -26.5t-68.5 -8.5q-37 0 -69 4.5t-69 16.5zM156 584l71 136h109l-103 -136h-77z" />
    <glyph glyph-name="Scircumflex" unicode="&#x15c;" horiz-adv-x="513" 
d="M63 109q39 -20 77.5 -29t83.5 -9q24 0 47 6t41 19t29 34t11 51q0 24 -9.5 41.5t-25 31.5t-36.5 25t-44 22l-52 25q-24 12 -46 26.5t-38 34t-25.5 45t-9.5 59.5q0 49 19.5 84.5t51 58t70.5 33t78 10.5q82 0 151 -21l-6 -88q-32 14 -68.5 20.5t-70.5 6.5q-21 0 -42.5 -5
t-38.5 -16.5t-28 -30t-11 -46.5q0 -21 7.5 -36t20.5 -27t30 -21.5t35 -18.5l55 -25q30 -14 55.5 -29.5t44.5 -36.5t30 -49t11 -67q0 -51 -18 -88.5t-49.5 -61.5t-73.5 -36t-90 -12q-39 0 -83.5 6.5t-87.5 20.5zM115 724l103 136h92l103 -136h-77l-72 92l-72 -92h-77z" />
    <glyph glyph-name="scircumflex" unicode="&#x15d;" horiz-adv-x="413" 
d="M47 90q32 -16 63 -23t66 -7q40 0 67.5 17t27.5 58q0 28 -16.5 45.5t-41.5 31t-54 25t-54 28.5t-41.5 42t-16.5 64q0 40 16 66.5t42 42.5t58.5 23t65.5 7q34 0 64 -5t59 -16l-6 -73q-57 23 -112 23q-17 0 -33 -2.5t-28.5 -9.5t-20.5 -19.5t-8 -31.5q0 -24 16.5 -39t42 -27
t54.5 -24t54.5 -30t42 -45.5t16.5 -69.5q0 -41 -17 -70t-44 -47t-61.5 -26.5t-68.5 -8.5q-37 0 -69 4.5t-69 16.5zM61 584l103 136h92l103 -136h-77l-72 92l-72 -92h-77z" />
    <glyph glyph-name="Scedilla" unicode="&#x15e;" horiz-adv-x="513" 
d="M151 -128q24 -9 44 -12.5t37 -3.5q21 0 33.5 8.5t12.5 22.5q0 17 -11.5 24t-24.5 7q-11 0 -22.5 -1.5t-23.5 -6.5l-16 23l39 56q-38 1 -79.5 7t-81.5 20l5 93q39 -20 77.5 -29t83.5 -9q24 0 47 6t41 19t29 34t11 51q0 24 -9.5 41.5t-25 31.5t-36.5 25t-44 22l-52 25
q-24 12 -46 26.5t-38 34t-25.5 45t-9.5 59.5q0 49 19.5 84.5t51 58t70.5 33t78 10.5q82 0 151 -21l-6 -88q-32 14 -68.5 20.5t-70.5 6.5q-21 0 -42.5 -5t-38.5 -16.5t-28 -30t-11 -46.5q0 -21 7.5 -36t20.5 -27t30 -21.5t35 -18.5l55 -25q30 -14 55.5 -29.5t44.5 -36.5
t30 -49t11 -67q0 -46 -15 -81t-41 -59t-61.5 -38t-77.5 -18l-28 -43q15 4 37 4q26 0 47 -16t21 -46q0 -35 -29.5 -55t-77.5 -20q-22 0 -45 3.5t-52 14.5z" />
    <glyph glyph-name="scedilla" unicode="&#x15f;" horiz-adv-x="413" 
d="M107 -128q24 -9 44 -12.5t37 -3.5q21 0 33.5 8.5t12.5 22.5q0 17 -11.5 24t-24.5 7q-11 0 -22.5 -1.5t-23.5 -6.5l-16 23l42 56q-37 0 -69 4.5t-68 16.5l6 80q32 -16 63 -23t66 -7q40 0 67.5 17t27.5 58q0 28 -16.5 45.5t-41.5 31t-54 25t-54 28.5t-41.5 42t-16.5 64
q0 40 16 66.5t42 42.5t58.5 23t65.5 7q34 0 64 -5t59 -16l-6 -73q-57 23 -112 23q-17 0 -33 -2.5t-28.5 -9.5t-20.5 -19.5t-8 -31.5q0 -24 16.5 -39t42 -27t54.5 -24t54.5 -30t42 -45.5t16.5 -69.5q0 -35 -12 -60.5t-31.5 -43.5t-46 -29t-54.5 -15l-33 -45q15 4 37 4
q26 0 47 -16t21 -46q0 -35 -29.5 -55t-77.5 -20q-22 0 -45 3.5t-52 14.5z" />
    <glyph glyph-name="Scaron" unicode="&#x160;" horiz-adv-x="513" 
d="M63 109q39 -20 77.5 -29t83.5 -9q24 0 47 6t41 19t29 34t11 51q0 24 -9.5 41.5t-25 31.5t-36.5 25t-44 22l-52 25q-24 12 -46 26.5t-38 34t-25.5 45t-9.5 59.5q0 49 19.5 84.5t51 58t70.5 33t78 10.5q82 0 151 -21l-6 -88q-32 14 -68.5 20.5t-70.5 6.5q-21 0 -42.5 -5
t-38.5 -16.5t-28 -30t-11 -46.5q0 -21 7.5 -36t20.5 -27t30 -21.5t35 -18.5l55 -25q30 -14 55.5 -29.5t44.5 -36.5t30 -49t11 -67q0 -51 -18 -88.5t-49.5 -61.5t-73.5 -36t-90 -12q-39 0 -83.5 6.5t-87.5 20.5zM211 724l-103 136h77l72 -92l72 92h77l-103 -136h-92z" />
    <glyph glyph-name="scaron" unicode="&#x161;" horiz-adv-x="413" 
d="M47 90q32 -16 63 -23t66 -7q40 0 67.5 17t27.5 58q0 28 -16.5 45.5t-41.5 31t-54 25t-54 28.5t-41.5 42t-16.5 64q0 40 16 66.5t42 42.5t58.5 23t65.5 7q34 0 64 -5t59 -16l-6 -73q-57 23 -112 23q-17 0 -33 -2.5t-28.5 -9.5t-20.5 -19.5t-8 -31.5q0 -24 16.5 -39t42 -27
t54.5 -24t54.5 -30t42 -45.5t16.5 -69.5q0 -41 -17 -70t-44 -47t-61.5 -26.5t-68.5 -8.5q-37 0 -69 4.5t-69 16.5zM165 584l-103 136h77l72 -92l72 92h77l-103 -136h-92z" />
    <glyph glyph-name="Tcommaaccent" unicode="&#x162;" horiz-adv-x="535" 
d="M213 0v577h-203v90h516v-90h-204v-577h-109zM179 -227l44 159h87l-67 -159h-64z" />
    <glyph glyph-name="tcommaaccent" unicode="&#x163;" horiz-adv-x="350" 
d="M330 6q-48 -17 -96 -17q-40 0 -65 13t-38.5 36t-18.5 54.5t-5 67.5v268h-92v72h92v108l101 33v-141h112v-72h-112v-280q0 -16 2.5 -30.5t9.5 -25.5t19 -17.5t31 -6.5q28 0 55 12zM108 -227l44 159h87l-67 -159h-64z" />
    <glyph glyph-name="Tcaron" unicode="&#x164;" horiz-adv-x="535" 
d="M213 0v577h-203v90h516v-90h-204v-577h-109zM220 724l-103 136h77l72 -92l72 92h77l-103 -136h-92z" />
    <glyph glyph-name="tcaron" unicode="&#x165;" horiz-adv-x="350" 
d="M330 6q-48 -17 -96 -17q-40 0 -65 13t-38.5 36t-18.5 54.5t-5 67.5v268h-92v72h92v108l101 33v-141h112v-72h-112v-280q0 -16 2.5 -30.5t9.5 -25.5t19 -17.5t31 -6.5q28 0 55 12zM264 561l20 159h93l-43 -159h-70z" />
    <glyph glyph-name="Tbar" unicode="&#x166;" horiz-adv-x="535" 
d="M213 0v364h-139v69h139v144h-203v90h516v-90h-204v-144h145v-69h-145v-364h-109z" />
    <glyph glyph-name="tbar" unicode="&#x167;" horiz-adv-x="350" 
d="M29 278v60h78v90h-92v72h92v108l101 33v-141h112v-72h-112v-90h92v-60h-92v-130q0 -16 2.5 -30.5t9.5 -25.5t19 -17.5t31 -6.5q28 0 55 12l5 -74q-48 -17 -96 -17q-40 0 -65 13t-38.5 36t-18.5 54.5t-5 67.5v118h-78z" />
    <glyph glyph-name="Utilde" unicode="&#x168;" horiz-adv-x="670" 
d="M181 242q0 -36 9.5 -67t28.5 -53.5t48 -35t68 -12.5t68 12.5t48.5 35t29 53t9.5 67.5v425h109v-424q0 -60 -19.5 -107.5t-54.5 -80t-84 -49.5t-107 -17q-59 0 -107 16.5t-82.5 48.5t-53.5 78.5t-19 107.5v427h109v-425zM178 735q1 19 7.5 38.5t18 35t28.5 25t40 9.5
q19 0 36 -6.5t33 -14t30 -13.5t27 -6q19 0 28.5 14t10.5 29h55q0 -18 -7 -37t-19 -34.5t-29 -25.5t-38 -10q-20 0 -36 6t-30.5 13.5t-28 13.5t-28.5 6q-17 0 -30 -14t-13 -29h-55z" />
    <glyph glyph-name="utilde" unicode="&#x169;" horiz-adv-x="555" 
d="M167 206q0 -26 3.5 -51t14 -44.5t30 -31t51.5 -11.5q34 0 57.5 14t37.5 36.5t20 51t6 58.5v272h100v-385q0 -29 1 -57.5t4 -57.5h-94l-3 85q-53 -96 -161 -96q-47 0 -78.5 14.5t-51.5 40.5t-28.5 62t-8.5 79v315h100v-294zM121 595q1 19 7.5 38.5t18 35t28.5 25t40 9.5
q19 0 36 -6.5t33 -14t30 -13.5t27 -6q19 0 28.5 14t10.5 29h55q0 -18 -7 -37t-19 -34.5t-29 -25.5t-38 -10q-20 0 -36 6t-30.5 13.5t-28 13.5t-28.5 6q-17 0 -30 -14t-13 -29h-55z" />
    <glyph glyph-name="Umacron" unicode="&#x16a;" horiz-adv-x="670" 
d="M181 242q0 -36 9.5 -67t28.5 -53.5t48 -35t68 -12.5t68 12.5t48.5 35t29 53t9.5 67.5v425h109v-424q0 -60 -19.5 -107.5t-54.5 -80t-84 -49.5t-107 -17q-59 0 -107 16.5t-82.5 48.5t-53.5 78.5t-19 107.5v427h109v-425zM200 763v59h270v-59h-270z" />
    <glyph glyph-name="umacron" unicode="&#x16b;" horiz-adv-x="555" 
d="M167 206q0 -26 3.5 -51t14 -44.5t30 -31t51.5 -11.5q34 0 57.5 14t37.5 36.5t20 51t6 58.5v272h100v-385q0 -29 1 -57.5t4 -57.5h-94l-3 85q-53 -96 -161 -96q-47 0 -78.5 14.5t-51.5 40.5t-28.5 62t-8.5 79v315h100v-294zM142 623v59h270v-59h-270z" />
    <glyph glyph-name="Ubreve" unicode="&#x16c;" horiz-adv-x="670" 
d="M181 242q0 -36 9.5 -67t28.5 -53.5t48 -35t68 -12.5t68 12.5t48.5 35t29 53t9.5 67.5v425h109v-424q0 -60 -19.5 -107.5t-54.5 -80t-84 -49.5t-107 -17q-59 0 -107 16.5t-82.5 48.5t-53.5 78.5t-19 107.5v427h109v-425zM258 853q3 -29 22.5 -48.5t54.5 -19.5t55 19.5
t23 48.5h53q0 -15 -7 -36.5t-22.5 -41t-40.5 -33t-61 -13.5t-61 13.5t-40.5 33t-22.5 41t-7 36.5h54z" />
    <glyph glyph-name="ubreve" unicode="&#x16d;" horiz-adv-x="555" 
d="M167 206q0 -26 3.5 -51t14 -44.5t30 -31t51.5 -11.5q34 0 57.5 14t37.5 36.5t20 51t6 58.5v272h100v-385q0 -29 1 -57.5t4 -57.5h-94l-3 85q-53 -96 -161 -96q-47 0 -78.5 14.5t-51.5 40.5t-28.5 62t-8.5 79v315h100v-294zM201 713q3 -29 22.5 -48.5t54.5 -19.5t55 19.5
t23 48.5h53q0 -15 -7 -36.5t-22.5 -41t-40.5 -33t-61 -13.5t-61 13.5t-40.5 33t-22.5 41t-7 36.5h54z" />
    <glyph glyph-name="Uring" unicode="&#x16e;" horiz-adv-x="670" 
d="M181 242q0 -36 9.5 -67t28.5 -53.5t48 -35t68 -12.5t68 12.5t48.5 35t29 53t9.5 67.5v425h109v-424q0 -60 -19.5 -107.5t-54.5 -80t-84 -49.5t-107 -17q-59 0 -107 16.5t-82.5 48.5t-53.5 78.5t-19 107.5v427h109v-425zM267 724q-13 13 -21 30.5t-8 37.5t7.5 37.5
t21 30.5t31.5 20.5t38 7.5q19 0 37 -7.5t31.5 -20.5t21.5 -30.5t8 -37.5t-7.5 -37.5t-21 -30.5t-31.5 -20.5t-38 -7.5t-37.5 7.5t-31.5 20.5zM279 792q0 -24 17 -40t40 -16q24 0 40.5 16t16.5 40q0 23 -16.5 39.5t-40.5 16.5t-40.5 -16.5t-16.5 -39.5z" />
    <glyph glyph-name="uring" unicode="&#x16f;" horiz-adv-x="555" 
d="M167 206q0 -26 3.5 -51t14 -44.5t30 -31t51.5 -11.5q34 0 57.5 14t37.5 36.5t20 51t6 58.5v272h100v-385q0 -29 1 -57.5t4 -57.5h-94l-3 85q-53 -96 -161 -96q-47 0 -78.5 14.5t-51.5 40.5t-28.5 62t-8.5 79v315h100v-294zM221 652q0 -24 17 -40t40 -16q24 0 40.5 16
t16.5 40q0 23 -16.5 39.5t-40.5 16.5t-40.5 -16.5t-16.5 -39.5zM209 584q-13 13 -21 30.5t-8 37.5t7.5 37.5t21 30.5t31.5 20.5t38 7.5q19 0 37 -7.5t31.5 -20.5t21.5 -30.5t8 -37.5t-7.5 -37.5t-21 -30.5t-31.5 -20.5t-38 -7.5t-37.5 7.5t-31.5 20.5z" />
    <glyph glyph-name="Uhungarumlaut" unicode="&#x170;" horiz-adv-x="670" 
d="M181 242q0 -36 9.5 -67t28.5 -53.5t48 -35t68 -12.5t68 12.5t48.5 35t29 53t9.5 67.5v425h109v-424q0 -60 -19.5 -107.5t-54.5 -80t-84 -49.5t-107 -17q-59 0 -107 16.5t-82.5 48.5t-53.5 78.5t-19 107.5v427h109v-425zM383 724l72 136h108l-103 -136h-77zM193 724
l72 136h108l-103 -136h-77z" />
    <glyph glyph-name="uhungarumlaut" unicode="&#x171;" horiz-adv-x="555" 
d="M167 206q0 -26 3.5 -51t14 -44.5t30 -31t51.5 -11.5q34 0 57.5 14t37.5 36.5t20 51t6 58.5v272h100v-385q0 -29 1 -57.5t4 -57.5h-94l-3 85q-53 -96 -161 -96q-47 0 -78.5 14.5t-51.5 40.5t-28.5 62t-8.5 79v315h100v-294zM138 584l72 136h108l-103 -136h-77zM328 584
l72 136h108l-103 -136h-77z" />
    <glyph glyph-name="Uogonek" unicode="&#x172;" horiz-adv-x="670" 
d="M452 -164q-20 -10 -39.5 -15.5t-45.5 -5.5q-48 0 -73.5 21.5t-25.5 55.5q0 29 17.5 53.5t47.5 43.5q-59 0 -107 16.5t-82 48.5t-53 78.5t-19 107.5v427h109v-425q0 -36 9.5 -67t28.5 -53.5t48 -35t68 -12.5t68 12.5t48.5 35t29 53t9.5 67.5v425h109v-424
q0 -105 -54.5 -168.5t-147.5 -79.5q-37 -27 -50.5 -48.5t-13.5 -41.5q0 -23 14.5 -34t33.5 -11q15 0 27 3.5t31 12.5z" />
    <glyph glyph-name="uogonek" unicode="&#x173;" horiz-adv-x="555" 
d="M505 -164q-20 -10 -39.5 -15.5t-45.5 -5.5q-48 0 -73.5 21.5t-25.5 55.5t23 61t62 47h-8l-3 85q-53 -96 -161 -96q-47 0 -78.5 14.5t-51.5 40.5t-28.5 62t-8.5 79v315h100v-294q0 -26 3.5 -51t14 -44.5t30 -31t51.5 -11.5q34 0 57.5 14t37.5 36.5t20 51t6 58.5v272h100
v-385q0 -29 1 -57.5t4 -57.5h-34q-42 -29 -57 -51.5t-15 -43.5q0 -23 14.5 -34t33.5 -11q15 0 27 3.5t31 12.5z" />
    <glyph glyph-name="Wcircumflex" unicode="&#x174;" horiz-adv-x="951" 
d="M195 0l-186 667h108l147 -563l157 563h118l155 -563l148 563h100l-185 -667h-124l-156 564l-157 -564h-125zM332 724l103 136h92l103 -136h-77l-72 92l-72 -92h-77z" />
    <glyph glyph-name="wcircumflex" unicode="&#x175;" horiz-adv-x="805" 
d="M163 0l-152 500h105l115 -415l117 415h120l117 -415l114 415h95l-149 -500h-124l-116 416l-118 -416h-124zM258 584l103 136h92l103 -136h-77l-72 92l-72 -92h-77z" />
    <glyph glyph-name="Ycircumflex" unicode="&#x176;" horiz-adv-x="599" 
d="M244 0v266l-246 401h120l185 -318l183 318h116l-249 -401v-266h-109zM155 724l103 136h92l103 -136h-77l-72 92l-72 -92h-77z" />
    <glyph glyph-name="ycircumflex" unicode="&#x177;" horiz-adv-x="469" 
d="M36 -143q24 -7 49 -7q38 0 57.5 25t35.5 76l10 31l-179 518h109l122 -411l120 411h102l-191 -567q-10 -29 -23 -57.5t-32 -51.5t-46.5 -37t-66.5 -14q-41 0 -73 7zM92 584l103 136h92l103 -136h-77l-72 92l-72 -92h-77z" />
    <glyph glyph-name="Ydieresis" unicode="&#x178;" horiz-adv-x="599" 
d="M244 0v266l-246 401h120l185 -318l183 318h116l-249 -401v-266h-109zM346 743v97h83v-97h-83zM175 743v97h83v-97h-83z" />
    <glyph glyph-name="Zacute" unicode="&#x179;" horiz-adv-x="523" 
d="M26 0v88l345 495h-333v84h451v-88l-340 -495h349v-84h-472zM215 724l71 136h109l-103 -136h-77z" />
    <glyph glyph-name="zacute" unicode="&#x17a;" horiz-adv-x="451" 
d="M30 0v81l278 347h-267v72h379v-81l-277 -346h279v-73h-392zM175 584l71 136h109l-103 -136h-77z" />
    <glyph glyph-name="Zdotaccent" unicode="&#x17b;" horiz-adv-x="523" 
d="M26 0v88l345 495h-333v84h451v-88l-340 -495h349v-84h-472zM216 743v97h100v-97h-100z" />
    <glyph glyph-name="zdotaccent" unicode="&#x17c;" horiz-adv-x="451" 
d="M30 0v81l278 347h-267v72h379v-81l-277 -346h279v-73h-392zM182 603v97h100v-97h-100z" />
    <glyph glyph-name="Zcaron" unicode="&#x17d;" horiz-adv-x="523" 
d="M26 0v88l345 495h-333v84h451v-88l-340 -495h349v-84h-472zM216 724l-103 136h77l72 -92l72 92h77l-103 -136h-92z" />
    <glyph glyph-name="zcaron" unicode="&#x17e;" horiz-adv-x="451" 
d="M30 0v81l278 347h-267v72h379v-81l-277 -346h279v-73h-392zM183 584l-103 136h77l72 -92l72 92h77l-103 -136h-92z" />
    <glyph glyph-name="uni018F" unicode="&#x18f;" horiz-adv-x="670" 
d="M327 70q40 0 72 16t54.5 44t36 67t18.5 84h-348v-8q0 -38 8 -74.5t27 -65t51.5 -46t80.5 -17.5zM286 677q84 0 147 -25.5t105.5 -71t64 -109.5t21.5 -141q0 -68 -20.5 -129.5t-59.5 -108.5t-95 -75t-127 -28q-78 0 -130.5 26t-85 71t-46.5 105.5t-14 130.5v39h463
q-8 112 -68.5 173t-172.5 61q-47 0 -97 -11.5t-92 -34.5l-7 88q49 22 103 31t111 9z" />
    <glyph glyph-name="florin" unicode="&#x192;" horiz-adv-x="562" 
d="M8 -144q11 -3 21.5 -3.5t21.5 -0.5q23 0 39 14t27.5 34.5t18.5 43.5t11 41l71 343h-108v72h123l24 104q8 36 20 68t31.5 55t47.5 36.5t69 13.5q17 0 36 -2.5t36 -7.5l-6 -73q-12 3 -24.5 5.5t-23.5 2.5q-22 0 -36.5 -9.5t-24.5 -24.5t-16 -34t-10 -37l-22 -97h108v-72
h-123l-73 -349q-7 -34 -19 -70.5t-31.5 -66.5t-47.5 -49.5t-67 -19.5q-20 0 -40 1.5t-39 5.5z" />
    <glyph glyph-name="Aringacute" unicode="&#x1fa;" horiz-adv-x="662" 
d="M276 780l101 100h117l-137 -100h-81zM274 658q0 -25 17 -41t40 -16q25 0 41 16t16 41q0 23 -16 39.5t-41 16.5q-24 0 -40.5 -16.5t-16.5 -39.5zM211 255h234l-116 290zM477 175h-298l-71 -175h-106l251 599q-20 25 -20 59q0 20 8 37.5t21.5 30t31 20t37.5 7.5t38 -7.5
t31.5 -20t21 -30t7.5 -37.5q0 -34 -21 -60l253 -598h-114z" />
    <glyph glyph-name="aringacute" unicode="&#x1fb;" horiz-adv-x="517" 
d="M189 780l101 100h117l-137 -100h-81zM358 0l-3 79q-23 -42 -63 -66t-94 -24q-34 0 -64 8.5t-52.5 26.5t-36 46t-13.5 67q0 49 20.5 81.5t56.5 52t84 28t103 8.5h27.5t28.5 -1v21q0 55 -27 84t-87 29q-38 0 -75.5 -9.5t-71.5 -30.5l-6 77q35 14 79.5 23.5t82.5 9.5
q97 0 150 -44.5t53 -145.5v-209q0 -32 1.5 -58.5t4.5 -52.5h-98zM325 245q-37 0 -72 -3.5t-62 -14.5t-43.5 -31t-16.5 -53q0 -43 25.5 -62t65.5 -19q34 0 58.5 12.5t40.5 34t23.5 49.5t7.5 60v27h-27zM196 652q0 -24 17 -40t40 -16q24 0 40.5 16t16.5 40q0 23 -16.5 39.5
t-40.5 16.5t-40.5 -16.5t-16.5 -39.5zM184 584q-13 13 -21 30.5t-8 37.5t7.5 37.5t21 30.5t31.5 20.5t38 7.5q19 0 37 -7.5t31.5 -20.5t21.5 -30.5t8 -37.5t-7.5 -37.5t-21 -30.5t-31.5 -20.5t-38 -7.5t-37.5 7.5t-31.5 20.5z" />
    <glyph glyph-name="AEacute" unicode="&#x1fc;" horiz-adv-x="895" 
d="M256 255h211v345zM-7 0l412 667h436v-81h-267v-206h253v-79h-253v-220h277v-81h-384v175h-255l-106 -175h-113zM457 724l71 136h109l-103 -136h-77z" />
    <glyph glyph-name="aeacute" unicode="&#x1fd;" horiz-adv-x="811" 
d="M85 477q35 14 79 23.5t82 9.5q60 0 100.5 -19.5t60.5 -64.5q30 40 69.5 62t90.5 22q59 0 99 -19.5t64.5 -53.5t35 -80t10.5 -99v-30h-335q0 -35 10.5 -65.5t31.5 -53.5t52.5 -36.5t72.5 -13.5q34 0 69.5 7.5t65.5 23.5l6 -74q-35 -14 -74 -20.5t-81 -6.5q-66 0 -121 22
t-87 78q-28 -52 -76.5 -76t-111.5 -24q-31 0 -61 7.5t-53.5 25t-38 45t-14.5 67.5q0 50 23 81t60.5 48t85.5 23t98 6h25t25 -1v37q0 54 -27 83t-84 29q-39 0 -75.5 -9.5t-70.5 -30.5zM320 232q-40 0 -74.5 -2t-60.5 -11t-41 -27.5t-15 -50.5q0 -42 25.5 -60.5t62.5 -18.5
q33 0 58 11.5t41 31.5t24 47t8 59v21h-28zM680 290q0 28 -5 55.5t-17.5 48.5t-34 34t-55.5 13q-32 0 -55.5 -13.5t-39.5 -35t-24 -48.5t-9 -54h240zM362 584l71 136h109l-103 -136h-77z" />
    <glyph glyph-name="Oslashacute" unicode="&#x1fe;" horiz-adv-x="716" 
d="M32 16l79 90q-65 89 -65 227q0 72 20 134.5t59.5 109t97.5 73.5t135 27q66 0 116 -18.5t88 -51.5l75 84l45 -41l-77 -89q32 -45 48.5 -103t16.5 -125q0 -73 -20 -135.5t-59 -109t-97.5 -73t-135.5 -26.5q-66 0 -116.5 18.5t-88.5 52.5l-76 -85zM496 536q-24 27 -56 43
t-80 16q-56 0 -94 -24t-62 -61.5t-34.5 -84t-10.5 -92.5q0 -37 6.5 -76.5t23.5 -70.5zM221 132q23 -29 56 -45t81 -16q55 0 93 23.5t62 61t34.5 84t10.5 93.5q0 38 -7 78.5t-21 68.5zM311 724l71 136h109l-103 -136h-77z" />
    <glyph glyph-name="oslashacute" unicode="&#x1ff;" horiz-adv-x="570" 
d="M26 5l66 73q-26 34 -39 78.5t-13 95.5q0 57 17 104.5t48.5 81.5t77.5 53t103 19q97 0 158 -49l59 65l41 -32l-64 -71q26 -31 39 -75t13 -96q0 -57 -16 -105t-47.5 -83.5t-77.5 -55t-105 -19.5q-51 0 -90 13.5t-69 38.5l-60 -68zM382 393q-16 19 -38.5 30.5t-57.5 11.5
q-38 0 -64.5 -16t-43 -42t-24.5 -59.5t-8 -67.5q0 -25 4 -51.5t16 -48.5zM189 109q16 -20 40.5 -32t56.5 -12q37 0 63.5 16t43 42t24 59.5t7.5 69.5q0 28 -4.5 54t-13.5 46zM226 584l71 136h109l-103 -136h-77z" />
    <glyph glyph-name="Scommaaccent" unicode="&#x218;" horiz-adv-x="513" 
d="M63 109q39 -20 77.5 -29t83.5 -9q24 0 47 6t41 19t29 34t11 51q0 24 -9.5 41.5t-25 31.5t-36.5 25t-44 22l-52 25q-24 12 -46 26.5t-38 34t-25.5 45t-9.5 59.5q0 49 19.5 84.5t51 58t70.5 33t78 10.5q82 0 151 -21l-6 -88q-32 14 -68.5 20.5t-70.5 6.5q-21 0 -42.5 -5
t-38.5 -16.5t-28 -30t-11 -46.5q0 -21 7.5 -36t20.5 -27t30 -21.5t35 -18.5l55 -25q30 -14 55.5 -29.5t44.5 -36.5t30 -49t11 -67q0 -51 -18 -88.5t-49.5 -61.5t-73.5 -36t-90 -12q-39 0 -83.5 6.5t-87.5 20.5zM177 -227l44 159h87l-67 -159h-64z" />
    <glyph glyph-name="scommaaccent" unicode="&#x219;" horiz-adv-x="413" 
d="M47 90q32 -16 63 -23t66 -7q40 0 67.5 17t27.5 58q0 28 -16.5 45.5t-41.5 31t-54 25t-54 28.5t-41.5 42t-16.5 64q0 40 16 66.5t42 42.5t58.5 23t65.5 7q34 0 64 -5t59 -16l-6 -73q-57 23 -112 23q-17 0 -33 -2.5t-28.5 -9.5t-20.5 -19.5t-8 -31.5q0 -24 16.5 -39t42 -27
t54.5 -24t54.5 -30t42 -45.5t16.5 -69.5q0 -41 -17 -70t-44 -47t-61.5 -26.5t-68.5 -8.5q-37 0 -69 4.5t-69 16.5zM129 -227l44 159h87l-67 -159h-64z" />
    <glyph glyph-name="uni021A" unicode="&#x21a;" horiz-adv-x="535" 
d="M213 0v577h-203v90h516v-90h-204v-577h-109zM179 -227l44 159h87l-67 -159h-64z" />
    <glyph glyph-name="uni021B" unicode="&#x21b;" horiz-adv-x="350" 
d="M330 6q-48 -17 -96 -17q-40 0 -65 13t-38.5 36t-18.5 54.5t-5 67.5v268h-92v72h92v108l101 33v-141h112v-72h-112v-280q0 -16 2.5 -30.5t9.5 -25.5t19 -17.5t31 -6.5q28 0 55 12zM108 -227l44 159h87l-67 -159h-64z" />
    <glyph glyph-name="dotlessj" unicode="&#x237;" horiz-adv-x="243" 
d="M-24 -142q16 -6 36 -6q21 0 33.5 7.5t18.5 19.5t8 28t2 33v560h101v-572q0 -33 -6.5 -61t-21.5 -49t-39.5 -33t-60.5 -12q-20 0 -39 1.5t-38 6.5z" />
    <glyph glyph-name="uni0259" unicode="&#x259;" horiz-adv-x="510" 
d="M241 58q32 0 55.5 13.5t39 35t24 48.5t9.5 54h-240q0 -29 5 -56t17.5 -48t34 -34t55.5 -13zM242 -11q-59 0 -99 19.5t-64.5 53.5t-35 80t-10.5 99v30h335q0 34 -10.5 65t-31.5 54t-52.5 36.5t-72.5 13.5q-35 0 -72.5 -9t-69.5 -26l-6 75q37 17 77.5 23.5t84.5 6.5
q63 0 111 -19t80.5 -54t48.5 -83.5t16 -106.5q0 -51 -15.5 -98t-45 -82.5t-72 -56.5t-96.5 -21z" />
    <glyph glyph-name="apostrophe" unicode="&#x2bc;" horiz-adv-x="281" 
d="M54 544l45 177h80l-68 -177h-57z" />
    <glyph glyph-name="circumflex" unicode="&#x2c6;" horiz-adv-x="237" 
d="M-30 584l103 136h92l103 -136h-77l-72 92l-72 -92h-77z" />
    <glyph glyph-name="caron" unicode="&#x2c7;" horiz-adv-x="237" 
d="M73 584l-103 136h77l72 -92l72 92h77l-103 -136h-92z" />
    <glyph glyph-name="uni02C9" unicode="&#x2c9;" horiz-adv-x="237" 
d="M-16 623v59h270v-59h-270z" />
    <glyph glyph-name="breve" unicode="&#x2d8;" horiz-adv-x="237" 
d="M42 713q3 -29 22.5 -48.5t54.5 -19.5t55 19.5t23 48.5h53q0 -15 -7 -36.5t-22.5 -41t-40.5 -33t-61 -13.5t-61 13.5t-40.5 33t-22.5 41t-7 36.5h54z" />
    <glyph glyph-name="dotaccent" unicode="&#x2d9;" horiz-adv-x="237" 
d="M69 603v97h100v-97h-100z" />
    <glyph glyph-name="ring" unicode="&#x2da;" horiz-adv-x="237" 
d="M62 652q0 -24 17 -40t40 -16q24 0 40.5 16t16.5 40q0 23 -16.5 39.5t-40.5 16.5t-40.5 -16.5t-16.5 -39.5zM50 584q-13 13 -21 30.5t-8 37.5t7.5 37.5t21 30.5t31.5 20.5t38 7.5q19 0 37 -7.5t31.5 -20.5t21.5 -30.5t8 -37.5t-7.5 -37.5t-21 -30.5t-31.5 -20.5t-38 -7.5
t-37.5 7.5t-31.5 20.5z" />
    <glyph glyph-name="ogonek" unicode="&#x2db;" horiz-adv-x="237" 
d="M215 -164q-20 -10 -39.5 -15.5t-45.5 -5.5q-48 0 -73.5 21.5t-25.5 55.5t23 61t62 47h52q-42 -29 -57 -51.5t-15 -43.5q0 -23 14.5 -34t33.5 -11q15 0 27 3.5t31 12.5z" />
    <glyph glyph-name="tilde" unicode="&#x2dc;" horiz-adv-x="237" 
d="M-38 595q1 19 7.5 38.5t18 35t28.5 25t40 9.5q19 0 36 -6.5t33 -14t30 -13.5t27 -6q19 0 28.5 14t10.5 29h55q0 -18 -7 -37t-19 -34.5t-29 -25.5t-38 -10q-20 0 -36 6t-30.5 13.5t-28 13.5t-28.5 6q-17 0 -30 -14t-13 -29h-55z" />
    <glyph glyph-name="hungarumlaut" unicode="&#x2dd;" horiz-adv-x="237" 
d="M-58 584l72 136h108l-103 -136h-77zM132 584l72 136h108l-103 -136h-77z" />
    <glyph glyph-name="uni0374" unicode="&#x374;" horiz-adv-x="195" 
d="M115 521h-74l44 200h101z" />
    <glyph glyph-name="uni0375" unicode="&#x375;" horiz-adv-x="193" 
d="M79 72h75l-44 -200h-101z" />
    <glyph glyph-name="uni037E" unicode="&#x37e;" horiz-adv-x="281" 
d="M35 -128l58 231h104l-88 -231h-74zM87 398v102h106v-102h-106z" />
    <glyph glyph-name="tonos" unicode="&#x384;" horiz-adv-x="238" 
d="M151 579h-71l32 141h108z" />
    <glyph glyph-name="dieresistonos" unicode="&#x385;" horiz-adv-x="238" 
d="M-8 603v97h83v-97h-83zM242 603v97h83v-97h-83zM179 586h-68l13 140h99z" />
    <glyph glyph-name="Alphatonos" unicode="&#x386;" horiz-adv-x="662" 
d="M78 526h-71l32 141h108zM329 590l-128 -335h255zM547 0l-64 175h-309l-66 -175h-106l260 667h137l262 -667h-114z" />
    <glyph glyph-name="anoteleia" unicode="&#x387;" horiz-adv-x="281" 
d="M87 398v102h107v-102h-107z" />
    <glyph glyph-name="Epsilontonos" unicode="&#x388;" horiz-adv-x="517" 
d="M-53 526h-71l32 141h108zM80 0v667h383v-81h-276v-205h263v-80h-263v-220h286v-81h-393z" />
    <glyph glyph-name="Etatonos" unicode="&#x389;" horiz-adv-x="676" 
d="M-58 526h-71l32 141h108zM488 0v298h-299v-298h-109v667h109v-279h299v279h109v-667h-109z" />
    <glyph glyph-name="Iotatonos" unicode="&#x38a;" horiz-adv-x="268" 
d="M-53 525h-71l32 141h108zM80 0v667h109v-667h-109z" />
    <glyph glyph-name="Omicrontonos" unicode="&#x38c;" horiz-adv-x="716" 
d="M-19 525h-71l32 141h108zM556 333q0 47 -10.5 93.5t-34 84t-61 61t-92.5 23.5q-54 0 -91.5 -24t-61 -61.5t-34.5 -84t-11 -92.5t11 -92.5t35 -84t61.5 -61.5t90.5 -24q55 0 92.5 23.5t61 61t34 84t10.5 93.5zM670 333q0 -73 -20 -135.5t-59 -109t-97.5 -73t-135.5 -26.5
q-78 0 -136.5 26t-97.5 72t-58.5 109t-19.5 137q0 72 20 134.5t59.5 109t97.5 73.5t135 27q78 0 136.5 -26t97.5 -72t58.5 -109t19.5 -137z" />
    <glyph glyph-name="Upsilontonos" unicode="&#x38e;" horiz-adv-x="599" 
d="M-126 526h-71l32 141h108zM353 266v-266h-109v266l-246 401h120l185 -318l183 318h116z" />
    <glyph glyph-name="Omegatonos" unicode="&#x38f;" horiz-adv-x="731" 
d="M-6 526h-71l32 141h108zM407 71q42 17 72.5 46.5t50.5 66t29.5 78t9.5 81.5q0 51 -11.5 96.5t-36.5 80t-63 55t-91 20.5q-52 0 -91 -20.5t-64.5 -55.5t-38 -80.5t-12.5 -95.5q0 -42 11.5 -84t33.5 -78.5t53.5 -65.5t71.5 -44v-71h-285v83h86q11 0 28 -2t27 -4
q-61 42 -98.5 111t-37.5 155q0 72 22 133t63 106t100.5 70t134.5 25t133 -25.5t97 -70.5t59.5 -106t20.5 -132q0 -49 -12.5 -91t-33 -76t-46.5 -59.5t-54 -41.5q6 1 18 2.5t25 3t24 2t15 0.5h68v-83h-278v71z" />
    <glyph glyph-name="iotadieresistonos" unicode="&#x390;" horiz-adv-x="272" 
d="M73 500h100v-345q0 -45 6.5 -65.5t32.5 -20.5q6 0 12.5 2t10.5 4l7 -76q-28 -10 -57 -10q-64 0 -88 36t-24 100v375zM-30 603v97h83v-97h-83zM220 603v97h83v-97h-83zM157 586h-68l13 140h99z" />
    <glyph glyph-name="Alpha" unicode="&#x391;" horiz-adv-x="662" 
d="M201 255h255l-127 335zM2 0l260 667h137l262 -667h-114l-64 175h-309l-66 -175h-106z" />
    <glyph glyph-name="Beta" unicode="&#x392;" horiz-adv-x="582" 
d="M186 75h70q29 0 58.5 4.5t53 17.5t38.5 35.5t15 57.5q0 38 -15.5 61.5t-40.5 36.5t-56 17.5t-62 4.5h-61v-235zM186 380h72q28 0 54.5 5.5t47 18t33 34t12.5 54.5q0 28 -11.5 47.5t-30 31t-42 16.5t-48.5 5h-87v-212zM80 0v667h217q41 0 80 -8t69.5 -27t49 -50.5
t18.5 -79.5q0 -63 -34.5 -101.5t-94.5 -52.5q63 -11 105 -51.5t42 -107.5q0 -59 -22.5 -95.5t-59.5 -57.5t-83.5 -28.5t-95.5 -7.5h-191z" />
    <glyph glyph-name="Gamma" unicode="&#x393;" horiz-adv-x="469" 
d="M80 667h380v-89h-271v-578h-109v667z" />
    <glyph glyph-name="uni0394" unicode="&#x394;" horiz-adv-x="697" 
d="M159 82h375l-187 508zM280 667h137l261 -667h-659z" />
    <glyph glyph-name="Epsilon" unicode="&#x395;" horiz-adv-x="517" 
d="M80 0v667h383v-81h-276v-205h263v-80h-263v-220h286v-81h-393z" />
    <glyph glyph-name="Zeta" unicode="&#x396;" horiz-adv-x="523" 
d="M26 0v88l345 495h-333v84h451v-88l-340 -495h349v-84h-472z" />
    <glyph glyph-name="Eta" unicode="&#x397;" horiz-adv-x="676" 
d="M80 0v667h109v-279h299v279h109v-667h-109v298h-299v-298h-109z" />
    <glyph glyph-name="Theta" unicode="&#x398;" horiz-adv-x="716" 
d="M222 385h271v-90h-271v90zM555 333q0 47 -10.5 93.5t-33.5 84t-60.5 61t-92.5 23.5q-54 0 -91.5 -24t-61 -61.5t-34 -84t-10.5 -92.5t11 -92.5t34.5 -84t61 -61.5t90.5 -24q55 0 92.5 23.5t60.5 61t33.5 84t10.5 93.5zM670 333q0 -73 -20 -135.5t-59 -109t-97.5 -73
t-135.5 -26.5q-79 0 -137.5 26t-97.5 72t-58 109t-19 137q0 72 20 134.5t59.5 109t97.5 73.5t135 27q78 0 136.5 -26t97.5 -72t58.5 -109t19.5 -137z" />
    <glyph glyph-name="Iota" unicode="&#x399;" horiz-adv-x="268" 
d="M80 0v667h109v-667h-109z" />
    <glyph glyph-name="Kappa" unicode="&#x39a;" horiz-adv-x="619" 
d="M80 0v667h109v-295l269 295h132l-301 -312l327 -355h-140l-287 326v-326h-109z" />
    <glyph glyph-name="Lambda" unicode="&#x39b;" horiz-adv-x="630" 
d="M314 588l-201 -588h-112l246 667h137l244 -667h-117z" />
    <glyph glyph-name="Mu" unicode="&#x39c;" horiz-adv-x="898" 
d="M80 0v667h164l206 -548l204 548h165v-667h-103v589l-219 -589h-99l-220 589v-589h-98z" />
    <glyph glyph-name="Nu" unicode="&#x39d;" horiz-adv-x="703" 
d="M80 0v667h156l289 -568v568h99v-667h-157l-289 568v-568h-98z" />
    <glyph glyph-name="Xi" unicode="&#x39e;" horiz-adv-x="557" 
d="M115 301v88h328v-88h-328zM50 579v88h457v-88h-457zM507 89v-89h-457v89h457z" />
    <glyph glyph-name="Omicron" unicode="&#x39f;" horiz-adv-x="716" 
d="M206 156q24 -37 61 -61t91 -24q55 0 92.5 23.5t61 61t34 84t10.5 93.5q0 46 -10.5 93t-34 84.5t-61 61t-92.5 23.5q-54 0 -91.5 -24t-61 -61.5t-34.5 -84t-11 -92.5t11 -92.5t35 -84.5zM221 15q-88 39 -131.5 122.5t-43.5 195.5q0 72 20 134.5t59.5 109t97.5 73.5t135 27
q78 0 136.5 -26t97.5 -72t58.5 -109t19.5 -137q0 -73 -20 -135.5t-59 -109t-97.5 -73t-135.5 -26.5t-137 26z" />
    <glyph glyph-name="Pi" unicode="&#x3a0;" horiz-adv-x="662" 
d="M475 0v579h-286v-579h-109v667h502v-667h-107z" />
    <glyph glyph-name="Rho" unicode="&#x3a1;" horiz-adv-x="549" 
d="M80 0v667h189q50 0 96 -9t81 -31t56 -59t21 -93q0 -58 -21 -98t-56.5 -64.5t-83 -35.5t-100.5 -11h-75v-266h-107zM187 346h51q33 0 64.5 4.5t56 18t39 39t14.5 66.5q0 31 -12 53t-32 35.5t-47.5 19.5t-58.5 6h-75v-242z" />
    <glyph glyph-name="Sigma" unicode="&#x3a3;" horiz-adv-x="555" 
d="M34 0v83l238 264l-227 229v91h467v-87h-341l225 -232l-232 -261h351v-87h-481z" />
    <glyph glyph-name="Tau" unicode="&#x3a4;" horiz-adv-x="535" 
d="M213 0v577h-203v90h516v-90h-204v-577h-109z" />
    <glyph glyph-name="Upsilon" unicode="&#x3a5;" horiz-adv-x="599" 
d="M244 0v266l-246 401h120l185 -318l183 318h116l-249 -401v-266h-109z" />
    <glyph glyph-name="Phi" unicode="&#x3a6;" horiz-adv-x="799" 
d="M150 363q0 -43 14 -79t39.5 -62.5t62.5 -42t82 -17.5v409q-54 -2 -91.5 -20t-61 -46.5t-34.5 -65t-11 -76.5zM649 367q0 42 -12.5 78.5t-37 64t-62 44t-86.5 18.5v-410q49 2 86 18.5t62 44.5t37.5 64.5t12.5 77.5zM348 721h103v-73q69 -2 126 -21.5t98 -55.5t63.5 -87
t22.5 -117t-23 -117.5t-64 -87.5t-98 -55.5t-125 -22.5v-84h-103v84q-66 3 -123 21.5t-98.5 53t-65 85.5t-23.5 119q0 64 22 116t62.5 88.5t97.5 57.5t128 23v73z" />
    <glyph glyph-name="Chi" unicode="&#x3a7;" horiz-adv-x="636" 
d="M6 0l245 349l-221 318h125l170 -257l168 257h117l-222 -318l243 -349h-129l-185 289l-192 -289h-119z" />
    <glyph glyph-name="Psi" unicode="&#x3a8;" horiz-adv-x="731" 
d="M151 667v-210q0 -89 43.5 -131t118.5 -44v385h106v-385q78 1 119.5 47.5t41.5 124.5v213h105v-213q0 -53 -17.5 -98t-51.5 -78t-83.5 -53t-113.5 -24v-201h-106v201q-131 2 -199 69t-68 180v217h105z" />
    <glyph glyph-name="uni03A9" unicode="&#x3a9;" horiz-adv-x="731" 
d="M407 71q42 17 72.5 46.5t50.5 66t29.5 78t9.5 81.5q0 51 -11.5 96.5t-36.5 80t-63 55t-91 20.5q-52 0 -91 -20.5t-64.5 -55.5t-38 -80.5t-12.5 -95.5q0 -42 11.5 -84t33.5 -78.5t53.5 -65.5t71.5 -44v-71h-285v83h86q11 0 28 -2t27 -4q-61 42 -98.5 111t-37.5 155
q0 72 22 133t63 106t100.5 70t134.5 25t133 -25.5t97 -70.5t59.5 -106t20.5 -132q0 -49 -12.5 -91t-33 -76t-46.5 -59.5t-54 -41.5q6 1 18 2.5t25 3t24 2t15 0.5h68v-83h-278v71z" />
    <glyph glyph-name="Iotadieresis" unicode="&#x3aa;" horiz-adv-x="268" 
d="M6 743v97h83v-97h-83zM177 743v97h83v-97h-83zM80 0v667h109v-667h-109z" />
    <glyph glyph-name="Upsilondieresis" unicode="&#x3ab;" horiz-adv-x="599" 
d="M171 743v97h83v-97h-83zM342 743v97h83v-97h-83zM353 266v-266h-109v266l-246 401h120l185 -318l183 318h116z" />
    <glyph glyph-name="alphatonos" unicode="&#x3ac;" horiz-adv-x="595" 
d="M402 251q0 30 -6.5 62t-21.5 59t-39.5 44t-60.5 17q-39 0 -63 -16.5t-38 -43t-19 -59t-5 -63.5t5.5 -63.5t19.5 -59.5t38.5 -44.5t62.5 -17.5q36 0 60.5 18t39.5 45t21 59.5t6 62.5zM565 -1q-27 -10 -56 -10q-44 0 -70 25t-34 69q-23 -48 -64 -71t-93 -23q-57 0 -96 22.5
t-64 59.5t-36 84t-11 97t11 96.5t36 82.5t64 57.5t96 21.5q23 0 46.5 -7t44 -20t36.5 -31.5t24 -41.5v92h97v-352q0 -46 9 -63.5t30 -17.5q9 0 23 6zM289 579h-71l32 141h108z" />
    <glyph glyph-name="epsilontonos" unicode="&#x3ad;" horiz-adv-x="457" 
d="M272 224q-55 0 -90.5 -14.5t-35.5 -54.5q0 -24 10.5 -41.5t28 -28t41.5 -15.5t51 -5q42 0 74.5 8.5t67.5 27.5l4 -80q-27 -14 -65.5 -23t-92.5 -9q-46 0 -86.5 9.5t-71 28.5t-48 47t-17.5 65q0 51 30.5 82t84.5 42q-19 4 -37 13t-31.5 22t-22 31t-8.5 41q0 34 17 60
t44.5 44t63 27t72.5 9q45 0 83 -7t75 -21l-6 -80q-39 16 -71.5 24.5t-74.5 8.5q-52 0 -76.5 -20.5t-24.5 -49.5q0 -35 31.5 -50.5t73.5 -15.5h78v-75h-71zM271 579h-71l32 141h108z" />
    <glyph glyph-name="etatonos" unicode="&#x3ae;" horiz-adv-x="559" 
d="M390 -216v511q0 26 -3.5 51t-14 44t-30 30.5t-51.5 11.5q-35 0 -58.5 -14t-37.5 -36.5t-20 -51t-6 -58.5v-272h-100v385q0 29 -1 57.5t-4 57.5h94l3 -86q52 96 162 96q46 0 78.5 -14t52 -39.5t28.5 -61.5t9 -79v-532h-101zM346 579h-71l32 141h108z" />
    <glyph glyph-name="iotatonos" unicode="&#x3af;" horiz-adv-x="272" 
d="M73 500h100v-345q0 -45 6.5 -65.5t32.5 -20.5q6 0 12.5 2t10.5 4l7 -76q-28 -10 -57 -10q-64 0 -88 36t-24 100v375zM155 579h-71l32 141h108z" />
    <glyph glyph-name="upsilondieresistonos" unicode="&#x3b0;" horiz-adv-x="544" 
d="M456 500q17 -42 28.5 -102t11.5 -130q0 -141 -60.5 -210t-163.5 -69q-98 0 -151 55t-53 175v281h102v-279q0 -77 25 -116t83 -39q59 0 88.5 53t29.5 153q0 59 -12.5 118.5t-37.5 109.5h110zM100 603v97h83v-97h-83zM350 603v97h83v-97h-83zM287 586h-68l13 140h99z" />
    <glyph glyph-name="alpha" unicode="&#x3b1;" horiz-adv-x="590" 
d="M402 251q0 30 -6.5 62t-21.5 59t-39.5 44t-60.5 17q-39 0 -63 -16.5t-38 -43t-19 -59t-5 -63.5t5.5 -63.5t19.5 -59.5t38.5 -44.5t62.5 -17.5q36 0 60.5 18t39.5 45t21 59.5t6 62.5zM565 -1q-27 -10 -56 -10q-44 0 -70 25t-34 69q-23 -48 -64 -71t-93 -23q-57 0 -96 22.5
t-64 59.5t-36 84t-11 97t11 96.5t36 82.5t64 57.5t96 21.5q23 0 46.5 -7t44 -20t36.5 -31.5t24 -41.5v92h97v-352q0 -46 9 -63.5t30 -17.5q9 0 23 6z" />
    <glyph glyph-name="beta" unicode="&#x3b2;" horiz-adv-x="573" 
d="M167 259q0 -95 34 -144t94 -49q29 0 51.5 11t37.5 30t23 44.5t8 54.5q0 30 -8 57.5t-26 48.5t-47 33t-72 12h-30v73h39q24 0 42.5 10t31 26.5t18.5 37.5t6 42q0 53 -25.5 83t-68.5 30q-52 0 -80 -40.5t-28 -122.5v-237zM471 560q0 -28 -8 -53.5t-22 -45.5t-34 -34
t-44 -20q73 -17 116.5 -70.5t43.5 -134.5q0 -35 -11 -72.5t-35.5 -69t-63.5 -51.5t-94 -20q-56 0 -92.5 23t-55.5 56v-284h-102v701q0 66 15.5 112.5t43.5 76.5t65.5 44t82.5 14q47 0 83.5 -14t61 -37.5t37.5 -54.5t13 -66z" />
    <glyph glyph-name="gamma" unicode="&#x3b3;" horiz-adv-x="513" 
d="M457 500q0 -6 0.5 -13.5t0.5 -11.5q0 -61 -13 -125.5t-37 -127.5t-57.5 -123.5t-74.5 -112.5q2 -35 4 -73t2 -73v-28t-1 -28h-99q1 14 1.5 35t0.5 38q0 52 -1.5 92t-6.5 75q-7 53 -21.5 114t-35.5 124t-47.5 124t-57.5 114h111q23 -42 43.5 -92.5t37.5 -104t30.5 -106.5
t21.5 -101q27 43 46 94t30.5 100.5t17 94t5.5 76.5v18.5t-2 20.5h102z" />
    <glyph glyph-name="delta" unicode="&#x3b4;" horiz-adv-x="549" 
d="M281 419q-34 -14 -59 -35.5t-41.5 -48t-24.5 -55.5t-8 -58q0 -40 10.5 -69.5t28.5 -49t41 -29.5t47 -10q58 0 92.5 44t34.5 118q0 64 -34.5 112t-86.5 81zM446 626q-28 14 -61 22.5t-68 8.5q-37 0 -60 -15.5t-23 -42.5q0 -15 9 -30t22.5 -29t30 -26.5t30.5 -22.5
q38 -26 71.5 -53t58 -58.5t38.5 -69t14 -85.5q0 -43 -14.5 -85.5t-43.5 -76t-73 -54t-104 -20.5q-52 0 -95 17t-73.5 48t-47.5 73t-17 93q0 81 45.5 142.5t140.5 99.5q-20 16 -38.5 32.5t-32.5 33.5t-22.5 36t-8.5 40q0 29 15 52.5t41 40t61.5 25.5t76.5 9q43 0 78.5 -8
t59.5 -18z" />
    <glyph glyph-name="epsilon" unicode="&#x3b5;" horiz-adv-x="457" 
d="M272 224q-55 0 -90.5 -14.5t-35.5 -54.5q0 -24 10.5 -41.5t28 -28t41.5 -15.5t51 -5q42 0 74.5 8.5t67.5 27.5l4 -80q-27 -14 -65.5 -23t-92.5 -9q-46 0 -86.5 9.5t-71 28.5t-48 47t-17.5 65q0 51 30.5 82t84.5 42q-19 4 -37 13t-31.5 22t-22 31t-8.5 41q0 34 17 60
t44.5 44t63 27t72.5 9q45 0 83 -7t75 -21l-6 -80q-39 16 -71.5 24.5t-74.5 8.5q-52 0 -76.5 -20.5t-24.5 -49.5q0 -35 31.5 -50.5t73.5 -15.5h78v-75h-71z" />
    <glyph glyph-name="zeta" unicode="&#x3b6;" horiz-adv-x="426" 
d="M410 -83q0 -45 -31 -104h-99q4 6 9 15.5t9.5 20.5t8 22t3.5 20q0 25 -13 41.5t-53 36.5q-21 10 -53.5 29.5t-64 51.5t-54 79t-22.5 113q0 54 19 108.5t54.5 106.5t86 100.5t113.5 90.5q-12 -2 -26.5 -2h-28.5h-181v75h348v-74q-142 -105 -208.5 -207t-66.5 -193
q0 -38 8 -68t24.5 -54t42 -43t59.5 -36q37 -19 60 -35.5t35.5 -32t16.5 -30.5t4 -31z" />
    <glyph glyph-name="eta" unicode="&#x3b7;" horiz-adv-x="559" 
d="M390 -216v511q0 26 -3.5 51t-14 44t-30 30.5t-51.5 11.5q-35 0 -58.5 -14t-37.5 -36.5t-20 -51t-6 -58.5v-272h-100v385q0 29 -1 57.5t-4 57.5h94l3 -86q52 96 162 96q46 0 78.5 -14t52 -39.5t28.5 -61.5t9 -79v-532h-101z" />
    <glyph glyph-name="theta" unicode="&#x3b8;" horiz-adv-x="582" 
d="M292 654q-32 0 -55.5 -20t-40.5 -53.5t-27 -77.5t-13 -91h270q-3 48 -12 91.5t-25.5 77t-40.5 53.5t-56 20zM292 68q34 0 59 22t41.5 59t25 85t10.5 101h-273q1 -51 9.5 -99.5t25.5 -85.5t42 -59.5t60 -22.5zM533 362q0 -76 -15.5 -143.5t-46 -118.5t-75.5 -81t-105 -30
t-105.5 29.5t-76 80t-45.5 118.5t-15 145q0 76 16 143t47 117.5t76 79.5t104 29q60 0 105.5 -28.5t75.5 -78.5t45 -117t15 -145z" />
    <glyph glyph-name="iota" unicode="&#x3b9;" horiz-adv-x="272" 
d="M73 500h100v-345q0 -45 6.5 -65.5t32.5 -20.5q6 0 12.5 2t10.5 4l7 -76q-28 -10 -57 -10q-64 0 -88 36t-24 100v375z" />
    <glyph glyph-name="kappa" unicode="&#x3ba;" horiz-adv-x="517" 
d="M387 0l-218 258v-258h-100v500h100v-206l199 206h122l-219 -222l242 -278h-126z" />
    <glyph glyph-name="lambda" unicode="&#x3bb;" horiz-adv-x="539" 
d="M329 570q25 -100 49.5 -199.5t50.5 -199.5q8 -32 15 -52t14.5 -31t15.5 -15t17 -4q13 0 21 4l6 -75q-11 -4 -23.5 -6.5t-26.5 -2.5q-35 0 -64 19t-46 74q-5 13 -12 36.5t-14 51.5t-14.5 59t-14 59.5t-12 53t-9.5 39.5q-38 -96 -74.5 -190.5t-73.5 -190.5h-111
q56 128 111.5 254t111.5 254q-8 32 -16 59t-19 47t-27.5 31t-40.5 11q-12 0 -23.5 -3t-21.5 -8l-6 75q14 5 31 8t37 3q61 0 104 -37t65 -124z" />
    <glyph glyph-name="uni03BC" unicode="&#x3bc;" horiz-adv-x="578" 
d="M553 -1q-30 -10 -60 -10q-43 0 -67.5 26t-29.5 56q-23 -38 -54.5 -60t-78.5 -22q-25 0 -53 11t-46 38v-254h-98v716h97v-286q0 -73 32.5 -109.5t81.5 -36.5q22 0 42 8t35 23.5t24 38.5t9 54v308h97v-363q0 -68 37 -68q5 0 12.5 1.5t12.5 4.5z" />
    <glyph glyph-name="nu" unicode="&#x3bd;" horiz-adv-x="489" 
d="M473 500q-6 -48 -23.5 -113t-42 -134t-53.5 -135.5t-57 -117.5h-117l-168 500h107l128 -411q16 34 35.5 85t36.5 107.5t30 113.5t17 105h107z" />
    <glyph glyph-name="xi" unicode="&#x3be;" horiz-adv-x="457" 
d="M402 415v-83h-77q-81 0 -126 -35t-45 -98q0 -30 10 -52t29 -38.5t46 -29t60 -23.5q76 -26 105 -59.5t29 -77.5q0 -23 -8.5 -49t-23.5 -57h-98q14 24 22 43.5t8 39.5q0 14 -2.5 25t-11.5 21t-26.5 20t-47.5 21q-44 16 -80 35t-62 44t-40.5 56.5t-14.5 72.5q0 37 11.5 67.5
t31 54t46 39.5t56.5 22q-21 6 -42.5 19t-39.5 33.5t-29.5 49t-11.5 67.5q0 92 60.5 140t170.5 48q38 0 75.5 -6t66.5 -15l-7 -81q-32 14 -67.5 20.5t-68.5 6.5q-23 0 -46.5 -6t-42 -20t-30 -36t-11.5 -54q0 -26 10 -49t29 -40t47.5 -26.5t65.5 -9.5h80z" />
    <glyph glyph-name="omicron" unicode="&#x3bf;" horiz-adv-x="570" 
d="M178 124q17 -26 43 -42.5t64 -16.5q37 0 63.5 16.5t43 42.5t24 59.5t7.5 68.5q0 33 -7 66t-23.5 59t-42.5 42t-65 16q-38 0 -64 -16t-42.5 -42.5t-24 -59t-7.5 -65.5q0 -34 7.5 -67.5t23.5 -60.5zM179 8q-69 30 -104.5 94t-35.5 150q0 57 17.5 104.5t49.5 81.5t77.5 53
t101.5 19q59 0 105 -18.5t77.5 -52t47.5 -81.5t16 -106q0 -57 -16 -105t-47.5 -83.5t-77.5 -55t-105 -19.5q-61 0 -106 19z" />
    <glyph glyph-name="pi" unicode="&#x3c0;" horiz-adv-x="607" 
d="M395 424h-184v-424h-103v424h-90v76h566v-76h-90v-293q0 -31 8.5 -46.5t30.5 -15.5q14 0 22 6l8 -76q-13 -5 -26 -7.5t-29 -2.5q-64 0 -88.5 35t-24.5 99v301z" />
    <glyph glyph-name="rho" unicode="&#x3c1;" horiz-adv-x="560" 
d="M409 251q0 38 -7.5 71t-23.5 58t-39.5 39t-55.5 14q-33 0 -56.5 -15.5t-39.5 -40t-23.5 -55t-7.5 -61.5v-22q0 -37 8.5 -68.5t25 -55t40 -36.5t52.5 -13q33 0 57 13.5t39.5 38t23 58.5t7.5 75zM517 251q0 -55 -12.5 -103t-39 -83t-66.5 -55.5t-95 -20.5q-52 0 -87.5 23
t-54.5 51v-279h-101v469q0 54 13 101t40.5 81.5t69.5 54.5t100 20q63 0 107.5 -21.5t72.5 -57.5t40.5 -83t12.5 -97z" />
    <glyph glyph-name="sigma1" unicode="&#x3c2;" horiz-adv-x="446" 
d="M406 409q-26 11 -51.5 17t-55.5 6q-34 0 -62.5 -14t-48.5 -39t-31.5 -59t-11.5 -74q0 -48 16.5 -81.5t41.5 -57.5t54 -39.5t53 -26.5q27 -12 45 -26t28 -30t14 -32.5t4 -33.5q0 -24 -10 -53.5t-22 -52.5h-96q14 24 22.5 43.5t8.5 42.5q0 29 -17 45t-57 35q-35 16 -69 39
t-61 54t-43.5 72.5t-16.5 95.5q0 60 18.5 109.5t52 85t81 55.5t105.5 20q28 0 59 -5t57 -15z" />
    <glyph glyph-name="sigma" unicode="&#x3c3;" horiz-adv-x="576" 
d="M413 245q0 36 -8.5 68.5t-25 57t-39.5 38.5t-52 14h-6q-24 0 -48.5 -10t-44 -31.5t-31.5 -54.5t-12 -79q0 -91 39 -137.5t96 -46.5q61 0 96.5 48.5t35.5 132.5zM37 245q0 58 19 105.5t52.5 80.5t79 51t97.5 18h259v-76h-76q-14 0 -34.5 2.5t-28.5 4.5q47 -21 79.5 -71
t32.5 -118q0 -63 -18.5 -110.5t-50.5 -79t-76 -47.5t-95 -16q-54 0 -98.5 18t-76 51.5t-48.5 81t-17 105.5z" />
    <glyph glyph-name="tau" unicode="&#x3c4;" horiz-adv-x="428" 
d="M368 6q-45 -17 -95 -17q-40 0 -64.5 13t-38 36t-18 54.5t-4.5 67.5v267h-133v73h390v-73h-158v-279q0 -16 2.5 -30.5t9.5 -25.5t19 -17.5t31 -6.5q14 0 28 3.5t27 8.5l4 -74v0z" />
    <glyph glyph-name="upsilon" unicode="&#x3c5;" horiz-adv-x="544" 
d="M456 500q17 -42 28.5 -102t11.5 -130q0 -141 -60.5 -210t-163.5 -69q-98 0 -151 55t-53 175v281h102v-279q0 -77 25 -116t83 -39q59 0 88.5 53t29.5 153q0 59 -12.5 118.5t-37.5 109.5h110z" />
    <glyph glyph-name="phi" unicode="&#x3c6;" horiz-adv-x="747" 
d="M600 249q0 46 -13.5 80t-37 57.5t-56 35.5t-70.5 13v-372q30 0 61.5 9.5t57 31.5t42 57t16.5 88zM147 249q0 -53 15.5 -88t41 -56.5t57.5 -31t64 -10.5v373q-82 -2 -130 -50t-48 -137zM423 508q69 -3 122 -22.5t88.5 -53t54 -80t18.5 -102.5q0 -60 -21.5 -107.5t-59 -81
t-89.5 -52t-113 -20.5v-205h-98v205q-62 2 -114 19.5t-89.5 50t-59 80.5t-21.5 111q0 56 19 102.5t55.5 80.5t89.5 53.5t120 21.5v138h98v-138z" />
    <glyph glyph-name="chi" unicode="&#x3c7;" horiz-adv-x="511" 
d="M392 -216l-140 300l-134 -300h-111l181 366l-174 350h113l126 -273l128 273h106l-171 -341l191 -375h-115z" />
    <glyph glyph-name="psi" unicode="&#x3c8;" horiz-adv-x="720" 
d="M314 -216v206q-51 1 -96 16t-78.5 43t-52.5 69.5t-19 97.5v284h101v-280q0 -44 13 -73.5t33.5 -47.5t46.5 -26t52 -8v581h98v-582q75 3 115.5 57.5t40.5 148.5q0 58 -10.5 118t-33.5 112h106q19 -52 29.5 -105.5t10.5 -115.5q0 -65 -19 -117t-53 -89.5t-81.5 -59
t-104.5 -24.5v-205h-98z" />
    <glyph glyph-name="omega" unicode="&#x3c9;" horiz-adv-x="761" 
d="M236 -11q-56 0 -93 21.5t-60 57t-32.5 81t-9.5 94.5q0 72 19.5 139t51.5 118h113q-25 -33 -41 -66.5t-25 -66.5t-12.5 -64.5t-3.5 -61.5q0 -36 6.5 -68t19 -56t31 -38t43.5 -14q21 0 37.5 12.5t27.5 35t16.5 53.5t5.5 68v140h99v-139q0 -75 21 -122.5t66 -47.5
q25 0 44.5 14t32 38t19 56.5t6.5 69.5q0 72 -21 139t-63 118h113q32 -52 52.5 -116.5t20.5 -138.5q0 -48 -12 -94t-36.5 -82t-61.5 -58t-87 -22q-109 0 -143 89q-26 -48 -61.5 -68.5t-82.5 -20.5z" />
    <glyph glyph-name="iotadieresis" unicode="&#x3ca;" horiz-adv-x="272" 
d="M11 603v97h83v-97h-83zM182 603v97h83v-97h-83zM73 500h100v-345q0 -45 6.5 -65.5t32.5 -20.5q6 0 12.5 2t10.5 4l7 -76q-28 -10 -57 -10q-64 0 -88 36t-24 100v375z" />
    <glyph glyph-name="upsilondieresis" unicode="&#x3cb;" horiz-adv-x="544" 
d="M134 603v97h83v-97h-83zM305 603v97h83v-97h-83zM456 500q17 -42 28.5 -102t11.5 -130q0 -141 -60.5 -210t-163.5 -69q-98 0 -151 55t-53 175v281h102v-279q0 -77 25 -116t83 -39q59 0 88.5 53t29.5 153q0 59 -12.5 118.5t-37.5 109.5h110z" />
    <glyph glyph-name="omicrontonos" unicode="&#x3cc;" horiz-adv-x="570" 
d="M423 252q0 33 -7 66t-23.5 59t-42.5 42t-65 16q-38 0 -64 -16t-42.5 -42.5t-24 -59t-7.5 -65.5q0 -34 7.5 -67.5t24 -60t42.5 -43t64 -16.5q37 0 63.5 16.5t43 42.5t24 59.5t7.5 68.5zM531 252q0 -57 -16 -105t-47.5 -83.5t-77.5 -55t-105 -19.5q-60 0 -106 19.5t-77 55
t-47 83.5t-16 105t17.5 104.5t49.5 81.5t77.5 53t101.5 19q59 0 105 -18.5t77.5 -52t47.5 -81.5t16 -106zM301 579h-71l32 141h108z" />
    <glyph glyph-name="upsilontonos" unicode="&#x3cd;" horiz-adv-x="544" 
d="M456 500q17 -42 28.5 -102t11.5 -130q0 -141 -60.5 -210t-163.5 -69q-98 0 -151 55t-53 175v281h102v-279q0 -77 25 -116t83 -39q59 0 88.5 53t29.5 153q0 59 -12.5 118.5t-37.5 109.5h110zM294 579h-71l32 141h108z" />
    <glyph glyph-name="omegatonos" unicode="&#x3ce;" horiz-adv-x="761" 
d="M236 -11q-56 0 -93 21.5t-60 57t-32.5 81t-9.5 94.5q0 72 19.5 139t51.5 118h113q-25 -33 -41 -66.5t-25 -66.5t-12.5 -64.5t-3.5 -61.5q0 -36 6.5 -68t19 -56t31 -38t43.5 -14q21 0 37.5 12.5t27.5 35t16.5 53.5t5.5 68v140h99v-139q0 -75 21 -122.5t66 -47.5
q25 0 44.5 14t32 38t19 56.5t6.5 69.5q0 72 -21 139t-63 118h113q32 -52 52.5 -116.5t20.5 -138.5q0 -48 -12 -94t-36.5 -82t-61.5 -58t-87 -22q-109 0 -143 89q-26 -48 -61.5 -68.5t-82.5 -20.5zM407 579h-71l32 141h108z" />
    <glyph glyph-name="uni0400" unicode="&#x400;" horiz-adv-x="517" 
d="M253 724l-104 136h108l72 -136h-76z" />
    <glyph glyph-name="afii10023" unicode="&#x401;" horiz-adv-x="517" 
d="M80 0v667h383v-81h-276v-205h263v-80h-263v-220h286v-81h-393zM145 743v97h83v-97h-83zM316 743v97h83v-97h-83z" />
    <glyph glyph-name="afii10051" unicode="&#x402;" horiz-adv-x="735" 
d="M463 -11q-36 0 -66 4t-61 15l6 83q15 -8 39.5 -13.5t52.5 -5.5q64 0 102 36.5t38 113.5q0 74 -40.5 107.5t-104.5 33.5q-30 0 -57.5 -10t-48.5 -29t-33.5 -46t-12.5 -61v-217h-109v583h-158v84h505v-84h-238v-231q14 22 35 39t45.5 28.5t52 17.5t54.5 6q48 0 89.5 -13.5
t71.5 -40t47 -66.5t17 -94q0 -56 -16 -100t-45.5 -75.5t-71.5 -48t-93 -16.5z" />
    <glyph glyph-name="afii10052" unicode="&#x403;" horiz-adv-x="469" 
d="M212 724l71 136h109l-103 -136h-77zM80 667h380v-89h-271v-578h-109v667z" />
    <glyph glyph-name="afii10053" unicode="&#x404;" horiz-adv-x="592" 
d="M392 -10q-80 0 -144 24t-109 68.5t-69 108.5t-24 144q0 78 25.5 141t72 108t111.5 69t143 24q50 0 90 -7.5t71 -17.5l-6 -82q-32 15 -70 20.5t-72 5.5q-56 0 -99 -15.5t-73.5 -43.5t-49.5 -67t-25 -86h296v-80h-298q4 -51 21.5 -93.5t48.5 -73.5t75 -48t101 -17
q33 0 73.5 5t71.5 20l5 -80q-14 -8 -35 -13t-44.5 -8t-46 -4.5t-40.5 -1.5z" />
    <glyph glyph-name="afii10054" unicode="&#x405;" horiz-adv-x="513" 
d="M63 109q39 -20 77.5 -29t83.5 -9q24 0 47 6t41 19t29 34t11 51q0 24 -9.5 41.5t-25 31.5t-36.5 25t-44 22l-52 25q-24 12 -46 26.5t-38 34t-25.5 45t-9.5 59.5q0 49 19.5 84.5t51 58t70.5 33t78 10.5q82 0 151 -21l-6 -88q-32 14 -68.5 20.5t-70.5 6.5q-21 0 -42.5 -5
t-38.5 -16.5t-28 -30t-11 -46.5q0 -21 7.5 -36t20.5 -27t30 -21.5t35 -18.5l55 -25q30 -14 55.5 -29.5t44.5 -36.5t30 -49t11 -67q0 -51 -18 -88.5t-49.5 -61.5t-73.5 -36t-90 -12q-39 0 -83.5 6.5t-87.5 20.5z" />
    <glyph glyph-name="afii10055" unicode="&#x406;" horiz-adv-x="268" 
d="M80 0v667h109v-667h-109z" />
    <glyph glyph-name="afii10056" unicode="&#x407;" horiz-adv-x="268" 
d="M80 0v667h109v-667h-109zM7 743v97h83v-97h-83zM178 743v97h83v-97h-83z" />
    <glyph glyph-name="afii10057" unicode="&#x408;" horiz-adv-x="344" 
d="M10 87q14 -6 28 -8t29 -2q27 0 45 9.5t29.5 25t16.5 36.5t5 44v475h109v-486q0 -43 -11 -78t-32.5 -60.5t-54.5 -39.5t-78 -14q-48 0 -91 15z" />
    <glyph glyph-name="afii10058" unicode="&#x409;" horiz-adv-x="983" 
d="M696 79q32 0 59 6.5t46.5 22t30 40.5t10.5 62q0 63 -38.5 91.5t-107.5 28.5h-97v-251h97zM93 -7q-25 0 -48 3t-40 11l5 84q12 -5 27 -7.5t29 -2.5q37 0 59 31.5t34 101t16 181t4 272.5h420v-257h122q109 0 170.5 -52.5t61.5 -149.5q0 -95 -56.5 -151.5t-176.5 -56.5h-230
v583h-207q0 -144 -5.5 -254t-24.5 -184.5t-56.5 -113t-103.5 -38.5z" />
    <glyph glyph-name="afii10059" unicode="&#x40a;" horiz-adv-x="966" 
d="M693 79q63 0 98.5 34t35.5 91q0 39 -13.5 62t-37 36t-53.5 17t-63 4h-79v-244h112zM80 667h109v-265h283v265h109v-265h137q45 0 84.5 -12.5t69.5 -37.5t47 -62.5t17 -86.5q0 -51 -17 -89t-47 -63.5t-70.5 -38t-87.5 -12.5h-242v317h-283v-317h-109v667z" />
    <glyph glyph-name="afii10060" unicode="&#x40b;" horiz-adv-x="735" 
d="M168 583h-158v84h505v-84h-238v-231q28 44 78.5 67.5t104.5 23.5q98 0 154 -54.5t56 -161.5v-227h-109v210q0 77 -37.5 115t-99.5 38q-29 0 -56 -10.5t-47 -30t-32 -46t-12 -59.5v-217h-109v583z" />
    <glyph glyph-name="afii10061" unicode="&#x40c;" horiz-adv-x="619" 
d="M80 0v667h109v-295l269 295h132l-301 -312l327 -355h-140l-287 326v-326h-109zM270 724l71 136h109l-103 -136h-77z" />
    <glyph glyph-name="uni040D" unicode="&#x40d;" horiz-adv-x="685" 
d="M80 667h106v-534l293 534h126v-667h-105v532l-295 -532h-125v667zM326 724l-104 136h108l72 -136h-76z" />
    <glyph glyph-name="afii10062" unicode="&#x40e;" horiz-adv-x="610" 
d="M310 721q-36 0 -62.5 10.5t-46 26.5t-31 35.5t-17.5 36.5l54 32q12 -26 35.5 -46t67.5 -20q22 0 38.5 6t29 15.5t21 21t14.5 23.5l54 -32q-5 -17 -17 -36t-31 -35t-46 -27t-63 -11zM174 -8q-25 0 -47.5 2.5t-42.5 7.5l6 82q10 -4 26.5 -6.5t35.5 -2.5q16 0 28.5 7
t23.5 20.5t21.5 33t23.5 45.5l-249 486h121l187 -390l188 390h114l-264 -514q-17 -33 -34 -62.5t-36.5 -51.5t-44 -34.5t-57.5 -12.5z" />
    <glyph glyph-name="afii10145" unicode="&#x40f;" horiz-adv-x="671" 
d="M285 0h-205v667h109v-583h293v583h109v-667h-206v-168h-100v168z" />
    <glyph glyph-name="afii10017" unicode="&#x410;" horiz-adv-x="662" 
d="M201 255h255l-127 335zM2 0l260 667h137l262 -667h-114l-64 175h-309l-66 -175h-106z" />
    <glyph glyph-name="afii10018" unicode="&#x411;" horiz-adv-x="582" 
d="M280 77q66 0 105.5 29t39.5 98q0 63 -39.5 91t-106.5 28h-90v-246h91zM80 667h402v-84h-293v-183h105q112 0 176 -48.5t64 -148.5q0 -97 -59.5 -150t-181.5 -53h-213v667z" />
    <glyph glyph-name="afii10019" unicode="&#x412;" horiz-adv-x="582" 
d="M186 75h70q29 0 58.5 4.5t53 17.5t38.5 35.5t15 57.5q0 38 -15.5 61.5t-40.5 36.5t-56 17.5t-62 4.5h-61v-235zM186 380h72q28 0 54.5 5.5t47 18t33 34t12.5 54.5q0 28 -11.5 47.5t-30 31t-42 16.5t-48.5 5h-87v-212zM80 0v667h217q41 0 80 -8t69.5 -27t49 -50.5
t18.5 -79.5q0 -63 -34.5 -101.5t-94.5 -52.5q63 -11 105 -51.5t42 -107.5q0 -59 -22.5 -95.5t-59.5 -57.5t-83.5 -28.5t-95.5 -7.5h-191z" />
    <glyph glyph-name="afii10020" unicode="&#x413;" horiz-adv-x="469" 
d="M80 667h380v-89h-271v-578h-109v667z" />
    <glyph glyph-name="afii10021" unicode="&#x414;" horiz-adv-x="696" 
d="M486 84v499h-218v-150q0 -102 -21 -191.5t-65 -157.5h304zM9 84h56q53 72 76.5 168.5t23.5 209.5v205h430v-583h86v-252h-100v168h-472v-168h-100v252z" />
    <glyph glyph-name="afii10022" unicode="&#x415;" horiz-adv-x="517" 
d="M80 0v667h383v-81h-276v-205h263v-80h-263v-220h286v-81h-393z" />
    <glyph glyph-name="afii10024" unicode="&#x416;" horiz-adv-x="928" 
d="M300 353l-268 314h131l246 -305v305h109v-305l247 305h131l-268 -314l298 -353h-137l-271 336v-336h-109v336l-269 -336h-138z" />
    <glyph glyph-name="afii10025" unicode="&#x417;" horiz-adv-x="521" 
d="M209 -11q-107 0 -176 26l7 92q34 -20 76.5 -28t83.5 -8q27 0 54 6t49.5 20t36.5 37t14 58q0 39 -17.5 62t-43 34t-54.5 14t-53 3h-8.5h-14t-14 -0.5t-7.5 -0.5v80q2 0 14 -0.5t18 -0.5q26 0 56 4.5t55.5 17.5t42.5 35.5t17 58.5q0 27 -11.5 45.5t-30.5 30t-43.5 17
t-49.5 5.5q-18 0 -38.5 -2.5t-40.5 -7t-38.5 -10.5t-31.5 -12l-10 82q40 13 88 21.5t89 8.5q46 0 88 -9.5t73.5 -30t50 -53.5t18.5 -79q0 -60 -36 -100t-97 -57q32 -4 59 -18t46.5 -35.5t30 -50.5t10.5 -63q0 -47 -20 -83t-55 -60t-83 -36.5t-104 -12.5z" />
    <glyph glyph-name="afii10026" unicode="&#x418;" horiz-adv-x="685" 
d="M80 667h106v-534l293 534h126v-667h-105v532l-295 -532h-125v667z" />
    <glyph glyph-name="afii10027" unicode="&#x419;" horiz-adv-x="685" 
d="M80 667h106v-534l293 534h126v-667h-105v532l-295 -532h-125v667zM344 721q-36 0 -62.5 10.5t-46 26.5t-31 35.5t-17.5 36.5l54 32q12 -26 35.5 -46t67.5 -20q22 0 38.5 6t29 15.5t21 21t14.5 23.5l54 -32q-5 -17 -17 -36t-31 -35t-46 -27t-63 -11z" />
    <glyph glyph-name="afii10028" unicode="&#x41a;" horiz-adv-x="619" 
d="M80 0v667h109v-295l269 295h132l-301 -312l327 -355h-140l-287 326v-326h-109z" />
    <glyph glyph-name="afii10029" unicode="&#x41b;" horiz-adv-x="688" 
d="M93 -7q-25 0 -48 3t-40 11l5 84q12 -5 27 -7.5t29 -2.5q37 0 59 31.5t34 101t16 181t4 272.5h430v-667h-109v583h-217q0 -144 -5.5 -254t-24.5 -184.5t-56.5 -113t-103.5 -38.5z" />
    <glyph glyph-name="afii10030" unicode="&#x41c;" horiz-adv-x="898" 
d="M80 0v667h164l206 -548l204 548h165v-667h-103v589l-219 -589h-99l-220 589v-589h-98z" />
    <glyph glyph-name="afii10031" unicode="&#x41d;" horiz-adv-x="676" 
d="M80 0v667h109v-279h299v279h109v-667h-109v298h-299v-298h-109z" />
    <glyph glyph-name="afii10032" unicode="&#x41e;" horiz-adv-x="716" 
d="M206 156q24 -37 61 -61t91 -24q55 0 92.5 23.5t61 61t34 84t10.5 93.5q0 46 -10.5 93t-34 84.5t-61 61t-92.5 23.5q-54 0 -91.5 -24t-61 -61.5t-34.5 -84t-11 -92.5t11 -92.5t35 -84.5zM221 15q-88 39 -131.5 122.5t-43.5 195.5q0 72 20 134.5t59.5 109t97.5 73.5t135 27
q78 0 136.5 -26t97.5 -72t58.5 -109t19.5 -137q0 -73 -20 -135.5t-59 -109t-97.5 -73t-135.5 -26.5t-137 26z" />
    <glyph glyph-name="afii10033" unicode="&#x41f;" horiz-adv-x="669" 
d="M80 667h509v-667h-109v583h-291v-583h-109v667z" />
    <glyph glyph-name="afii10034" unicode="&#x420;" horiz-adv-x="549" 
d="M80 0v667h189q50 0 96 -9t81 -31t56 -59t21 -93q0 -58 -21 -98t-56.5 -64.5t-83 -35.5t-100.5 -11h-75v-266h-107zM187 346h51q33 0 64.5 4.5t56 18t39 39t14.5 66.5q0 31 -12 53t-32 35.5t-47.5 19.5t-58.5 6h-75v-242z" />
    <glyph glyph-name="afii10035" unicode="&#x421;" horiz-adv-x="595" 
d="M562 18q-35 -16 -79.5 -22.5t-83.5 -6.5q-80 0 -145 23.5t-111 68t-71.5 108.5t-25.5 144q0 76 26.5 139.5t73.5 109t111.5 70.5t141.5 25q38 0 82 -6t79 -19l-6 -88q-31 14 -69.5 21t-73.5 7q-59 0 -105.5 -19.5t-78.5 -54t-49.5 -82t-17.5 -103.5q0 -58 16.5 -105.5
t48.5 -81.5t78 -53t106 -19q38 0 75.5 6.5t71.5 22.5z" />
    <glyph glyph-name="afii10036" unicode="&#x422;" horiz-adv-x="535" 
d="M213 0v577h-203v90h516v-90h-204v-577h-109z" />
    <glyph glyph-name="afii10037" unicode="&#x423;" horiz-adv-x="610" 
d="M174 -8q-25 0 -47.5 2.5t-42.5 7.5l6 82q10 -4 26.5 -6.5t35.5 -2.5q16 0 28.5 7t23.5 20.5t21.5 33t23.5 45.5l-249 486h121l187 -390l188 390h114l-264 -514q-17 -33 -34 -62.5t-36.5 -51.5t-44 -34.5t-57.5 -12.5z" />
    <glyph glyph-name="afii10038" unicode="&#x424;" horiz-adv-x="807" 
d="M457 140q93 1 147.5 55.5t54.5 149.5q0 91 -54 145t-148 54v-404v0zM350 544q-47 0 -84 -14t-63 -40t-40 -63t-14 -82q0 -95 54.5 -149.5t146.5 -55.5v404zM349 66q-78 0 -133.5 20.5t-94.5 55.5q-40 37 -61.5 88.5t-21.5 114.5q0 64 22 115t62 86q38 35 93.5 54
t133.5 19v57h110v-57q77 0 132 -19t93 -52q42 -35 64 -86.5t22 -116.5q0 -63 -22 -115.5t-63 -89.5q-38 -35 -93.5 -54.5t-132.5 -19.5v-76h-110v76z" />
    <glyph glyph-name="afii10039" unicode="&#x425;" horiz-adv-x="636" 
d="M6 0l245 349l-221 318h125l170 -257l168 257h117l-222 -318l243 -349h-129l-185 289l-192 -289h-119z" />
    <glyph glyph-name="afii10040" unicode="&#x426;" horiz-adv-x="692" 
d="M577 0h-497v667h109v-583h292v583h109v-583h87v-252h-100v168z" />
    <glyph glyph-name="afii10041" unicode="&#x427;" horiz-adv-x="625" 
d="M436 275q-9 -3 -27.5 -7t-40.5 -7.5t-45 -6t-42 -2.5q-44 0 -84 7t-70.5 30t-48.5 65.5t-18 114.5v198h107v-194q0 -37 7 -62.5t23.5 -41.5t42.5 -23.5t65 -7.5q17 0 37 2t38.5 5t33.5 6.5t22 6.5v309h109v-667h-109v275z" />
    <glyph glyph-name="afii10042" unicode="&#x428;" horiz-adv-x="1011" 
d="M80 667h109v-583h262v583h109v-583h262v583h109v-667h-851v667z" />
    <glyph glyph-name="afii10043" unicode="&#x429;" horiz-adv-x="1032" 
d="M917 0h-837v667h109v-583h262v583h109v-583h262v583h109v-583h86v-252h-100v168z" />
    <glyph glyph-name="afii10044" unicode="&#x42a;" horiz-adv-x="668" 
d="M380 79q32 0 59 6.5t46.5 22t30 40.5t10.5 62q0 63 -38 91.5t-107 28.5h-98v-251h97zM174 581h-165v86h274v-257h123q109 0 170.5 -52.5t61.5 -149.5q0 -95 -56.5 -151.5t-176.5 -56.5h-231v581z" />
    <glyph glyph-name="afii10045" unicode="&#x42b;" horiz-adv-x="821" 
d="M632 667h109v-667h-109v667zM286 79q32 0 59 6.5t46.5 22t30 40.5t10.5 62q0 63 -38.5 91.5t-107.5 28.5h-97v-251h97zM80 667h109v-257h122q109 0 170.5 -52.5t61.5 -149.5q0 -95 -56.5 -151.5t-176.5 -56.5h-230v667z" />
    <glyph glyph-name="afii10046" unicode="&#x42c;" horiz-adv-x="573" 
d="M286 79q32 0 59 6.5t46.5 22t30 40.5t10.5 62q0 63 -38.5 91.5t-107.5 28.5h-97v-251h97zM80 667h109v-257h122q109 0 170.5 -52.5t61.5 -149.5q0 -95 -56.5 -151.5t-176.5 -56.5h-230v667z" />
    <glyph glyph-name="afii10047" unicode="&#x42d;" horiz-adv-x="598" 
d="M214 -9q-18 0 -41 1.5t-46.5 5t-45 8.5t-36.5 11l6 80q29 -11 69.5 -17.5t78.5 -6.5q57 0 101.5 17t75.5 48t49 73.5t22 93.5h-299v78h297q-6 48 -25 86.5t-50.5 66.5t-74.5 43t-98 15q-34 0 -71.5 -6t-69.5 -21l-5 84q30 12 74 18.5t91 6.5q83 0 147.5 -24t109 -68.5
t67.5 -107.5t23 -140q0 -80 -25 -144t-70.5 -108.5t-110 -68.5t-143.5 -24z" />
    <glyph glyph-name="afii10048" unicode="&#x42e;" horiz-adv-x="964" 
d="M610 70q89 0 140 68.5t51 191.5q0 53 -10 101t-32 85t-57 58.5t-84 21.5q-44 0 -80.5 -18.5t-62 -52.5t-39.5 -83.5t-14 -110.5q0 -51 12 -98.5t35.5 -83.5t58.5 -57.5t82 -21.5zM609 -10q-66 0 -120 21.5t-92.5 62t-60.5 98.5t-26 130h-121v-302h-109v667h109v-280h123
q7 67 32.5 121t64.5 91.5t90.5 57.5t112.5 20q69 0 125.5 -23t96.5 -67t62 -107.5t22 -144.5t-21.5 -145t-61.5 -108.5t-97 -68t-129 -23.5z" />
    <glyph glyph-name="afii10049" unicode="&#x42f;" horiz-adv-x="594" 
d="M405 353v235h-72q-31 0 -59.5 -4.5t-50 -17t-34.5 -35t-13 -59.5q0 -33 13 -55.5t34 -36.5t47.5 -20.5t54.5 -6.5h80zM124 217q20 40 40 63t57 32q-32 6 -60 19t-49 34t-33.5 50t-12.5 65q0 92 58.5 139.5t155.5 47.5h234v-667h-109v274h-55q-25 0 -42 -3t-30.5 -13
t-25.5 -29t-27 -50l-88 -179h-118z" />
    <glyph glyph-name="afii10065" unicode="&#x430;" horiz-adv-x="517" 
d="M358 0l-3 79q-23 -42 -63 -66t-94 -24q-34 0 -64 8.5t-52.5 26.5t-36 46t-13.5 67q0 49 20.5 81.5t56.5 52t84 28t103 8.5h27.5t28.5 -1v21q0 55 -27 84t-87 29q-38 0 -75.5 -9.5t-71.5 -30.5l-6 77q35 14 79.5 23.5t82.5 9.5q97 0 150 -44.5t53 -145.5v-209
q0 -32 1.5 -58.5t4.5 -52.5h-98zM325 245q-37 0 -72 -3.5t-62 -14.5t-43.5 -31t-16.5 -53q0 -43 25.5 -62t65.5 -19q34 0 58.5 12.5t40.5 34t23.5 49.5t7.5 60v27h-27z" />
    <glyph glyph-name="afii10066" unicode="&#x431;" horiz-adv-x="574" 
d="M296 63q63 0 98 49t35 133q0 90 -34 136.5t-97 46.5q-67 0 -104.5 -50t-37.5 -135q0 -88 40 -134t100 -46zM295 -12q-65 0 -112 22.5t-77 61.5t-44 92t-14 115q0 58 3.5 112.5t14 102t30 87.5t52.5 69q42 38 94 50.5t112 17.5q40 3 78.5 5.5t71.5 12.5l-6 -91
q-16 -4 -34.5 -6.5t-37.5 -4.5t-38 -3t-35 -2q-60 -5 -102 -17t-69 -38.5t-41 -70.5t-18 -113q7 17 22 36t38 35.5t53.5 27t68.5 10.5q58 0 102 -18t72.5 -51t43 -80t14.5 -105q0 -59 -16.5 -106.5t-47.5 -81t-76 -51.5t-102 -18z" />
    <glyph glyph-name="afii10067" unicode="&#x432;" horiz-adv-x="517" 
d="M261 294q44 0 71.5 16.5t27.5 54.5q0 37 -26 52.5t-71 15.5h-95v-139h93zM268 69q51 0 78.5 23t27.5 61q0 37 -29.5 56t-83.5 19h-93v-159h100zM69 500h230q31 0 60 -6t52 -20t37 -37.5t14 -59.5q0 -48 -26 -76.5t-71 -39.5q48 -8 79 -38t31 -81q0 -44 -17 -71.5
t-44.5 -43.5t-62.5 -21.5t-72 -5.5h-210v500z" />
    <glyph glyph-name="afii10068" unicode="&#x433;" horiz-adv-x="400" 
d="M69 500h322v-74h-222v-426h-100v500z" />
    <glyph glyph-name="afii10069" unicode="&#x434;" horiz-adv-x="571" 
d="M388 73v355h-170v-89q0 -78 -10.5 -144.5t-45.5 -121.5h226zM5 73h56q18 29 31 56.5t21 60t11.5 73t3.5 95.5v142h360v-427h71v-215h-90v142h-374v-142h-90v215z" />
    <glyph glyph-name="afii10070" unicode="&#x435;" horiz-adv-x="510" 
d="M142 228q0 -35 10.5 -65.5t31.5 -53.5t52.5 -36.5t72.5 -13.5q34 0 69.5 7.5t65.5 23.5l6 -74q-35 -14 -74 -20.5t-81 -6.5q-63 0 -111 19t-80.5 54t-48.5 83t-16 107q0 51 15.5 98t45 82.5t72 56.5t96.5 21q59 0 99 -19.5t64.5 -53.5t35 -80t10.5 -99v-30h-335zM381 290
q0 28 -5 55.5t-17.5 48.5t-34 34t-55.5 13q-32 0 -55.5 -13.5t-39.5 -35t-24 -48.5t-9 -54h240z" />
    <glyph glyph-name="afii10072" unicode="&#x436;" horiz-adv-x="774" 
d="M231 267l-208 233h117l197 -235v235h99v-235l198 235h116l-208 -233l230 -267h-125l-211 259v-259h-99v259l-210 -259h-125z" />
    <glyph glyph-name="afii10073" unicode="&#x437;" horiz-adv-x="451" 
d="M199 -11q-61 0 -99 8t-70 21l6 81q23 -13 57 -24t84 -11q56 0 89 23t33 58q0 49 -32 66t-92 17h-12.5h-15t-13.5 -0.5t-7 -0.5v71q2 0 9 -0.5t14.5 -0.5h14h7.5q25 0 46.5 3.5t37.5 12.5t25 23.5t9 36.5q0 20 -9 32.5t-23 19t-32.5 9t-36.5 2.5q-21 0 -42 -4t-39.5 -9.5
t-33.5 -12t-25 -11.5l-6 78q26 10 69 21.5t101 11.5q40 0 74 -6t58.5 -20t38.5 -37.5t14 -58.5q0 -45 -29.5 -77.5t-78.5 -43.5q52 -8 85.5 -38t33.5 -84q0 -41 -17 -70t-45.5 -48.5t-66.5 -28.5t-81 -9z" />
    <glyph glyph-name="afii10074" unicode="&#x438;" horiz-adv-x="573" 
d="M69 500h97v-378l231 378h107v-500h-97v377l-230 -377h-108v500z" />
    <glyph glyph-name="afii10075" unicode="&#x439;" horiz-adv-x="573" 
d="M69 500h97v-378l231 378h107v-500h-97v377l-230 -377h-108v500zM290 581q-36 0 -62.5 10.5t-46 26.5t-31 35.5t-17.5 36.5l54 32q12 -26 35.5 -46t67.5 -20q22 0 38.5 6t29 15.5t21 21t14.5 23.5l54 -32q-5 -17 -17 -36t-31 -35t-46 -27t-63 -11z" />
    <glyph glyph-name="afii10076" unicode="&#x43a;" horiz-adv-x="525" 
d="M69 500h100v-229l206 229h121l-219 -234l246 -266h-128l-226 253v-253h-100v500z" />
    <glyph glyph-name="afii10077" unicode="&#x43b;" horiz-adv-x="561" 
d="M67 -7q-16 0 -37 2t-32 5l5 75q6 -3 18 -4t22 -1q28 0 46 21.5t28.5 71.5t14.5 132.5t4 204.5h356v-500h-100v428h-161q0 -98 -5 -178.5t-21.5 -137.5t-49 -88t-88.5 -31z" />
    <glyph glyph-name="afii10078" unicode="&#x43c;" horiz-adv-x="713" 
d="M69 500h150l137 -408l137 408h151v-500h-96v422l-148 -422h-91l-147 422v-422h-93v500z" />
    <glyph glyph-name="afii10079" unicode="&#x43d;" horiz-adv-x="564" 
d="M69 500h100v-200h226v200h100v-500h-100v226h-226v-226h-100v500z" />
    <glyph glyph-name="afii10080" unicode="&#x43e;" horiz-adv-x="570" 
d="M178 124q17 -26 43 -42.5t64 -16.5q37 0 63.5 16.5t43 42.5t24 59.5t7.5 68.5q0 33 -7 66t-23.5 59t-42.5 42t-65 16q-38 0 -64 -16t-42.5 -42.5t-24 -59t-7.5 -65.5q0 -34 7.5 -67.5t23.5 -60.5zM179 8q-69 30 -104.5 94t-35.5 150q0 57 17.5 104.5t49.5 81.5t77.5 53
t101.5 19q59 0 105 -18.5t77.5 -52t47.5 -81.5t16 -106q0 -57 -16 -105t-47.5 -83.5t-77.5 -55t-105 -19.5q-61 0 -106 19z" />
    <glyph glyph-name="afii10081" unicode="&#x43f;" horiz-adv-x="558" 
d="M69 500h420v-500h-100v428h-220v-428h-100v500z" />
    <glyph glyph-name="afii10082" unicode="&#x440;" horiz-adv-x="565" 
d="M193 129q15 -27 39.5 -45t60.5 -18q38 0 62.5 17.5t38.5 44.5t19.5 60t5.5 64t-5 63t-19 58.5t-38 43t-63 16.5q-36 0 -60.5 -17t-39.5 -43.5t-21.5 -58.5t-6.5 -62t6 -62.5t21 -60.5zM69 -216v558q0 45 -1.5 83t-3.5 75h95l4 -86q10 22 27 40t38 30.5t45.5 19t48.5 6.5
q57 0 96 -21.5t63.5 -57.5t35 -82.5t10.5 -96.5t-11 -97t-36 -84t-64 -59.5t-96 -22.5q-48 0 -90 23.5t-61 68.5v-297h-100z" />
    <glyph glyph-name="afii10083" unicode="&#x441;" horiz-adv-x="457" 
d="M426 8q-30 -11 -60.5 -15t-65.5 -4q-65 0 -113.5 19.5t-81.5 54.5t-49.5 83.5t-16.5 105.5q0 58 19 105.5t53.5 81.5t83 52.5t107.5 18.5q33 0 63 -3t62 -14l-6 -80q-45 22 -105 22q-41 0 -72.5 -14t-53 -38.5t-32.5 -58t-11 -72.5q0 -38 10.5 -71.5t32.5 -59.5t55 -41
t77 -15q28 0 51 5.5t48 16.5z" />
    <glyph glyph-name="afii10084" unicode="&#x442;" horiz-adv-x="439" 
d="M170 426h-161v74h421v-74h-160v-426h-100v426z" />
    <glyph glyph-name="afii10085" unicode="&#x443;" horiz-adv-x="469" 
d="M36 -143q24 -7 49 -7q38 0 57.5 25t35.5 76l10 31l-179 518h109l122 -411l120 411h102l-191 -567q-10 -29 -23 -57.5t-32 -51.5t-46.5 -37t-66.5 -14q-41 0 -73 7z" />
    <glyph glyph-name="afii10086" unicode="&#x444;" horiz-adv-x="803" 
d="M541 64q33 0 55 17t35 43.5t18.5 59.5t5.5 65t-5.5 65t-19 59.5t-35 43.5t-54.5 17q-35 0 -57.5 -20.5t-35.5 -49.5v-229q14 -30 36 -50.5t57 -20.5zM262 64q35 0 57.5 20.5t35.5 50.5v229q-13 29 -35 49.5t-57 20.5q-33 0 -55 -17t-35 -43.5t-18.5 -59.5t-5.5 -65
t5.5 -65t18 -59.5t34.5 -43.5t55 -17zM352 51q-43 -62 -125 -62q-46 0 -81 20t-58.5 55t-35.5 82t-12 102q0 56 11 104t34.5 83t59 55t84.5 20q45 0 75.5 -19.5t47.5 -42.5v273h100v-273q16 23 47 42.5t76 19.5q49 0 84.5 -20t58.5 -55t34 -83t11 -104q0 -55 -12 -102
t-35.5 -82t-58.5 -55t-81 -20q-82 0 -124 62v-267h-100v267z" />
    <glyph glyph-name="afii10087" unicode="&#x445;" horiz-adv-x="486" 
d="M11 0l171 262l-154 238h113l108 -186l105 186h107l-152 -238l168 -262h-114l-119 208l-125 -208h-108z" />
    <glyph glyph-name="afii10088" unicode="&#x446;" horiz-adv-x="569" 
d="M467 0h-398v500h100v-427h218v427h100v-427h70v-215h-90v142z" />
    <glyph glyph-name="afii10089" unicode="&#x447;" horiz-adv-x="518" 
d="M349 196q-17 -6 -53 -13.5t-78 -7.5q-90 0 -130 40t-40 120v165h97v-147q0 -59 26.5 -81t79.5 -22q13 0 28 2t29 4.5t25 5.5t16 5v233h100v-500h-100v196z" />
    <glyph glyph-name="afii10090" unicode="&#x448;" horiz-adv-x="826" 
d="M69 500h100v-427h194v427h100v-427h194v427h100v-500h-688v500z" />
    <glyph glyph-name="afii10091" unicode="&#x449;" horiz-adv-x="840" 
d="M738 0h-669v500h100v-427h194v427h100v-427h194v427h100v-427h71v-215h-90v142z" />
    <glyph glyph-name="afii10092" unicode="&#x44a;" horiz-adv-x="579" 
d="M346 70q54 0 80.5 24.5t26.5 68.5q0 42 -27.5 64t-83.5 22h-96v-179h100zM146 427h-137v73h237v-182h127q36 0 69 -8.5t57.5 -27t39.5 -47.5t15 -71q0 -44 -15 -75.5t-40.5 -51t-59.5 -28.5t-73 -9h-220v427z" />
    <glyph glyph-name="afii10093" unicode="&#x44b;" horiz-adv-x="724" 
d="M555 500h100v-500h-100v500zM269 70q54 0 80.5 24.5t26.5 68.5q0 42 -27.5 64t-83.5 22h-96v-179h100zM69 500h100v-182h127q36 0 69 -8.5t57.5 -27t39.5 -47.5t15 -71q0 -44 -15 -75.5t-40.5 -51t-59.5 -28.5t-73 -9h-220v500z" />
    <glyph glyph-name="afii10094" unicode="&#x44c;" horiz-adv-x="503" 
d="M269 70q54 0 80.5 24.5t26.5 68.5q0 42 -27.5 64t-83.5 22h-96v-179h100zM69 500h100v-182h127q36 0 69 -8.5t57.5 -27t39.5 -47.5t15 -71q0 -44 -15 -75.5t-40.5 -51t-59.5 -28.5t-73 -9h-220v500z" />
    <glyph glyph-name="afii10095" unicode="&#x44d;" horiz-adv-x="461" 
d="M167 -11q-40 0 -72.5 3.5t-66.5 16.5l6 76q28 -11 53 -17.5t56 -6.5q36 0 67 12.5t53.5 34.5t36 52t15.5 65h-219v72h218q-12 62 -53 101.5t-116 39.5q-55 0 -107 -23l-4 74q20 6 54 13.5t81 7.5q58 0 105 -18t80 -51.5t50.5 -81t17.5 -106.5q0 -55 -16 -103t-47.5 -84
t-79.5 -56.5t-112 -20.5z" />
    <glyph glyph-name="afii10096" unicode="&#x44e;" horiz-adv-x="778" 
d="M498 64q33 0 57.5 14.5t41.5 39.5t25.5 59.5t8.5 75.5q0 90 -35.5 136t-94.5 46q-68 0 -101.5 -51t-33.5 -133q0 -88 35.5 -137.5t96.5 -49.5zM497 -11q-50 0 -92 16t-73 47t-50 75t-22 100h-92v-227h-100v500h100v-202h93q14 105 79 158.5t163 53.5q55 0 99 -18.5
t74.5 -52t47 -81.5t16.5 -107q0 -60 -17 -108.5t-48.5 -82.5t-76.5 -52.5t-101 -18.5z" />
    <glyph glyph-name="afii10097" unicode="&#x44f;" horiz-adv-x="516" 
d="M349 257v174h-72q-66 0 -97 -18.5t-31 -69.5q0 -40 25.5 -63t85.5 -23h89zM78 135q13 27 24 43t21.5 24t21 11t23.5 5q-60 13 -90 50.5t-30 82.5q0 73 52 110.5t140 37.5h207v-499h-100v191h-65q-24 0 -40.5 -4.5t-27.5 -14t-20 -24t-18 -34.5l-53 -114h-111z" />
    <glyph glyph-name="uni0450" unicode="&#x450;" horiz-adv-x="510" 
d="M241 584l-104 136h108l72 -136h-76z" />
    <glyph glyph-name="afii10071" unicode="&#x451;" horiz-adv-x="510" 
d="M381 290q0 28 -5 55.5t-17.5 48.5t-34 34t-55.5 13q-32 0 -55.5 -13.5t-39.5 -35t-24 -48.5t-9 -54h240zM142 228q0 -35 10.5 -65.5t31.5 -53.5t52.5 -36.5t72.5 -13.5q34 0 69.5 7.5t65.5 23.5l6 -74q-35 -14 -74 -20.5t-81 -6.5q-63 0 -111 19t-80.5 54t-48.5 83
t-16 107q0 51 15.5 98t45 82.5t72 56.5t96.5 21q59 0 99 -19.5t64.5 -53.5t35 -80t10.5 -99v-30h-335zM307 603v97h83v-97h-83zM136 603v97h83v-97h-83z" />
    <glyph glyph-name="afii10099" unicode="&#x452;" horiz-adv-x="559" 
d="M297 -223q-21 0 -43.5 3.5t-41.5 8.5l5 74q12 -4 27.5 -5.5t23.5 -1.5q36 0 59.5 11.5t37.5 31.5t19.5 47.5t5.5 59.5v289q0 27 -3.5 51.5t-14 43.5t-30 30.5t-51.5 11.5q-35 0 -58 -14t-37.5 -36.5t-20.5 -51t-6 -57.5v-273h-100v590h-79v60h79v71h100v-71h151v-60h-151
v-173q46 93 155 93q45 0 76.5 -14.5t52 -40t29.5 -61t9 -78.5v-297q0 -52 -7.5 -96.5t-29 -76.5t-59.5 -50.5t-98 -18.5z" />
    <glyph glyph-name="afii10100" unicode="&#x453;" horiz-adv-x="400" 
d="M169 584l71 136h109l-103 -136h-77zM69 500h322v-74h-222v-426h-100v500z" />
    <glyph glyph-name="afii10101" unicode="&#x454;" horiz-adv-x="461" 
d="M294 -10q-59 0 -106.5 18.5t-80.5 53t-50.5 83t-17.5 108.5q0 58 18.5 105.5t53 81t82.5 51.5t107 18q33 0 64.5 -3.5t63.5 -14.5l-4 -77q-28 13 -50.5 18t-51.5 5q-71 0 -116 -37.5t-55 -102.5h214v-72h-218q3 -35 16.5 -65t35.5 -52t52 -34.5t67 -12.5q58 0 109 24
l7 -74q-35 -12 -67 -16.5t-73 -4.5z" />
    <glyph glyph-name="afii10102" unicode="&#x455;" horiz-adv-x="413" 
d="M47 90q32 -16 63 -23t66 -7q40 0 67.5 17t27.5 58q0 28 -16.5 45.5t-41.5 31t-54 25t-54 28.5t-41.5 42t-16.5 64q0 40 16 66.5t42 42.5t58.5 23t65.5 7q34 0 64 -5t59 -16l-6 -73q-57 23 -112 23q-17 0 -33 -2.5t-28.5 -9.5t-20.5 -19.5t-8 -31.5q0 -24 16.5 -39t42 -27
t54.5 -24t54.5 -30t42 -45.5t16.5 -69.5q0 -41 -17 -70t-44 -47t-61.5 -26.5t-68.5 -8.5q-37 0 -69 4.5t-69 16.5z" />
    <glyph glyph-name="afii10103" unicode="&#x456;" horiz-adv-x="237" 
d="M69 0v500h100v-500h-100zM69 603v97h100v-97h-100z" />
    <glyph glyph-name="afii10104" unicode="&#x457;" horiz-adv-x="237" 
d="M163 603v97h83v-97h-83zM-8 603v97h83v-97h-83zM69 0v500h100v-500h-100z" />
    <glyph glyph-name="afii10105" unicode="&#x458;" horiz-adv-x="243" 
d="M-24 -142q16 -6 36 -6q21 0 33.5 7.5t18.5 19.5t8 28t2 33v560h101v-572q0 -33 -6.5 -61t-21.5 -49t-39.5 -33t-60.5 -12q-20 0 -39 1.5t-38 6.5zM74 603v97h101v-97h-101z" />
    <glyph glyph-name="afii10106" unicode="&#x459;" horiz-adv-x="824" 
d="M590 70q54 0 80.5 24.5t26.5 68.5q0 42 -27.5 64t-83.5 22h-96v-179h100zM67 -7q-16 0 -37 2t-32 5l5 75q6 -3 18 -4t22 -1q28 0 46 21.5t28.5 71.5t14.5 132.5t4 204.5h354v-182h127q36 0 69 -8.5t57.5 -27t39.5 -47.5t15 -71q0 -44 -15 -75.5t-40.5 -51t-59.5 -28.5
t-73 -9h-221v428h-158q0 -98 -5 -178.5t-21.5 -137.5t-49 -88t-88.5 -31z" />
    <glyph glyph-name="afii10107" unicode="&#x45a;" horiz-adv-x="815" 
d="M581 67q56 0 81.5 25t25.5 66q0 38 -25 60t-80 22h-102v-173h100zM69 500h100v-191h211v191h101v-191h133q36 0 68 -8.5t55.5 -27t37.5 -46.5t14 -67q0 -85 -50.5 -122.5t-136.5 -37.5h-222v238h-211v-238h-100v500z" />
    <glyph glyph-name="afii10108" unicode="&#x45b;" horiz-adv-x="559" 
d="M69 0v590h-79v60h79v71h100v-71h151v-60h-151v-173q46 93 155 93q45 0 76.5 -14.5t52 -40t29.5 -61t9 -78.5v-316h-101v295q0 27 -3.5 51.5t-14 43.5t-30 30.5t-51.5 11.5q-35 0 -58 -14t-37.5 -36.5t-20.5 -51t-6 -57.5v-273h-100z" />
    <glyph glyph-name="afii10109" unicode="&#x45c;" horiz-adv-x="525" 
d="M69 500h100v-229l206 229h121l-219 -234l246 -266h-128l-226 253v-253h-100v500zM214 584l71 136h109l-103 -136h-77z" />
    <glyph glyph-name="uni045D" unicode="&#x45d;" horiz-adv-x="573" 
d="M69 500h97v-378l231 378h107v-500h-97v377l-230 -377h-108v500zM278 584l-104 136h108l72 -136h-76z" />
    <glyph glyph-name="afii10110" unicode="&#x45e;" horiz-adv-x="469" 
d="M237 581q-36 0 -62.5 10.5t-46 26.5t-31 35.5t-17.5 36.5l54 32q12 -26 35.5 -46t67.5 -20q22 0 38.5 6t29 15.5t21 21t14.5 23.5l54 -32q-5 -17 -17 -36t-31 -35t-46 -27t-63 -11zM36 -143q24 -7 49 -7q38 0 57.5 25t35.5 76l10 31l-179 518h109l122 -411l120 411h102
l-191 -567q-10 -29 -23 -57.5t-32 -51.5t-46.5 -37t-66.5 -14q-41 0 -73 7z" />
    <glyph glyph-name="afii10193" unicode="&#x45f;" horiz-adv-x="559" 
d="M237 0h-168v500h100v-427h221v427h100v-500h-163v-142h-90v142z" />
    <glyph glyph-name="afii10146" unicode="&#x462;" horiz-adv-x="639" 
d="M345 77q66 0 105.5 29t39.5 98q0 63 -39.5 91t-106.5 28h-90v-246h91zM359 400q112 0 176 -48.5t64 -148.5q0 -97 -59.5 -150t-181.5 -53h-213v557h-128v83h128v81h109v-81h210v-83h-210v-157h105z" />
    <glyph glyph-name="afii10194" unicode="&#x463;" horiz-adv-x="551" 
d="M318 70q54 0 80.5 24.5t26.5 68.5q0 86 -112 86h-95v-179h100zM118 0v430h-109v70h109v221h100v-221h182v-70h-182v-112h127q37 0 70 -9t58 -27.5t39 -47.5t14 -69q0 -44 -14 -75t-39.5 -51t-60 -29.5t-74.5 -9.5h-220z" />
    <glyph glyph-name="afii10147" unicode="&#x472;" horiz-adv-x="716" 
d="M358 595q-47 0 -81.5 -18t-58.5 -48t-37.5 -68.5t-18.5 -78.5h392q-5 41 -18 79.5t-37 68t-58.5 47.5t-82.5 18zM358 71q49 0 85 19.5t59.5 51t36.5 72.5t16 84h-395q4 -42 17 -83t37 -73t59.5 -51.5t84.5 -19.5zM670 333q0 -73 -20 -135.5t-59.5 -109t-98 -73
t-134.5 -26.5q-79 0 -137.5 26t-97.5 72t-58 109t-19 137q0 72 20 134.5t59.5 109t97.5 73.5t135 27q78 0 136.5 -26t97.5 -72t58.5 -109t19.5 -137z" />
    <glyph glyph-name="afii10195" unicode="&#x473;" horiz-adv-x="570" 
d="M285 435q-33 0 -57 -12.5t-40.5 -33t-26.5 -47t-13 -55.5h274q-3 29 -12 56t-25.5 47.5t-41 32.5t-58.5 12zM285 64q34 0 58.5 13t41 34.5t25.5 50t12 59.5h-275q3 -31 12.5 -59.5t26 -50t41.5 -34.5t58 -13zM531 252q0 -57 -16 -105t-47.5 -83.5t-77.5 -55t-105 -19.5
q-60 0 -106 19.5t-77 55t-47 83.5t-16 105t17.5 104t49.5 81.5t77.5 53.5t101.5 19q59 0 105 -18.5t77.5 -52.5t47.5 -81.5t16 -105.5z" />
    <glyph glyph-name="afii10148" unicode="&#x474;" horiz-adv-x="686" 
d="M250 0l-247 667h116l195 -562l129 406q28 89 65.5 126.5t94.5 37.5q24 0 44 -4.5t37 -11.5l-5 -80q-23 10 -46 10q-15 0 -27 -4t-22.5 -16t-21 -32.5t-22.5 -53.5l-167 -483h-123z" />
    <glyph glyph-name="afii10196" unicode="&#x475;" horiz-adv-x="519" 
d="M173 0l-164 500h107l122 -419l78 291q20 73 49.5 104.5t81.5 31.5q18 0 34 -4t29 -11l-6 -71q-7 3 -14.5 5.5t-18.5 2.5q-21 0 -36 -15t-28 -59l-110 -356h-124z" />
    <glyph glyph-name="afii10050" unicode="&#x490;" horiz-adv-x="474" 
d="M80 667h288v146h97v-235h-276v-578h-109v667z" />
    <glyph glyph-name="afii10098" unicode="&#x491;" horiz-adv-x="404" 
d="M69 500h237v132h89v-206h-226v-426h-100v500z" />
    <glyph glyph-name="Wgrave" unicode="&#x1e80;" horiz-adv-x="951" 
d="M195 0l-186 667h108l147 -563l157 563h118l155 -563l148 563h100l-185 -667h-124l-156 564l-157 -564h-125zM450 724l-104 136h108l72 -136h-76z" />
    <glyph glyph-name="wgrave" unicode="&#x1e81;" horiz-adv-x="805" 
d="M163 0l-152 500h105l115 -415l117 415h120l117 -415l114 415h95l-149 -500h-124l-116 416l-118 -416h-124zM380 584l-104 136h108l72 -136h-76z" />
    <glyph glyph-name="Wacute" unicode="&#x1e82;" horiz-adv-x="951" 
d="M195 0l-186 667h108l147 -563l157 563h118l155 -563l148 563h100l-185 -667h-124l-156 564l-157 -564h-125zM434 724l71 136h109l-103 -136h-77z" />
    <glyph glyph-name="wacute" unicode="&#x1e83;" horiz-adv-x="805" 
d="M163 0l-152 500h105l115 -415l117 415h120l117 -415l114 415h95l-149 -500h-124l-116 416l-118 -416h-124zM358 584l71 136h109l-103 -136h-77z" />
    <glyph glyph-name="Wdieresis" unicode="&#x1e84;" horiz-adv-x="951" 
d="M195 0l-186 667h108l147 -563l157 563h118l155 -563l148 563h100l-185 -667h-124l-156 564l-157 -564h-125zM519 743v97h83v-97h-83zM348 743v97h83v-97h-83z" />
    <glyph glyph-name="wdieresis" unicode="&#x1e85;" horiz-adv-x="805" 
d="M163 0l-152 500h105l115 -415l117 415h120l117 -415l114 415h95l-149 -500h-124l-116 416l-118 -416h-124zM275 603v97h83v-97h-83zM446 603v97h83v-97h-83z" />
    <glyph glyph-name="Ygrave" unicode="&#x1ef2;" horiz-adv-x="599" 
d="M244 0v266l-246 401h120l185 -318l183 318h116l-249 -401v-266h-109zM280 724l-104 136h108l72 -136h-76z" />
    <glyph glyph-name="ygrave" unicode="&#x1ef3;" horiz-adv-x="469" 
d="M36 -143q24 -7 49 -7q38 0 57.5 25t35.5 76l10 31l-179 518h109l122 -411l120 411h102l-191 -567q-10 -29 -23 -57.5t-32 -51.5t-46.5 -37t-66.5 -14q-41 0 -73 7zM219 584l-104 136h108l72 -136h-76z" />
    <glyph glyph-name="uni2010" unicode="&#x2010;" horiz-adv-x="326" 
d="M40 269v82h246v-82h-246z" />
    <glyph glyph-name="endash" unicode="&#x2013;" horiz-adv-x="500" 
d="M0 275v70h500v-70h-500z" />
    <glyph glyph-name="emdash" unicode="&#x2014;" horiz-adv-x="1000" 
d="M0 275v70h1000v-70h-1000z" />
    <glyph glyph-name="afii00208" unicode="&#x2015;" horiz-adv-x="1000" 
d="M0 275v70h1000v-70h-1000z" />
    <glyph glyph-name="quoteleft" unicode="&#x2018;" horiz-adv-x="281" 
d="M60 491l87 230h75l-58 -230h-104z" />
    <glyph glyph-name="quoteright" unicode="&#x2019;" horiz-adv-x="281" 
d="M70 491l58 230h104l-88 -230h-74z" />
    <glyph glyph-name="quotesinglbase" unicode="&#x201a;" horiz-adv-x="281" 
d="M60 -128l58 231h104l-88 -231h-74z" />
    <glyph glyph-name="quotedblleft" unicode="&#x201c;" horiz-adv-x="466" 
d="M60 491l87 230h75l-58 -230h-104zM245 491l88 230h74l-58 -230h-104z" />
    <glyph glyph-name="quotedblright" unicode="&#x201d;" horiz-adv-x="466" 
d="M70 491l58 230h104l-88 -230h-74zM255 491l58 230h104l-88 -230h-74z" />
    <glyph glyph-name="quotedblbase" unicode="&#x201e;" horiz-adv-x="466" 
d="M60 -127l58 230h104l-88 -230h-74zM245 -127l59 230h103l-88 -230h-74z" />
    <glyph glyph-name="dagger" unicode="&#x2020;" horiz-adv-x="562" 
d="M230 -128v546h-176v86h176v217h103v-217h176v-86h-176v-546h-103z" />
    <glyph glyph-name="daggerdbl" unicode="&#x2021;" horiz-adv-x="562" 
d="M230 -128v217h-176v86h176v243h-176v86h176v217h103v-217h176v-86h-176v-243h176v-86h-176v-217h-103z" />
    <glyph glyph-name="bullet" unicode="&#x2022;" horiz-adv-x="422" 
d="M422 81h-422v423h422v-423z" />
    <glyph glyph-name="ellipsis" unicode="&#x2026;" horiz-adv-x="1000" 
d="M114 0v103h106v-103h-106zM447 0v103h107v-103h-107zM780 0v103h107v-103h-107z" />
    <glyph glyph-name="perthousand" unicode="&#x2030;" horiz-adv-x="1318" 
d="M164 374q8 -22 24 -36t45 -14q28 0 44 14t24.5 36t10.5 48t2 49q0 25 -2 51t-10.5 47.5t-24.5 35t-44 13.5q-27 0 -43.5 -14t-24.5 -35.5t-10.5 -47.5t-2.5 -50t2 -49.5t10 -47.5zM651 98q8 -22 24 -36t45 -14q28 0 44 14t24.5 36t10.5 48t2 49q0 25 -2 51t-10.5 47.5
t-24.5 35t-44 13.5q-27 0 -43.5 -14t-24.5 -35.5t-10.5 -47.5t-2.5 -50t2 -49.5t10 -47.5zM1015 98q8 -22 23.5 -36t44.5 -14q28 0 45 14t26 36t11.5 48t2.5 49q0 25 -2.5 51t-11.5 47.5t-26 35t-45 13.5q-27 0 -43 -14t-23.5 -35.5t-9.5 -47.5t-2 -50t1.5 -49.5t8.5 -47.5z
M153 283q-47 29 -64.5 80t-17.5 108q0 36 7.5 73t26.5 66.5t50 48t78 18.5t78.5 -18.5t50 -48t26 -66.5t7.5 -73q0 -37 -7.5 -73.5t-26 -66t-49.5 -48t-79 -18.5q-49 0 -80 18zM230 -24l424 715h70l-424 -715h-70zM640 7q-47 29 -64.5 80t-17.5 108q0 36 7.5 73t26.5 66.5
t50 48t78 18.5t78.5 -18.5t50 -48t26 -66.5t7.5 -73q0 -37 -7.5 -73.5t-26 -66t-49.5 -48t-79 -18.5q-49 0 -80 18zM1004 7q-47 29 -63.5 80t-16.5 108q0 36 7.5 73t25.5 66.5t48.5 48t77.5 18.5t79 -18.5t51 -48t27 -66.5t8 -73q0 -37 -8 -73.5t-27 -66t-50.5 -48
t-79.5 -18.5t-79 18z" />
    <glyph glyph-name="guilsinglleft" unicode="&#x2039;" horiz-adv-x="280" 
d="M159 55l-132 201l132 199h85l-126 -199l126 -201h-85z" />
    <glyph glyph-name="guilsinglright" unicode="&#x203a;" horiz-adv-x="280" 
d="M37 55l126 200l-126 200h86l131 -200l-131 -200h-86z" />
    <glyph glyph-name="interrobang" unicode="&#x203d;" horiz-adv-x="432" 
d="M124 0v103h107v-103h-107zM133 179l-9 349h87l-5 -216q7 14 17.5 29.5t28.5 38.5q15 18 25.5 32.5t17.5 28t10 28t3 33.5q0 49 -34.5 76.5t-100.5 27.5q-35 0 -70.5 -7t-67.5 -20l-6 71q38 12 75 19.5t85 7.5q43 0 81 -10t66.5 -31t45 -52.5t16.5 -74.5q0 -38 -13 -66.5
t-32.5 -51.5t-42.5 -43.5t-42.5 -42.5t-32.5 -49t-13 -63v-14h-89z" />
    <glyph glyph-name="fraction" unicode="&#x2044;" horiz-adv-x="171" 
d="M-160 -24l423 715h69l-424 -715h-68z" />
    <glyph glyph-name="zero.superior" unicode="&#x2070;" 
d="M137 381q-47 29 -64.5 80.5t-17.5 110.5q0 37 8 74.5t26.5 67t49 48t76.5 18.5t76.5 -18.5t49 -48t26.5 -67t8 -74.5q0 -38 -7.5 -75.5t-26 -67t-49.5 -48t-77 -18.5q-47 0 -78 18zM147 472q8 -22 24 -36.5t44 -14.5q27 0 43 14.5t24 36.5t10.5 49t2.5 51q0 26 -2.5 52.5
t-11 48.5t-24 35.5t-42.5 13.5t-42.5 -13.5t-24 -35.5t-11 -48.5t-2.5 -52.5q0 -24 2 -51t10 -49z" />
    <glyph glyph-name="uni2071" unicode="&#x2071;" horiz-adv-x="169" 
d="M47 729v68h76v-68h-76zM47 370v305h76v-305h-76z" />
    <glyph glyph-name="four.superior" unicode="&#x2074;" 
d="M49 456v68l189 250h86v-259h60v-59h-60v-86h-76v86h-199zM108 514h140v191z" />
    <glyph glyph-name="five.superior" unicode="&#x2075;" 
d="M77 438q40 -15 89 -15q19 0 38.5 4.5t35.5 13.5t25.5 23.5t9.5 34.5q0 19 -9 33t-23.5 22.5t-33.5 12.5t-38 4q-42 0 -87 -13l5 216h247v-58h-177l-3 -103q14 5 27 6t25 1q28 0 55 -6t47.5 -20t33 -36.5t12.5 -55.5q0 -36 -15 -62t-40 -43.5t-56 -25.5t-64 -8
q-27 0 -55 3.5t-53 11.5z" />
    <glyph glyph-name="six.superior" unicode="&#x2076;" 
d="M346 712q-36 12 -78 12q-32 0 -56.5 -11.5t-41 -31t-24.5 -45t-8 -52.5q42 45 104 45q60 0 96.5 -34t36.5 -94q0 -33 -12.5 -58.5t-33.5 -43.5t-49 -27t-59 -9q-45 0 -75.5 16.5t-49 43.5t-26.5 62t-8 72q0 47 12.5 88t37.5 71t63 47.5t89 17.5q23 0 44 -3t42 -8z
M162 444q10 -12 24.5 -19.5t34.5 -7.5q38 0 58.5 23.5t20.5 56.5q0 32 -18.5 55t-57.5 23q-35 0 -58.5 -20.5t-23.5 -52.5q0 -33 20 -58z" />
    <glyph glyph-name="seven.superior" unicode="&#x2077;" 
d="M105 370l172 339h-212v65h292v-63l-160 -341h-92z" />
    <glyph glyph-name="eight.superior" unicode="&#x2078;" 
d="M78 543q23 23 63 37q-34 13 -54.5 34t-20.5 59q0 28 14.5 48.5t36.5 33.5t48.5 19t49.5 6q25 0 51.5 -5.5t48 -17.5t35.5 -32.5t14 -50.5q0 -36 -22.5 -58.5t-53.5 -35.5q42 -11 65 -34.5t23 -68.5q0 -32 -15 -53.5t-38.5 -35t-52 -19.5t-55.5 -6q-28 0 -56.5 6t-52 19.5
t-38 34.5t-14.5 52q0 45 24 68zM164 627q24 -16 52 -23q27 8 49.5 24.5t22.5 42.5q0 29 -22 43.5t-51 14.5t-51 -15.5t-22 -43.5q0 -27 22 -43zM276 531q-22 17 -60 28q-38 -8 -61 -26.5t-23 -49.5t24 -48.5t59 -17.5t59 17.5t24 49.5q0 29 -22 47z" />
    <glyph glyph-name="nine.superior" unicode="&#x2079;" 
d="M83 431q39 -11 79 -11q33 0 57.5 11.5t40.5 30.5t24 44.5t8 52.5q-42 -45 -104 -45q-60 0 -96.5 34.5t-36.5 94.5q0 33 12 58.5t33 43t48.5 26.5t59.5 9q45 0 75.5 -16t49.5 -43t27 -62t8 -73q0 -47 -12 -87.5t-37 -70.5t-62.5 -47.5t-89.5 -17.5q-46 0 -87 10zM148 591
q19 -22 58 -22q35 0 58.5 20.5t23.5 52.5t-20 58t-59 26q-38 0 -59 -23t-21 -57q0 -33 19 -55z" />
    <glyph glyph-name="plus.superior" unicode="&#x207a;" 
d="M50 496v57h135v125h60v-125h135v-57h-135v-124h-60v124h-135z" />
    <glyph glyph-name="minus.superior" unicode="&#x207b;" 
d="M50 496v57h330v-57h-330z" />
    <glyph glyph-name="uni207F" unicode="&#x207f;" horiz-adv-x="374" 
d="M47 370v235q0 35 -3 70h70l2 -53q41 59 106 59q55 0 80 -31t25 -85v-195h-75v178q0 13 -2 26.5t-8.5 23.5t-18.5 16.5t-31 6.5q-20 0 -33.5 -7.5t-21.5 -19.5t-11.5 -27t-3.5 -30v-167h-75z" />
    <glyph glyph-name="zero.inferior" unicode="&#x2080;" 
d="M137 -154q-47 29 -64.5 80.5t-17.5 110.5q0 37 8 74.5t26.5 67t49 48t76.5 18.5t76.5 -18.5t49 -48t26.5 -67t8 -74.5q0 -38 -7.5 -75.5t-26 -67t-49.5 -48t-77 -18.5q-47 0 -78 18zM147 -63q8 -22 24 -36.5t44 -14.5q27 0 43 14.5t24 36.5t10.5 49t2.5 51
q0 26 -2.5 52.5t-11 48.5t-24 35.5t-42.5 13.5t-42.5 -13.5t-24 -35.5t-11 -48.5t-2.5 -52.5q0 -24 2 -51t10 -49z" />
    <glyph glyph-name="one.inferior" unicode="&#x2081;" 
d="M206 -165v323l-88 -63l-32 55l131 89h67v-404h-78z" />
    <glyph glyph-name="two.inferior" unicode="&#x2082;" 
d="M63 -165v61l75 63q58 49 91.5 87t33.5 76q0 29 -21.5 45.5t-56.5 16.5q-32 0 -57.5 -7.5t-48.5 -17.5l-3 62q30 11 59 17.5t61 6.5q28 0 55 -6.5t48 -20t33.5 -36t12.5 -53.5q0 -26 -10.5 -50t-27.5 -46.5t-39 -43.5t-45 -41l-62 -54h190v-59h-288z" />
    <glyph glyph-name="three.inferior" unicode="&#x2083;" 
d="M65 -97q23 -9 51 -13t54 -4q20 0 38.5 4t33 12.5t23 22t8.5 31.5t-9 29.5t-23.5 19t-33 10.5t-37.5 3h-53v54h44q45 0 75.5 13t30.5 48q0 15 -8 25.5t-21.5 17t-30 9.5t-32.5 3q-25 0 -51 -4.5t-48 -13.5l-3 58q25 8 54.5 12.5t58.5 4.5q27 0 55.5 -5t52 -17t38 -32
t14.5 -51q0 -38 -21 -61t-55 -32q34 -7 59 -30.5t25 -60.5q0 -35 -15.5 -59.5t-40.5 -39.5t-56.5 -22t-64.5 -7q-30 0 -58.5 3.5t-56.5 11.5z" />
    <glyph glyph-name="four.inferior" unicode="&#x2084;" 
d="M49 -79v68l189 250h86v-259h60v-59h-60v-86h-76v86h-199zM108 -21h140v191z" />
    <glyph glyph-name="five.inferior" unicode="&#x2085;" 
d="M77 -97q40 -15 89 -15q19 0 38.5 4.5t35.5 13.5t25.5 23.5t9.5 34.5q0 19 -9 33t-23.5 22.5t-33.5 12.5t-38 4q-42 0 -87 -13l5 216h247v-58h-177l-3 -103q14 5 27 6t25 1q28 0 55 -6t47.5 -20t33 -36.5t12.5 -55.5q0 -36 -15 -62t-40 -43.5t-56 -25.5t-64 -8
q-27 0 -55 3.5t-53 11.5z" />
    <glyph glyph-name="six.inferior" unicode="&#x2086;" 
d="M346 177q-36 12 -78 12q-32 0 -56.5 -11.5t-41 -31t-24.5 -45t-8 -52.5q42 45 104 45q60 0 96.5 -34t36.5 -94q0 -33 -12.5 -58.5t-33.5 -43.5t-49 -27t-59 -9q-45 0 -75.5 16.5t-49 43.5t-26.5 62t-8 72q0 47 12.5 88t37.5 71t63 47.5t89 17.5q23 0 44 -3t42 -8z
M162 -91q10 -12 24.5 -19.5t34.5 -7.5q38 0 58.5 23.5t20.5 56.5q0 32 -18.5 55t-57.5 23q-35 0 -58.5 -20.5t-23.5 -52.5q0 -33 20 -58z" />
    <glyph glyph-name="seven.inferior" unicode="&#x2087;" 
d="M105 -165l172 339h-212v65h292v-63l-160 -341h-92z" />
    <glyph glyph-name="eight.inferior" unicode="&#x2088;" 
d="M78 8q23 23 63 37q-34 13 -54.5 34t-20.5 59q0 28 14.5 48.5t36.5 33.5t48.5 19t49.5 6q25 0 51.5 -5.5t48 -17.5t35.5 -32.5t14 -50.5q0 -36 -22.5 -58.5t-53.5 -35.5q42 -11 65 -34.5t23 -68.5q0 -32 -15 -53.5t-38.5 -35t-52 -19.5t-55.5 -6q-28 0 -56.5 6t-52 19.5
t-38 34.5t-14.5 52q0 45 24 68zM164 92q24 -16 52 -23q27 8 49.5 24.5t22.5 42.5q0 29 -22 43.5t-51 14.5t-51 -15.5t-22 -43.5q0 -27 22 -43zM276 -4q-22 17 -60 28q-38 -8 -61 -26.5t-23 -49.5t24 -48.5t59 -17.5t59 17.5t24 49.5q0 29 -22 47z" />
    <glyph glyph-name="nine.inferior" unicode="&#x2089;" 
d="M83 -104q39 -11 79 -11q33 0 57.5 11.5t40.5 30.5t24 44.5t8 52.5q-42 -45 -104 -45q-60 0 -96.5 34.5t-36.5 94.5q0 33 12 58.5t33 43t48.5 26.5t59.5 9q45 0 75.5 -16t49.5 -43t27 -62t8 -73q0 -47 -12 -87.5t-37 -70.5t-62.5 -47.5t-89.5 -17.5q-46 0 -87 10zM148 56
q19 -22 58 -22q35 0 58.5 20.5t23.5 52.5t-20 58t-59 26q-38 0 -59 -23t-21 -57q0 -33 19 -55z" />
    <glyph glyph-name="plus.inferior" unicode="&#x208a;" 
d="M50 -39v57h135v125h60v-125h135v-57h-135v-124h-60v124h-135z" />
    <glyph glyph-name="minus.inferior" unicode="&#x208b;" 
d="M50 -39v57h330v-57h-330z" />
    <glyph glyph-name="a.inferior" unicode="&#x2090;" horiz-adv-x="349" 
d="M236 -165l-3 47q-16 -27 -44 -40.5t-60 -13.5q-45 0 -74.5 22.5t-29.5 70.5q0 30 13 50t35 32t51 17t62 5h46v8q0 61 -75 61q-49 0 -93 -23l-4 56q22 9 51 14t55 5q63 0 100.5 -27t37.5 -91v-122q0 -23 1.5 -39.5t3.5 -31.5h-73zM209 -20q-20 0 -39.5 -2t-36 -7.5
t-26.5 -16t-10 -28.5q0 -24 16.5 -35t38.5 -11q42 0 61 26t19 60v14h-23z" />
    <glyph glyph-name="e.inferior" unicode="&#x2091;" horiz-adv-x="342" 
d="M104 -31q1 -38 27.5 -63t77.5 -25q23 0 47 4.5t42 13.5l3 -54q-48 -17 -100 -17q-87 0 -130 43t-43 118q0 33 11 61.5t31 50t48 33.5t63 12q39 0 65.5 -11.5t42 -32.5t22.5 -49.5t7 -61.5v-22h-214zM250 16q0 15 -3.5 29t-11 25t-21 18t-32.5 7q-20 0 -34.5 -7t-24 -18.5
t-14.5 -25.5t-6 -28h147z" />
    <glyph glyph-name="o.inferior" unicode="&#x2092;" horiz-adv-x="380" 
d="M189 -172q-78 0 -119 43.5t-41 115.5t43.5 115.5t118.5 43.5q76 0 118 -43t42 -116q0 -72 -43 -115.5t-119 -43.5zM127 -83q10 -15 25 -24t37 -9q23 0 38.5 9t25.5 23t14 32.5t4 38.5q0 18 -4 36t-13.5 33t-25 24.5t-37.5 9.5q-23 0 -38 -9t-25 -23.5t-14 -33t-4 -37.5
q0 -18 4 -36.5t13 -33.5z" />
    <glyph glyph-name="x.inferior" unicode="&#x2093;" horiz-adv-x="336" 
d="M9 -165l110 160l-100 145h86l67 -112l65 112h81l-99 -145l109 -160h-86l-74 123l-78 -123h-81z" />
    <glyph glyph-name="schwa.inferior" unicode="&#x2094;" horiz-adv-x="342" 
d="M28 5h214q-1 38 -27.5 63t-77.5 25q-23 0 -47 -4.5t-42 -13.5l-3 54q48 17 100 17q87 0 130 -43t43 -118q0 -33 -11 -61.5t-31 -50t-48.5 -33.5t-62.5 -12q-39 0 -65.5 11.5t-42 32.5t-22.5 49.5t-7 61.5v22zM96 -42q0 -15 3.5 -29t11 -25t20.5 -18t33 -7t34.5 7t24 18
t14.5 25.5t6 28.5h-147z" />
    <glyph glyph-name="Euro" unicode="&#x20ac;" horiz-adv-x="562" 
d="M30 239l13 55h69q-1 10 -1.5 20t-0.5 20q0 9 0.5 19t1.5 19h-81l13 55h76q11 52 35.5 98t60.5 79.5t83 53t103 19.5q32 0 67.5 -6.5t65.5 -19.5l-19 -81q-48 23 -101 23q-39 0 -69 -13t-52.5 -35.5t-38 -53t-24.5 -64.5h257l-13 -55h-255q-1 -10 -1.5 -19.5t-0.5 -19.5
t0.5 -19.5t1.5 -19.5h240l-12 -55h-217q8 -34 23 -64t38 -52t53.5 -35t68.5 -13q26 0 53 5t50 17l6 -85q-26 -14 -59 -18.5t-62 -4.5q-59 0 -106.5 18.5t-83.5 51.5t-59.5 79t-33.5 101h-89z" />
    <glyph glyph-name="afii61248" unicode="&#x2105;" horiz-adv-x="1057" 
d="M803 54q29 0 49.5 11.5t34 31t19.5 45.5t6 55q0 28 -6 53.5t-19 44.5t-33.5 30t-50.5 11q-29 0 -50 -11.5t-34 -30.5t-19 -44.5t-6 -52.5q0 -29 6 -55t19 -45.5t33.5 -31t50.5 -11.5zM803 -11q-94 0 -147.5 55.5t-53.5 152.5q0 45 14.5 82.5t40.5 64.5t63.5 42t82.5 15
q97 0 149.5 -55.5t52.5 -148.5q0 -46 -14 -84.5t-40 -66t-63.5 -42.5t-84.5 -15zM250 -24l473 715h72l-473 -715h-72zM372 280q-26 -8 -52 -11.5t-52 -3.5q-50 0 -90 15.5t-68 43t-43 65.5t-15 84t16 83.5t44.5 64.5t68 41.5t86.5 14.5q27 0 51.5 -2.5t49.5 -11.5l-4 -68
q-36 17 -78 17q-66 0 -104 -38.5t-38 -100.5q0 -29 9.5 -55t28 -45.5t44.5 -31t59 -11.5q24 0 42.5 4t39.5 14z" />
    <glyph glyph-name="afii61289" unicode="&#x2113;" horiz-adv-x="500" 
d="M90 157l-31 46l90 84v254q0 42 11 75t29.5 56.5t44.5 36t56 12.5q54 0 86.5 -35t32.5 -98q0 -75 -44 -153t-132 -163v-140q0 -24 6.5 -40t17 -25.5t23.5 -13.5t25 -4q43 0 88 39h2l29 -44q-64 -58 -139 -58q-61 0 -98.5 33t-37.5 99v98l-57 -59h-2zM233 346
q52 60 79.5 121t27.5 115q0 36 -14.5 58.5t-35.5 22.5q-22 0 -39.5 -26t-17.5 -81v-210z" />
    <glyph glyph-name="afii61352" unicode="&#x2116;" horiz-adv-x="1046" 
d="M841 290q40 0 57.5 33t17.5 93q0 56 -16.5 84t-57.5 28q-25 0 -40.5 -11t-24 -28t-11.5 -39.5t-3 -44.5q0 -24 3 -44.5t11.5 -36.5t23.5 -25t40 -9zM837 229q-73 0 -114 46.5t-41 128.5q0 87 43 136.5t117 49.5q75 0 115.5 -45.5t40.5 -128.5q0 -91 -42.5 -139
t-118.5 -48zM686 179h308v-65h-308v65zM80 667h139l281 -557v557h101v-667h-144l-276 546v-546h-101v667z" />
    <glyph glyph-name="trademark" unicode="&#x2122;" horiz-adv-x="955" 
d="M139 266v341h-133v60h348v-60h-134v-341h-81zM410 266v401h122l128 -319l123 319h122v-401h-76v350l-136 -350h-72l-138 350v-350h-73z" />
    <glyph glyph-name="Omega" unicode="&#x2126;" horiz-adv-x="750" 
d="M68 0v77h196v64q-45 9 -81.5 34.5t-62 61t-39 78.5t-13.5 88q0 64 25.5 117t68 90.5t98 58t116.5 20.5q60 0 115.5 -21t98 -58.5t68 -90.5t25.5 -116q0 -45 -13.5 -88t-39 -78.5t-62 -61t-82.5 -34.5v-64h196v-77h-270v186q42 1 75.5 19t57 47.5t35.5 67t12 76.5
q0 45 -17 84.5t-46 69t-68.5 46.5t-84.5 17t-84.5 -17t-69 -47t-46.5 -69.5t-17 -84.5q0 -40 12.5 -77t35.5 -66t56.5 -47t75.5 -19v-186h-271z" />
    <glyph glyph-name="estimated" unicode="&#x212e;" horiz-adv-x="600" 
d="M157 78q59 -59 145 -59q63 0 109 28.5t84 91.5l35 -21q-23 -36 -46.5 -61.5t-51 -42t-59.5 -24t-71 -7.5q-59 0 -106.5 21.5t-81.5 59t-52 87.5t-18 108t18 108.5t52 87.5t81.5 58.5t106.5 21.5q58 0 105.5 -20.5t81.5 -57t53 -87t19 -111.5h-404v-181zM157 295h291v145
q-63 60 -147 60t-144 -60v-145z" />
    <glyph glyph-name="onethird" unicode="&#x2153;" horiz-adv-x="950" 
d="M184 267v323l-88 -63l-32 55l131 89h67v-404h-78zM178 -24l423 715h69l-424 -715h-68zM565 68q23 -9 51 -13t54 -4q20 0 38.5 4t33 12.5t23 22t8.5 31.5t-9 29.5t-23.5 19t-33 10.5t-37.5 3h-53v54h44q45 0 75.5 13t30.5 48q0 15 -8 25.5t-21.5 17t-30 9.5t-32.5 3
q-25 0 -51 -4.5t-48 -13.5l-3 58q25 8 54.5 12.5t58.5 4.5q27 0 55.5 -5t52 -17t38 -32t14.5 -51q0 -38 -21 -61t-55 -32q34 -7 59 -30.5t25 -60.5q0 -35 -15.5 -59.5t-40.5 -39.5t-56.5 -22t-64.5 -7q-30 0 -58.5 3.5t-56.5 11.5z" />
    <glyph glyph-name="twothirds" unicode="&#x2154;" horiz-adv-x="950" 
d="M62 267v61l75 63q58 49 91.5 87t33.5 76q0 29 -21.5 45.5t-56.5 16.5q-32 0 -57.5 -7.5t-48.5 -17.5l-3 62q30 11 59 17.5t61 6.5q28 0 55 -6.5t48 -20t33.5 -36t12.5 -53.5q0 -26 -10.5 -50t-27.5 -46.5t-39 -43.5t-45 -41l-62 -54h190v-59h-288zM245 -24l423 715h69
l-424 -715h-68zM615 68q23 -9 51 -13t54 -4q20 0 38.5 4t33 12.5t23 22t8.5 31.5t-9 29.5t-23.5 19t-33 10.5t-37.5 3h-53v54h44q45 0 75.5 13t30.5 48q0 15 -8 25.5t-21.5 17t-30 9.5t-32.5 3q-25 0 -51 -4.5t-48 -13.5l-3 58q25 8 54.5 12.5t58.5 4.5q27 0 55.5 -5t52 -17
t38 -32t14.5 -51q0 -38 -21 -61t-55 -32q34 -7 59 -30.5t25 -60.5q0 -35 -15.5 -59.5t-40.5 -39.5t-56.5 -22t-64.5 -7q-30 0 -58.5 3.5t-56.5 11.5z" />
    <glyph glyph-name="oneeighth" unicode="&#x215b;" horiz-adv-x="950" 
d="M184 267v323l-88 -63l-32 55l131 89h67v-404h-78zM178 -24l423 715h69l-424 -715h-68zM556 173q23 23 63 37q-34 13 -54.5 34t-20.5 59q0 28 14.5 48.5t36.5 33.5t48.5 19t49.5 6q25 0 51.5 -5.5t48 -17.5t35.5 -32.5t14 -50.5q0 -36 -22.5 -58.5t-53.5 -35.5
q42 -11 65 -34.5t23 -68.5q0 -32 -15 -53.5t-38.5 -35t-52 -19.5t-55.5 -6q-28 0 -56.5 6t-52 19.5t-38 34.5t-14.5 52q0 45 24 68zM642 257q24 -16 52 -23q27 8 49.5 24.5t22.5 42.5q0 29 -22 43.5t-51 14.5t-51 -15.5t-22 -43.5q0 -27 22 -43zM754 161q-22 17 -60 28
q-38 -8 -61 -26.5t-23 -49.5t24 -48.5t59 -17.5t59 17.5t24 49.5q0 29 -22 47z" />
    <glyph glyph-name="threeeighths" unicode="&#x215c;" horiz-adv-x="950" 
d="M55 335q23 -9 51 -13t54 -4q20 0 38.5 4t33 12.5t23 22t8.5 31.5t-9 29.5t-23.5 19t-33 10.5t-37.5 3h-53v54h44q45 0 75.5 13t30.5 48q0 15 -8 25.5t-21.5 17t-30 9.5t-32.5 3q-25 0 -51 -4.5t-48 -13.5l-3 58q25 8 54.5 12.5t58.5 4.5q27 0 55.5 -5t52 -17t38 -32
t14.5 -51q0 -38 -21 -61t-55 -32q34 -7 59 -30.5t25 -60.5q0 -35 -15.5 -59.5t-40.5 -39.5t-56.5 -22t-64.5 -7q-30 0 -58.5 3.5t-56.5 11.5zM219 -24l423 715h69l-424 -715h-68zM597 173q23 23 63 37q-34 13 -54.5 34t-20.5 59q0 28 14.5 48.5t36.5 33.5t48.5 19t49.5 6
q25 0 51.5 -5.5t48 -17.5t35.5 -32.5t14 -50.5q0 -36 -22.5 -58.5t-53.5 -35.5q42 -11 65 -34.5t23 -68.5q0 -32 -15 -53.5t-38.5 -35t-52 -19.5t-55.5 -6q-28 0 -56.5 6t-52 19.5t-38 34.5t-14.5 52q0 45 24 68zM683 257q24 -16 52 -23q27 8 49.5 24.5t22.5 42.5
q0 29 -22 43.5t-51 14.5t-51 -15.5t-22 -43.5q0 -27 22 -43zM795 161q-22 17 -60 28q-38 -8 -61 -26.5t-23 -49.5t24 -48.5t59 -17.5t59 17.5t24 49.5q0 29 -22 47z" />
    <glyph glyph-name="fiveeighths" unicode="&#x215d;" horiz-adv-x="950" 
d="M73 335q40 -15 89 -15q19 0 38.5 4.5t35.5 13.5t25.5 23.5t9.5 34.5q0 19 -9 33t-23.5 22.5t-33.5 12.5t-38 4q-42 0 -87 -13l5 216h247v-58h-177l-3 -103q14 5 27 6t25 1q28 0 55 -6t47.5 -20t33 -36.5t12.5 -55.5q0 -36 -15 -62t-40 -43.5t-56 -25.5t-64 -8
q-27 0 -55 3.5t-53 11.5zM597 173q23 23 63 37q-34 13 -54.5 34t-20.5 59q0 28 14.5 48.5t36.5 33.5t48.5 19t49.5 6q25 0 51.5 -5.5t48 -17.5t35.5 -32.5t14 -50.5q0 -36 -22.5 -58.5t-53.5 -35.5q42 -11 65 -34.5t23 -68.5q0 -32 -15 -53.5t-38.5 -35t-52 -19.5t-55.5 -6
q-28 0 -56.5 6t-52 19.5t-38 34.5t-14.5 52q0 45 24 68zM683 257q24 -16 52 -23q27 8 49.5 24.5t22.5 42.5q0 29 -22 43.5t-51 14.5t-51 -15.5t-22 -43.5q0 -27 22 -43zM795 161q-22 17 -60 28q-38 -8 -61 -26.5t-23 -49.5t24 -48.5t59 -17.5t59 17.5t24 49.5q0 29 -22 47z
" />
    <glyph glyph-name="seveneighths" unicode="&#x215e;" horiz-adv-x="950" 
d="M150 267l172 339h-212v65h292v-63l-160 -341h-92zM577 173q23 23 63 37q-34 13 -54.5 34t-20.5 59q0 28 14.5 48.5t36.5 33.5t48.5 19t49.5 6q25 0 51.5 -5.5t48 -17.5t35.5 -32.5t14 -50.5q0 -36 -22.5 -58.5t-53.5 -35.5q42 -11 65 -34.5t23 -68.5q0 -32 -15 -53.5
t-38.5 -35t-52 -19.5t-55.5 -6q-28 0 -56.5 6t-52 19.5t-38 34.5t-14.5 52q0 45 24 68zM663 257q24 -16 52 -23q27 8 49.5 24.5t22.5 42.5q0 29 -22 43.5t-51 14.5t-51 -15.5t-22 -43.5q0 -27 22 -43zM775 161q-22 17 -60 28q-38 -8 -61 -26.5t-23 -49.5t24 -48.5t59 -17.5
t59 17.5t24 49.5q0 29 -22 47z" />
    <glyph glyph-name="partialdiff" unicode="&#x2202;" horiz-adv-x="562" 
d="M96 659q35 30 71 45.5t84 15.5q73 0 121 -33.5t76.5 -86t40 -116t11.5 -122.5q0 -55 -9.5 -120.5t-35.5 -122t-71 -94.5t-116 -38q-48 0 -86 19t-65 50.5t-41 73.5t-14 87t14 83.5t40 67t63 45t83 16.5t84 -18.5t71 -49.5v21q0 48 -7.5 97.5t-25.5 89.5t-48.5 65.5
t-75.5 25.5q-72 0 -120 -54zM173 97q17 -23 41 -37.5t57 -14.5q43 0 70.5 28t43 68t22 84t8.5 76q-28 29 -62 49.5t-76 20.5q-35 0 -60.5 -14t-42.5 -36.5t-25 -52.5t-8 -61q0 -29 8 -58t24 -52z" />
    <glyph glyph-name="Delta" unicode="&#x2206;" horiz-adv-x="750" 
d="M164 76h420l-211 516zM50 0l274 679h96l280 -679h-650z" />
    <glyph glyph-name="product" unicode="&#x220f;" horiz-adv-x="750" 
d="M95 -200v1000h561v-1000h-82v920h-397v-920h-82z" />
    <glyph glyph-name="summation" unicode="&#x2211;" horiz-adv-x="750" 
d="M75 -200v74l276 434l-259 421v71h579v-76h-477l255 -416l-273 -428h512v-80h-613z" />
    <glyph glyph-name="minus" unicode="&#x2212;" horiz-adv-x="562" 
d="M26 211v78h511v-78h-511z" />
    <glyph glyph-name="uni2215" unicode="&#x2215;" horiz-adv-x="171" 
d="M-160 -24l423 715h69l-424 -715h-68z" />
    <glyph glyph-name="uni2219" unicode="&#x2219;" horiz-adv-x="281" 
d="M87 259v102h107v-102h-107z" />
    <glyph glyph-name="radical" unicode="&#x221a;" horiz-adv-x="562" 
d="M266 -200l-154 334l-49 -22l-30 59l121 55l140 -313l159 887h76l-189 -1000h-74z" />
    <glyph glyph-name="infinity" unicode="&#x221e;" horiz-adv-x="818" 
d="M165 183q27 -28 69 -28q22 0 41 10t35 25.5t30 33t27 32.5q-12 15 -26.5 32.5t-30.5 31.5t-35 23.5t-40 9.5q-20 0 -37.5 -8t-30.5 -21.5t-20.5 -32t-7.5 -38.5q0 -41 26 -70zM479 278q-8 -8 -14.5 -16t-11.5 -15q12 -17 25.5 -34t29.5 -31t34.5 -22.5t41.5 -8.5
q21 0 38.5 8t30 21.5t19.5 31.5t7 39q0 19 -7 37t-20 31.5t-30 21.5t-37 8q-29 0 -56.5 -22.5t-49.5 -48.5zM444 152q-8 11 -16.5 22t-16.5 22q-17 -23 -34.5 -43t-38 -35t-45 -24t-54.5 -9q-36 0 -66.5 12.5t-53 35t-35 53.5t-12.5 67t12 67t33.5 53.5t51.5 35.5t67 13
q30 0 54.5 -9.5t45.5 -26t38.5 -37.5t33.5 -44q18 22 35.5 42.5t37 36.5t43.5 25.5t56 9.5q36 0 67 -12.5t53 -34.5t34.5 -52.5t12.5 -66.5t-12 -67t-33.5 -54t-51.5 -36.5t-66 -13.5q-47 0 -80 19.5t-60 50.5z" />
    <glyph glyph-name="integral" unicode="&#x222b;" horiz-adv-x="562" 
d="M119 -143q22 -9 48 -9q25 0 39.5 11.5t21 27t8 32t1.5 27.5v666q0 31 5 61.5t20 55.5t43 40.5t73 15.5q17 0 36.5 -2t35.5 -9l-6 -73q-23 9 -48 9q-26 0 -40 -11.5t-20.5 -27t-8 -32.5t-1.5 -27v-666q0 -31 -5 -62t-20 -55.5t-42.5 -40t-72.5 -15.5q-17 0 -37 2t-36 9z
" />
    <glyph glyph-name="approxequal" unicode="&#x2248;" horiz-adv-x="562" 
d="M14 78q3 27 11.5 54.5t24 49.5t39 36t56.5 14q34 0 69.5 -11t70.5 -24t69 -24t66 -11q34 0 51 22t23 52h54q-2 -27 -10.5 -54.5t-24.5 -49.5t-39.5 -35.5t-54.5 -13.5q-34 0 -70 11t-71.5 24t-69.5 24t-64 11q-32 0 -51 -23t-23 -52h-56zM14 263q3 27 11.5 54.5t24 49.5
t39 36t56.5 14q34 0 69.5 -11t70.5 -23.5t69 -23.5t66 -11q34 0 51 21.5t23 51.5h54q-2 -27 -10.5 -54.5t-24.5 -49.5t-39.5 -35.5t-54.5 -13.5q-34 0 -70 11t-71.5 24t-69.5 24t-64 11q-32 0 -51 -23t-23 -52h-56z" />
    <glyph glyph-name="notequal" unicode="&#x2260;" horiz-adv-x="562" 
d="M105 -1l59 112h-138v77h178l63 122h-241v78h282l78 150l68 -35l-61 -115h144v-78h-184l-64 -122h248v-77h-288l-76 -147z" />
    <glyph glyph-name="lessequal" unicode="&#x2264;" horiz-adv-x="562" 
d="M26 -33v78h511v-78h-511zM26 269v82l511 180v-83l-403 -138l403 -143v-83z" />
    <glyph glyph-name="greaterequal" unicode="&#x2265;" horiz-adv-x="562" 
d="M26 -33v78h511v-78h-511zM26 84v83l402 143l-402 138v83l511 -180v-82z" />
    <glyph glyph-name="lozenge" unicode="&#x25ca;" horiz-adv-x="562" 
d="M281 84l131 316l-131 316l-131 -316zM242 0l-174 400l174 400h77l176 -400l-176 -400h-77z" />
    <glyph glyph-name="exclam.sc" unicode="&#xe000;" horiz-adv-x="281" 
d="M100 172l-14 362h110l-15 -362h-81zM87 0v99h107v-99h-107z" />
    <glyph glyph-name="dollar.sc" unicode="&#xe001;" horiz-adv-x="478" 
d="M203 -86v77q-75 1 -143 24l4 84q35 -16 73.5 -23t75.5 -7q46 0 76.5 18t30.5 60q0 30 -26.5 48t-65.5 37l-63 29q-48 21 -78.5 52.5t-30.5 83.5q0 62 44 99t113 47v76h62v-72q61 -2 116 -18l-4 -83q-31 11 -63.5 17t-60.5 6q-21 0 -40 -3.5t-34 -11.5t-24 -21t-9 -32
q0 -26 23.5 -43t54.5 -31l68 -31q54 -24 86 -55.5t32 -88.5q0 -35 -12.5 -62t-33.5 -46.5t-49.5 -31.5t-59.5 -17v-81h-62z" />
    <glyph glyph-name="percent.sc" unicode="&#xe002;" horiz-adv-x="792" 
d="M131 228q-38 23 -53.5 63.5t-15.5 87.5q0 30 6.5 59.5t22.5 53t41.5 38t63.5 14.5t63.5 -14.5t41.5 -38t22.5 -53t6.5 -59.5t-6.5 -59.5t-22.5 -53t-41.5 -38t-63.5 -14.5q-39 0 -65 14zM145 298q7 -16 19.5 -25.5t31.5 -9.5t31.5 9.5t19.5 26t9.5 37t2.5 43.5t-3 44
t-10 36.5t-19 25t-31 9.5q-18 0 -30.5 -9.5t-19.5 -25t-10 -36.5t-3 -44t2.5 -44t9.5 -37zM532 3q-38 23 -53.5 63.5t-15.5 87.5q0 30 6.5 59.5t22.5 53t41.5 38t63.5 14.5t63.5 -14.5t41.5 -38t22.5 -53t6.5 -59.5t-6.5 -59.5t-22.5 -53t-41.5 -38t-63.5 -14.5
q-39 0 -65 14zM546 73q7 -16 19.5 -25.5t31.5 -9.5t31.5 9.5t19.5 26t9.5 37t2.5 43.5t-3 44t-10 36.5t-19 25t-31 9.5q-18 0 -30.5 -9.5t-19.5 -25t-10 -36.5t-3 -44t2.5 -44t9.5 -37zM198 -19l333 571h64l-333 -571h-64z" />
    <glyph glyph-name="ampersand.sc" unicode="&#xe003;" horiz-adv-x="563" 
d="M459 13q-42 -10 -91.5 -17t-95.5 -7q-47 0 -88.5 8.5t-73 27t-50 48t-18.5 71.5q0 54 31 87.5t82 42.5q-45 13 -71.5 42.5t-26.5 77.5q0 36 17 64.5t46 47.5t68.5 29t83.5 10q80 0 140 -18l-3 -77q-35 13 -68.5 18t-69.5 5q-23 0 -44 -5t-37 -15t-25.5 -25.5t-9.5 -35.5
q0 -25 9.5 -41t26 -25.5t38.5 -13.5t47 -4h90v57h93v-57h85v-66h-85v-229zM273 242q-27 0 -50.5 -5t-41.5 -16t-28 -29t-10 -45q0 -25 10.5 -41.5t28.5 -26.5t41.5 -14t49.5 -4t47.5 2t45.5 8v171h-93z" />
    <glyph glyph-name="question.sc" unicode="&#xe004;" horiz-adv-x="381" 
d="M116 172q0 47 17.5 75.5t55.5 57.5q26 24 39 45t13 50q0 33 -25.5 49.5t-63.5 16.5q-29 0 -56 -5.5t-57 -16.5l-4 80q32 11 64 16t69 5t69 -8.5t55 -26t36.5 -43t13.5 -58.5q0 -45 -21 -75.5t-51 -56.5q-33 -27 -48.5 -49t-15.5 -56h-90zM108 0v99h107v-99h-107z" />
    <glyph glyph-name="a.sc" unicode="&#xe005;" horiz-adv-x="557" 
d="M9 0l209 534h119l211 -534h-101l-51 136h-237l-51 -136h-99zM182 210h190l-97 251z" />
    <glyph glyph-name="b.sc" unicode="&#xe006;" horiz-adv-x="501" 
d="M71 0v534h177q31 0 65.5 -5.5t63 -20t47 -40.5t18.5 -67q0 -48 -23.5 -79t-68.5 -45q46 -11 76.5 -43t30.5 -83q0 -53 -24 -83t-60.5 -45t-80 -19t-82.5 -4h-139zM167 68h57q22 0 45 3t42.5 12t32 26t12.5 45q0 29 -13 46.5t-33 27t-44.5 12.5t-47.5 3h-51v-175zM167 307
h62q22 0 42.5 4t36.5 13.5t26 25.5t10 41q0 22 -9 36.5t-24 23t-33.5 12t-37.5 3.5h-73v-159z" />
    <glyph glyph-name="c.sc" unicode="&#xe007;" horiz-adv-x="496" 
d="M468 11q-32 -12 -66 -17t-70 -5q-65 0 -118.5 19t-91.5 54.5t-59 87t-21 116.5q0 62 22 113.5t61 88t92 57t115 20.5q31 0 67 -5.5t66 -15.5l-5 -80q-26 10 -57.5 16.5t-59.5 6.5q-45 0 -81 -15t-62 -42t-40 -64t-14 -80q0 -44 13.5 -81t39 -63t61.5 -40.5t82 -14.5
q30 0 60.5 5.5t59.5 17.5z" />
    <glyph glyph-name="d.sc" unicode="&#xe008;" horiz-adv-x="568" 
d="M170 74h42q47 0 86 11t66.5 35t42.5 62t15 91q0 88 -49.5 137.5t-140.5 49.5h-62v-386zM71 0v534h167q56 0 108 -14t92 -45t64 -81t24 -121q0 -75 -24.5 -127t-66.5 -84.5t-99.5 -47t-123.5 -14.5h-141z" />
    <glyph glyph-name="e.sc" unicode="&#xe009;" horiz-adv-x="449" 
d="M71 0v534h328v-75h-231v-150h220v-72h-220v-163h239v-74h-336z" />
    <glyph glyph-name="f.sc" unicode="&#xe00a;" horiz-adv-x="424" 
d="M71 0v534h320v-75h-221v-154h212v-73h-212v-232h-99z" />
    <glyph glyph-name="g.sc" unicode="&#xe00b;" horiz-adv-x="571" 
d="M513 21q-45 -16 -85.5 -24t-85.5 -8q-68 0 -123 19t-94.5 54.5t-61 87t-21.5 116.5q0 63 23.5 114.5t65.5 88t99 56.5t125 20q38 0 76.5 -5.5t74.5 -19.5l-5 -81q-33 15 -70 22.5t-72 7.5q-47 0 -86 -15t-67.5 -41.5t-44 -64t-15.5 -82.5q0 -40 12 -76.5t36.5 -64.5
t61 -44.5t84.5 -16.5q21 0 44.5 3t43.5 9v153h-120v71h205v-279z" />
    <glyph glyph-name="h.sc" unicode="&#xe00c;" horiz-adv-x="578" 
d="M71 0v534h99v-216h238v216h99v-534h-99v232h-238v-232h-99z" />
    <glyph glyph-name="i.sc" unicode="&#xe00d;" horiz-adv-x="241" 
d="M71 0v534h99v-534h-99z" />
    <glyph glyph-name="j.sc" unicode="&#xe00e;" horiz-adv-x="305" 
d="M13 81q24 -10 51 -10q41 0 57.5 25.5t16.5 62.5v375h99v-388q0 -72 -36.5 -114.5t-111.5 -42.5q-20 0 -40.5 2.5t-40.5 9.5z" />
    <glyph glyph-name="k.sc" unicode="&#xe00f;" horiz-adv-x="529" 
d="M71 0v534h99v-237l217 237h116l-239 -251l259 -283h-125l-228 261v-261h-99z" />
    <glyph glyph-name="l.sc" unicode="&#xe010;" horiz-adv-x="418" 
d="M71 0v534h99v-451h230v-83h-329z" />
    <glyph glyph-name="m.sc" unicode="&#xe011;" horiz-adv-x="749" 
d="M71 0v534h152l153 -436l153 436h149v-534h-95v455l-163 -455h-95l-163 457v-457h-91z" />
    <glyph glyph-name="n.sc" unicode="&#xe012;" horiz-adv-x="597" 
d="M71 0v534h139l224 -442v442h92v-534h-141l-223 442v-442h-91z" />
    <glyph glyph-name="o.sc" unicode="&#xe013;" horiz-adv-x="600" 
d="M188 9q-72 32 -109 99t-37 158q0 59 17 110t50 88.5t81 59t110 21.5q64 0 112 -21t80.5 -58t49 -88t16.5 -112q0 -59 -16.5 -110t-49.5 -88t-81 -58t-111 -21t-112 20zM183 129q19 -28 48 -45.5t69 -17.5q42 0 71 17t47.5 45.5t27 64t8.5 73.5q0 37 -8.5 73.5t-27 65
t-48 46t-70.5 17.5q-40 0 -69 -17.5t-48 -46t-28 -65t-9 -73.5t9 -73t28 -64z" />
    <glyph glyph-name="p.sc" unicode="&#xe014;" horiz-adv-x="481" 
d="M71 0v534h201q37 0 70 -10.5t57 -31t38 -50.5t14 -70q0 -42 -14.5 -73.5t-39.5 -52t-58.5 -31t-70.5 -10.5h-99v-205h-98zM169 278h67q57 0 87 20.5t30 72.5q0 48 -29.5 69t-72.5 21h-82v-183z" />
    <glyph glyph-name="q.sc" unicode="&#xe015;" horiz-adv-x="600" 
d="M418 -103l-88 94q-7 -1 -15 -1.5t-15 -0.5q-64 0 -112.5 20.5t-80.5 57.5t-48.5 88t-16.5 111q0 59 17 110t50 88.5t81 59t110 21.5q64 0 112 -21t80.5 -58t49 -88t16.5 -112q0 -41 -8 -79t-24.5 -70.5t-41 -58t-56.5 -41.5l115 -120h-125zM183 129q19 -28 48 -45.5
t69 -17.5q42 0 71 17t47.5 45.5t27 64t8.5 73.5q0 37 -8.5 73.5t-27 65t-48 46t-70.5 17.5q-40 0 -69 -17.5t-48 -46t-28 -65t-9 -73.5t9 -73t28 -64z" />
    <glyph glyph-name="r.sc" unicode="&#xe016;" horiz-adv-x="501" 
d="M71 0v534h179q36 0 71 -6t62.5 -22t45 -43.5t17.5 -70.5q0 -51 -31 -84t-80 -44q48 -15 70 -73l76 -191h-106l-61 161q-14 36 -33.5 52t-62.5 16h-49v-229h-98zM169 302h60q21 0 42.5 3.5t38 13t27 25.5t10.5 40t-9.5 39t-25 23.5t-36.5 11.5t-44 3h-63v-159z" />
    <glyph glyph-name="s.sc" unicode="&#xe017;" horiz-adv-x="437" 
d="M52 95q35 -14 71.5 -21t71.5 -7q45 0 70.5 19t25.5 61q0 30 -24 50t-63 38l-49 22q-48 21 -76.5 52.5t-28.5 83.5q0 36 14.5 64.5t40.5 48t62 29.5t80 10q60 0 122 -18l-4 -83q-64 23 -118 23q-42 0 -69.5 -16t-27.5 -54q0 -29 21.5 -45t52.5 -30l53 -24q54 -24 84 -56.5
t30 -89.5q0 -41 -15 -71.5t-41.5 -51t-61.5 -30.5t-74 -10q-38 0 -76 5t-75 17z" />
    <glyph glyph-name="t.sc" unicode="&#xe018;" horiz-adv-x="456" 
d="M178 0v450h-167v84h434v-84h-168v-450h-99z" />
    <glyph glyph-name="u.sc" unicode="&#xe019;" horiz-adv-x="577" 
d="M167 197q0 -57 30 -92.5t90 -35.5t91.5 35t31.5 92v338h99v-337q0 -48 -16.5 -86.5t-46 -65.5t-70.5 -41.5t-89 -14.5q-49 0 -89 13.5t-69 39.5t-45 64t-16 88v340h99v-337z" />
    <glyph glyph-name="v.sc" unicode="&#xe01a;" horiz-adv-x="525" 
d="M204 0l-199 534h105l155 -443l156 443h99l-201 -534h-115z" />
    <glyph glyph-name="w.sc" unicode="&#xe01b;" horiz-adv-x="789" 
d="M160 0l-149 534h96l117 -440l122 440h104l121 -442l114 442h93l-149 -534h-111l-124 441l-122 -441h-112z" />
    <glyph glyph-name="x.sc" unicode="&#xe01c;" horiz-adv-x="537" 
d="M5 0l201 278l-181 256h115l132 -201l133 201h107l-182 -255l199 -279h-119l-143 224l-152 -224h-110z" />
    <glyph glyph-name="y.sc" unicode="&#xe01d;" horiz-adv-x="504" 
d="M199 0v210l-199 324h109l145 -252l143 252h104l-201 -324v-210h-101z" />
    <glyph glyph-name="z.sc" unicode="&#xe01e;" horiz-adv-x="446" 
d="M26 0v81l280 375h-271v78h377v-82l-275 -375h283v-77h-394z" />
    <glyph glyph-name="agrave.sc" unicode="&#xe01f;" horiz-adv-x="557" 
d="M9 0l209 534h119l211 -534h-101l-51 136h-237l-51 -136h-99zM182 210h190l-97 251zM246 608l-104 136h108l72 -136h-76z" />
    <glyph glyph-name="aacute.sc" unicode="&#xe020;" horiz-adv-x="557" 
d="M9 0l209 534h119l211 -534h-101l-51 136h-237l-51 -136h-99zM182 210h190l-97 251zM222 608l71 136h109l-103 -136h-77z" />
    <glyph glyph-name="acircumflex.sc" unicode="&#xe021;" horiz-adv-x="557" 
d="M9 0l209 534h119l211 -534h-101l-51 136h-237l-51 -136h-99zM182 210h190l-97 251zM125 608l103 136h92l103 -136h-77l-72 92l-72 -92h-77z" />
    <glyph glyph-name="atilde.sc" unicode="&#xe022;" horiz-adv-x="557" 
d="M9 0l209 534h119l211 -534h-101l-51 136h-237l-51 -136h-99zM182 210h190l-97 251zM117 619q1 19 7.5 38.5t18 35t28.5 25t40 9.5q19 0 36 -6.5t33 -14t30 -13.5t27 -6q19 0 28.5 14t10.5 29h55q0 -18 -7 -37t-19 -34.5t-29 -25.5t-38 -10q-20 0 -36 6t-30.5 13.5
t-28 13.5t-28.5 6q-17 0 -30 -14t-13 -29h-55z" />
    <glyph glyph-name="adieresis.sc" unicode="&#xe023;" horiz-adv-x="557" 
d="M9 0l209 534h119l211 -534h-101l-51 136h-237l-51 -136h-99zM182 210h190l-97 251zM318 627v97h83v-97h-83zM147 627v97h83v-97h-83z" />
    <glyph glyph-name="aring.sc" unicode="&#xe024;" horiz-adv-x="557" 
d="M9 0l209 534h119l211 -534h-101l-51 136h-237l-51 -136h-99zM182 210h190l-97 251zM206 608q-13 13 -21 30.5t-8 37.5t7.5 37.5t21 30.5t31.5 20.5t38 7.5q19 0 37 -7.5t31.5 -20.5t21.5 -30.5t8 -37.5t-7.5 -37.5t-21 -30.5t-31.5 -20.5t-38 -7.5t-37.5 7.5t-31.5 20.5z
M218 676q0 -24 17 -40t40 -16q24 0 40.5 16t16.5 40q0 23 -16.5 39.5t-40.5 16.5t-40.5 -16.5t-16.5 -39.5z" />
    <glyph glyph-name="amacron.sc" unicode="&#xe025;" horiz-adv-x="557" 
d="M9 0l209 534h119l211 -534h-101l-51 136h-237l-51 -136h-99zM182 210h190l-97 251zM139 647v59h270v-59h-270z" />
    <glyph glyph-name="abreve.sc" unicode="&#xe026;" horiz-adv-x="557" 
d="M9 0l209 534h119l211 -534h-101l-51 136h-237l-51 -136h-99zM182 210h190l-97 251zM195 737q3 -29 22.5 -48.5t54.5 -19.5t55 19.5t23 48.5h53q0 -15 -7 -36.5t-22.5 -41t-40.5 -33t-61 -13.5t-61 13.5t-40.5 33t-22.5 41t-7 36.5h54z" />
    <glyph glyph-name="aogonek.sc" unicode="&#xe027;" horiz-adv-x="557" 
d="M9 0l209 534h119l211 -534h-44q-42 -29 -57 -51.5t-15 -43.5q0 -23 14.5 -34t33.5 -11q15 0 27 3.5t31 12.5l13 -40q-20 -10 -39.5 -15.5t-45.5 -5.5q-48 0 -73.5 21.5t-25.5 55.5t23 61t62 47h-5l-51 136h-237l-51 -136h-99zM182 210h190l-97 251z" />
    <glyph glyph-name="ae.sc" unicode="&#xe028;" horiz-adv-x="749" 
d="M-6 0l341 534h364v-75h-226v-150h215v-72h-215v-163h234v-74h-326v137h-197l-84 -137h-106zM222 211h159v257z" />
    <glyph glyph-name="cacute.sc" unicode="&#xe029;" horiz-adv-x="496" 
d="M468 11q-32 -12 -66 -17t-70 -5q-65 0 -118.5 19t-91.5 54.5t-59 87t-21 116.5q0 62 22 113.5t61 88t92 57t115 20.5q31 0 67 -5.5t66 -15.5l-5 -80q-26 10 -57.5 16.5t-59.5 6.5q-45 0 -81 -15t-62 -42t-40 -64t-14 -80q0 -44 13.5 -81t39 -63t61.5 -40.5t82 -14.5
q30 0 60.5 5.5t59.5 17.5zM257 608l71 136h109l-103 -136h-77z" />
    <glyph glyph-name="ccircumflex.sc" unicode="&#xe02a;" horiz-adv-x="496" 
d="M468 11q-32 -12 -66 -17t-70 -5q-65 0 -118.5 19t-91.5 54.5t-59 87t-21 116.5q0 62 22 113.5t61 88t92 57t115 20.5q31 0 67 -5.5t66 -15.5l-5 -80q-26 10 -57.5 16.5t-59.5 6.5q-45 0 -81 -15t-62 -42t-40 -64t-14 -80q0 -44 13.5 -81t39 -63t61.5 -40.5t82 -14.5
q30 0 60.5 5.5t59.5 17.5zM157 608l103 136h92l103 -136h-77l-72 92l-72 -92h-77z" />
    <glyph glyph-name="ccaron.sc" unicode="&#xe02b;" horiz-adv-x="496" 
d="M468 11q-32 -12 -66 -17t-70 -5q-65 0 -118.5 19t-91.5 54.5t-59 87t-21 116.5q0 62 22 113.5t61 88t92 57t115 20.5q31 0 67 -5.5t66 -15.5l-5 -80q-26 10 -57.5 16.5t-59.5 6.5q-45 0 -81 -15t-62 -42t-40 -64t-14 -80q0 -44 13.5 -81t39 -63t61.5 -40.5t82 -14.5
q30 0 60.5 5.5t59.5 17.5zM265 608l-103 136h77l72 -92l72 92h77l-103 -136h-92z" />
    <glyph glyph-name="cdotaccent.sc" unicode="&#xe02c;" horiz-adv-x="496" 
d="M468 11q-32 -12 -66 -17t-70 -5q-65 0 -118.5 19t-91.5 54.5t-59 87t-21 116.5q0 62 22 113.5t61 88t92 57t115 20.5q31 0 67 -5.5t66 -15.5l-5 -80q-26 10 -57.5 16.5t-59.5 6.5q-45 0 -81 -15t-62 -42t-40 -64t-14 -80q0 -44 13.5 -81t39 -63t61.5 -40.5t82 -14.5
q30 0 60.5 5.5t59.5 17.5zM261 627v97h100v-97h-100z" />
    <glyph glyph-name="ccedilla.sc" unicode="&#xe02d;" horiz-adv-x="496" 
d="M210 -128q24 -9 44 -12.5t37 -3.5q21 0 33.5 8.5t12.5 22.5q0 17 -11.5 24t-24.5 7q-11 0 -22.5 -1.5t-23.5 -6.5l-16 23l43 59q-54 7 -98.5 28.5t-76 56.5t-48.5 82.5t-17 106.5q0 62 22 113.5t61 88t92 57t115 20.5q31 0 67 -5.5t66 -15.5l-5 -80q-26 10 -57.5 16.5
t-59.5 6.5q-45 0 -81 -15t-62 -42t-40 -64t-14 -80q0 -44 13.5 -81t39 -63t61.5 -40.5t82 -14.5q30 0 60.5 5.5t59.5 17.5l6 -79q-32 -12 -66 -17t-76 -5l-30 -41q15 4 37 4q26 0 47 -16t21 -46q0 -35 -29.5 -55t-77.5 -20q-22 0 -45 3.5t-52 14.5z" />
    <glyph glyph-name="dcaron.sc" unicode="&#xe02e;" horiz-adv-x="568" 
d="M170 74h42q47 0 86 11t66.5 35t42.5 62t15 91q0 88 -49.5 137.5t-140.5 49.5h-62v-386zM71 0v534h167q56 0 108 -14t92 -45t64 -81t24 -121q0 -75 -24.5 -127t-66.5 -84.5t-99.5 -47t-123.5 -14.5h-141zM214 608l-103 136h77l72 -92l72 92h77l-103 -136h-92z" />
    <glyph glyph-name="dcroat.sc" unicode="&#xe02f;" horiz-adv-x="568" 
d="M72 0v240h-58v63h58v231h166q56 0 108 -14t92 -45t64 -81t24 -121q0 -75 -24.5 -127t-66.5 -84.5t-99.5 -47t-123.5 -14.5h-140zM170 74h40q47 0 86 11t67 35t43.5 62t15.5 91q0 88 -49.5 137.5t-140.5 49.5h-62v-157h128v-63h-128v-166z" />
    <glyph glyph-name="eth.sc" unicode="&#xe030;" horiz-adv-x="568" 
d="M72 0v240h-58v63h58v231h166q56 0 108 -14t92 -45t64 -81t24 -121q0 -75 -24.5 -127t-66.5 -84.5t-99.5 -47t-123.5 -14.5h-140zM170 74h40q47 0 86 11t67 35t43.5 62t15.5 91q0 88 -49.5 137.5t-140.5 49.5h-62v-157h128v-63h-128v-166z" />
    <glyph glyph-name="egrave.sc" unicode="&#xe031;" horiz-adv-x="449" 
d="M71 0v534h328v-75h-231v-150h220v-72h-220v-163h239v-74h-336zM210 608l-104 136h108l72 -136h-76z" />
    <glyph glyph-name="eacute.sc" unicode="&#xe032;" horiz-adv-x="449" 
d="M71 0v534h328v-75h-231v-150h220v-72h-220v-163h239v-74h-336zM182 608l71 136h109l-103 -136h-77z" />
    <glyph glyph-name="ecircumflex.sc" unicode="&#xe033;" horiz-adv-x="449" 
d="M71 0v534h328v-75h-231v-150h220v-72h-220v-163h239v-74h-336zM85 608l103 136h92l103 -136h-77l-72 92l-72 -92h-77z" />
    <glyph glyph-name="ecaron.sc" unicode="&#xe034;" horiz-adv-x="449" 
d="M71 0v534h328v-75h-231v-150h220v-72h-220v-163h239v-74h-336zM190 608l-103 136h77l72 -92l72 92h77l-103 -136h-92z" />
    <glyph glyph-name="edieresis.sc" unicode="&#xe035;" horiz-adv-x="449" 
d="M71 0v534h328v-75h-231v-150h220v-72h-220v-163h239v-74h-336zM279 627v97h83v-97h-83zM108 627v97h83v-97h-83z" />
    <glyph glyph-name="edotaccent.sc" unicode="&#xe036;" horiz-adv-x="449" 
d="M71 0v534h328v-75h-231v-150h220v-72h-220v-163h239v-74h-336zM185 627v97h100v-97h-100z" />
    <glyph glyph-name="emacron.sc" unicode="&#xe037;" horiz-adv-x="449" 
d="M71 0v534h328v-75h-231v-150h220v-72h-220v-163h239v-74h-336zM101 647v59h270v-59h-270z" />
    <glyph glyph-name="ebreve.sc" unicode="&#xe038;" horiz-adv-x="449" 
d="M71 0v534h328v-75h-231v-150h220v-72h-220v-163h239v-74h-336zM158 737q3 -29 22.5 -48.5t54.5 -19.5t55 19.5t23 48.5h53q0 -15 -7 -36.5t-22.5 -41t-40.5 -33t-61 -13.5t-61 13.5t-40.5 33t-22.5 41t-7 36.5h54z" />
    </font>
</defs>
</svg>
