<?xml version="1.0" standalone="no"?>
<!DOCTYPE svg PUBLIC "-//W3C//DTD SVG 1.1//EN" "http://www.w3.org/Graphics/SVG/1.1/DTD/svg11.dtd" >
<svg xmlns="http://www.w3.org/2000/svg" xmlns:xlink="http://www.w3.org/1999/xlink" version="1.1">
<metadata>
Created by FontForge 20170731 at Mon Aug 22 17:18:23 2016
 By Aleksey,,,
Copyright (c) 2016 Monotype Imaging Inc. All rights reserved.
</metadata>
<defs>
<font id="ZEISSFrutigerNextW1G-Reg" horiz-adv-x="400" >
  <font-face 
    font-family="ZEISS Frutiger Next W1G"
    font-weight="400"
    font-stretch="normal"
    units-per-em="1000"
    panose-1="2 11 5 3 4 2 4 2 2 3"
    ascent="721"
    descent="-279"
    x-height="498"
    cap-height="667"
    bbox="-165 -302 1186 905"
    underline-thickness="50"
    underline-position="-175"
    unicode-range="U+000D-FB04"
  />
<missing-glyph horiz-adv-x="512" 
d="M50 50h412v617h-412v-617zM0 0v718h512v-718h-512zM216 241v9q0 31 8.5 53t20.5 39.5t27 32.5t27 30.5t20.5 35t8.5 45.5q0 33 -22 55t-60 22q-25 0 -49.5 -5.5t-48.5 -15.5l-4 47q25 10 49 15t53 5q60 0 97 -32t37 -92q0 -28 -8.5 -49.5t-21.5 -38.5t-28.5 -32
t-28.5 -31.5t-21.5 -36t-8.5 -45.5v-11h-47zM210 117v64h59v-64h-59z" />
    <glyph glyph-name="IJ" unicode="IJ" horiz-adv-x="556" 
d="M85 0v667h79v-667h-79zM247 67q14 -6 28 -7.5t29 -1.5q27 0 46 10t30 26.5t16 38t5 44.5v490h79v-492q0 -40 -9.5 -74t-29 -59t-50 -39t-73.5 -14q-42 0 -77 13z" />
    <glyph glyph-name="ij" unicode="ij" horiz-adv-x="435" 
d="M73 0v498h73v-498h-73zM73 609v87h73v-87h-73zM191 -158q16 -6 34 -6q22 0 35 8t20 20.5t8.5 29.5t1.5 35v569h72v-580q0 -30 -5 -56.5t-18 -46t-35.5 -31t-56.5 -11.5q-16 0 -31.5 1t-30.5 5zM290 609v87h72v-87h-72z" />
    <glyph glyph-name="f_f" unicode="ff" horiz-adv-x="622" 
d="M118 0v440h-97v58h97v64q0 27 4 56.5t17.5 54.5t40 41.5t72.5 16.5q14 0 32.5 -1.5t31.5 -8.5l-6 -60q-11 5 -23.5 7t-24.5 2q-23 0 -37 -8.5t-22 -23t-10.5 -33.5t-2.5 -40v-67h112v-58h-111v-440h-73zM424 0v440h-97v58h97v64q0 27 4 56.5t17.5 54.5t40 41.5t72.5 16.5
q14 0 32.5 -1.5t31.5 -8.5l-6 -60q-11 5 -23.5 7t-24.5 2q-23 0 -37 -8.5t-22 -23t-10.5 -33.5t-2.5 -40v-67h112v-58h-111v-440h-73z" />
    <glyph glyph-name="fi" unicode="fi" horiz-adv-x="524" 
d="M118 0v440h-97v58h97v64q0 27 4 56.5t17.5 54.5t40 41.5t72.5 16.5q14 0 32.5 -1.5t31.5 -8.5l-6 -60q-11 5 -23.5 7t-24.5 2q-23 0 -37 -8.5t-22 -23t-10.5 -33.5t-2.5 -40v-67h112v-58h-111v-440h-73zM378 0v498h73v-498h-73zM378 609v87h73v-87h-73z" />
    <glyph glyph-name="fl" unicode="fl" horiz-adv-x="524" 
d="M118 0v440h-97v58h97v64q0 27 4 56.5t17.5 54.5t40 41.5t72.5 16.5q14 0 32.5 -1.5t31.5 -8.5l-6 -60q-11 5 -23.5 7t-24.5 2q-23 0 -37 -8.5t-22 -23t-10.5 -33.5t-2.5 -40v-67h112v-58h-111v-440h-73zM378 0v721h73v-721h-73z" />
    <glyph glyph-name="f_f_i" unicode="ffi" horiz-adv-x="829" 
d="M118 0v440h-97v58h97v64q0 27 4 56.5t17.5 54.5t40 41.5t72.5 16.5q14 0 32.5 -1.5t31.5 -8.5l-6 -60q-11 5 -23.5 7t-24.5 2q-23 0 -37 -8.5t-22 -23t-10.5 -33.5t-2.5 -40v-67h112v-58h-111v-440h-73zM424 0v440h-97v58h97v64q0 27 4 56.5t17.5 54.5t40 41.5t72.5 16.5
q14 0 32.5 -1.5t31.5 -8.5l-6 -60q-11 5 -23.5 7t-24.5 2q-23 0 -37 -8.5t-22 -23t-10.5 -33.5t-2.5 -40v-67h112v-58h-111v-440h-73zM684 0v498h73v-498h-73zM684 609v87h73v-87h-73z" />
    <glyph glyph-name="f_f_l" unicode="ffl" horiz-adv-x="829" 
d="M118 0v440h-97v58h97v64q0 27 4 56.5t17.5 54.5t40 41.5t72.5 16.5q14 0 32.5 -1.5t31.5 -8.5l-6 -60q-11 5 -23.5 7t-24.5 2q-23 0 -37 -8.5t-22 -23t-10.5 -33.5t-2.5 -40v-67h112v-58h-111v-440h-73zM424 0v440h-97v58h97v64q0 27 4 56.5t17.5 54.5t40 41.5t72.5 16.5
q14 0 32.5 -1.5t31.5 -8.5l-6 -60q-11 5 -23.5 7t-24.5 2q-23 0 -37 -8.5t-22 -23t-10.5 -33.5t-2.5 -40v-67h112v-58h-111v-440h-73zM684 0v721h73v-721h-73z" />
    <glyph glyph-name=".notdef" horiz-adv-x="512" 
d="M50 50h412v617h-412v-617zM0 0v718h512v-718h-512zM216 241v9q0 31 8.5 53t20.5 39.5t27 32.5t27 30.5t20.5 35t8.5 45.5q0 33 -22 55t-60 22q-25 0 -49.5 -5.5t-48.5 -15.5l-4 47q25 10 49 15t53 5q60 0 97 -32t37 -92q0 -28 -8.5 -49.5t-21.5 -38.5t-28.5 -32
t-28.5 -31.5t-21.5 -36t-8.5 -45.5v-11h-47zM210 117v64h59v-64h-59z" />
    <glyph glyph-name=".null" horiz-adv-x="0" 
 />
    <glyph glyph-name="nonmarkingreturn" unicode="&#xd;" horiz-adv-x="271" 
 />
    <glyph glyph-name="NULL" horiz-adv-x="0" 
 />
    <glyph glyph-name="NULL" horiz-adv-x="0" 
 />
    <glyph glyph-name="space" unicode=" " horiz-adv-x="271" 
 />
    <glyph glyph-name="exclam" unicode="!" horiz-adv-x="268" 
d="M91 0v89h86v-89h-86zM102 169l-13 498h90l-13 -498h-64z" />
    <glyph glyph-name="quotedbl" unicode="&#x22;" horiz-adv-x="415" 
d="M102 459v208h67v-208h-67zM246 459v208h67v-208h-67z" />
    <glyph glyph-name="numbersign" unicode="#" horiz-adv-x="542" 
d="M178 262h164l23 143h-164zM84 0l31 209h-82v53h90l23 143h-82v53h90l32 209h55l-32 -209h164l32 209h55l-32 -209h82v-53h-90l-23 -143h82v-53h-90l-31 -209h-55l31 209h-164l-32 -209h-54z" />
    <glyph glyph-name="dollar" unicode="$" horiz-adv-x="542" 
d="M236 -108v97q-39 0 -77.5 6.5t-74.5 21.5l5 77q35 -22 73 -30.5t80 -8.5q30 0 57 7t46.5 22t31 38.5t11.5 56.5q0 22 -10 40t-26.5 33t-38 28t-44.5 26l-69 37q-24 13 -45.5 28t-38.5 34t-27 43t-10 54q0 37 13.5 67t37 51.5t54 34.5t64.5 18v101h55v-97q34 0 66.5 -5
t63.5 -16l-6 -71q-26 14 -61 20t-66 6q-26 0 -51.5 -5.5t-45.5 -17.5t-32.5 -32.5t-12.5 -50.5q0 -38 30 -64.5t70 -46.5l70 -37q26 -14 51.5 -30.5t45 -37.5t31.5 -47.5t12 -61.5q0 -41 -13.5 -73t-37.5 -55t-56.5 -38t-69.5 -21v-101h-55z" />
    <glyph glyph-name="percent" unicode="%" horiz-adv-x="900" 
d="M144 372q9 -23 27 -38.5t49 -15.5t48.5 15.5t26.5 38.5t11.5 49.5t2.5 49.5t-2 50t-11 50t-27 38t-49 15q-30 0 -48 -15.5t-27 -38.5t-11.5 -50t-2.5 -49q0 -23 2 -49.5t11 -49.5zM605 96q9 -23 27 -38.5t49 -15.5t48.5 15.5t26.5 38.5t11.5 49.5t2.5 49.5t-2 50t-11 50
t-27 38t-49 15q-30 0 -48 -15.5t-27 -38.5t-11.5 -50t-2.5 -49q0 -23 2 -49.5t11 -49.5zM142 284q-23 14 -37.5 35t-23.5 45.5t-12.5 52t-3.5 54.5q0 34 7 70.5t25 66.5t48 49.5t75 19.5q46 0 76 -19.5t47 -49.5t24 -66.5t7 -70.5q0 -35 -7 -71.5t-24 -66.5t-47 -49t-76 -19
q-47 0 -78 19zM210 -24l424 715h59l-424 -715h-59zM604 8q-23 14 -37.5 35t-23.5 45.5t-12.5 52t-3.5 54.5q0 34 7 70.5t24.5 66.5t47.5 49.5t75 19.5q46 0 76 -19.5t47 -49.5t24 -66.5t7 -70.5q0 -35 -7 -71.5t-24 -66.5t-47 -49t-76 -19q-48 0 -77 19z" />
    <glyph glyph-name="ampersand" unicode="&#x26;" horiz-adv-x="643" 
d="M309 315q-35 0 -67 -7t-56.5 -22.5t-39 -42t-14.5 -65.5q0 -38 15.5 -62.5t40.5 -38.5t56.5 -19.5t64.5 -5.5q36 0 68.5 4.5t66.5 15.5v243h-135zM519 18q-46 -14 -102.5 -21.5t-107.5 -7.5q-49 0 -94.5 9t-81 31t-57 58.5t-21.5 90.5q0 36 12.5 65.5t35 51.5t52 35
t64.5 15q-72 7 -110 44.5t-38 107.5q0 45 20 78.5t53 56t75.5 34t86.5 11.5q42 0 80 -7t76 -21l-4 -69q-37 17 -74 26t-79 9q-30 0 -58.5 -7.5t-51 -22.5t-36 -37t-13.5 -51q0 -38 13 -61.5t35.5 -36.5t52 -17.5t62.5 -4.5h135v79h75v-79h104v-62h-104v-297z" />
    <glyph glyph-name="quotesingle" unicode="'" horiz-adv-x="271" 
d="M102 459v208h67v-208h-67z" />
    <glyph glyph-name="parenleft" unicode="(" horiz-adv-x="269" 
d="M208 -128q-31 48 -59.5 98.5t-50 103.5t-34 108.5t-12.5 114.5q0 58 13 114t34.5 108.5t49.5 103t59 98.5h55q-26 -50 -51 -101t-44.5 -103.5t-31 -107t-11.5 -112.5t11.5 -113t31 -107.5t44.5 -103.5t51 -101h-55z" />
    <glyph glyph-name="parenright" unicode=")" horiz-adv-x="269" 
d="M7 -128q26 50 51 101t44.5 103.5t31.5 107.5t12 113q0 57 -12 112t-31.5 107.5t-44.5 103.5t-51 101h55q31 -48 59 -98.5t49.5 -103t34.5 -108.5t13 -114q0 -59 -12.5 -114.5t-34 -108.5t-50 -103.5t-59.5 -98.5h-55z" />
    <glyph glyph-name="asterisk" unicode="*" horiz-adv-x="401" 
d="M89 385l73 110l-116 37l20 61l111 -51l-8 125h65l-9 -125l110 51l20 -61l-114 -37l72 -110l-54 -32l-58 112l-58 -112z" />
    <glyph glyph-name="plus" unicode="+" horiz-adv-x="542" 
d="M20 215v60h218v215h66v-215h219v-60h-219v-215h-66v215h-218z" />
    <glyph glyph-name="comma" unicode="," horiz-adv-x="271" 
d="M38 -128l58 217h84l-83 -217h-59z" />
    <glyph glyph-name="hyphen" unicode="-" horiz-adv-x="320" 
d="M39 277v66h242v-66h-242z" />
    <glyph glyph-name="period" unicode="." horiz-adv-x="271" 
d="M93 0v89h86v-89h-86z" />
    <glyph glyph-name="slash" unicode="/" horiz-adv-x="290" 
d="M-21 0l262 667h70l-261 -667h-71z" />
    <glyph glyph-name="zero" unicode="0" horiz-adv-x="542" 
d="M147 153q15 -42 44 -70.5t80 -28.5q50 0 79 29t44 71.5t19 91t4 87.5q0 40 -4 88.5t-19 91t-44 71t-79 28.5t-79 -29t-43.5 -71.5t-18.5 -91t-4 -87.5q0 -40 3.5 -88.5t17.5 -91.5zM155 21q-34 23 -55.5 58.5t-33.5 77.5t-16.5 87.5t-4.5 88.5q0 55 9.5 116t34.5 111.5
t69 83.5t113 33t113.5 -33t69.5 -84t34.5 -111.5t9.5 -115.5q0 -56 -9.5 -116.5t-34.5 -111t-69 -83.5t-114 -33t-116 32z" />
    <glyph glyph-name="one" unicode="1" horiz-adv-x="542" 
d="M262 0v581l-111 -95l-38 52l158 129h69v-667h-78z" />
    <glyph glyph-name="two" unicode="2" horiz-adv-x="542" 
d="M51 0v63l149 162q42 46 73.5 82t52.5 67.5t31.5 61t10.5 61.5q0 26 -10 47t-27 35.5t-39.5 22.5t-47.5 8q-45 0 -85 -12.5t-77 -32.5l-6 69q40 19 82.5 31t87.5 12q42 0 78.5 -10.5t64.5 -32t44 -55t16 -78.5q0 -41 -13.5 -77t-38.5 -73t-59.5 -76.5t-77.5 -86.5
l-112 -123h315v-65h-412z" />
    <glyph glyph-name="three" unicode="3" horiz-adv-x="542" 
d="M54 84q38 -18 78.5 -24t77.5 -6q31 0 62.5 7.5t56.5 24t40.5 43.5t15.5 65q0 34 -14 58t-37 39t-51.5 22t-56.5 7h-91v63h78q31 0 60.5 5.5t51.5 19.5t35.5 37.5t13.5 59.5q0 30 -13 50.5t-34 33t-47.5 18t-53.5 5.5q-38 0 -78 -8.5t-75 -24.5l-6 68q40 14 83 22t86 8
q39 0 78 -9t70 -28.5t50.5 -51t19.5 -77.5q0 -32 -11.5 -58.5t-31 -46.5t-44.5 -33t-52 -19q31 -4 59 -16t48.5 -32t32.5 -47.5t12 -61.5q0 -53 -20.5 -92.5t-55.5 -65t-81 -38t-97 -12.5q-43 0 -83 5.5t-82 20.5z" />
    <glyph glyph-name="four" unicode="4" horiz-adv-x="542" 
d="M91 216h254v378zM26 151v73l301 443h95v-451h96v-65h-96v-151h-77v151h-319z" />
    <glyph glyph-name="five" unicode="5" horiz-adv-x="542" 
d="M75 86q33 -17 69 -24t73 -7q34 0 66 9.5t56 28.5t38.5 47t14.5 66q0 37 -13 64t-35.5 44t-53 25t-64.5 8q-32 0 -65.5 -6t-75.5 -20l7 346h349v-64h-276l-6 -208q23 8 47 10.5t48 2.5q45 0 85 -12.5t70 -37.5t47 -62t17 -85q0 -54 -20 -95.5t-54.5 -69.5t-80 -42.5
t-96.5 -14.5q-38 0 -78 5t-75 19z" />
    <glyph glyph-name="six" unicode="6" horiz-adv-x="542" 
d="M460 593q-45 19 -108 19q-59 0 -100.5 -24t-68 -63.5t-39.5 -89.5t-15 -101q24 35 67.5 60.5t100.5 25.5q47 0 84.5 -15t64 -42t40.5 -65.5t14 -84.5q0 -51 -16 -92t-45 -70.5t-68.5 -45.5t-87.5 -16q-69 0 -113 27.5t-69.5 71.5t-35.5 100t-10 112q0 75 16.5 143.5
t53 120.5t94 82.5t139.5 30.5q57 0 108 -15zM178 103q18 -23 44.5 -36.5t61.5 -13.5q32 0 57.5 11.5t43 32.5t27 49.5t9.5 61.5q0 63 -32.5 105.5t-99.5 42.5q-30 0 -57 -10t-47.5 -28.5t-32 -44.5t-11.5 -57q0 -65 37 -113z" />
    <glyph glyph-name="seven" unicode="7" horiz-adv-x="542" 
d="M127 0l267 600h-341v67h419v-65l-257 -602h-88z" />
    <glyph glyph-name="eight" unicode="8" horiz-adv-x="542" 
d="M132 320q30 16 61 27q-30 14 -54 29.5t-41 34.5t-26.5 43t-9.5 54q0 43 19.5 75t50 53t67.5 31t72 10q38 0 75.5 -9.5t67.5 -29.5t48.5 -51.5t18.5 -76.5q0 -30 -11.5 -54.5t-30.5 -44t-43.5 -35t-51.5 -27.5q34 -12 63.5 -27t51 -36t33.5 -49t12 -67q0 -48 -21 -82
t-54.5 -56t-75 -32.5t-82.5 -10.5q-42 0 -83.5 10t-74.5 31.5t-53.5 54.5t-20.5 79q0 57 25.5 95t67.5 61zM272 375q22 9 45.5 21t42 28t30.5 36.5t12 46.5q0 28 -11 48.5t-29.5 33.5t-42 19t-48.5 6t-48.5 -6.5t-41.5 -19.5t-29 -33.5t-11 -47.5q0 -41 24.5 -67t58.5 -44z
M386 259q-38 33 -115 60q-33 -10 -60.5 -23t-47.5 -30.5t-31.5 -40.5t-11.5 -53q0 -31 12.5 -53.5t33.5 -37t48.5 -21.5t56.5 -7t56.5 7.5t48.5 22.5t34 38t13 54q0 53 -37 84z" />
    <glyph glyph-name="nine" unicode="9" horiz-adv-x="542" 
d="M84 73q50 -19 108 -19q59 0 100.5 24t68 63.5t39.5 89.5t15 101q-22 -35 -66.5 -60.5t-101.5 -25.5q-47 0 -84.5 15t-64 42t-40.5 65t-14 85q0 51 16 92t45 70.5t68.5 45.5t87.5 16q69 0 113 -27.5t69.5 -72t35.5 -100t10 -111.5q0 -75 -16.5 -143.5t-53 -120.5
t-94 -82.5t-139.5 -30.5q-29 0 -55.5 3.5t-52.5 11.5zM155 352q33 -42 100 -42q30 0 57 10t47.5 28.5t32 44t11.5 57.5q0 31 -9.5 60.5t-27.5 52.5t-45 36.5t-61 13.5q-32 0 -57.5 -11.5t-43 -32.5t-27 -49.5t-9.5 -61.5q0 -62 32 -106z" />
    <glyph glyph-name="colon" unicode=":" horiz-adv-x="271" 
d="M93 0v89h86v-89h-86zM93 409v89h86v-89h-86z" />
    <glyph glyph-name="semicolon" unicode=";" horiz-adv-x="271" 
d="M38 -128l58 217h84l-83 -217h-59zM92 409v89h86v-89h-86z" />
    <glyph glyph-name="less" unicode="&#x3c;" horiz-adv-x="542" 
d="M20 211v65l503 202v-66l-428 -169l428 -167v-65z" />
    <glyph glyph-name="equal" unicode="=" horiz-adv-x="542" 
d="M20 119v60h503v-60h-503zM20 309v60h503v-60h-503z" />
    <glyph glyph-name="greater" unicode="&#x3e;" horiz-adv-x="542" 
d="M19 11v65l428 167l-428 169v66l503 -202v-65z" />
    <glyph glyph-name="question" unicode="?" horiz-adv-x="406" 
d="M123 0v89h87v-89h-87zM131 169v13q0 43 11.5 73.5t29 54.5t37.5 44t37.5 41.5t29 47t11.5 61.5q0 52 -33.5 79t-84.5 27q-35 0 -69 -7.5t-66 -18.5l-6 68q35 11 69 18t79 7q40 0 75 -10.5t61 -32t41 -53t15 -73.5q0 -39 -12.5 -68t-30.5 -52.5t-40 -44t-40 -43.5
t-30.5 -51t-12.5 -65v-15h-71z" />
    <glyph glyph-name="at" unicode="@" horiz-adv-x="1040" 
d="M838 -170q-71 -30 -142 -43.5t-161 -13.5q-105 0 -190.5 31.5t-147 90t-95 141t-33.5 185.5q0 113 37.5 207t103.5 161.5t156.5 104.5t197.5 37q87 0 161.5 -27t128.5 -78.5t85 -127.5t31 -173q0 -73 -19.5 -134.5t-53 -106.5t-78.5 -70t-96 -25q-48 0 -81 28t-34 91
q-68 -119 -175 -119q-66 0 -107.5 44t-41.5 125q0 72 23 135.5t65.5 111t102.5 75.5t134 28q30 0 65 -5t67 -15l-69 -321q-3 -13 -4.5 -26.5t-1.5 -21.5q0 -35 16.5 -55.5t50.5 -20.5t65 20.5t55 57.5t38 88.5t14 114.5q0 87 -27 152t-74 108.5t-110.5 65.5t-136.5 22
q-90 0 -167 -33t-133.5 -92.5t-88.5 -142.5t-32 -183q0 -90 29 -162.5t82 -122.5t129 -77t169 -27q78 0 145 14t139 46zM663 443q-19 4 -33.5 5.5t-32.5 1.5q-56 0 -101 -25t-76.5 -65.5t-48.5 -92t-17 -105.5t25 -84.5t70 -30.5q31 0 58 15.5t49 42.5t38.5 62.5t25.5 76.5z
" />
    <glyph glyph-name="A" unicode="A" horiz-adv-x="634" 
d="M175 245h280l-139 358zM4 0l266 667h93l267 -667h-82l-69 181h-327l-71 -181h-77z" />
    <glyph glyph-name="B" unicode="B" horiz-adv-x="549" 
d="M163 62h71q31 0 63 5t58 19t42 38t16 63q0 42 -17 67.5t-44.5 39.5t-61.5 18.5t-67 4.5h-60v-255zM163 376h75q30 0 58.5 5.5t50.5 19.5t35 37.5t13 58.5q0 31 -12 52t-32 33.5t-45 17.5t-52 5h-91v-229zM85 0v667h177q41 0 79.5 -8t68.5 -27t48 -51t18 -79
q0 -63 -34 -101t-94 -52q31 -5 58 -18t47 -33.5t31 -47.5t11 -60q0 -57 -22.5 -94t-59 -58.5t-83 -29.5t-94.5 -8h-151z" />
    <glyph glyph-name="C" unicode="C" horiz-adv-x="589" 
d="M553 19q-33 -17 -77.5 -23.5t-81.5 -6.5q-79 0 -142.5 24.5t-108 69.5t-68.5 108.5t-24 141.5q0 75 25 138t70.5 108.5t108.5 71.5t139 26q36 0 80 -6t77 -20l-6 -71q-32 15 -72 22t-75 7q-62 0 -111 -21t-83 -58t-52 -87.5t-18 -109.5q0 -62 17.5 -112.5t51 -87
t82.5 -56.5t112 -20q38 0 76.5 6t73.5 23z" />
    <glyph glyph-name="D" unicode="D" horiz-adv-x="651" 
d="M85 0v667h174q80 0 144 -20t108.5 -60.5t68.5 -101.5t24 -142q0 -89 -28.5 -153.5t-79.5 -106.5t-121 -62.5t-153 -20.5h-137zM164 65h56q70 0 126 16t95 50t59.5 86.5t20.5 125.5q0 127 -68.5 193t-196.5 66h-92v-537z" />
    <glyph glyph-name="E" unicode="E" horiz-adv-x="486" 
d="M85 0v667h344v-65h-265v-228h252v-63h-252v-246h276v-65h-355z" />
    <glyph glyph-name="F" unicode="F" horiz-adv-x="456" 
d="M85 0v667h335v-65h-256v-230h245v-63h-245v-309h-79z" />
    <glyph glyph-name="G" unicode="G" horiz-adv-x="669" 
d="M596 22q-51 -18 -93 -25.5t-94 -7.5q-80 0 -145.5 23t-113 66.5t-73.5 107.5t-26 147q0 81 27.5 144.5t75.5 108t113.5 68t141.5 23.5q43 0 93 -8t89 -25l-6 -72q-39 22 -82.5 30t-88.5 8q-62 0 -113.5 -18.5t-88.5 -53.5t-57.5 -86.5t-20.5 -118.5q0 -65 19 -116t55 -87
t87 -55t115 -19q32 0 56.5 3t53.5 11v226h-150v63h226v-337z" />
    <glyph glyph-name="H" unicode="H" horiz-adv-x="653" 
d="M85 0v667h79v-289h325v289h80v-667h-80v309h-325v-309h-79z" />
    <glyph glyph-name="I" unicode="I" horiz-adv-x="248" 
d="M85 0v667h79v-667h-79z" />
    <glyph glyph-name="J" unicode="J" horiz-adv-x="319" 
d="M10 67q14 -6 28 -7.5t29 -1.5q27 0 46 10t30 26.5t16 38t5 44.5v490h79v-492q0 -40 -9.5 -74t-29 -59t-50 -39t-73.5 -14q-42 0 -77 13z" />
    <glyph glyph-name="K" unicode="K" horiz-adv-x="586" 
d="M85 0v667h79v-301l292 301h98l-315 -313l343 -354h-106l-312 333v-333h-79z" />
    <glyph glyph-name="L" unicode="L" horiz-adv-x="452" 
d="M85 0v667h79v-599h270v-68h-349z" />
    <glyph glyph-name="M" unicode="M" horiz-adv-x="869" 
d="M85 0v667h122l229 -579l227 579h122v-667h-77v602l-236 -602h-77l-236 602v-602h-74z" />
    <glyph glyph-name="N" unicode="N" horiz-adv-x="676" 
d="M85 0v667h111l321 -585v585h74v-667h-111l-321 585v-585h-74z" />
    <glyph glyph-name="O" unicode="O" horiz-adv-x="701" 
d="M185 144q27 -40 68 -64.5t98 -24.5q58 0 99.5 24.5t67 64t37.5 89t12 100.5t-12 100.5t-37.5 89t-67 64t-99.5 24.5q-57 0 -98.5 -24.5t-67.5 -64.5t-38.5 -89.5t-12.5 -99.5q0 -51 12.5 -100t38.5 -89zM217 16q-42 20 -73 52t-52 73t-31 89.5t-10 102.5q0 69 18.5 131.5
t56 109.5t94 75t131.5 28q77 0 133.5 -27t93.5 -74t55 -109.5t18 -133.5q0 -69 -18.5 -131.5t-56 -110t-94 -75t-131.5 -27.5q-77 0 -134 27z" />
    <glyph glyph-name="P" unicode="P" horiz-adv-x="508" 
d="M85 0v667h156q50 0 93.5 -10t76 -32t51 -57.5t18.5 -86.5q0 -56 -20 -94t-54.5 -61.5t-80 -34t-96.5 -10.5h-65v-281h-79zM163 345h51q38 0 71.5 5t58.5 20t39.5 41.5t14.5 68.5q0 34 -13 58t-36 38t-54 20.5t-68 6.5h-64v-258z" />
    <glyph glyph-name="Q" unicode="Q" horiz-adv-x="701" 
d="M185 144q27 -40 68 -64.5t98 -24.5q58 0 99.5 24.5t67 64t37.5 89t12 100.5t-12 100.5t-37.5 89t-67 64t-99.5 24.5q-57 0 -98.5 -24.5t-67.5 -64.5t-38.5 -89.5t-12.5 -99.5q0 -51 12.5 -100t38.5 -89zM518 -128l-118 121q-12 -2 -24 -3t-25 -1q-77 0 -133.5 27
t-93.5 73.5t-55 109.5t-18 134q0 69 18.5 131.5t56 109.5t94 75t131.5 28q77 0 133.5 -27t93.5 -74t55 -109.5t18 -133.5q0 -53 -10.5 -102t-32 -90.5t-53.5 -74t-75 -51.5l141 -143h-103z" />
    <glyph glyph-name="R" unicode="R" horiz-adv-x="548" 
d="M85 0v667h164q41 0 81.5 -7t73 -25t52.5 -50t20 -82q0 -33 -12 -61.5t-32.5 -50t-48 -35.5t-58.5 -18q32 -7 54.5 -29.5t36.5 -55.5l109 -253h-89l-92 220q-11 26 -21.5 43t-25 27t-34 14t-49.5 4h-50v-308h-79zM163 372h68q29 0 58 6t52.5 20.5t38 38t14.5 59.5
q0 34 -14 55.5t-37.5 32.5t-53.5 15t-62 4h-64v-231z" />
    <glyph glyph-name="S" unicode="S" horiz-adv-x="484" 
d="M57 94q35 -22 73.5 -30.5t80.5 -8.5q28 0 53 6.5t43.5 21t29 37.5t10.5 56q0 26 -9.5 46t-25 35.5t-36.5 28.5t-44 25l-54 29q-24 13 -45 28t-36.5 34t-24.5 44t-9 58q0 45 18.5 78t48.5 54t68.5 31t79.5 10q35 0 66.5 -5.5t62.5 -18.5l-9 -71q-27 15 -57.5 22t-61.5 7
q-26 0 -50.5 -5t-43.5 -17t-30 -32t-11 -50q0 -41 26.5 -67t66.5 -47l54 -29q28 -15 53 -31t44 -37t30 -49t11 -66q0 -47 -18 -83t-48 -60t-69 -36.5t-82 -12.5t-84.5 7t-79.5 24z" />
    <glyph glyph-name="T" unicode="T" horiz-adv-x="496" 
d="M208 0v599h-198v68h477v-68h-199v-599h-80z" />
    <glyph glyph-name="U" unicode="U" horiz-adv-x="650" 
d="M156 236q0 -81 42.5 -130t126.5 -49t127 49t43 130v431h79v-431q0 -57 -17.5 -102.5t-50 -78t-78.5 -49.5t-103 -17t-103 17t-78.5 48.5t-49.5 77.5t-17 103v432h79v-431z" />
    <glyph glyph-name="V" unicode="V" horiz-adv-x="598" 
d="M255 0l-249 667h84l210 -591l213 591h79l-250 -667h-87z" />
    <glyph glyph-name="W" unicode="W" horiz-adv-x="922" 
d="M202 0l-191 667h81l161 -588l166 588h92l165 -588l161 588h75l-190 -667h-94l-165 589l-166 -589h-95z" />
    <glyph glyph-name="X" unicode="X" horiz-adv-x="602" 
d="M8 0l247 350l-223 317h92l182 -268l181 268h86l-221 -317l243 -350h-95l-198 303l-206 -303h-88z" />
    <glyph glyph-name="Y" unicode="Y" horiz-adv-x="576" 
d="M248 0v278l-246 389h88l200 -325l200 325h85l-248 -389v-278h-79z" />
    <glyph glyph-name="Z" unicode="Z" horiz-adv-x="494" 
d="M26 0v66l348 535h-336v66h422v-66l-345 -535h353v-66h-442z" />
    <glyph glyph-name="bracketleft" unicode="[" horiz-adv-x="270" 
d="M91 -128v849h165v-52h-96v-745h96v-52h-165z" />
    <glyph glyph-name="backslash" unicode="\" horiz-adv-x="290" 
d="M241 0l-262 667h71l261 -667h-70z" />
    <glyph glyph-name="bracketright" unicode="]" horiz-adv-x="270" 
d="M15 -128v52h97v745h-97v52h166v-849h-166z" />
    <glyph glyph-name="asciicircum" unicode="^" horiz-adv-x="600" 
d="M99 249l170 418h63l169 -418h-69l-133 342l-130 -342h-70z" />
    <glyph glyph-name="underscore" unicode="_" horiz-adv-x="500" 
d="M0 -125v50h500v-50h-500z" />
    <glyph glyph-name="grave" unicode="`" horiz-adv-x="218" 
d="M95 585l-97 136h85l71 -136h-59z" />
    <glyph glyph-name="a" unicode="a" horiz-adv-x="493" 
d="M355 0l-3 80q-22 -48 -64.5 -69.5t-90.5 -21.5q-33 0 -63 9t-52 27t-35 46t-13 66q0 48 20 80t54.5 51t81.5 27t102 8h56v24q0 57 -25 90t-87 33q-77 0 -141 -42l-6 65q32 16 73.5 25.5t76.5 9.5q94 0 137.5 -46t43.5 -140v-216q0 -28 1 -54t5 -52h-71zM311 250
q-35 0 -71 -3t-65 -14.5t-47.5 -33.5t-18.5 -59q0 -25 8 -42.5t21.5 -28.5t31 -16t35.5 -5q40 0 67 14t44 37.5t24.5 54.5t7.5 66v30h-37z" />
    <glyph glyph-name="b" unicode="b" horiz-adv-x="543" 
d="M173 118q17 -29 44 -48t67 -19q42 0 68.5 18.5t42 47.5t21.5 64.5t6 69.5t-5.5 69t-21 63t-42.5 45.5t-69 17.5q-39 0 -66 -18t-43.5 -46.5t-24 -63t-7.5 -67.5t7 -68t23 -65zM73 0v721h73v-307q19 45 62 69.5t91 24.5q57 0 95.5 -21.5t62.5 -57.5t34 -82.5t10 -95.5
q0 -48 -11 -95t-35 -84t-63 -60t-94 -23q-52 0 -92 23t-64 71l-2 -83h-67z" />
    <glyph glyph-name="c" unicode="c" horiz-adv-x="443" 
d="M410 8q-32 -11 -64 -15t-65 -4q-57 0 -101.5 20.5t-75 56t-46 83.5t-15.5 102q0 55 17 102.5t48.5 81.5t77 53.5t102.5 19.5q31 0 62 -5.5t60 -15.5l-6 -65q-24 11 -50.5 18t-53.5 7q-45 0 -78.5 -15t-56 -41t-33.5 -62t-11 -78q0 -39 11 -75.5t33 -64.5t54.5 -44.5
t75.5 -16.5q56 0 110 23z" />
    <glyph glyph-name="d" unicode="d" horiz-adv-x="543" 
d="M149 116q16 -28 42.5 -46.5t68.5 -18.5q40 0 66.5 19t43 48t23.5 64t7 68t-7.5 67.5t-24 63t-43.5 47t-66 18.5q-42 0 -69 -17.5t-42.5 -46t-21 -63.5t-5.5 -69t6 -69.5t22 -64.5zM408 0l-6 83q-24 -48 -64 -71t-92 -23q-56 0 -94.5 23t-62.5 60t-35 84t-11 95
q0 49 11 95.5t35.5 82.5t63.5 57.5t95 21.5q48 0 89.5 -24.5t60.5 -69.5v307h73v-563q0 -42 1.5 -80.5t3.5 -77.5h-68z" />
    <glyph glyph-name="e" unicode="e" horiz-adv-x="491" 
d="M117 240q0 -36 10 -70.5t31 -61.5t54.5 -43.5t80.5 -16.5q36 0 72.5 10t64.5 28l3 -65q-32 -16 -68.5 -24t-71.5 -8q-65 0 -112 20t-78.5 55t-46.5 83t-15 104q0 48 13.5 94t41.5 82t69.5 58.5t97.5 22.5q58 0 96.5 -21.5t61 -57t32 -82t9.5 -95.5v-12h-345zM391 294
q-2 25 -8.5 53t-20.5 50.5t-38 37.5t-60 15t-63 -14.5t-45 -37t-28 -50t-11 -54.5h274z" />
    <glyph glyph-name="f" unicode="f" horiz-adv-x="316" 
d="M118 0v440h-97v58h97v64q0 27 4 56.5t17.5 54.5t40 41.5t72.5 16.5q14 0 32.5 -1.5t31.5 -8.5l-6 -60q-11 5 -23.5 7t-24.5 2q-23 0 -37 -8.5t-22 -23t-10.5 -33.5t-2.5 -40v-67h112v-58h-111v-440h-73z" />
    <glyph glyph-name="g" unicode="g" horiz-adv-x="543" 
d="M148 124q16 -27 42.5 -44.5t68.5 -17.5q40 0 67 17.5t43.5 45t23.5 60.5t7 65q0 33 -7.5 67.5t-24 63t-43 47t-65.5 18.5q-42 0 -69 -17.5t-42.5 -46t-21.5 -63.5t-6 -69q0 -32 6 -65.5t21 -60.5zM89 -130q33 -17 69.5 -26.5t74.5 -9.5q45 0 76.5 14.5t51 40t28.5 60
t9 75.5v64q-23 -42 -64.5 -65t-89.5 -23q-56 0 -94 22t-62 57.5t-34.5 80.5t-10.5 91q0 49 11 95.5t35.5 82.5t63 57.5t93.5 21.5q109 0 156 -94v84h69v-473q0 -58 -13.5 -104.5t-42 -79.5t-72.5 -50.5t-105 -17.5q-39 0 -78 7t-77 19z" />
    <glyph glyph-name="h" unicode="h" horiz-adv-x="539" 
d="M73 0v721h73v-307q48 94 154 94q46 0 77.5 -15t51 -41.5t28.5 -63t9 -79.5v-309h-72v296q0 30 -4 57t-16 47.5t-34 33t-58 12.5q-39 0 -65 -15.5t-41.5 -40t-22.5 -56.5t-7 -65v-269h-73z" />
    <glyph glyph-name="i" unicode="i" horiz-adv-x="218" 
d="M73 0v498h73v-498h-73zM73 609v87h73v-87h-73z" />
    <glyph glyph-name="j" unicode="j" horiz-adv-x="224" 
d="M-20 -158q16 -6 34 -6q22 0 35 8t20 20.5t8.5 29.5t1.5 35v569h72v-580q0 -30 -5 -56.5t-18 -46t-35.5 -31t-56.5 -11.5q-16 0 -31.5 1t-30.5 5zM79 609v87h72v-87h-72z" />
    <glyph glyph-name="k" unicode="k" horiz-adv-x="479" 
d="M73 0v721h73v-429l211 206h91l-229 -220l256 -278h-96l-233 260v-260h-73z" />
    <glyph glyph-name="l" unicode="l" horiz-adv-x="218" 
d="M73 0v721h73v-721h-73z" />
    <glyph glyph-name="m" unicode="m" horiz-adv-x="810" 
d="M73 0v381q0 29 -1 58.5t-4 58.5h67l3 -86q49 96 149 96q31 0 55.5 -9t42.5 -23.5t30 -33.5t17 -38q9 23 24.5 42.5t36 33t43.5 21t47 7.5q38 0 67 -13t48.5 -35.5t29.5 -53.5t10 -67v-339h-73v326q0 25 -5 47t-16.5 38t-30.5 25.5t-47 9.5q-34 0 -57.5 -15.5t-38.5 -40.5
t-21.5 -56.5t-6.5 -64.5v-269h-73v326q0 25 -5 47t-16 38t-30 25.5t-47 9.5q-35 0 -58.5 -15.5t-38.5 -40.5t-21.5 -56.5t-6.5 -64.5v-269h-73z" />
    <glyph glyph-name="n" unicode="n" horiz-adv-x="539" 
d="M73 0v381q0 29 -1 58.5t-4 58.5h67l3 -86q52 96 161 96q48 0 80 -15t51.5 -41.5t27.5 -63t8 -79.5v-309h-72v295q0 30 -4 57t-16 48t-34 33.5t-58 12.5q-39 0 -65 -15.5t-42 -40.5t-22.5 -57t-6.5 -65v-268h-73z" />
    <glyph glyph-name="o" unicode="o" horiz-adv-x="551" 
d="M157 114q19 -28 48 -46t71 -18q41 0 70.5 18t48 46.5t27.5 64.5t9 72q0 37 -8.5 72.5t-27 63t-48 44t-71.5 16.5q-41 0 -70.5 -17t-48.5 -45t-27.5 -63t-8.5 -71t8.5 -72t27.5 -65zM174 9q-66 32 -98.5 96t-32.5 146q0 54 15.5 100.5t45.5 81.5t73 55t99 20
q58 0 102 -19.5t73 -54t43.5 -81.5t14.5 -102q0 -54 -15 -101.5t-44 -83.5t-72.5 -56.5t-101.5 -20.5q-57 0 -102 20z" />
    <glyph glyph-name="p" unicode="p" horiz-adv-x="543" 
d="M173 118q17 -29 44 -48t67 -19q42 0 68.5 18.5t42 47.5t21.5 64.5t6 69.5t-5.5 69t-21 63t-42.5 45.5t-69 17.5q-39 0 -66 -18t-43.5 -46.5t-24 -63t-7.5 -67.5t7 -68t23 -65zM73 -216v547q0 45 -1.5 85t-3.5 82h69l4 -87q10 22 26.5 40t37.5 30.5t45 19.5t49 7
q57 0 95.5 -21.5t62.5 -57.5t34 -82.5t10 -95.5q0 -48 -11 -95t-35 -84t-63 -60t-94 -23q-49 0 -91 23.5t-61 68.5v-297h-73z" />
    <glyph glyph-name="q" unicode="q" horiz-adv-x="543" 
d="M149 117q16 -29 42.5 -47.5t68.5 -18.5q40 0 66.5 19t43 48.5t23.5 64.5t7 68t-7.5 67.5t-24 63t-43.5 46.5t-66 18q-42 0 -69 -17.5t-42.5 -45.5t-21 -63t-5.5 -69t6 -69.5t22 -64.5zM398 -216v299q-19 -45 -61.5 -69.5t-90.5 -24.5q-56 0 -94.5 23t-62.5 60t-35 84
t-11 95q0 49 11 95.5t35 82.5t62.5 57.5t93.5 21.5q54 0 94 -23t64 -71v84h68v-714h-73z" />
    <glyph glyph-name="r" unicode="r" horiz-adv-x="328" 
d="M73 0v381q0 29 -1 58.5t-4 58.5h67l4 -94q7 19 20 37.5t30 33.5t38 24t44 9q11 0 21 -0.5t21 -3.5l-4 -73q-20 6 -40 6q-38 0 -62 -18.5t-37.5 -47t-18.5 -62t-5 -62.5v-247h-73z" />
    <glyph glyph-name="s" unicode="s" horiz-adv-x="389" 
d="M51 80q30 -16 59 -23.5t63 -7.5q42 0 68.5 20.5t26.5 62.5q0 30 -16 49t-40 32.5t-51.5 25.5t-51.5 28.5t-40 40.5t-16 62q0 37 14 63.5t37 43t52 24t58 7.5q31 0 59 -5.5t54 -15.5l-10 -63q-23 11 -49.5 18t-52.5 7q-15 0 -30.5 -3.5t-28.5 -11.5t-21.5 -23t-8.5 -37
q0 -25 16 -40.5t40 -28t52.5 -24.5t52.5 -30t40 -44.5t16 -68.5q0 -36 -14 -64t-37.5 -46.5t-54 -28.5t-63.5 -10q-36 0 -69 5t-63 18z" />
    <glyph glyph-name="t" unicode="t" horiz-adv-x="328" 
d="M307 4q-19 -8 -40 -11.5t-41 -3.5q-38 0 -61 13t-35 35.5t-15.5 52.5t-3.5 64v287h-94v57h94v112l72 25v-137h113v-57h-113v-306q0 -33 12.5 -58t51.5 -25q15 0 28.5 3.5t27.5 9.5z" />
    <glyph glyph-name="u" unicode="u" horiz-adv-x="535" 
d="M144 203q0 -30 4 -57t15.5 -48t33 -33.5t57.5 -12.5q39 0 65 15.5t42 40.5t22.5 57t6.5 65v268h72v-381q0 -29 1 -58.5t4 -58.5h-67l-2 86q-53 -97 -161 -97q-48 0 -79.5 15t-51 42t-27.5 63.5t-8 80.5v308h73v-295z" />
    <glyph glyph-name="v" unicode="v" horiz-adv-x="443" 
d="M178 0l-167 498h79l133 -434l134 434h76l-169 -498h-86z" />
    <glyph glyph-name="w" unicode="w" horiz-adv-x="771" 
d="M171 0l-158 498h78l127 -430l129 430h87l129 -430l126 430h70l-155 -498h-89l-127 429l-129 -429h-88z" />
    <glyph glyph-name="x" unicode="x" horiz-adv-x="452" 
d="M13 0l172 261l-155 237h85l116 -191l113 191h81l-153 -237l168 -261h-86l-126 215l-134 -215h-81z" />
    <glyph glyph-name="y" unicode="y" horiz-adv-x="444" 
d="M37 -156q11 -4 22 -6.5t23 -2.5q21 0 36.5 13t26.5 31.5t18.5 38t11.5 32.5l10 33l-173 515h79l134 -429l133 429h76l-200 -585q-10 -29 -23 -54.5t-30 -44.5t-39.5 -30t-50.5 -11q-18 0 -30.5 2t-29.5 6z" />
    <glyph glyph-name="z" unicode="z" horiz-adv-x="424" 
d="M30 0v59l281 381h-270v58h352v-59l-281 -381h283v-58h-365z" />
    <glyph glyph-name="braceleft" unicode="{" horiz-adv-x="272" 
d="M204 -128q-25 0 -43.5 10t-30.5 26.5t-18 37.5t-6 44v160q0 18 -3 39.5t-11.5 39.5t-23 30.5t-37.5 12.5v50q23 0 37.5 12.5t23 31.5t11.5 40.5t3 39.5v158q0 22 6 43.5t18.5 37.5t31 26t43.5 10h59v-50h-46q-14 0 -23 -9.5t-13.5 -23t-6 -28.5t-1.5 -25v-155
q0 -20 -5.5 -41t-16 -39.5t-26 -32.5t-36.5 -20q21 -6 36.5 -20t26 -33t16 -40t5.5 -41v-153q0 -11 1.5 -26t6 -29t13.5 -23.5t23 -9.5h46v-50h-60z" />
    <glyph glyph-name="bar" unicode="|" horiz-adv-x="216" 
d="M72 -216v991h73v-991h-73z" />
    <glyph glyph-name="braceright" unicode="}" horiz-adv-x="272" 
d="M8 -128v50h46q14 0 23 9.5t13.5 23.5t6 29t1.5 26v153q0 20 5 41t15.5 40t26.5 33t37 20q-21 6 -37 20t-26.5 32.5t-15.5 39.5t-5 41v155q0 10 -1.5 25t-6 28.5t-13.5 23t-23 9.5h-46v50h59q25 0 43.5 -10t31 -26t19 -37.5t6.5 -43.5v-158q0 -18 3 -39.5t11 -40.5
t22.5 -31.5t37.5 -12.5v-50q-23 0 -37.5 -12.5t-22.5 -30.5t-11 -39.5t-3 -39.5v-160q0 -23 -6 -44t-18.5 -37.5t-31 -26.5t-43.5 -10h-60z" />
    <glyph glyph-name="asciitilde" unicode="~" horiz-adv-x="542" 
d="M8 172q4 27 12.5 52t23 44.5t36 31.5t52.5 12q34 0 71 -11.5t74 -25.5t71.5 -25.5t63.5 -11.5q35 0 53.5 24t25.5 55h43q-2 -26 -10 -50.5t-23 -44t-37 -31.5t-51 -12q-35 0 -72 11t-73.5 24.5t-71 25t-64.5 11.5q-35 0 -54.5 -23.5t-24.5 -55.5h-45z" />
    <glyph glyph-name="uni00A0" unicode="&#xa0;" horiz-adv-x="271" 
 />
    <glyph glyph-name="exclamdown" unicode="&#xa1;" horiz-adv-x="268" 
d="M89 -169l13 499h64l13 -499h-90zM91 409v89h86v-89h-86z" />
    <glyph glyph-name="cent" unicode="&#xa2;" horiz-adv-x="542" 
d="M276 0v92q-47 6 -82.5 27.5t-59.5 54.5t-36.5 74.5t-12.5 87.5t13 86.5t38 72.5t60.5 53t79.5 28v91h50v-89q27 0 53.5 -6t52.5 -15l-6 -64q-24 11 -48 18t-49 7q-41 0 -72.5 -14t-52.5 -38.5t-31.5 -57.5t-10.5 -72q0 -36 10.5 -70t30.5 -59.5t50.5 -41t69.5 -15.5
q50 0 104 23l6 -64q-51 -19 -107 -19v-90h-50z" />
    <glyph glyph-name="sterling" unicode="&#xa3;" horiz-adv-x="542" 
d="M81 0v63h80v266h-76v63h76v57q0 50 11.5 92t37 72t66 47t99.5 17q26 0 57 -4.5t55 -15.5l-9 -67q-22 13 -47.5 17.5t-51.5 4.5q-47 0 -74.5 -14t-42.5 -37.5t-19.5 -54t-4.5 -63.5v-51h168v-63h-168v-266h240v-63h-397z" />
    <glyph glyph-name="currency" unicode="&#xa4;" horiz-adv-x="542" 
d="M133 273q17 -39 53.5 -65t84.5 -26q31 0 58.5 12t48 32t32.5 47.5t12 58.5t-12 58.5t-32.5 48t-48 32.5t-58.5 12q-32 0 -59 -12t-47.5 -32t-32 -48t-11.5 -59t12 -59zM40 141l63 64q-22 29 -32.5 59.5t-10.5 68.5q0 70 43 128l-64 64l41 40l63 -64q55 43 128 43
q38 0 68.5 -10.5t60.5 -31.5l63 62l41 -40l-64 -63q20 -29 31.5 -60.5t11.5 -68.5q0 -71 -43 -126l64 -66l-41 -40l-64 65q-56 -45 -127 -45q-35 0 -67.5 12t-60.5 32l-63 -63z" />
    <glyph glyph-name="yen" unicode="&#xa5;" horiz-adv-x="542" 
d="M230 0v148h-146v56h146v71h-146v56h119l-174 336h82l161 -323l160 323h82l-180 -336h124v-56h-150v-71h150v-56h-150v-148h-78z" />
    <glyph glyph-name="brokenbar" unicode="&#xa6;" horiz-adv-x="216" 
d="M72 -216v397h73v-397h-73zM72 379v396h73v-396h-73z" />
    <glyph glyph-name="section" unicode="&#xa7;" horiz-adv-x="542" 
d="M94 -33q37 -17 75.5 -24t78.5 -7q21 0 44 5.5t41.5 17.5t30.5 30t12 43q0 16 -8 29t-20 23t-26.5 17.5t-27.5 13.5l-115 50q-39 17 -65 48.5t-26 77.5q0 21 7.5 39.5t19.5 35t27 30.5t30 26q-32 17 -50 46t-18 66t15.5 64t41 44.5t57.5 26t65 8.5q41 0 72.5 -4.5
t69.5 -16.5l-6 -64q-25 11 -59.5 18t-61.5 7q-18 0 -39 -4t-39 -13.5t-29.5 -25t-11.5 -37.5q0 -19 6 -32t17.5 -23t28.5 -18.5t38 -18.5l95 -43q43 -20 68.5 -46t25.5 -77q0 -23 -5.5 -40.5t-15.5 -32.5t-23 -28.5t-28 -28.5q32 -21 48.5 -49.5t16.5 -68.5q0 -39 -17.5 -68
t-45.5 -48.5t-63.5 -29t-70.5 -9.5q-85 0 -166 28zM333 171q20 21 37 46t17 56q0 18 -7.5 31t-19.5 23t-26.5 17.5t-28.5 13.5l-83 36q-26 -14 -44.5 -41t-18.5 -57q0 -28 20.5 -47t45.5 -30z" />
    <glyph glyph-name="dieresis" unicode="&#xa8;" horiz-adv-x="218" 
d="M-1 609v87h66v-87h-66zM154 609v87h66v-87h-66z" />
    <glyph glyph-name="copyright" unicode="&#xa9;" horiz-adv-x="791" 
d="M526 152q-45 -19 -96 -19q-50 0 -91 14t-69.5 40.5t-44 63.5t-15.5 83q0 45 16 82t45.5 63.5t70 41t88.5 14.5q23 0 48.5 -4.5t47.5 -12.5l-4 -54q-20 8 -43 13.5t-45 5.5q-78 0 -120 -41.5t-42 -107.5q0 -67 42 -108t120 -41q24 0 45 6t43 15zM194 129q39 -40 90.5 -63
t111.5 -23t112 23t90 63t60 93t22 112t-22 111.5t-60.5 92t-90 62.5t-111.5 23t-111.5 -23t-90 -62.5t-60.5 -92t-22 -111.5q0 -60 22 -112.5t60 -92.5zM262 16q-47 20 -85.5 52t-66 73t-43 90t-15.5 103q0 71 27 133.5t73.5 109t109.5 73.5t134 27t134 -27t109.5 -73.5
t73.5 -109t27 -133.5t-27 -134t-73.5 -110t-109.5 -74t-134 -27t-134 27z" />
    <glyph glyph-name="ordfeminine" unicode="&#xaa;" horiz-adv-x="370" 
d="M246 366l-3 49q-16 -28 -44 -42t-58 -14q-42 0 -72 22t-30 70q0 30 12.5 50.5t34.5 32.5t51.5 17t62.5 5h42v9q0 32 -18 48.5t-57 16.5q-47 0 -90 -22l-4 50q20 9 48 14t51 5q60 0 93.5 -27.5t33.5 -88.5v-126q0 -21 1 -37.5t3 -31.5h-57zM218 513q-21 0 -43 -2t-39 -8
t-28 -17.5t-11 -30.5q0 -26 17.5 -37.5t40.5 -11.5q46 0 66.5 28t20.5 65v14h-24z" />
    <glyph glyph-name="guillemotleft" unicode="&#xab;" horiz-adv-x="438" 
d="M161 55l-131 200l131 198h66l-126 -198l126 -200h-66zM333 55l-131 200l131 198h66l-126 -198l126 -200h-66z" />
    <glyph glyph-name="logicalnot" unicode="&#xac;" horiz-adv-x="600" 
d="M49 309v60h503v-250h-63v190h-440z" />
    <glyph glyph-name="uni00AD" unicode="&#xad;" horiz-adv-x="320" 
d="M39 277v66h242v-66h-242z" />
    <glyph glyph-name="registered" unicode="&#xae;" horiz-adv-x="789" 
d="M322 366h44q18 0 35.5 3t32 10t23 19.5t8.5 32.5q0 18 -8.5 29.5t-22.5 17.5t-32 8t-37 2h-43v-122zM263 145v391h130q27 0 51.5 -5.5t42.5 -18t29 -32t11 -47.5q0 -39 -29.5 -64t-68.5 -31q25 -5 38.5 -18t22.5 -33l64 -142h-63l-54 122q-12 29 -28 40t-52 11h-35v-173
h-59zM193 129q39 -39 90.5 -62.5t111.5 -23.5t111.5 23.5t90 63t60.5 92.5t22 112t-22 111.5t-60.5 92t-90 62.5t-111.5 23t-111.5 -23t-90 -62.5t-60.5 -92t-22 -111.5q0 -60 22 -112.5t60 -92.5zM261 16q-47 20 -85.5 52t-66 73t-43 90t-15.5 103q0 71 27 133.5t73.5 109
t109.5 73.5t134 27t134 -27t109.5 -73.5t73.5 -109t27 -133.5t-27 -134t-73.5 -110t-109.5 -74t-134 -27t-134 27z" />
    <glyph glyph-name="macron" unicode="&#xaf;" horiz-adv-x="218" 
d="M-13 628v51h245v-51h-245z" />
    <glyph glyph-name="degree" unicode="&#xb0;" 
d="M110 496q12 -26 36.5 -41t53.5 -15q19 0 37 7t31.5 19.5t21.5 29.5t8 37q0 45 -28 70t-70 25t-70 -25t-28 -70q0 -19 8 -37zM96 430q-20 19 -32 45t-12 58q0 31 12 57.5t32 46t47 30t57 10.5t57 -10.5t47 -30t32 -46t12 -57.5q0 -32 -12 -58t-32 -44.5t-47 -29t-57 -10.5
t-57 10.5t-47 28.5z" />
    <glyph glyph-name="plusminus" unicode="&#xb1;" horiz-adv-x="600" 
d="M49 -13v60h503v-60h-503zM49 266v60h219v175h65v-175h219v-60h-219v-174h-65v174h-219z" />
    <glyph glyph-name="twosuperior" unicode="&#xb2;" 
d="M55 369v52l73 67q66 60 96.5 100t30.5 76q0 30 -24 46t-56 16q-30 0 -54.5 -7t-47.5 -18l-3 54q26 11 54.5 18t57.5 7q27 0 52 -6.5t44 -20t30.5 -35.5t11.5 -52q0 -51 -34.5 -96t-83.5 -89l-66 -60h192v-52h-273z" />
    <glyph glyph-name="threesuperior" unicode="&#xb3;" 
d="M58 430q22 -8 48.5 -12t51.5 -4q21 0 40.5 4.5t34.5 13.5t24 23.5t9 34.5q0 19 -9 31.5t-23.5 20t-33 11t-37.5 3.5h-54v49h45q21 0 40.5 3t34 10.5t23 20t8.5 32.5q0 16 -8.5 27t-22 18t-30.5 10t-34 3q-25 0 -50 -4.5t-46 -13.5l-3 52q53 17 108 17q27 0 53.5 -5
t47.5 -17t34.5 -32t13.5 -50q0 -38 -21 -61t-54 -32q34 -8 58.5 -31.5t24.5 -60.5q0 -34 -14.5 -58.5t-38 -40t-54 -23t-62.5 -7.5q-29 0 -55 3.5t-52 11.5z" />
    <glyph glyph-name="acute" unicode="&#xb4;" horiz-adv-x="218" 
d="M62 585l72 136h85l-96 -136h-61z" />
    <glyph glyph-name="mu" unicode="&#xb5;" horiz-adv-x="542" 
d="M72 -216v714h73v-296q0 -30 4 -57t15.5 -48t33 -33.5t57.5 -12.5q39 0 65 15.5t42 40.5t22.5 57t6.5 65v269h72v-381q0 -30 1 -59t4 -58h-66l-4 86q-26 -46 -63.5 -71t-89.5 -25q-31 0 -57 11t-43 28v-245h-73z" />
    <glyph glyph-name="paragraph" unicode="&#xb6;" horiz-adv-x="541" 
d="M241 -108v430q-39 0 -75 11.5t-64 33.5t-45 54.5t-17 73.5q0 50 17.5 84.5t47.5 56t70 31t85 9.5h238v-784h-66v729h-126v-729h-65z" />
    <glyph glyph-name="periodcentered" unicode="&#xb7;" horiz-adv-x="271" 
d="M93 266v88h86v-88h-86z" />
    <glyph glyph-name="cedilla" unicode="&#xb8;" horiz-adv-x="218" 
d="M29 -126q39 -17 74 -17q20 0 35 8.5t15 25.5t-12.5 23t-26.5 6q-19 0 -39 -7l-15 18l49 69h37l-39 -53l16.5 3t15.5 1q29 0 47.5 -15t18.5 -42q0 -34 -27.5 -54t-73.5 -20q-23 0 -43 4t-45 15z" />
    <glyph glyph-name="onesuperior" unicode="&#xb9;" 
d="M195 369v335l-85 -62l-29 45l123 87h54v-405h-63z" />
    <glyph glyph-name="ordmasculine" unicode="&#xba;" horiz-adv-x="370" 
d="M185 359q-75 0 -114 45t-39 114q0 34 10.5 63t30.5 50.5t48.5 33.5t65.5 12q75 0 113.5 -44.5t38.5 -114.5q0 -34 -10.5 -63t-30 -50.5t-48 -33.5t-65.5 -12zM116 444q11 -16 28 -25.5t41 -9.5t41.5 9.5t28.5 24.5t16 34.5t5 40.5q0 19 -5 38.5t-15.5 35t-27.5 25.5
t-41 10q-25 0 -42 -9.5t-28 -25t-16 -35t-5 -39.5q0 -42 20 -74z" />
    <glyph glyph-name="guillemotright" unicode="&#xbb;" horiz-adv-x="438" 
d="M40 55l125 199l-125 199h65l132 -199l-132 -199h-65zM212 55l125 199l-125 199h65l132 -199l-132 -199h-65z" />
    <glyph glyph-name="onequarter" unicode="&#xbc;" horiz-adv-x="900" 
d="M185 265v335l-85 -62l-29 45l123 87h54v-405h-63zM167 -24l424 715h59l-424 -715h-59zM471 88v59l189 258h71v-265h61v-52h-61v-88h-61v88h-199zM525 140h146v203z" />
    <glyph glyph-name="onehalf" unicode="&#xbd;" horiz-adv-x="900" 
d="M163 265v335l-85 -62l-29 45l123 87h54v-405h-63zM147 -24l424 715h59l-424 -715h-59zM523 0v52l73 67q66 60 96.5 100t30.5 76q0 30 -24 46t-56 16q-30 0 -54.5 -7t-47.5 -18l-3 54q26 11 54.5 18t57.5 7q27 0 52 -6.5t44 -20t30.5 -35.5t11.5 -52q0 -51 -34.5 -96
t-83.5 -89l-66 -60h192v-52h-273z" />
    <glyph glyph-name="threequarters" unicode="&#xbe;" horiz-adv-x="900" 
d="M63 326q22 -8 48.5 -12t51.5 -4q21 0 40.5 4.5t34.5 13.5t24 23.5t9 34.5q0 19 -9 31.5t-23.5 20t-33 11t-37.5 3.5h-54v49h45q21 0 40.5 3t34 10.5t23 20t8.5 32.5q0 16 -8.5 27t-22 18t-30.5 10t-34 3q-25 0 -50 -4.5t-46 -13.5l-3 52q53 17 108 17q27 0 53.5 -5
t47.5 -17t34.5 -32t13.5 -50q0 -38 -21 -61t-54 -32q34 -8 58.5 -31.5t24.5 -60.5q0 -34 -14.5 -58.5t-38 -40t-54 -23t-62.5 -7.5q-29 0 -55 3.5t-52 11.5zM240 -24l424 715h59l-424 -715h-59zM544 88v59l189 258h71v-265h61v-52h-61v-88h-61v88h-199zM598 140h146v203z
" />
    <glyph glyph-name="questiondown" unicode="&#xbf;" horiz-adv-x="406" 
d="M378 -154q-35 -11 -69 -18t-79 -7q-40 0 -75 10.5t-61 32t-41 53t-15 73.5q0 39 12.5 68t31 52.5t40 44.5t40 44t31 51t12.5 65v15h70v-13q0 -43 -11.5 -73.5t-29 -54.5t-37.5 -44t-37.5 -41.5t-29 -47.5t-11.5 -62q0 -52 33.5 -79t84.5 -27q35 0 69 7.5t66 18.5z
M197 409v89h86v-89h-86z" />
    <glyph glyph-name="Agrave" unicode="&#xc0;" horiz-adv-x="634" 
d="M175 245h280l-139 358zM4 0l266 667h93l267 -667h-82l-69 181h-327l-71 -181h-77zM300 724l-97 136h85l71 -136h-59z" />
    <glyph glyph-name="Aacute" unicode="&#xc1;" horiz-adv-x="634" 
d="M175 245h280l-139 358zM4 0l266 667h93l267 -667h-82l-69 181h-327l-71 -181h-77zM275 724l72 136h85l-96 -136h-61z" />
    <glyph glyph-name="Acircumflex" unicode="&#xc2;" horiz-adv-x="634" 
d="M175 245h280l-139 358zM4 0l266 667h93l267 -667h-82l-69 181h-327l-71 -181h-77zM177 724l103 136h74l103 -136h-65l-75 96l-75 -96h-65z" />
    <glyph glyph-name="Atilde" unicode="&#xc3;" horiz-adv-x="634" 
d="M175 245h280l-139 358zM4 0l266 667h93l267 -667h-82l-69 181h-327l-71 -181h-77zM171 738q0 18 6 35.5t17.5 32t28 23.5t37.5 9q18 0 34 -6.5t30.5 -14t27.5 -14t25 -6.5q19 0 29 15.5t10 29.5h47q0 -16 -6 -33.5t-17 -32t-27 -24t-35 -9.5t-34 6t-28.5 13.5t-26.5 14
t-27 6.5q-18 0 -30.5 -15t-12.5 -30h-48z" />
    <glyph glyph-name="Adieresis" unicode="&#xc4;" horiz-adv-x="634" 
d="M175 245h280l-139 358zM4 0l266 667h93l267 -667h-82l-69 181h-327l-71 -181h-77zM362 748v87h66v-87h-66zM207 748v87h66v-87h-66z" />
    <glyph glyph-name="Aring" unicode="&#xc5;" horiz-adv-x="634" 
d="M175 245h280l-139 358zM4 0l266 667h93l267 -667h-82l-69 181h-327l-71 -181h-77zM278 706q-26 11 -42 34t-16 52q0 39 28 65.5t67 26.5q19 0 36.5 -7t31 -19.5t21 -29.5t7.5 -36q0 -20 -7.5 -36.5t-21 -29.5t-31 -20t-36.5 -7q-22 0 -37 7zM256 792q0 -25 17.5 -42
t41.5 -17q25 0 42.5 17t17.5 42q0 24 -17.5 41t-42.5 17t-42 -17t-17 -41z" />
    <glyph glyph-name="AE" unicode="&#xc6;" horiz-adv-x="854" 
d="M230 245h227v367zM-4 0l418 667h382v-65h-261v-229h247v-62h-247v-246h273v-65h-351v181h-264l-111 -181h-86z" />
    <glyph glyph-name="Ccedilla" unicode="&#xc7;" horiz-adv-x="589" 
d="M272 -126q39 -17 74 -17q20 0 35 8.5t15 25.5t-12.5 23t-26.5 6q-19 0 -39 -7l-15 18l43 61q-68 7 -123 34t-93 71.5t-58.5 104t-20.5 131.5q0 75 25 138t70.5 108.5t108.5 71.5t139 26q36 0 80 -6t77 -20l-6 -71q-32 15 -72 22t-75 7q-62 0 -111 -21t-83 -58t-52 -87.5
t-18 -109.5q0 -62 17.5 -112.5t51 -87t82.5 -56.5t112 -20q38 0 76.5 6t73.5 23l6 -67q-33 -17 -77.5 -23.5t-81.5 -6.5h-13l-31 -42l16.5 3t15.5 1q29 0 47.5 -15t18.5 -42q0 -34 -27.5 -54t-73.5 -20q-23 0 -43 4t-45 15z" />
    <glyph glyph-name="Egrave" unicode="&#xc8;" horiz-adv-x="486" 
d="M85 0v667h344v-65h-265v-228h252v-63h-252v-246h276v-65h-355zM247 724l-97 136h85l71 -136h-59z" />
    <glyph glyph-name="Eacute" unicode="&#xc9;" horiz-adv-x="486" 
d="M85 0v667h344v-65h-265v-228h252v-63h-252v-246h276v-65h-355zM208 724l72 136h85l-96 -136h-61z" />
    <glyph glyph-name="Ecircumflex" unicode="&#xca;" horiz-adv-x="486" 
d="M85 0v667h344v-65h-265v-228h252v-63h-252v-246h276v-65h-355zM115 724l103 136h74l103 -136h-65l-75 96l-75 -96h-65z" />
    <glyph glyph-name="Edieresis" unicode="&#xcb;" horiz-adv-x="486" 
d="M85 0v667h344v-65h-265v-228h252v-63h-252v-246h276v-65h-355zM303 748v87h66v-87h-66zM148 748v87h66v-87h-66z" />
    <glyph glyph-name="Igrave" unicode="&#xcc;" horiz-adv-x="248" 
d="M85 0v667h79v-667h-79zM110 724l-97 136h85l71 -136h-59z" />
    <glyph glyph-name="Iacute" unicode="&#xcd;" horiz-adv-x="248" 
d="M85 0v667h79v-667h-79zM80 724l72 136h85l-96 -136h-61z" />
    <glyph glyph-name="Icircumflex" unicode="&#xce;" horiz-adv-x="248" 
d="M85 0v667h79v-667h-79zM-16 724l103 136h74l103 -136h-65l-75 96l-75 -96h-65z" />
    <glyph glyph-name="Idieresis" unicode="&#xcf;" horiz-adv-x="248" 
d="M85 0v667h79v-667h-79zM169 748v87h66v-87h-66zM14 748v87h66v-87h-66z" />
    <glyph glyph-name="Eth" unicode="&#xd0;" horiz-adv-x="651" 
d="M85 0v305h-74v60h74v302h174q80 0 144 -20t108.5 -60.5t68.5 -101.5t24 -142q0 -89 -28.5 -153.5t-79.5 -106.5t-121 -62.5t-153 -20.5h-137zM164 65h56q70 0 126 16t95 50t59.5 86.5t20.5 125.5q0 127 -68.5 193t-196.5 66h-92v-237h176v-60h-176v-240z" />
    <glyph glyph-name="Ntilde" unicode="&#xd1;" horiz-adv-x="676" 
d="M85 0v667h111l321 -585v585h74v-667h-111l-321 585v-585h-74zM201 738q0 18 6 35.5t17.5 32t28 23.5t37.5 9q18 0 34 -6.5t30.5 -14t27.5 -14t25 -6.5q19 0 29 15.5t10 29.5h47q0 -16 -6 -33.5t-17 -32t-27 -24t-35 -9.5t-34 6t-28.5 13.5t-26.5 14t-27 6.5
q-18 0 -30.5 -15t-12.5 -30h-48z" />
    <glyph glyph-name="Ograve" unicode="&#xd2;" horiz-adv-x="701" 
d="M185 144q27 -40 68 -64.5t98 -24.5q58 0 99.5 24.5t67 64t37.5 89t12 100.5t-12 100.5t-37.5 89t-67 64t-99.5 24.5q-57 0 -98.5 -24.5t-67.5 -64.5t-38.5 -89.5t-12.5 -99.5q0 -51 12.5 -100t38.5 -89zM217 16q-42 20 -73 52t-52 73t-31 89.5t-10 102.5q0 69 18.5 131.5
t56 109.5t94 75t131.5 28q77 0 133.5 -27t93.5 -74t55 -109.5t18 -133.5q0 -69 -18.5 -131.5t-56 -110t-94 -75t-131.5 -27.5q-77 0 -134 27zM328 724l-97 136h85l71 -136h-59z" />
    <glyph glyph-name="Oacute" unicode="&#xd3;" horiz-adv-x="701" 
d="M185 144q27 -40 68 -64.5t98 -24.5q58 0 99.5 24.5t67 64t37.5 89t12 100.5t-12 100.5t-37.5 89t-67 64t-99.5 24.5q-57 0 -98.5 -24.5t-67.5 -64.5t-38.5 -89.5t-12.5 -99.5q0 -51 12.5 -100t38.5 -89zM217 16q-42 20 -73 52t-52 73t-31 89.5t-10 102.5q0 69 18.5 131.5
t56 109.5t94 75t131.5 28q77 0 133.5 -27t93.5 -74t55 -109.5t18 -133.5q0 -69 -18.5 -131.5t-56 -110t-94 -75t-131.5 -27.5q-77 0 -134 27zM313 724l72 136h85l-96 -136h-61z" />
    <glyph glyph-name="Ocircumflex" unicode="&#xd4;" horiz-adv-x="701" 
d="M185 144q27 -40 68 -64.5t98 -24.5q58 0 99.5 24.5t67 64t37.5 89t12 100.5t-12 100.5t-37.5 89t-67 64t-99.5 24.5q-57 0 -98.5 -24.5t-67.5 -64.5t-38.5 -89.5t-12.5 -99.5q0 -51 12.5 -100t38.5 -89zM217 16q-42 20 -73 52t-52 73t-31 89.5t-10 102.5q0 69 18.5 131.5
t56 109.5t94 75t131.5 28q77 0 133.5 -27t93.5 -74t55 -109.5t18 -133.5q0 -69 -18.5 -131.5t-56 -110t-94 -75t-131.5 -27.5q-77 0 -134 27zM210 724l103 136h74l103 -136h-65l-75 96l-75 -96h-65z" />
    <glyph glyph-name="Otilde" unicode="&#xd5;" horiz-adv-x="701" 
d="M185 144q27 -40 68 -64.5t98 -24.5q58 0 99.5 24.5t67 64t37.5 89t12 100.5t-12 100.5t-37.5 89t-67 64t-99.5 24.5q-57 0 -98.5 -24.5t-67.5 -64.5t-38.5 -89.5t-12.5 -99.5q0 -51 12.5 -100t38.5 -89zM217 16q-42 20 -73 52t-52 73t-31 89.5t-10 102.5q0 69 18.5 131.5
t56 109.5t94 75t131.5 28q77 0 133.5 -27t93.5 -74t55 -109.5t18 -133.5q0 -69 -18.5 -131.5t-56 -110t-94 -75t-131.5 -27.5q-77 0 -134 27zM204 738q0 18 6 35.5t17.5 32t28 23.5t37.5 9q18 0 34 -6.5t30.5 -14t27.5 -14t25 -6.5q19 0 29 15.5t10 29.5h47q0 -16 -6 -33.5
t-17 -32t-27 -24t-35 -9.5t-34 6t-28.5 13.5t-26.5 14t-27 6.5q-18 0 -30.5 -15t-12.5 -30h-48z" />
    <glyph glyph-name="Odieresis" unicode="&#xd6;" horiz-adv-x="701" 
d="M185 144q27 -40 68 -64.5t98 -24.5q58 0 99.5 24.5t67 64t37.5 89t12 100.5t-12 100.5t-37.5 89t-67 64t-99.5 24.5q-57 0 -98.5 -24.5t-67.5 -64.5t-38.5 -89.5t-12.5 -99.5q0 -51 12.5 -100t38.5 -89zM217 16q-42 20 -73 52t-52 73t-31 89.5t-10 102.5q0 69 18.5 131.5
t56 109.5t94 75t131.5 28q77 0 133.5 -27t93.5 -74t55 -109.5t18 -133.5q0 -69 -18.5 -131.5t-56 -110t-94 -75t-131.5 -27.5q-77 0 -134 27zM395 748v87h66v-87h-66zM240 748v87h66v-87h-66z" />
    <glyph glyph-name="multiply" unicode="&#xd7;" horiz-adv-x="542" 
d="M34 52l193 192l-193 193l44 45l193 -194l193 193l45 -44l-193 -193l193 -192l-45 -45l-192 194l-193 -193z" />
    <glyph glyph-name="Oslash" unicode="&#xd8;" horiz-adv-x="701" 
d="M204 123q26 -30 63 -49t86 -19q58 0 99.5 24.5t67 64t37.5 89t12 100.5q0 45 -9.5 88t-30.5 79zM501 547q-26 29 -62.5 46.5t-85.5 17.5q-57 0 -98.5 -24.5t-67.5 -64.5t-38.5 -89.5t-12.5 -99.5q0 -43 10 -85.5t30 -78.5zM35 10l80 93q-32 46 -47 105t-15 125
q0 69 18.5 131.5t56 109.5t94 75t131.5 28q66 0 115 -19t85 -53l74 86l40 -35l-78 -90q33 -46 48.5 -106t15.5 -127q0 -69 -18.5 -131.5t-56 -110t-94 -75t-131.5 -27.5q-66 0 -116.5 19.5t-86.5 54.5l-76 -88z" />
    <glyph glyph-name="Ugrave" unicode="&#xd9;" horiz-adv-x="650" 
d="M156 236q0 -81 42.5 -130t126.5 -49t127 49t43 130v431h79v-431q0 -57 -17.5 -102.5t-50 -78t-78.5 -49.5t-103 -17t-103 17t-78.5 48.5t-49.5 77.5t-17 103v432h79v-431zM315 724l-97 136h85l71 -136h-59z" />
    <glyph glyph-name="Uacute" unicode="&#xda;" horiz-adv-x="650" 
d="M156 236q0 -81 42.5 -130t126.5 -49t127 49t43 130v431h79v-431q0 -57 -17.5 -102.5t-50 -78t-78.5 -49.5t-103 -17t-103 17t-78.5 48.5t-49.5 77.5t-17 103v432h79v-431zM275 724l72 136h85l-96 -136h-61z" />
    <glyph glyph-name="Ucircumflex" unicode="&#xdb;" horiz-adv-x="650" 
d="M156 236q0 -81 42.5 -130t126.5 -49t127 49t43 130v431h79v-431q0 -57 -17.5 -102.5t-50 -78t-78.5 -49.5t-103 -17t-103 17t-78.5 48.5t-49.5 77.5t-17 103v432h79v-431zM185 724l103 136h74l103 -136h-65l-75 96l-75 -96h-65z" />
    <glyph glyph-name="Udieresis" unicode="&#xdc;" horiz-adv-x="650" 
d="M156 236q0 -81 42.5 -130t126.5 -49t127 49t43 130v431h79v-431q0 -57 -17.5 -102.5t-50 -78t-78.5 -49.5t-103 -17t-103 17t-78.5 48.5t-49.5 77.5t-17 103v432h79v-431zM370 748v87h66v-87h-66zM215 748v87h66v-87h-66z" />
    <glyph glyph-name="Yacute" unicode="&#xdd;" horiz-adv-x="576" 
d="M248 0v278l-246 389h88l200 -325l200 325h85l-248 -389v-278h-79zM247 724l72 136h85l-96 -136h-61z" />
    <glyph glyph-name="Thorn" unicode="&#xde;" horiz-adv-x="508" 
d="M163 210h51q36 0 69 4t58.5 17.5t41 39t15.5 69.5q0 63 -38 95.5t-99 32.5h-98v-258zM85 0v667h79v-135h103q45 0 84 -12t67.5 -36t45 -60t16.5 -83q0 -51 -18.5 -87.5t-49 -60.5t-70 -35.5t-81.5 -11.5h-97v-146h-79z" />
    <glyph glyph-name="germandbls" unicode="&#xdf;" horiz-adv-x="550" 
d="M73 0v487q0 47 13 91t40 78t69 54.5t101 20.5q91 0 139.5 -47t48.5 -147q0 -14 -1.5 -35t-4.5 -38q-32 0 -61 -2.5t-52 -11t-36.5 -25.5t-13.5 -45q0 -23 15 -39.5t37.5 -30.5t49 -29t49 -34.5t37.5 -47t15 -66.5t-14.5 -66.5t-38 -44.5t-53.5 -25t-61 -8
q-26 0 -54.5 4.5t-60.5 15.5l6 65q26 -13 52.5 -19.5t56.5 -6.5q40 0 66 20.5t26 62.5q0 30 -15 50t-37 35t-48 28.5t-48 31t-37 41.5t-15 60t13 61.5t35.5 42t53 24.5t65.5 10q2 7 2.5 16.5t0.5 17.5q0 53 -27 87.5t-90 34.5q-45 0 -74 -17t-46 -43.5t-23.5 -59.5t-6.5 -64
v-487h-73z" />
    <glyph glyph-name="agrave" unicode="&#xe0;" horiz-adv-x="493" 
d="M355 0l-3 80q-22 -48 -64.5 -69.5t-90.5 -21.5q-33 0 -63 9t-52 27t-35 46t-13 66q0 48 20 80t54.5 51t81.5 27t102 8h56v24q0 57 -25 90t-87 33q-77 0 -141 -42l-6 65q32 16 73.5 25.5t76.5 9.5q94 0 137.5 -46t43.5 -140v-216q0 -28 1 -54t5 -52h-71zM311 250
q-35 0 -71 -3t-65 -14.5t-47.5 -33.5t-18.5 -59q0 -25 8 -42.5t21.5 -28.5t31 -16t35.5 -5q40 0 67 14t44 37.5t24.5 54.5t7.5 66v30h-37zM225 585l-97 136h85l71 -136h-59z" />
    <glyph glyph-name="aacute" unicode="&#xe1;" horiz-adv-x="493" 
d="M355 0l-3 80q-22 -48 -64.5 -69.5t-90.5 -21.5q-33 0 -63 9t-52 27t-35 46t-13 66q0 48 20 80t54.5 51t81.5 27t102 8h56v24q0 57 -25 90t-87 33q-77 0 -141 -42l-6 65q32 16 73.5 25.5t76.5 9.5q94 0 137.5 -46t43.5 -140v-216q0 -28 1 -54t5 -52h-71zM311 250
q-35 0 -71 -3t-65 -14.5t-47.5 -33.5t-18.5 -59q0 -25 8 -42.5t21.5 -28.5t31 -16t35.5 -5q40 0 67 14t44 37.5t24.5 54.5t7.5 66v30h-37zM196 586l72 136h85l-96 -136h-61z" />
    <glyph glyph-name="acircumflex" unicode="&#xe2;" horiz-adv-x="493" 
d="M355 0l-3 80q-22 -48 -64.5 -69.5t-90.5 -21.5q-33 0 -63 9t-52 27t-35 46t-13 66q0 48 20 80t54.5 51t81.5 27t102 8h56v24q0 57 -25 90t-87 33q-77 0 -141 -42l-6 65q32 16 73.5 25.5t76.5 9.5q94 0 137.5 -46t43.5 -140v-216q0 -28 1 -54t5 -52h-71zM311 250
q-35 0 -71 -3t-65 -14.5t-47.5 -33.5t-18.5 -59q0 -25 8 -42.5t21.5 -28.5t31 -16t35.5 -5q40 0 67 14t44 37.5t24.5 54.5t7.5 66v30h-37zM103 585l103 136h74l103 -136h-65l-75 96l-75 -96h-65z" />
    <glyph glyph-name="atilde" unicode="&#xe3;" horiz-adv-x="493" 
d="M355 0l-3 80q-22 -48 -64.5 -69.5t-90.5 -21.5q-33 0 -63 9t-52 27t-35 46t-13 66q0 48 20 80t54.5 51t81.5 27t102 8h56v24q0 57 -25 90t-87 33q-77 0 -141 -42l-6 65q32 16 73.5 25.5t76.5 9.5q94 0 137.5 -46t43.5 -140v-216q0 -28 1 -54t5 -52h-71zM311 250
q-35 0 -71 -3t-65 -14.5t-47.5 -33.5t-18.5 -59q0 -25 8 -42.5t21.5 -28.5t31 -16t35.5 -5q40 0 67 14t44 37.5t24.5 54.5t7.5 66v30h-37zM102 599q0 18 6 35.5t17.5 32t28 23.5t37.5 9q18 0 34 -6.5t30.5 -14t27.5 -14t25 -6.5q19 0 29 15.5t10 29.5h47q0 -16 -6 -33.5
t-17 -32t-27 -24t-35 -9.5t-34 6t-28.5 13.5t-26.5 14t-27 6.5q-18 0 -30.5 -15t-12.5 -30h-48z" />
    <glyph glyph-name="adieresis" unicode="&#xe4;" horiz-adv-x="493" 
d="M355 0l-3 80q-22 -48 -64.5 -69.5t-90.5 -21.5q-33 0 -63 9t-52 27t-35 46t-13 66q0 48 20 80t54.5 51t81.5 27t102 8h56v24q0 57 -25 90t-87 33q-77 0 -141 -42l-6 65q32 16 73.5 25.5t76.5 9.5q94 0 137.5 -46t43.5 -140v-216q0 -28 1 -54t5 -52h-71zM311 250
q-35 0 -71 -3t-65 -14.5t-47.5 -33.5t-18.5 -59q0 -25 8 -42.5t21.5 -28.5t31 -16t35.5 -5q40 0 67 14t44 37.5t24.5 54.5t7.5 66v30h-37zM132 609v87h66v-87h-66zM287 609v87h66v-87h-66z" />
    <glyph glyph-name="aring" unicode="&#xe5;" horiz-adv-x="493" 
d="M355 0l-3 80q-22 -48 -64.5 -69.5t-90.5 -21.5q-33 0 -63 9t-52 27t-35 46t-13 66q0 48 20 80t54.5 51t81.5 27t102 8h56v24q0 57 -25 90t-87 33q-77 0 -141 -42l-6 65q32 16 73.5 25.5t76.5 9.5q94 0 137.5 -46t43.5 -140v-216q0 -28 1 -54t5 -52h-71zM311 250
q-35 0 -71 -3t-65 -14.5t-47.5 -33.5t-18.5 -59q0 -25 8 -42.5t21.5 -28.5t31 -16t35.5 -5q40 0 67 14t44 37.5t24.5 54.5t7.5 66v30h-37zM180 653q0 -25 17.5 -42t41.5 -17q25 0 42.5 17t17.5 42q0 24 -17.5 41t-42.5 17t-42 -17t-17 -41zM202 567q-26 11 -42 34t-16 52
q0 39 28 65.5t67 26.5q19 0 36.5 -7t31 -19.5t21 -29.5t7.5 -36q0 -20 -7.5 -36.5t-21 -29.5t-31 -20t-36.5 -7q-22 0 -37 7z" />
    <glyph glyph-name="ae" unicode="&#xe6;" horiz-adv-x="790" 
d="M331 240q-45 0 -85 -3.5t-70.5 -14.5t-48.5 -32t-18 -56q0 -26 9.5 -43t23.5 -26.5t31 -13t31 -3.5q37 0 64.5 12.5t44.5 35t25.5 52t8.5 64.5v28h-16zM88 473q32 15 72 25t78 10q121 0 157 -87q27 42 69.5 64.5t91.5 22.5q58 0 96 -21.5t60 -57t30.5 -82t8.5 -95.5v-12
h-336q0 -36 9 -70.5t29 -61.5t53 -43.5t80 -16.5q36 0 70.5 10t62.5 28l3 -65q-67 -32 -136 -32q-34 0 -65 6.5t-58 20t-48 34t-34 47.5q-27 -51 -74.5 -79.5t-110.5 -28.5q-29 0 -58 7.5t-52 24t-37.5 43.5t-14.5 67q0 49 23 81t61.5 50t87.5 25t100 7h41v33q0 57 -25 90
t-86 33q-78 0 -142 -42zM680 294q-2 25 -8 53t-19.5 50.5t-36.5 37.5t-59 15t-62 -14.5t-43.5 -37t-26.5 -50t-10 -54.5h265z" />
    <glyph glyph-name="ccedilla" unicode="&#xe7;" horiz-adv-x="443" 
d="M184 -126q39 -17 74 -17q20 0 35 8.5t15 25.5t-12.5 23t-26.5 6q-19 0 -39 -7l-15 18l42 59q-52 4 -92 26t-67 57t-41 80.5t-14 97.5q0 55 17 102.5t48.5 81.5t77 53.5t102.5 19.5q31 0 62 -5.5t60 -15.5l-6 -65q-24 11 -50.5 18t-53.5 7q-45 0 -78.5 -15t-56 -41
t-33.5 -62t-11 -78q0 -39 11 -75.5t33 -64.5t54.5 -44.5t75.5 -16.5q56 0 110 23l5 -65q-28 -8 -57 -13t-60 -6l-31 -42l16.5 3t15.5 1q29 0 47.5 -15t18.5 -42q0 -34 -27.5 -54t-73.5 -20q-23 0 -43 4t-45 15z" />
    <glyph glyph-name="egrave" unicode="&#xe8;" horiz-adv-x="491" 
d="M117 240q0 -36 10 -70.5t31 -61.5t54.5 -43.5t80.5 -16.5q36 0 72.5 10t64.5 28l3 -65q-32 -16 -68.5 -24t-71.5 -8q-65 0 -112 20t-78.5 55t-46.5 83t-15 104q0 48 13.5 94t41.5 82t69.5 58.5t97.5 22.5q58 0 96.5 -21.5t61 -57t32 -82t9.5 -95.5v-12h-345zM391 294
q-2 25 -8.5 53t-20.5 50.5t-38 37.5t-60 15t-63 -14.5t-45 -37t-28 -50t-11 -54.5h274zM238 585l-97 136h85l71 -136h-59z" />
    <glyph glyph-name="eacute" unicode="&#xe9;" horiz-adv-x="491" 
d="M117 240q0 -36 10 -70.5t31 -61.5t54.5 -43.5t80.5 -16.5q36 0 72.5 10t64.5 28l3 -65q-32 -16 -68.5 -24t-71.5 -8q-65 0 -112 20t-78.5 55t-46.5 83t-15 104q0 48 13.5 94t41.5 82t69.5 58.5t97.5 22.5q58 0 96.5 -21.5t61 -57t32 -82t9.5 -95.5v-12h-345zM391 294
q-2 25 -8.5 53t-20.5 50.5t-38 37.5t-60 15t-63 -14.5t-45 -37t-28 -50t-11 -54.5h274zM208 585l72 136h85l-96 -136h-61z" />
    <glyph glyph-name="ecircumflex" unicode="&#xea;" horiz-adv-x="491" 
d="M117 240q0 -36 10 -70.5t31 -61.5t54.5 -43.5t80.5 -16.5q36 0 72.5 10t64.5 28l3 -65q-32 -16 -68.5 -24t-71.5 -8q-65 0 -112 20t-78.5 55t-46.5 83t-15 104q0 48 13.5 94t41.5 82t69.5 58.5t97.5 22.5q58 0 96.5 -21.5t61 -57t32 -82t9.5 -95.5v-12h-345zM391 294
q-2 25 -8.5 53t-20.5 50.5t-38 37.5t-60 15t-63 -14.5t-45 -37t-28 -50t-11 -54.5h274zM113 585l103 136h74l103 -136h-65l-75 96l-75 -96h-65z" />
    <glyph glyph-name="edieresis" unicode="&#xeb;" horiz-adv-x="491" 
d="M117 240q0 -36 10 -70.5t31 -61.5t54.5 -43.5t80.5 -16.5q36 0 72.5 10t64.5 28l3 -65q-32 -16 -68.5 -24t-71.5 -8q-65 0 -112 20t-78.5 55t-46.5 83t-15 104q0 48 13.5 94t41.5 82t69.5 58.5t97.5 22.5q58 0 96.5 -21.5t61 -57t32 -82t9.5 -95.5v-12h-345zM391 294
q-2 25 -8.5 53t-20.5 50.5t-38 37.5t-60 15t-63 -14.5t-45 -37t-28 -50t-11 -54.5h274zM143 609v87h66v-87h-66zM298 609v87h66v-87h-66z" />
    <glyph glyph-name="igrave" unicode="&#xec;" horiz-adv-x="218" 
d="M73 0v498h73v-498h-73zM95 585l-97 136h85l71 -136h-59z" />
    <glyph glyph-name="iacute" unicode="&#xed;" horiz-adv-x="218" 
d="M73 0v498h73v-498h-73zM62 585l72 136h85l-96 -136h-61z" />
    <glyph glyph-name="icircumflex" unicode="&#xee;" horiz-adv-x="218" 
d="M73 0v498h73v-498h-73zM-31 585l103 136h74l103 -136h-65l-75 96l-75 -96h-65z" />
    <glyph glyph-name="idieresis" unicode="&#xef;" horiz-adv-x="218" 
d="M73 0v498h73v-498h-73zM-1 609v87h66v-87h-66zM154 609v87h66v-87h-66z" />
    <glyph glyph-name="eth" unicode="&#xf0;" horiz-adv-x="551" 
d="M158 110q19 -27 47.5 -43.5t70.5 -16.5q41 0 70.5 16.5t48 43.5t27.5 62t9 72t-8.5 71.5t-27 61t-48 42.5t-71.5 16q-41 0 -70.5 -16t-48 -43t-27.5 -61.5t-9 -70.5q0 -37 9 -72t28 -62zM205 540l-32 41l93 55q-26 17 -62 30t-67 20l34 45q37 -5 79 -22.5t73 -37.5
l101 60l32 -41l-85 -51q40 -36 66.5 -78t42.5 -87.5t22.5 -94t6.5 -97.5q0 -60 -14 -113.5t-42.5 -93.5t-72.5 -63t-105 -23q-57 0 -100.5 19.5t-73 53.5t-44 81t-14.5 101q0 52 14.5 98t43.5 80.5t71.5 54t98.5 19.5q94 0 155 -76q-13 54 -41.5 102t-71.5 82z" />
    <glyph glyph-name="ntilde" unicode="&#xf1;" horiz-adv-x="539" 
d="M73 0v381q0 29 -1 58.5t-4 58.5h67l3 -86q52 96 161 96q48 0 80 -15t51.5 -41.5t27.5 -63t8 -79.5v-309h-72v295q0 30 -4 57t-16 48t-34 33.5t-58 12.5q-39 0 -65 -15.5t-42 -40.5t-22.5 -57t-6.5 -65v-268h-73zM126 599q0 18 6 35.5t17.5 32t28 23.5t37.5 9
q18 0 34 -6.5t30.5 -14t27.5 -14t25 -6.5q19 0 29 15.5t10 29.5h47q0 -16 -6 -33.5t-17 -32t-27 -24t-35 -9.5t-34 6t-28.5 13.5t-26.5 14t-27 6.5q-18 0 -30.5 -15t-12.5 -30h-48z" />
    <glyph glyph-name="ograve" unicode="&#xf2;" horiz-adv-x="551" 
d="M157 114q19 -28 48 -46t71 -18q41 0 70.5 18t48 46.5t27.5 64.5t9 72q0 37 -8.5 72.5t-27 63t-48 44t-71.5 16.5q-41 0 -70.5 -17t-48.5 -45t-27.5 -63t-8.5 -71t8.5 -72t27.5 -65zM174 9q-66 32 -98.5 96t-32.5 146q0 54 15.5 100.5t45.5 81.5t73 55t99 20
q58 0 102 -19.5t73 -54t43.5 -81.5t14.5 -102q0 -54 -15 -101.5t-44 -83.5t-72.5 -56.5t-101.5 -20.5q-57 0 -102 20zM260 585l-97 136h85l71 -136h-59z" />
    <glyph glyph-name="oacute" unicode="&#xf3;" horiz-adv-x="551" 
d="M157 114q19 -28 48 -46t71 -18q41 0 70.5 18t48 46.5t27.5 64.5t9 72q0 37 -8.5 72.5t-27 63t-48 44t-71.5 16.5q-41 0 -70.5 -17t-48.5 -45t-27.5 -63t-8.5 -71t8.5 -72t27.5 -65zM174 9q-66 32 -98.5 96t-32.5 146q0 54 15.5 100.5t45.5 81.5t73 55t99 20
q58 0 102 -19.5t73 -54t43.5 -81.5t14.5 -102q0 -54 -15 -101.5t-44 -83.5t-72.5 -56.5t-101.5 -20.5q-57 0 -102 20zM230 585l72 136h85l-96 -136h-61z" />
    <glyph glyph-name="ocircumflex" unicode="&#xf4;" horiz-adv-x="551" 
d="M157 114q19 -28 48 -46t71 -18q41 0 70.5 18t48 46.5t27.5 64.5t9 72q0 37 -8.5 72.5t-27 63t-48 44t-71.5 16.5q-41 0 -70.5 -17t-48.5 -45t-27.5 -63t-8.5 -71t8.5 -72t27.5 -65zM174 9q-66 32 -98.5 96t-32.5 146q0 54 15.5 100.5t45.5 81.5t73 55t99 20
q58 0 102 -19.5t73 -54t43.5 -81.5t14.5 -102q0 -54 -15 -101.5t-44 -83.5t-72.5 -56.5t-101.5 -20.5q-57 0 -102 20zM135 585l103 136h74l103 -136h-65l-75 96l-75 -96h-65z" />
    <glyph glyph-name="otilde" unicode="&#xf5;" horiz-adv-x="551" 
d="M157 114q19 -28 48 -46t71 -18q41 0 70.5 18t48 46.5t27.5 64.5t9 72q0 37 -8.5 72.5t-27 63t-48 44t-71.5 16.5q-41 0 -70.5 -17t-48.5 -45t-27.5 -63t-8.5 -71t8.5 -72t27.5 -65zM174 9q-66 32 -98.5 96t-32.5 146q0 54 15.5 100.5t45.5 81.5t73 55t99 20
q58 0 102 -19.5t73 -54t43.5 -81.5t14.5 -102q0 -54 -15 -101.5t-44 -83.5t-72.5 -56.5t-101.5 -20.5q-57 0 -102 20zM129 599q0 18 6 35.5t17.5 32t28 23.5t37.5 9q18 0 34 -6.5t30.5 -14t27.5 -14t25 -6.5q19 0 29 15.5t10 29.5h47q0 -16 -6 -33.5t-17 -32t-27 -24
t-35 -9.5t-34 6t-28.5 13.5t-26.5 14t-27 6.5q-18 0 -30.5 -15t-12.5 -30h-48z" />
    <glyph glyph-name="odieresis" unicode="&#xf6;" horiz-adv-x="551" 
d="M157 114q19 -28 48 -46t71 -18q41 0 70.5 18t48 46.5t27.5 64.5t9 72q0 37 -8.5 72.5t-27 63t-48 44t-71.5 16.5q-41 0 -70.5 -17t-48.5 -45t-27.5 -63t-8.5 -71t8.5 -72t27.5 -65zM174 9q-66 32 -98.5 96t-32.5 146q0 54 15.5 100.5t45.5 81.5t73 55t99 20
q58 0 102 -19.5t73 -54t43.5 -81.5t14.5 -102q0 -54 -15 -101.5t-44 -83.5t-72.5 -56.5t-101.5 -20.5q-57 0 -102 20zM165 609v87h66v-87h-66zM320 609v87h66v-87h-66z" />
    <glyph glyph-name="divide" unicode="&#xf7;" horiz-adv-x="542" 
d="M271 11q-22 0 -36.5 15.5t-14.5 37.5t15 37t36 15q22 0 37 -15t15 -37t-15 -37.5t-37 -15.5zM20 214v60h503v-60h-503zM271 372q-21 0 -36 15t-15 37t14.5 37.5t36.5 15.5t37 -15.5t15 -37.5t-15 -37t-37 -15z" />
    <glyph glyph-name="oslash" unicode="&#xf8;" horiz-adv-x="551" 
d="M27 -1l67 77q-26 35 -38 79.5t-12 95.5q0 54 15 100.5t44.5 81.5t73 55t100.5 20q48 0 85.5 -13t66.5 -38l59 68l37 -27l-64 -74q25 -34 37 -78t12 -95q0 -54 -15 -101.5t-44 -83.5t-72.5 -56.5t-101.5 -20.5q-48 0 -86 14.5t-66 39.5l-61 -71zM382 405q-37 42 -105 42
q-41 0 -70.5 -17t-48.5 -45t-27.5 -63t-8.5 -71q0 -30 5.5 -61.5t21.5 -56.5zM172 97q18 -22 44 -34.5t61 -12.5q41 0 70.5 17.5t48 46t27.5 64.5t9 73q0 32 -5.5 62t-19.5 55z" />
    <glyph glyph-name="ugrave" unicode="&#xf9;" horiz-adv-x="535" 
d="M144 203q0 -30 4 -57t15.5 -48t33 -33.5t57.5 -12.5q39 0 65 15.5t42 40.5t22.5 57t6.5 65v268h72v-381q0 -29 1 -58.5t4 -58.5h-67l-2 86q-53 -97 -161 -97q-48 0 -79.5 15t-51 42t-27.5 63.5t-8 80.5v308h73v-295zM253 585l-97 136h85l71 -136h-59z" />
    <glyph glyph-name="uacute" unicode="&#xfa;" horiz-adv-x="535" 
d="M144 203q0 -30 4 -57t15.5 -48t33 -33.5t57.5 -12.5q39 0 65 15.5t42 40.5t22.5 57t6.5 65v268h72v-381q0 -29 1 -58.5t4 -58.5h-67l-2 86q-53 -97 -161 -97q-48 0 -79.5 15t-51 42t-27.5 63.5t-8 80.5v308h73v-295zM223 585l72 136h85l-96 -136h-61z" />
    <glyph glyph-name="ucircumflex" unicode="&#xfb;" horiz-adv-x="535" 
d="M144 203q0 -30 4 -57t15.5 -48t33 -33.5t57.5 -12.5q39 0 65 15.5t42 40.5t22.5 57t6.5 65v268h72v-381q0 -29 1 -58.5t4 -58.5h-67l-2 86q-53 -97 -161 -97q-48 0 -79.5 15t-51 42t-27.5 63.5t-8 80.5v308h73v-295zM128 585l103 136h74l103 -136h-65l-75 96l-75 -96h-65
z" />
    <glyph glyph-name="udieresis" unicode="&#xfc;" horiz-adv-x="535" 
d="M144 203q0 -30 4 -57t15.5 -48t33 -33.5t57.5 -12.5q39 0 65 15.5t42 40.5t22.5 57t6.5 65v268h72v-381q0 -29 1 -58.5t4 -58.5h-67l-2 86q-53 -97 -161 -97q-48 0 -79.5 15t-51 42t-27.5 63.5t-8 80.5v308h73v-295zM157 609v87h66v-87h-66zM312 609v87h66v-87h-66z" />
    <glyph glyph-name="yacute" unicode="&#xfd;" horiz-adv-x="444" 
d="M37 -156q11 -4 22 -6.5t23 -2.5q21 0 36.5 13t26.5 31.5t18.5 38t11.5 32.5l10 33l-173 515h79l134 -429l133 429h76l-200 -585q-10 -29 -23 -54.5t-30 -44.5t-39.5 -30t-50.5 -11q-18 0 -30.5 2t-29.5 6zM191 585l72 136h85l-96 -136h-61z" />
    <glyph glyph-name="thorn" unicode="&#xfe;" horiz-adv-x="543" 
d="M173 118q17 -29 44 -48t67 -19q42 0 68.5 18.5t42 47.5t21.5 64.5t6 69.5t-5.5 69t-21 63t-42.5 45.5t-69 17.5q-39 0 -66 -18t-43.5 -46.5t-24 -63t-7.5 -67.5t7 -68t23 -65zM73 -216v937h73v-307q19 45 62 69.5t91 24.5q57 0 95.5 -21.5t62.5 -57.5t34 -82.5t10 -95.5
q0 -48 -11 -95t-35 -84t-63 -60t-94 -23q-49 0 -91 23.5t-61 68.5v-297h-73z" />
    <glyph glyph-name="ydieresis" unicode="&#xff;" horiz-adv-x="444" 
d="M37 -156q11 -4 22 -6.5t23 -2.5q21 0 36.5 13t26.5 31.5t18.5 38t11.5 32.5l10 33l-173 515h79l134 -429l133 429h76l-200 -585q-10 -29 -23 -54.5t-30 -44.5t-39.5 -30t-50.5 -11q-18 0 -30.5 2t-29.5 6zM116 609v87h66v-87h-66zM271 609v87h66v-87h-66z" />
    <glyph glyph-name="Amacron" unicode="&#x100;" horiz-adv-x="634" 
d="M175 245h280l-139 358zM4 0l266 667h93l267 -667h-82l-69 181h-327l-71 -181h-77zM195 767v51h245v-51h-245z" />
    <glyph glyph-name="amacron" unicode="&#x101;" horiz-adv-x="493" 
d="M355 0l-3 80q-22 -48 -64.5 -69.5t-90.5 -21.5q-33 0 -63 9t-52 27t-35 46t-13 66q0 48 20 80t54.5 51t81.5 27t102 8h56v24q0 57 -25 90t-87 33q-77 0 -141 -42l-6 65q32 16 73.5 25.5t76.5 9.5q94 0 137.5 -46t43.5 -140v-216q0 -28 1 -54t5 -52h-71zM311 250
q-35 0 -71 -3t-65 -14.5t-47.5 -33.5t-18.5 -59q0 -25 8 -42.5t21.5 -28.5t31 -16t35.5 -5q40 0 67 14t44 37.5t24.5 54.5t7.5 66v30h-37zM120 628v51h245v-51h-245z" />
    <glyph glyph-name="Abreve" unicode="&#x102;" horiz-adv-x="634" 
d="M175 245h280l-139 358zM4 0l266 667h93l267 -667h-82l-69 181h-327l-71 -181h-77zM240 849q3 -30 22.5 -50.5t53.5 -20.5t53.5 20.5t23.5 50.5h43q0 -11 -5 -30.5t-18.5 -38.5t-36.5 -33.5t-60 -14.5q-36 0 -59.5 14.5t-36.5 33.5t-18 38.5t-5 30.5h43z" />
    <glyph glyph-name="abreve" unicode="&#x103;" horiz-adv-x="493" 
d="M355 0l-3 80q-22 -48 -64.5 -69.5t-90.5 -21.5q-33 0 -63 9t-52 27t-35 46t-13 66q0 48 20 80t54.5 51t81.5 27t102 8h56v24q0 57 -25 90t-87 33q-77 0 -141 -42l-6 65q32 16 73.5 25.5t76.5 9.5q94 0 137.5 -46t43.5 -140v-216q0 -28 1 -54t5 -52h-71zM311 250
q-35 0 -71 -3t-65 -14.5t-47.5 -33.5t-18.5 -59q0 -25 8 -42.5t21.5 -28.5t31 -16t35.5 -5q40 0 67 14t44 37.5t24.5 54.5t7.5 66v30h-37zM166 710q3 -30 22.5 -50.5t53.5 -20.5t53.5 20.5t23.5 50.5h43q0 -11 -5 -30.5t-18.5 -38.5t-36.5 -33.5t-60 -14.5q-36 0 -59.5 14.5
t-36.5 33.5t-18 38.5t-5 30.5h43z" />
    <glyph glyph-name="Aogonek" unicode="&#x104;" horiz-adv-x="634" 
d="M4 0l266 667h93l267 -667h-26q-38 -22 -55.5 -45.5t-17.5 -47.5q0 -26 16 -36.5t33 -10.5q16 0 29 3.5t30 11.5l11 -35q-18 -9 -36.5 -14.5t-44.5 -5.5q-43 0 -67.5 22.5t-24.5 53.5q0 70 79 104h-8l-69 181h-327l-71 -181h-77zM175 245h280l-139 358z" />
    <glyph glyph-name="aogonek" unicode="&#x105;" horiz-adv-x="493" 
d="M459 -160q-18 -9 -36.5 -14.5t-44.5 -5.5q-43 0 -67.5 22.5t-24.5 53.5q0 34 21.5 60.5t60.5 43.5h-13l-3 80q-22 -48 -64.5 -69.5t-90.5 -21.5q-33 0 -63 9t-52 27t-35 46t-13 66q0 48 20 80t54.5 51t81.5 27t102 8h56v24q0 57 -25 90t-87 33q-77 0 -141 -42l-6 65
q32 16 73.5 25.5t76.5 9.5q94 0 137.5 -46t43.5 -140v-216q0 -28 1 -54t5 -52h-13q-73 -45 -73 -93q0 -26 16 -36.5t33 -10.5q16 0 29 3.5t30 11.5zM311 250q-35 0 -71 -3t-65 -14.5t-47.5 -33.5t-18.5 -59q0 -25 8 -42.5t21.5 -28.5t31 -16t35.5 -5q40 0 67 14t44 37.5
t24.5 54.5t7.5 66v30h-37z" />
    <glyph glyph-name="Cacute" unicode="&#x106;" horiz-adv-x="589" 
d="M553 19q-33 -17 -77.5 -23.5t-81.5 -6.5q-79 0 -142.5 24.5t-108 69.5t-68.5 108.5t-24 141.5q0 75 25 138t70.5 108.5t108.5 71.5t139 26q36 0 80 -6t77 -20l-6 -71q-32 15 -72 22t-75 7q-62 0 -111 -21t-83 -58t-52 -87.5t-18 -109.5q0 -62 17.5 -112.5t51 -87
t82.5 -56.5t112 -20q38 0 76.5 6t73.5 23zM334 724l72 136h85l-96 -136h-61z" />
    <glyph glyph-name="cacute" unicode="&#x107;" horiz-adv-x="443" 
d="M410 8q-32 -11 -64 -15t-65 -4q-57 0 -101.5 20.5t-75 56t-46 83.5t-15.5 102q0 55 17 102.5t48.5 81.5t77 53.5t102.5 19.5q31 0 62 -5.5t60 -15.5l-6 -65q-24 11 -50.5 18t-53.5 7q-45 0 -78.5 -15t-56 -41t-33.5 -62t-11 -78q0 -39 11 -75.5t33 -64.5t54.5 -44.5
t75.5 -16.5q56 0 110 23zM227 585l72 136h85l-96 -136h-61z" />
    <glyph glyph-name="Ccircumflex" unicode="&#x108;" horiz-adv-x="589" 
d="M553 19q-33 -17 -77.5 -23.5t-81.5 -6.5q-79 0 -142.5 24.5t-108 69.5t-68.5 108.5t-24 141.5q0 75 25 138t70.5 108.5t108.5 71.5t139 26q36 0 80 -6t77 -20l-6 -71q-32 15 -72 22t-75 7q-62 0 -111 -21t-83 -58t-52 -87.5t-18 -109.5q0 -62 17.5 -112.5t51 -87
t82.5 -56.5t112 -20q38 0 76.5 6t73.5 23zM233 724l103 136h74l103 -136h-65l-75 96l-75 -96h-65z" />
    <glyph glyph-name="ccircumflex" unicode="&#x109;" horiz-adv-x="443" 
d="M410 8q-32 -11 -64 -15t-65 -4q-57 0 -101.5 20.5t-75 56t-46 83.5t-15.5 102q0 55 17 102.5t48.5 81.5t77 53.5t102.5 19.5q31 0 62 -5.5t60 -15.5l-6 -65q-24 11 -50.5 18t-53.5 7q-45 0 -78.5 -15t-56 -41t-33.5 -62t-11 -78q0 -39 11 -75.5t33 -64.5t54.5 -44.5
t75.5 -16.5q56 0 110 23zM134 585l103 136h74l103 -136h-65l-75 96l-75 -96h-65z" />
    <glyph glyph-name="Cdotaccent" unicode="&#x10a;" horiz-adv-x="589" 
d="M553 19q-33 -17 -77.5 -23.5t-81.5 -6.5q-79 0 -142.5 24.5t-108 69.5t-68.5 108.5t-24 141.5q0 75 25 138t70.5 108.5t108.5 71.5t139 26q36 0 80 -6t77 -20l-6 -71q-32 15 -72 22t-75 7q-62 0 -111 -21t-83 -58t-52 -87.5t-18 -109.5q0 -62 17.5 -112.5t51 -87
t82.5 -56.5t112 -20q38 0 76.5 6t73.5 23zM339 748v87h73v-87h-73z" />
    <glyph glyph-name="cdotaccent" unicode="&#x10b;" horiz-adv-x="443" 
d="M410 8q-32 -11 -64 -15t-65 -4q-57 0 -101.5 20.5t-75 56t-46 83.5t-15.5 102q0 55 17 102.5t48.5 81.5t77 53.5t102.5 19.5q31 0 62 -5.5t60 -15.5l-6 -65q-24 11 -50.5 18t-53.5 7q-45 0 -78.5 -15t-56 -41t-33.5 -62t-11 -78q0 -39 11 -75.5t33 -64.5t54.5 -44.5
t75.5 -16.5q56 0 110 23zM238 609v87h73v-87h-73z" />
    <glyph glyph-name="Ccaron" unicode="&#x10c;" horiz-adv-x="589" 
d="M553 19q-33 -17 -77.5 -23.5t-81.5 -6.5q-79 0 -142.5 24.5t-108 69.5t-68.5 108.5t-24 141.5q0 75 25 138t70.5 108.5t108.5 71.5t139 26q36 0 80 -6t77 -20l-6 -71q-32 15 -72 22t-75 7q-62 0 -111 -21t-83 -58t-52 -87.5t-18 -109.5q0 -62 17.5 -112.5t51 -87
t82.5 -56.5t112 -20q38 0 76.5 6t73.5 23zM341 724l-103 136h65l75 -97l75 97h65l-103 -136h-74z" />
    <glyph glyph-name="ccaron" unicode="&#x10d;" horiz-adv-x="443" 
d="M410 8q-32 -11 -64 -15t-65 -4q-57 0 -101.5 20.5t-75 56t-46 83.5t-15.5 102q0 55 17 102.5t48.5 81.5t77 53.5t102.5 19.5q31 0 62 -5.5t60 -15.5l-6 -65q-24 11 -50.5 18t-53.5 7q-45 0 -78.5 -15t-56 -41t-33.5 -62t-11 -78q0 -39 11 -75.5t33 -64.5t54.5 -44.5
t75.5 -16.5q56 0 110 23zM238 585l-103 136h65l75 -97l75 97h65l-103 -136h-74z" />
    <glyph glyph-name="Dcaron" unicode="&#x10e;" horiz-adv-x="651" 
d="M85 0v667h174q80 0 144 -20t108.5 -60.5t68.5 -101.5t24 -142q0 -89 -28.5 -153.5t-79.5 -106.5t-121 -62.5t-153 -20.5h-137zM164 65h56q70 0 126 16t95 50t59.5 86.5t20.5 125.5q0 127 -68.5 193t-196.5 66h-92v-537zM249 724l-103 136h65l75 -97l75 97h65l-103 -136
h-74z" />
    <glyph glyph-name="dcaron" unicode="&#x10f;" horiz-adv-x="543" 
d="M149 116q16 -28 42.5 -46.5t68.5 -18.5q40 0 66.5 19t43 48t23.5 64t7 68t-7.5 67.5t-24 63t-43.5 47t-66 18.5q-42 0 -69 -17.5t-42.5 -46t-21 -63.5t-5.5 -69t6 -69.5t22 -64.5zM408 0l-6 83q-24 -48 -64 -71t-92 -23q-56 0 -94.5 23t-62.5 60t-35 84t-11 95
q0 49 11 95.5t35.5 82.5t63.5 57.5t95 21.5q48 0 89.5 -24.5t60.5 -69.5v307h73v-563q0 -42 1.5 -80.5t3.5 -77.5h-68zM526 557l21 164h75l-43 -164h-53z" />
    <glyph glyph-name="Dcroat" unicode="&#x110;" horiz-adv-x="651" 
d="M85 0v305h-74v60h74v302h174q80 0 144 -20t108.5 -60.5t68.5 -101.5t24 -142q0 -89 -28.5 -153.5t-79.5 -106.5t-121 -62.5t-153 -20.5h-137zM164 65h56q70 0 126 16t95 50t59.5 86.5t20.5 125.5q0 127 -68.5 193t-196.5 66h-92v-237h176v-60h-176v-240z" />
    <glyph glyph-name="dcroat" unicode="&#x111;" horiz-adv-x="543" 
d="M149 116q16 -28 42.5 -46.5t68.5 -18.5q40 0 66.5 19t43 48t23.5 64t7 68t-7.5 67.5t-24 63t-43.5 47t-66 18.5q-42 0 -69 -17.5t-42.5 -46t-21 -63.5t-5.5 -69t6 -69.5t22 -64.5zM408 0l-6 83q-24 -48 -64 -71t-92 -23q-56 0 -94.5 23t-62.5 60t-35 84t-11 95
q0 49 11 95.5t35.5 82.5t63.5 57.5t95 21.5q48 0 89.5 -24.5t60.5 -69.5v176h-153v52h153v79h73v-79h85v-52h-85v-432q0 -42 1.5 -80.5t3.5 -77.5h-68z" />
    <glyph glyph-name="Emacron" unicode="&#x112;" horiz-adv-x="486" 
d="M85 0v667h344v-65h-265v-228h252v-63h-252v-246h276v-65h-355zM135 767v51h245v-51h-245z" />
    <glyph glyph-name="emacron" unicode="&#x113;" horiz-adv-x="491" 
d="M117 240q0 -36 10 -70.5t31 -61.5t54.5 -43.5t80.5 -16.5q36 0 72.5 10t64.5 28l3 -65q-32 -16 -68.5 -24t-71.5 -8q-65 0 -112 20t-78.5 55t-46.5 83t-15 104q0 48 13.5 94t41.5 82t69.5 58.5t97.5 22.5q58 0 96.5 -21.5t61 -57t32 -82t9.5 -95.5v-12h-345zM391 294
q-2 25 -8.5 53t-20.5 50.5t-38 37.5t-60 15t-63 -14.5t-45 -37t-28 -50t-11 -54.5h274zM130 628v51h245v-51h-245z" />
    <glyph glyph-name="Ebreve" unicode="&#x114;" horiz-adv-x="486" 
d="M85 0v667h344v-65h-265v-228h252v-63h-252v-246h276v-65h-355zM181 849q3 -30 22.5 -50.5t53.5 -20.5t53.5 20.5t23.5 50.5h43q0 -11 -5 -30.5t-18.5 -38.5t-36.5 -33.5t-60 -14.5q-36 0 -59.5 14.5t-36.5 33.5t-18 38.5t-5 30.5h43z" />
    <glyph glyph-name="ebreve" unicode="&#x115;" horiz-adv-x="491" 
d="M117 240q0 -36 10 -70.5t31 -61.5t54.5 -43.5t80.5 -16.5q36 0 72.5 10t64.5 28l3 -65q-32 -16 -68.5 -24t-71.5 -8q-65 0 -112 20t-78.5 55t-46.5 83t-15 104q0 48 13.5 94t41.5 82t69.5 58.5t97.5 22.5q58 0 96.5 -21.5t61 -57t32 -82t9.5 -95.5v-12h-345zM391 294
q-2 25 -8.5 53t-20.5 50.5t-38 37.5t-60 15t-63 -14.5t-45 -37t-28 -50t-11 -54.5h274zM178 710q3 -30 22.5 -50.5t53.5 -20.5t53.5 20.5t23.5 50.5h43q0 -11 -5 -30.5t-18.5 -38.5t-36.5 -33.5t-60 -14.5q-36 0 -59.5 14.5t-36.5 33.5t-18 38.5t-5 30.5h43z" />
    <glyph glyph-name="Edotaccent" unicode="&#x116;" horiz-adv-x="486" 
d="M85 0v667h344v-65h-265v-228h252v-63h-252v-246h276v-65h-355zM221 748v87h73v-87h-73z" />
    <glyph glyph-name="edotaccent" unicode="&#x117;" horiz-adv-x="491" 
d="M117 240q0 -36 10 -70.5t31 -61.5t54.5 -43.5t80.5 -16.5q36 0 72.5 10t64.5 28l3 -65q-32 -16 -68.5 -24t-71.5 -8q-65 0 -112 20t-78.5 55t-46.5 83t-15 104q0 48 13.5 94t41.5 82t69.5 58.5t97.5 22.5q58 0 96.5 -21.5t61 -57t32 -82t9.5 -95.5v-12h-345zM391 294
q-2 25 -8.5 53t-20.5 50.5t-38 37.5t-60 15t-63 -14.5t-45 -37t-28 -50t-11 -54.5h274zM218 609v87h73v-87h-73z" />
    <glyph glyph-name="Eogonek" unicode="&#x118;" horiz-adv-x="486" 
d="M85 0v667h344v-65h-265v-228h252v-63h-252v-246h276v-65h-48q-73 -45 -73 -93q0 -26 16 -36.5t33 -10.5q16 0 29 3.5t30 11.5l11 -35q-18 -9 -36.5 -14.5t-44.5 -5.5q-43 0 -67.5 22.5t-24.5 53.5q0 34 21.5 60.5t60.5 43.5h-262z" />
    <glyph glyph-name="eogonek" unicode="&#x119;" horiz-adv-x="491" 
d="M373 -160q-18 -9 -36.5 -14.5t-44.5 -5.5q-43 0 -67.5 22.5t-24.5 53.5q0 28 15.5 53t43.5 42q-56 5 -97 26.5t-68 56t-40 79.5t-13 98q0 48 13.5 94t41.5 82t69.5 58.5t97.5 22.5q58 0 96.5 -21.5t61 -57t32 -82t9.5 -95.5v-12h-345q0 -36 10 -70.5t31 -61.5t54.5 -43.5
t80.5 -16.5q36 0 72.5 10t64.5 28l3 -65q-60 -29 -126 -32q-53 -39 -53 -82q0 -26 16 -36.5t33 -10.5q16 0 29 3.5t30 11.5zM391 294q-2 25 -8.5 53t-20.5 50.5t-38 37.5t-60 15t-63 -14.5t-45 -37t-28 -50t-11 -54.5h274z" />
    <glyph glyph-name="Ecaron" unicode="&#x11a;" horiz-adv-x="486" 
d="M85 0v667h344v-65h-265v-228h252v-63h-252v-246h276v-65h-355zM219 724l-103 136h65l75 -97l75 97h65l-103 -136h-74z" />
    <glyph glyph-name="ecaron" unicode="&#x11b;" horiz-adv-x="491" 
d="M117 240q0 -36 10 -70.5t31 -61.5t54.5 -43.5t80.5 -16.5q36 0 72.5 10t64.5 28l3 -65q-32 -16 -68.5 -24t-71.5 -8q-65 0 -112 20t-78.5 55t-46.5 83t-15 104q0 48 13.5 94t41.5 82t69.5 58.5t97.5 22.5q58 0 96.5 -21.5t61 -57t32 -82t9.5 -95.5v-12h-345zM391 294
q-2 25 -8.5 53t-20.5 50.5t-38 37.5t-60 15t-63 -14.5t-45 -37t-28 -50t-11 -54.5h274zM215 585l-103 136h65l75 -97l75 97h65l-103 -136h-74z" />
    <glyph glyph-name="Gcircumflex" unicode="&#x11c;" horiz-adv-x="669" 
d="M596 22q-51 -18 -93 -25.5t-94 -7.5q-80 0 -145.5 23t-113 66.5t-73.5 107.5t-26 147q0 81 27.5 144.5t75.5 108t113.5 68t141.5 23.5q43 0 93 -8t89 -25l-6 -72q-39 22 -82.5 30t-88.5 8q-62 0 -113.5 -18.5t-88.5 -53.5t-57.5 -86.5t-20.5 -118.5q0 -65 19 -116t55 -87
t87 -55t115 -19q32 0 56.5 3t53.5 11v226h-150v63h226v-337zM242 724l103 136h74l103 -136h-65l-75 96l-75 -96h-65z" />
    <glyph glyph-name="gcircumflex" unicode="&#x11d;" horiz-adv-x="543" 
d="M148 124q16 -27 42.5 -44.5t68.5 -17.5q40 0 67 17.5t43.5 45t23.5 60.5t7 65q0 33 -7.5 67.5t-24 63t-43 47t-65.5 18.5q-42 0 -69 -17.5t-42.5 -46t-21.5 -63.5t-6 -69q0 -32 6 -65.5t21 -60.5zM89 -130q33 -17 69.5 -26.5t74.5 -9.5q45 0 76.5 14.5t51 40t28.5 60
t9 75.5v64q-23 -42 -64.5 -65t-89.5 -23q-56 0 -94 22t-62 57.5t-34.5 80.5t-10.5 91q0 49 11 95.5t35.5 82.5t63 57.5t93.5 21.5q109 0 156 -94v84h69v-473q0 -58 -13.5 -104.5t-42 -79.5t-72.5 -50.5t-105 -17.5q-39 0 -78 7t-77 19zM131 585l103 136h74l103 -136h-65
l-75 96l-75 -96h-65z" />
    <glyph glyph-name="Gbreve" unicode="&#x11e;" horiz-adv-x="669" 
d="M596 22q-51 -18 -93 -25.5t-94 -7.5q-80 0 -145.5 23t-113 66.5t-73.5 107.5t-26 147q0 81 27.5 144.5t75.5 108t113.5 68t141.5 23.5q43 0 93 -8t89 -25l-6 -72q-39 22 -82.5 30t-88.5 8q-62 0 -113.5 -18.5t-88.5 -53.5t-57.5 -86.5t-20.5 -118.5q0 -65 19 -116t55 -87
t87 -55t115 -19q32 0 56.5 3t53.5 11v226h-150v63h226v-337zM307 849q3 -30 22.5 -50.5t53.5 -20.5t53.5 20.5t23.5 50.5h43q0 -11 -5 -30.5t-18.5 -38.5t-36.5 -33.5t-60 -14.5q-36 0 -59.5 14.5t-36.5 33.5t-18 38.5t-5 30.5h43z" />
    <glyph glyph-name="gbreve" unicode="&#x11f;" horiz-adv-x="543" 
d="M148 124q16 -27 42.5 -44.5t68.5 -17.5q40 0 67 17.5t43.5 45t23.5 60.5t7 65q0 33 -7.5 67.5t-24 63t-43 47t-65.5 18.5q-42 0 -69 -17.5t-42.5 -46t-21.5 -63.5t-6 -69q0 -32 6 -65.5t21 -60.5zM89 -130q33 -17 69.5 -26.5t74.5 -9.5q45 0 76.5 14.5t51 40t28.5 60
t9 75.5v64q-23 -42 -64.5 -65t-89.5 -23q-56 0 -94 22t-62 57.5t-34.5 80.5t-10.5 91q0 49 11 95.5t35.5 82.5t63 57.5t93.5 21.5q109 0 156 -94v84h69v-473q0 -58 -13.5 -104.5t-42 -79.5t-72.5 -50.5t-105 -17.5q-39 0 -78 7t-77 19zM195 710q3 -30 22.5 -50.5t53.5 -20.5
t53.5 20.5t23.5 50.5h43q0 -11 -5 -30.5t-18.5 -38.5t-36.5 -33.5t-60 -14.5q-36 0 -59.5 14.5t-36.5 33.5t-18 38.5t-5 30.5h43z" />
    <glyph glyph-name="Gdotaccent" unicode="&#x120;" horiz-adv-x="669" 
d="M596 22q-51 -18 -93 -25.5t-94 -7.5q-80 0 -145.5 23t-113 66.5t-73.5 107.5t-26 147q0 81 27.5 144.5t75.5 108t113.5 68t141.5 23.5q43 0 93 -8t89 -25l-6 -72q-39 22 -82.5 30t-88.5 8q-62 0 -113.5 -18.5t-88.5 -53.5t-57.5 -86.5t-20.5 -118.5q0 -65 19 -116t55 -87
t87 -55t115 -19q32 0 56.5 3t53.5 11v226h-150v63h226v-337zM347 748v87h73v-87h-73z" />
    <glyph glyph-name="gdotaccent" unicode="&#x121;" horiz-adv-x="543" 
d="M148 124q16 -27 42.5 -44.5t68.5 -17.5q40 0 67 17.5t43.5 45t23.5 60.5t7 65q0 33 -7.5 67.5t-24 63t-43 47t-65.5 18.5q-42 0 -69 -17.5t-42.5 -46t-21.5 -63.5t-6 -69q0 -32 6 -65.5t21 -60.5zM89 -130q33 -17 69.5 -26.5t74.5 -9.5q45 0 76.5 14.5t51 40t28.5 60
t9 75.5v64q-23 -42 -64.5 -65t-89.5 -23q-56 0 -94 22t-62 57.5t-34.5 80.5t-10.5 91q0 49 11 95.5t35.5 82.5t63 57.5t93.5 21.5q109 0 156 -94v84h69v-473q0 -58 -13.5 -104.5t-42 -79.5t-72.5 -50.5t-105 -17.5q-39 0 -78 7t-77 19zM235 609v87h73v-87h-73z" />
    <glyph glyph-name="Gcommaaccent" unicode="&#x122;" horiz-adv-x="669" 
d="M596 22q-51 -18 -93 -25.5t-94 -7.5q-80 0 -145.5 23t-113 66.5t-73.5 107.5t-26 147q0 81 27.5 144.5t75.5 108t113.5 68t141.5 23.5q43 0 93 -8t89 -25l-6 -72q-39 22 -82.5 30t-88.5 8q-62 0 -113.5 -18.5t-88.5 -53.5t-57.5 -86.5t-20.5 -118.5q0 -65 19 -116t55 -87
t87 -55t115 -19q32 0 56.5 3t53.5 11v226h-150v63h226v-337zM316 -227l47 159h67l-64 -159h-50z" />
    <glyph glyph-name="gcommaaccent" unicode="&#x123;" horiz-adv-x="543" 
d="M148 124q16 -27 42.5 -44.5t68.5 -17.5q40 0 67 17.5t43.5 45t23.5 60.5t7 65q0 33 -7.5 67.5t-24 63t-43 47t-65.5 18.5q-42 0 -69 -17.5t-42.5 -46t-21.5 -63.5t-6 -69q0 -32 6 -65.5t21 -60.5zM89 -130q33 -17 69.5 -26.5t74.5 -9.5q45 0 76.5 14.5t51 40t28.5 60
t9 75.5v64q-23 -42 -64.5 -65t-89.5 -23q-56 0 -94 22t-62 57.5t-34.5 80.5t-10.5 91q0 49 11 95.5t35.5 82.5t63 57.5t93.5 21.5q109 0 156 -94v84h69v-473q0 -58 -13.5 -104.5t-42 -79.5t-72.5 -50.5t-105 -17.5q-39 0 -78 7t-77 19zM236 585l50 136h46l-33 -136h-63z" />
    <glyph glyph-name="Hcircumflex" unicode="&#x124;" horiz-adv-x="653" 
d="M85 0v667h79v-289h325v289h80v-667h-80v309h-325v-309h-79zM190 724l103 136h74l103 -136h-65l-75 96l-75 -96h-65z" />
    <glyph glyph-name="hcircumflex" unicode="&#x125;" horiz-adv-x="539" 
d="M73 0v721h73v-307q48 94 154 94q46 0 77.5 -15t51 -41.5t28.5 -63t9 -79.5v-309h-72v296q0 30 -4 57t-16 47.5t-34 33t-58 12.5q-39 0 -65 -15.5t-41.5 -40t-22.5 -56.5t-7 -65v-269h-73zM117 769l103 136h74l103 -136h-65l-75 96l-75 -96h-65z" />
    <glyph glyph-name="Hbar" unicode="&#x126;" horiz-adv-x="653" 
d="M85 0v667h79v-145h325v145h80v-667h-80v280h-325v-280h-79zM164 347h325v117h-325v-117z" />
    <glyph glyph-name="hbar" unicode="&#x127;" horiz-adv-x="539" 
d="M73 0v590h-85v52h85v79h73v-79h153v-52h-153v-176q48 94 154 94q46 0 77.5 -15t51 -41.5t28.5 -63t9 -79.5v-309h-72v296q0 30 -4 57t-16 47.5t-34 33t-58 12.5q-39 0 -65 -15.5t-41.5 -40t-22.5 -56.5t-7 -65v-269h-73z" />
    <glyph glyph-name="Itilde" unicode="&#x128;" horiz-adv-x="248" 
d="M85 0v667h79v-667h-79zM-23 738q0 18 6 35.5t17.5 32t28 23.5t37.5 9q18 0 34 -6.5t30.5 -14t27.5 -14t25 -6.5q19 0 29 15.5t10 29.5h47q0 -16 -6 -33.5t-17 -32t-27 -24t-35 -9.5t-34 6t-28.5 13.5t-26.5 14t-27 6.5q-18 0 -30.5 -15t-12.5 -30h-48z" />
    <glyph glyph-name="itilde" unicode="&#x129;" horiz-adv-x="218" 
d="M73 0v498h73v-498h-73zM-37 599q0 18 6 35.5t17.5 32t28 23.5t37.5 9q18 0 34 -6.5t30.5 -14t27.5 -14t25 -6.5q19 0 29 15.5t10 29.5h47q0 -16 -6 -33.5t-17 -32t-27 -24t-35 -9.5t-34 6t-28.5 13.5t-26.5 14t-27 6.5q-18 0 -30.5 -15t-12.5 -30h-48z" />
    <glyph glyph-name="Imacron" unicode="&#x12a;" horiz-adv-x="248" 
d="M85 0v667h79v-667h-79zM2 767v51h245v-51h-245z" />
    <glyph glyph-name="imacron" unicode="&#x12b;" horiz-adv-x="218" 
d="M73 0v498h73v-498h-73zM-13 628v51h245v-51h-245z" />
    <glyph glyph-name="Ibreve" unicode="&#x12c;" horiz-adv-x="248" 
d="M85 0v667h79v-667h-79zM47 849q3 -30 22.5 -50.5t53.5 -20.5t53.5 20.5t23.5 50.5h43q0 -11 -5 -30.5t-18.5 -38.5t-36.5 -33.5t-60 -14.5q-36 0 -59.5 14.5t-36.5 33.5t-18 38.5t-5 30.5h43z" />
    <glyph glyph-name="ibreve" unicode="&#x12d;" horiz-adv-x="218" 
d="M73 0v498h73v-498h-73zM33 710q3 -30 22.5 -50.5t53.5 -20.5t53.5 20.5t23.5 50.5h43q0 -11 -5 -30.5t-18.5 -38.5t-36.5 -33.5t-60 -14.5q-36 0 -59.5 14.5t-36.5 33.5t-18 38.5t-5 30.5h43z" />
    <glyph glyph-name="Iogonek" unicode="&#x12e;" horiz-adv-x="248" 
d="M192 -165q-15 -7 -29 -11t-36 -4q-38 0 -63 20.5t-25 55.5q0 34 22.5 59.5t57.5 44.5h-34v667h79v-667q-38 -21 -54.5 -46t-16.5 -49q0 -23 13 -34t32 -11q9 0 19 2t24 8z" />
    <glyph glyph-name="iogonek" unicode="&#x12f;" horiz-adv-x="218" 
d="M177 -165q-15 -7 -29 -11t-36 -4q-38 0 -63 20.5t-25 55.5q0 34 21 59.5t56 44.5h-28v498h73v-498q-38 -21 -53 -46t-15 -49q0 -23 13 -34t32 -11q9 0 19 2t24 8zM73 609v87h73v-87h-73z" />
    <glyph glyph-name="Idotaccent" unicode="&#x130;" horiz-adv-x="248" 
d="M85 0v667h79v-667h-79zM88 748v87h73v-87h-73z" />
    <glyph glyph-name="dotlessi" unicode="&#x131;" horiz-adv-x="218" 
d="M73 0v498h73v-498h-73z" />
    <glyph glyph-name="Jcircumflex" unicode="&#x134;" horiz-adv-x="319" 
d="M10 67q14 -6 28 -7.5t29 -1.5q27 0 46 10t30 26.5t16 38t5 44.5v490h79v-492q0 -40 -9.5 -74t-29 -59t-50 -39t-73.5 -14q-42 0 -77 13zM59 724l103 136h74l103 -136h-65l-75 96l-75 -96h-65z" />
    <glyph glyph-name="jcircumflex" unicode="&#x135;" horiz-adv-x="224" 
d="M-20 -158q16 -6 34 -6q22 0 35 8t20 20.5t8.5 29.5t1.5 35v569h72v-580q0 -30 -5 -56.5t-18 -46t-35.5 -31t-56.5 -11.5q-16 0 -31.5 1t-30.5 5zM-31 585l103 136h74l103 -136h-65l-75 96l-75 -96h-65z" />
    <glyph glyph-name="Kcommaaccent" unicode="&#x136;" horiz-adv-x="586" 
d="M85 0v667h79v-301l292 301h98l-315 -313l343 -354h-106l-312 333v-333h-79zM246 -227l47 159h67l-64 -159h-50z" />
    <glyph glyph-name="kcommaaccent" unicode="&#x137;" horiz-adv-x="479" 
d="M73 0v721h73v-429l211 206h91l-229 -220l256 -278h-96l-233 260v-260h-73zM190 -227l47 159h67l-64 -159h-50z" />
    <glyph glyph-name="kgreenlandic" unicode="&#x138;" horiz-adv-x="479" 
d="M73 0v498h73v-206l211 206h91l-229 -220l256 -278h-96l-233 260v-260h-73z" />
    <glyph glyph-name="Lacute" unicode="&#x139;" horiz-adv-x="452" 
d="M85 0v667h79v-599h270v-68h-349zM96 724l72 136h85l-96 -136h-61z" />
    <glyph glyph-name="lacute" unicode="&#x13a;" horiz-adv-x="218" 
d="M73 0v721h73v-721h-73zM69 769l72 136h85l-96 -136h-61z" />
    <glyph glyph-name="Lcommaaccent" unicode="&#x13b;" horiz-adv-x="452" 
d="M85 0v667h79v-599h270v-68h-349zM189 -227l47 159h67l-64 -159h-50z" />
    <glyph glyph-name="lcommaaccent" unicode="&#x13c;" horiz-adv-x="218" 
d="M73 0v721h73v-721h-73zM27 -227l47 159h67l-64 -159h-50z" />
    <glyph glyph-name="Lcaron" unicode="&#x13d;" horiz-adv-x="452" 
d="M85 0v667h79v-599h270v-68h-349zM255 557l21 164h75l-43 -164h-53z" />
    <glyph glyph-name="lcaron" unicode="&#x13e;" horiz-adv-x="218" 
d="M73 0v721h73v-721h-73zM201 557l21 164h75l-43 -164h-53z" />
    <glyph glyph-name="Ldot" unicode="&#x13f;" horiz-adv-x="452" 
d="M85 0v667h79v-599h270v-68h-349zM313 304v87h73v-87h-73z" />
    <glyph glyph-name="ldot" unicode="&#x140;" horiz-adv-x="315" 
d="M73 0v721h73v-721h-73zM231 304v87h73v-87h-73z" />
    <glyph glyph-name="Lslash" unicode="&#x141;" horiz-adv-x="452" 
d="M85 0v292l-75 -72v66l75 72v309h79v-246l136 131v-67l-136 -131v-286h270v-68h-349z" />
    <glyph glyph-name="lslash" unicode="&#x142;" horiz-adv-x="218" 
d="M73 0v327l-68 -68v66l68 67v329h74v-270l69 68v-66l-69 -68v-385h-74z" />
    <glyph glyph-name="Nacute" unicode="&#x143;" horiz-adv-x="676" 
d="M85 0v667h111l321 -585v585h74v-667h-111l-321 585v-585h-74zM302 724l72 136h85l-96 -136h-61z" />
    <glyph glyph-name="nacute" unicode="&#x144;" horiz-adv-x="539" 
d="M73 0v381q0 29 -1 58.5t-4 58.5h67l3 -86q52 96 161 96q48 0 80 -15t51.5 -41.5t27.5 -63t8 -79.5v-309h-72v295q0 30 -4 57t-16 48t-34 33.5t-58 12.5q-39 0 -65 -15.5t-42 -40.5t-22.5 -57t-6.5 -65v-268h-73zM223 585l72 136h85l-96 -136h-61z" />
    <glyph glyph-name="Ncommaaccent" unicode="&#x145;" horiz-adv-x="676" 
d="M85 0v667h111l321 -585v585h74v-667h-111l-321 585v-585h-74zM280 -227l47 159h67l-64 -159h-50z" />
    <glyph glyph-name="ncommaaccent" unicode="&#x146;" horiz-adv-x="539" 
d="M73 0v381q0 29 -1 58.5t-4 58.5h67l3 -86q52 96 161 96q48 0 80 -15t51.5 -41.5t27.5 -63t8 -79.5v-309h-72v295q0 30 -4 57t-16 48t-34 33.5t-58 12.5q-39 0 -65 -15.5t-42 -40.5t-22.5 -57t-6.5 -65v-268h-73zM200 -227l47 159h67l-64 -159h-50z" />
    <glyph glyph-name="Ncaron" unicode="&#x147;" horiz-adv-x="676" 
d="M85 0v667h111l321 -585v585h74v-667h-111l-321 585v-585h-74zM308 724l-103 136h65l75 -97l75 97h65l-103 -136h-74z" />
    <glyph glyph-name="ncaron" unicode="&#x148;" horiz-adv-x="539" 
d="M73 0v381q0 29 -1 58.5t-4 58.5h67l3 -86q52 96 161 96q48 0 80 -15t51.5 -41.5t27.5 -63t8 -79.5v-309h-72v295q0 30 -4 57t-16 48t-34 33.5t-58 12.5q-39 0 -65 -15.5t-42 -40.5t-22.5 -57t-6.5 -65v-268h-73zM231 585l-103 136h65l75 -97l75 97h65l-103 -136h-74z" />
    <glyph glyph-name="napostrophe" unicode="&#x149;" horiz-adv-x="580" 
d="M114 0v381q0 29 -1 58.5t-4 58.5h67l3 -86q52 96 161 96q48 0 80 -15t51.5 -41.5t27.5 -63t8 -79.5v-309h-72v295q0 30 -4 57t-16 48t-34 33.5t-58 12.5q-39 0 -65 -15.5t-42 -40.5t-22.5 -57t-6.5 -65v-268h-73zM-48 504l58 217h84l-83 -217h-59z" />
    <glyph glyph-name="Eng" unicode="&#x14a;" horiz-adv-x="676" 
d="M450 -227q-16 0 -30 2.5t-28 5.5l6 65q19 -7 38 -7q43 0 62 21.5t19 71.5v49l-358 604v-585h-74v667h111l321 -545v545h74v-731q0 -84 -36 -123.5t-105 -39.5z" />
    <glyph glyph-name="eng" unicode="&#x14b;" horiz-adv-x="539" 
d="M394 295q0 30 -4 57t-16 48t-34 33.5t-58 12.5q-39 0 -65 -15t-41.5 -40t-22.5 -57t-7 -66v-268h-73v381q0 29 -1 58.5t-4 58.5h67l3 -86q52 96 161 96q48 0 80 -15t51.5 -41.5t27.5 -63t8 -79.5v-394q0 -74 -34 -108t-94 -34q-13 0 -26 2t-24 5l6 63q17 -7 31 -7
q32 0 50.5 19t18.5 67v373z" />
    <glyph glyph-name="Omacron" unicode="&#x14c;" horiz-adv-x="701" 
d="M185 144q27 -40 68 -64.5t98 -24.5q58 0 99.5 24.5t67 64t37.5 89t12 100.5t-12 100.5t-37.5 89t-67 64t-99.5 24.5q-57 0 -98.5 -24.5t-67.5 -64.5t-38.5 -89.5t-12.5 -99.5q0 -51 12.5 -100t38.5 -89zM217 16q-42 20 -73 52t-52 73t-31 89.5t-10 102.5q0 69 18.5 131.5
t56 109.5t94 75t131.5 28q77 0 133.5 -27t93.5 -74t55 -109.5t18 -133.5q0 -69 -18.5 -131.5t-56 -110t-94 -75t-131.5 -27.5q-77 0 -134 27zM229 767v51h245v-51h-245z" />
    <glyph glyph-name="omacron" unicode="&#x14d;" horiz-adv-x="551" 
d="M157 114q19 -28 48 -46t71 -18q41 0 70.5 18t48 46.5t27.5 64.5t9 72q0 37 -8.5 72.5t-27 63t-48 44t-71.5 16.5q-41 0 -70.5 -17t-48.5 -45t-27.5 -63t-8.5 -71t8.5 -72t27.5 -65zM174 9q-66 32 -98.5 96t-32.5 146q0 54 15.5 100.5t45.5 81.5t73 55t99 20
q58 0 102 -19.5t73 -54t43.5 -81.5t14.5 -102q0 -54 -15 -101.5t-44 -83.5t-72.5 -56.5t-101.5 -20.5q-57 0 -102 20zM153 628v51h245v-51h-245z" />
    <glyph glyph-name="Obreve" unicode="&#x14e;" horiz-adv-x="701" 
d="M185 144q27 -40 68 -64.5t98 -24.5q58 0 99.5 24.5t67 64t37.5 89t12 100.5t-12 100.5t-37.5 89t-67 64t-99.5 24.5q-57 0 -98.5 -24.5t-67.5 -64.5t-38.5 -89.5t-12.5 -99.5q0 -51 12.5 -100t38.5 -89zM217 16q-42 20 -73 52t-52 73t-31 89.5t-10 102.5q0 69 18.5 131.5
t56 109.5t94 75t131.5 28q77 0 133.5 -27t93.5 -74t55 -109.5t18 -133.5q0 -69 -18.5 -131.5t-56 -110t-94 -75t-131.5 -27.5q-77 0 -134 27zM274 849q3 -30 22.5 -50.5t53.5 -20.5t53.5 20.5t23.5 50.5h43q0 -11 -5 -30.5t-18.5 -38.5t-36.5 -33.5t-60 -14.5
q-36 0 -59.5 14.5t-36.5 33.5t-18 38.5t-5 30.5h43z" />
    <glyph glyph-name="obreve" unicode="&#x14f;" horiz-adv-x="551" 
d="M157 114q19 -28 48 -46t71 -18q41 0 70.5 18t48 46.5t27.5 64.5t9 72q0 37 -8.5 72.5t-27 63t-48 44t-71.5 16.5q-41 0 -70.5 -17t-48.5 -45t-27.5 -63t-8.5 -71t8.5 -72t27.5 -65zM174 9q-66 32 -98.5 96t-32.5 146q0 54 15.5 100.5t45.5 81.5t73 55t99 20
q58 0 102 -19.5t73 -54t43.5 -81.5t14.5 -102q0 -54 -15 -101.5t-44 -83.5t-72.5 -56.5t-101.5 -20.5q-57 0 -102 20zM198 710q3 -30 22.5 -50.5t53.5 -20.5t53.5 20.5t23.5 50.5h43q0 -11 -5 -30.5t-18.5 -38.5t-36.5 -33.5t-60 -14.5q-36 0 -59.5 14.5t-36.5 33.5
t-18 38.5t-5 30.5h43z" />
    <glyph glyph-name="Ohungarumlaut" unicode="&#x150;" horiz-adv-x="701" 
d="M185 144q27 -40 68 -64.5t98 -24.5q58 0 99.5 24.5t67 64t37.5 89t12 100.5t-12 100.5t-37.5 89t-67 64t-99.5 24.5q-57 0 -98.5 -24.5t-67.5 -64.5t-38.5 -89.5t-12.5 -99.5q0 -51 12.5 -100t38.5 -89zM217 16q-42 20 -73 52t-52 73t-31 89.5t-10 102.5q0 69 18.5 131.5
t56 109.5t94 75t131.5 28q77 0 133.5 -27t93.5 -74t55 -109.5t18 -133.5q0 -69 -18.5 -131.5t-56 -110t-94 -75t-131.5 -27.5q-77 0 -134 27zM400 724l72 136h85l-97 -136h-60zM230 724l72 136h85l-97 -136h-60z" />
    <glyph glyph-name="ohungarumlaut" unicode="&#x151;" horiz-adv-x="551" 
d="M157 114q19 -28 48 -46t71 -18q41 0 70.5 18t48 46.5t27.5 64.5t9 72q0 37 -8.5 72.5t-27 63t-48 44t-71.5 16.5q-41 0 -70.5 -17t-48.5 -45t-27.5 -63t-8.5 -71t8.5 -72t27.5 -65zM174 9q-66 32 -98.5 96t-32.5 146q0 54 15.5 100.5t45.5 81.5t73 55t99 20
q58 0 102 -19.5t73 -54t43.5 -81.5t14.5 -102q0 -54 -15 -101.5t-44 -83.5t-72.5 -56.5t-101.5 -20.5q-57 0 -102 20zM152 585l72 136h85l-97 -136h-60zM322 585l72 136h85l-97 -136h-60z" />
    <glyph glyph-name="OE" unicode="&#x152;" horiz-adv-x="873" 
d="M493 0q-24 -5 -51.5 -8t-59.5 -3q-84 0 -146 27t-103 73.5t-61.5 109.5t-20.5 134q0 69 22.5 131.5t65.5 109.5t104.5 75t138.5 28q33 0 58 -2.5t49 -7.5h328v-65h-262v-228h248v-62h-248v-247h272v-65h-334zM476 600q-21 6 -45 8.5t-49 2.5q-62 0 -109 -24.5t-78.5 -64
t-47 -89.5t-15.5 -100t14.5 -100t45 -89.5t78 -64t112.5 -24.5q29 0 50.5 2.5t43.5 8.5v534z" />
    <glyph glyph-name="oe" unicode="&#x153;" horiz-adv-x="876" 
d="M155 114q19 -28 48 -46t71 -18q40 0 68.5 17.5t47 45.5t27.5 64t9 74t-8.5 73.5t-26.5 62.5t-47 43.5t-70 16.5t-70.5 -17t-48 -45t-27 -63t-8.5 -71t8.5 -72t26.5 -65zM499 240q0 -36 9 -70.5t29.5 -61.5t53.5 -43.5t80 -16.5q36 0 72.5 10t64.5 28l3 -65
q-32 -16 -69.5 -24t-72.5 -8q-75 0 -129 29t-80 83q-28 -51 -73 -81.5t-114 -30.5q-58 0 -101 21t-71.5 57t-43 83.5t-14.5 100.5q0 52 15.5 99t45 82t72 55.5t97.5 20.5q72 0 118 -29t73 -80q26 48 69.5 78.5t106.5 30.5q58 0 96.5 -21.5t61.5 -57t32.5 -82t9.5 -95.5v-12
h-341zM769 294q-2 25 -8.5 53t-20.5 50.5t-38 37.5t-60 15t-62 -14.5t-44 -37t-27 -50t-10 -54.5h270z" />
    <glyph glyph-name="Racute" unicode="&#x154;" horiz-adv-x="548" 
d="M85 0v667h164q41 0 81.5 -7t73 -25t52.5 -50t20 -82q0 -33 -12 -61.5t-32.5 -50t-48 -35.5t-58.5 -18q32 -7 54.5 -29.5t36.5 -55.5l109 -253h-89l-92 220q-11 26 -21.5 43t-25 27t-34 14t-49.5 4h-50v-308h-79zM163 372h68q29 0 58 6t52.5 20.5t38 38t14.5 59.5
q0 34 -14 55.5t-37.5 32.5t-53.5 15t-62 4h-64v-231zM216 724l72 136h85l-96 -136h-61z" />
    <glyph glyph-name="racute" unicode="&#x155;" horiz-adv-x="328" 
d="M73 0v381q0 29 -1 58.5t-4 58.5h67l4 -94q7 19 20 37.5t30 33.5t38 24t44 9q11 0 21 -0.5t21 -3.5l-4 -73q-20 6 -40 6q-38 0 -62 -18.5t-37.5 -47t-18.5 -62t-5 -62.5v-247h-73zM150 585l72 136h85l-96 -136h-61z" />
    <glyph glyph-name="Rcommaaccent" unicode="&#x156;" horiz-adv-x="548" 
d="M85 0v667h164q41 0 81.5 -7t73 -25t52.5 -50t20 -82q0 -33 -12 -61.5t-32.5 -50t-48 -35.5t-58.5 -18q32 -7 54.5 -29.5t36.5 -55.5l109 -253h-89l-92 220q-11 26 -21.5 43t-25 27t-34 14t-49.5 4h-50v-308h-79zM163 372h68q29 0 58 6t52.5 20.5t38 38t14.5 59.5
q0 34 -14 55.5t-37.5 32.5t-53.5 15t-62 4h-64v-231zM216 -227l47 159h67l-64 -159h-50z" />
    <glyph glyph-name="rcommaaccent" unicode="&#x157;" horiz-adv-x="328" 
d="M73 0v381q0 29 -1 58.5t-4 58.5h67l4 -94q7 19 20 37.5t30 33.5t38 24t44 9q11 0 21 -0.5t21 -3.5l-4 -73q-20 6 -40 6q-38 0 -62 -18.5t-37.5 -47t-18.5 -62t-5 -62.5v-247h-73zM27 -227l47 159h67l-64 -159h-50z" />
    <glyph glyph-name="Rcaron" unicode="&#x158;" horiz-adv-x="548" 
d="M85 0v667h164q41 0 81.5 -7t73 -25t52.5 -50t20 -82q0 -33 -12 -61.5t-32.5 -50t-48 -35.5t-58.5 -18q32 -7 54.5 -29.5t36.5 -55.5l109 -253h-89l-92 220q-11 26 -21.5 43t-25 27t-34 14t-49.5 4h-50v-308h-79zM163 372h68q29 0 58 6t52.5 20.5t38 38t14.5 59.5
q0 34 -14 55.5t-37.5 32.5t-53.5 15t-62 4h-64v-231zM222 724l-103 136h65l75 -97l75 97h65l-103 -136h-74z" />
    <glyph glyph-name="rcaron" unicode="&#x159;" horiz-adv-x="328" 
d="M73 0v381q0 29 -1 58.5t-4 58.5h67l4 -94q7 19 20 37.5t30 33.5t38 24t44 9q11 0 21 -0.5t21 -3.5l-4 -73q-20 6 -40 6q-38 0 -62 -18.5t-37.5 -47t-18.5 -62t-5 -62.5v-247h-73zM159 585l-103 136h65l75 -97l75 97h65l-103 -136h-74z" />
    <glyph glyph-name="Sacute" unicode="&#x15a;" horiz-adv-x="484" 
d="M57 94q35 -22 73.5 -30.5t80.5 -8.5q28 0 53 6.5t43.5 21t29 37.5t10.5 56q0 26 -9.5 46t-25 35.5t-36.5 28.5t-44 25l-54 29q-24 13 -45 28t-36.5 34t-24.5 44t-9 58q0 45 18.5 78t48.5 54t68.5 31t79.5 10q35 0 66.5 -5.5t62.5 -18.5l-9 -71q-27 15 -57.5 22t-61.5 7
q-26 0 -50.5 -5t-43.5 -17t-30 -32t-11 -50q0 -41 26.5 -67t66.5 -47l54 -29q28 -15 53 -31t44 -37t30 -49t11 -66q0 -47 -18 -83t-48 -60t-69 -36.5t-82 -12.5t-84.5 7t-79.5 24zM205 724l72 136h85l-96 -136h-61z" />
    <glyph glyph-name="sacute" unicode="&#x15b;" horiz-adv-x="389" 
d="M51 80q30 -16 59 -23.5t63 -7.5q42 0 68.5 20.5t26.5 62.5q0 30 -16 49t-40 32.5t-51.5 25.5t-51.5 28.5t-40 40.5t-16 62q0 37 14 63.5t37 43t52 24t58 7.5q31 0 59 -5.5t54 -15.5l-10 -63q-23 11 -49.5 18t-52.5 7q-15 0 -30.5 -3.5t-28.5 -11.5t-21.5 -23t-8.5 -37
q0 -25 16 -40.5t40 -28t52.5 -24.5t52.5 -30t40 -44.5t16 -68.5q0 -36 -14 -64t-37.5 -46.5t-54 -28.5t-63.5 -10q-36 0 -69 5t-63 18zM151 585l72 136h85l-96 -136h-61z" />
    <glyph glyph-name="Scircumflex" unicode="&#x15c;" horiz-adv-x="484" 
d="M57 94q35 -22 73.5 -30.5t80.5 -8.5q28 0 53 6.5t43.5 21t29 37.5t10.5 56q0 26 -9.5 46t-25 35.5t-36.5 28.5t-44 25l-54 29q-24 13 -45 28t-36.5 34t-24.5 44t-9 58q0 45 18.5 78t48.5 54t68.5 31t79.5 10q35 0 66.5 -5.5t62.5 -18.5l-9 -71q-27 15 -57.5 22t-61.5 7
q-26 0 -50.5 -5t-43.5 -17t-30 -32t-11 -50q0 -41 26.5 -67t66.5 -47l54 -29q28 -15 53 -31t44 -37t30 -49t11 -66q0 -47 -18 -83t-48 -60t-69 -36.5t-82 -12.5t-84.5 7t-79.5 24zM107 724l103 136h74l103 -136h-65l-75 96l-75 -96h-65z" />
    <glyph glyph-name="scircumflex" unicode="&#x15d;" horiz-adv-x="389" 
d="M51 80q30 -16 59 -23.5t63 -7.5q42 0 68.5 20.5t26.5 62.5q0 30 -16 49t-40 32.5t-51.5 25.5t-51.5 28.5t-40 40.5t-16 62q0 37 14 63.5t37 43t52 24t58 7.5q31 0 59 -5.5t54 -15.5l-10 -63q-23 11 -49.5 18t-52.5 7q-15 0 -30.5 -3.5t-28.5 -11.5t-21.5 -23t-8.5 -37
q0 -25 16 -40.5t40 -28t52.5 -24.5t52.5 -30t40 -44.5t16 -68.5q0 -36 -14 -64t-37.5 -46.5t-54 -28.5t-63.5 -10q-36 0 -69 5t-63 18zM56 585l103 136h74l103 -136h-65l-75 96l-75 -96h-65z" />
    <glyph glyph-name="Scedilla" unicode="&#x15e;" horiz-adv-x="484" 
d="M145 -126q39 -17 74 -17q20 0 35 8.5t15 25.5t-12.5 23t-26.5 6q-19 0 -39 -7l-15 18l40 58h-4q-43 0 -84.5 7t-79.5 24l9 74q35 -22 73.5 -30.5t80.5 -8.5q28 0 53 6.5t43.5 21t29 37.5t10.5 56q0 26 -9.5 46t-25 35.5t-36.5 28.5t-44 25l-54 29q-24 13 -45 28t-36.5 34
t-24.5 44t-9 58q0 45 18.5 78t48.5 54t68.5 31t79.5 10q35 0 66.5 -5.5t62.5 -18.5l-9 -71q-27 15 -57.5 22t-61.5 7q-26 0 -50.5 -5t-43.5 -17t-30 -32t-11 -50q0 -41 26.5 -67t66.5 -47l54 -29q28 -15 53 -31t44 -37t30 -49t11 -66q0 -41 -14 -73.5t-37.5 -56t-55 -38.5
t-67.5 -21l-32 -45l16.5 3t15.5 1q29 0 47.5 -15t18.5 -42q0 -34 -27.5 -54t-73.5 -20q-23 0 -43 4t-45 15z" />
    <glyph glyph-name="scedilla" unicode="&#x15f;" horiz-adv-x="389" 
d="M98 -126q39 -17 74 -17q20 0 35 8.5t15 25.5t-12.5 23t-26.5 6q-19 0 -39 -7l-15 18l41 58q-35 1 -67 6t-61 17l9 68q30 -16 59 -23.5t63 -7.5q42 0 68.5 20.5t26.5 62.5q0 30 -16 49t-40 32.5t-51.5 25.5t-51.5 28.5t-40 40.5t-16 62q0 37 14 63.5t37 43t52 24t58 7.5
q31 0 59 -5.5t54 -15.5l-10 -63q-23 11 -49.5 18t-52.5 7q-15 0 -30.5 -3.5t-28.5 -11.5t-21.5 -23t-8.5 -37q0 -25 16 -40.5t40 -28t52.5 -24.5t52.5 -30t40 -44.5t16 -68.5q0 -32 -11 -57t-29.5 -43.5t-43 -30t-52.5 -15.5l-31 -45l16.5 3t15.5 1q29 0 47.5 -15t18.5 -42
q0 -34 -27.5 -54t-73.5 -20q-23 0 -43 4t-45 15z" />
    <glyph glyph-name="Scaron" unicode="&#x160;" horiz-adv-x="484" 
d="M57 94q35 -22 73.5 -30.5t80.5 -8.5q28 0 53 6.5t43.5 21t29 37.5t10.5 56q0 26 -9.5 46t-25 35.5t-36.5 28.5t-44 25l-54 29q-24 13 -45 28t-36.5 34t-24.5 44t-9 58q0 45 18.5 78t48.5 54t68.5 31t79.5 10q35 0 66.5 -5.5t62.5 -18.5l-9 -71q-27 15 -57.5 22t-61.5 7
q-26 0 -50.5 -5t-43.5 -17t-30 -32t-11 -50q0 -41 26.5 -67t66.5 -47l54 -29q28 -15 53 -31t44 -37t30 -49t11 -66q0 -47 -18 -83t-48 -60t-69 -36.5t-82 -12.5t-84.5 7t-79.5 24zM205 724l-103 136h65l75 -97l75 97h65l-103 -136h-74z" />
    <glyph glyph-name="scaron" unicode="&#x161;" horiz-adv-x="389" 
d="M51 80q30 -16 59 -23.5t63 -7.5q42 0 68.5 20.5t26.5 62.5q0 30 -16 49t-40 32.5t-51.5 25.5t-51.5 28.5t-40 40.5t-16 62q0 37 14 63.5t37 43t52 24t58 7.5q31 0 59 -5.5t54 -15.5l-10 -63q-23 11 -49.5 18t-52.5 7q-15 0 -30.5 -3.5t-28.5 -11.5t-21.5 -23t-8.5 -37
q0 -25 16 -40.5t40 -28t52.5 -24.5t52.5 -30t40 -44.5t16 -68.5q0 -36 -14 -64t-37.5 -46.5t-54 -28.5t-63.5 -10q-36 0 -69 5t-63 18zM161 585l-103 136h65l75 -97l75 97h65l-103 -136h-74z" />
    <glyph glyph-name="Tcommaaccent" unicode="&#x162;" horiz-adv-x="496" 
d="M208 0v599h-198v68h477v-68h-199v-599h-80zM165 -227l47 159h67l-64 -159h-50z" />
    <glyph glyph-name="tcommaaccent" unicode="&#x163;" horiz-adv-x="328" 
d="M307 4q-19 -8 -40 -11.5t-41 -3.5q-38 0 -61 13t-35 35.5t-15.5 52.5t-3.5 64v287h-94v57h94v112l72 25v-137h113v-57h-113v-306q0 -33 12.5 -58t51.5 -25q15 0 28.5 3.5t27.5 9.5zM115 -227l47 159h67l-64 -159h-50z" />
    <glyph glyph-name="Tcaron" unicode="&#x164;" horiz-adv-x="496" 
d="M208 0v599h-198v68h477v-68h-199v-599h-80zM211 724l-103 136h65l75 -97l75 97h65l-103 -136h-74z" />
    <glyph glyph-name="tcaron" unicode="&#x165;" horiz-adv-x="328" 
d="M307 4q-19 -8 -40 -11.5t-41 -3.5q-38 0 -61 13t-35 35.5t-15.5 52.5t-3.5 64v287h-94v57h94v112l72 25v-137h113v-57h-113v-306q0 -33 12.5 -58t51.5 -25q15 0 28.5 3.5t27.5 9.5zM245 557l21 164h75l-43 -164h-53z" />
    <glyph glyph-name="Tbar" unicode="&#x166;" horiz-adv-x="496" 
d="M208 0v387h-137v60h137v152h-198v68h477v-68h-199v-152h140v-60h-140v-387h-80z" />
    <glyph glyph-name="tbar" unicode="&#x167;" horiz-adv-x="328" 
d="M307 4q-19 -8 -40 -11.5t-41 -3.5q-38 0 -61 13t-35 35.5t-15.5 52.5t-3.5 64v144h-82v51h82v92h-94v57h94v112l72 25v-137h113v-57h-113v-92h97v-51h-97v-163q0 -33 12.5 -58t51.5 -25q15 0 28.5 3.5t27.5 9.5z" />
    <glyph glyph-name="Utilde" unicode="&#x168;" horiz-adv-x="650" 
d="M156 236q0 -81 42.5 -130t126.5 -49t127 49t43 130v431h79v-431q0 -57 -17.5 -102.5t-50 -78t-78.5 -49.5t-103 -17t-103 17t-78.5 48.5t-49.5 77.5t-17 103v432h79v-431zM178 738q0 18 6 35.5t17.5 32t28 23.5t37.5 9q18 0 34 -6.5t30.5 -14t27.5 -14t25 -6.5
q19 0 29 15.5t10 29.5h47q0 -16 -6 -33.5t-17 -32t-27 -24t-35 -9.5t-34 6t-28.5 13.5t-26.5 14t-27 6.5q-18 0 -30.5 -15t-12.5 -30h-48z" />
    <glyph glyph-name="utilde" unicode="&#x169;" horiz-adv-x="535" 
d="M144 203q0 -30 4 -57t15.5 -48t33 -33.5t57.5 -12.5q39 0 65 15.5t42 40.5t22.5 57t6.5 65v268h72v-381q0 -29 1 -58.5t4 -58.5h-67l-2 86q-53 -97 -161 -97q-48 0 -79.5 15t-51 42t-27.5 63.5t-8 80.5v308h73v-295zM124 599q0 18 6 35.5t17.5 32t28 23.5t37.5 9
q18 0 34 -6.5t30.5 -14t27.5 -14t25 -6.5q19 0 29 15.5t10 29.5h47q0 -16 -6 -33.5t-17 -32t-27 -24t-35 -9.5t-34 6t-28.5 13.5t-26.5 14t-27 6.5q-18 0 -30.5 -15t-12.5 -30h-48z" />
    <glyph glyph-name="Umacron" unicode="&#x16a;" horiz-adv-x="650" 
d="M156 236q0 -81 42.5 -130t126.5 -49t127 49t43 130v431h79v-431q0 -57 -17.5 -102.5t-50 -78t-78.5 -49.5t-103 -17t-103 17t-78.5 48.5t-49.5 77.5t-17 103v432h79v-431zM203 767v51h245v-51h-245z" />
    <glyph glyph-name="umacron" unicode="&#x16b;" horiz-adv-x="535" 
d="M144 203q0 -30 4 -57t15.5 -48t33 -33.5t57.5 -12.5q39 0 65 15.5t42 40.5t22.5 57t6.5 65v268h72v-381q0 -29 1 -58.5t4 -58.5h-67l-2 86q-53 -97 -161 -97q-48 0 -79.5 15t-51 42t-27.5 63.5t-8 80.5v308h73v-295zM146 628v51h245v-51h-245z" />
    <glyph glyph-name="Ubreve" unicode="&#x16c;" horiz-adv-x="650" 
d="M156 236q0 -81 42.5 -130t126.5 -49t127 49t43 130v431h79v-431q0 -57 -17.5 -102.5t-50 -78t-78.5 -49.5t-103 -17t-103 17t-78.5 48.5t-49.5 77.5t-17 103v432h79v-431zM249 849q3 -30 22.5 -50.5t53.5 -20.5t53.5 20.5t23.5 50.5h43q0 -11 -5 -30.5t-18.5 -38.5
t-36.5 -33.5t-60 -14.5q-36 0 -59.5 14.5t-36.5 33.5t-18 38.5t-5 30.5h43z" />
    <glyph glyph-name="ubreve" unicode="&#x16d;" horiz-adv-x="535" 
d="M144 203q0 -30 4 -57t15.5 -48t33 -33.5t57.5 -12.5q39 0 65 15.5t42 40.5t22.5 57t6.5 65v268h72v-381q0 -29 1 -58.5t4 -58.5h-67l-2 86q-53 -97 -161 -97q-48 0 -79.5 15t-51 42t-27.5 63.5t-8 80.5v308h73v-295zM191 710q3 -30 22.5 -50.5t53.5 -20.5t53.5 20.5
t23.5 50.5h43q0 -11 -5 -30.5t-18.5 -38.5t-36.5 -33.5t-60 -14.5q-36 0 -59.5 14.5t-36.5 33.5t-18 38.5t-5 30.5h43z" />
    <glyph glyph-name="Uring" unicode="&#x16e;" horiz-adv-x="650" 
d="M156 236q0 -81 42.5 -130t126.5 -49t127 49t43 130v431h79v-431q0 -57 -17.5 -102.5t-50 -78t-78.5 -49.5t-103 -17t-103 17t-78.5 48.5t-49.5 77.5t-17 103v432h79v-431zM288 706q-26 11 -42 34t-16 52q0 39 28 65.5t67 26.5q19 0 36.5 -7t31 -19.5t21 -29.5t7.5 -36
q0 -20 -7.5 -36.5t-21 -29.5t-31 -20t-36.5 -7q-22 0 -37 7zM266 792q0 -25 17.5 -42t41.5 -17q25 0 42.5 17t17.5 42q0 24 -17.5 41t-42.5 17t-42 -17t-17 -41z" />
    <glyph glyph-name="uring" unicode="&#x16f;" horiz-adv-x="535" 
d="M144 203q0 -30 4 -57t15.5 -48t33 -33.5t57.5 -12.5q39 0 65 15.5t42 40.5t22.5 57t6.5 65v268h72v-381q0 -29 1 -58.5t4 -58.5h-67l-2 86q-53 -97 -161 -97q-48 0 -79.5 15t-51 42t-27.5 63.5t-8 80.5v308h73v-295zM208 653q0 -25 17.5 -42t41.5 -17q25 0 42.5 17
t17.5 42q0 24 -17.5 41t-42.5 17t-42 -17t-17 -41zM230 567q-26 11 -42 34t-16 52q0 39 28 65.5t67 26.5q19 0 36.5 -7t31 -19.5t21 -29.5t7.5 -36q0 -20 -7.5 -36.5t-21 -29.5t-31 -20t-36.5 -7q-22 0 -37 7z" />
    <glyph glyph-name="Uhungarumlaut" unicode="&#x170;" horiz-adv-x="650" 
d="M156 236q0 -81 42.5 -130t126.5 -49t127 49t43 130v431h79v-431q0 -57 -17.5 -102.5t-50 -78t-78.5 -49.5t-103 -17t-103 17t-78.5 48.5t-49.5 77.5t-17 103v432h79v-431zM368 724l72 136h85l-97 -136h-60zM198 724l72 136h85l-97 -136h-60z" />
    <glyph glyph-name="uhungarumlaut" unicode="&#x171;" horiz-adv-x="535" 
d="M144 203q0 -30 4 -57t15.5 -48t33 -33.5t57.5 -12.5q39 0 65 15.5t42 40.5t22.5 57t6.5 65v268h72v-381q0 -29 1 -58.5t4 -58.5h-67l-2 86q-53 -97 -161 -97q-48 0 -79.5 15t-51 42t-27.5 63.5t-8 80.5v308h73v-295zM146 585l72 136h85l-97 -136h-60zM316 585l72 136h85
l-97 -136h-60z" />
    <glyph glyph-name="Uogonek" unicode="&#x172;" horiz-adv-x="650" 
d="M436 -160q-18 -9 -36.5 -14.5t-44.5 -5.5q-43 0 -67.5 22.5t-24.5 53.5q0 58 60 93q-114 1 -180 66t-66 180v432h79v-431q0 -81 42.5 -130t126.5 -49t127 49t43 130v431h79v-431q0 -100 -51.5 -163t-142.5 -79q-63 -42 -63 -87q0 -26 16 -36.5t33 -10.5q16 0 29 3.5
t30 11.5z" />
    <glyph glyph-name="uogonek" unicode="&#x173;" horiz-adv-x="535" 
d="M503 -160q-18 -9 -36.5 -14.5t-44.5 -5.5q-43 0 -67.5 22.5t-24.5 53.5q0 34 21.5 60.5t60.5 43.5h-11l-3 86q-53 -97 -161 -97q-48 0 -79.5 15t-51 42t-27.5 63.5t-8 80.5v308h73v-295q0 -30 4 -57t15.5 -48t33 -33.5t57.5 -12.5q39 0 65 15.5t42 40.5t22.5 57t6.5 65
v268h72v-381q0 -29 1 -58.5t4 -58.5h-10q-73 -45 -73 -93q0 -26 16 -36.5t33 -10.5q16 0 29 3.5t30 11.5z" />
    <glyph glyph-name="Wcircumflex" unicode="&#x174;" horiz-adv-x="922" 
d="M202 0l-191 667h81l161 -588l166 588h92l165 -588l161 588h75l-190 -667h-94l-165 589l-166 -589h-95zM327 724l103 136h74l103 -136h-65l-75 96l-75 -96h-65z" />
    <glyph glyph-name="wcircumflex" unicode="&#x175;" horiz-adv-x="771" 
d="M171 0l-158 498h78l127 -430l129 430h87l129 -430l126 430h70l-155 -498h-89l-127 429l-129 -429h-88zM249 585l103 136h74l103 -136h-65l-75 96l-75 -96h-65z" />
    <glyph glyph-name="Ycircumflex" unicode="&#x176;" horiz-adv-x="576" 
d="M248 0v278l-246 389h88l200 -325l200 325h85l-248 -389v-278h-79zM153 724l103 136h74l103 -136h-65l-75 96l-75 -96h-65z" />
    <glyph glyph-name="ycircumflex" unicode="&#x177;" horiz-adv-x="444" 
d="M37 -156q11 -4 22 -6.5t23 -2.5q21 0 36.5 13t26.5 31.5t18.5 38t11.5 32.5l10 33l-173 515h79l134 -429l133 429h76l-200 -585q-10 -29 -23 -54.5t-30 -44.5t-39.5 -30t-50.5 -11q-18 0 -30.5 2t-29.5 6zM85 585l103 136h74l103 -136h-65l-75 96l-75 -96h-65z" />
    <glyph glyph-name="Ydieresis" unicode="&#x178;" horiz-adv-x="576" 
d="M248 0v278l-246 389h88l200 -325l200 325h85l-248 -389v-278h-79zM334 748v87h66v-87h-66zM179 748v87h66v-87h-66z" />
    <glyph glyph-name="Zacute" unicode="&#x179;" horiz-adv-x="494" 
d="M26 0v66l348 535h-336v66h422v-66l-345 -535h353v-66h-442zM209 724l72 136h85l-96 -136h-61z" />
    <glyph glyph-name="zacute" unicode="&#x17a;" horiz-adv-x="424" 
d="M30 0v59l281 381h-270v58h352v-59l-281 -381h283v-58h-365zM171 585l72 136h85l-96 -136h-61z" />
    <glyph glyph-name="Zdotaccent" unicode="&#x17b;" horiz-adv-x="494" 
d="M26 0v66l348 535h-336v66h422v-66l-345 -535h353v-66h-442zM214 748v87h73v-87h-73z" />
    <glyph glyph-name="zdotaccent" unicode="&#x17c;" horiz-adv-x="424" 
d="M30 0v59l281 381h-270v58h352v-59l-281 -381h283v-58h-365zM183 609v87h73v-87h-73z" />
    <glyph glyph-name="Zcaron" unicode="&#x17d;" horiz-adv-x="494" 
d="M26 0v66l348 535h-336v66h422v-66l-345 -535h353v-66h-442zM210 724l-103 136h65l75 -97l75 97h65l-103 -136h-74z" />
    <glyph glyph-name="zcaron" unicode="&#x17e;" horiz-adv-x="424" 
d="M30 0v59l281 381h-270v58h352v-59l-281 -381h283v-58h-365zM179 585l-103 136h65l75 -97l75 97h65l-103 -136h-74z" />
    <glyph glyph-name="uni018F" unicode="&#x18f;" horiz-adv-x="649" 
d="M317 54q46 0 81.5 18t60 49.5t39 74t17.5 90.5h-382v-7q0 -48 10 -89t32 -71.5t57 -47.5t85 -17zM312 -12q-71 0 -120.5 23.5t-80.5 66t-45.5 101.5t-14.5 130v40h465q-7 125 -70 192.5t-177 67.5q-49 0 -95.5 -10t-88.5 -33l-5 72q47 21 96 30t105 9q75 0 134 -24
t100 -69.5t62.5 -111t21.5 -147.5q0 -70 -20 -131.5t-57 -107t-90 -72t-120 -26.5z" />
    <glyph glyph-name="florin" unicode="&#x192;" horiz-adv-x="542" 
d="M-1 -159q12 -3 23 -3.5t22 -0.5q25 0 42.5 15.5t29.5 38.5t19 48t11 45l74 359h-108v57h120l25 108q7 33 18 64t29 54t44.5 37t65.5 14q15 0 30.5 -2.5t29.5 -7.5l-6 -60q-12 3 -24 5t-23 2q-23 0 -38 -10t-25.5 -26.5t-16.5 -36.5t-10 -39l-24 -102h109v-57h-121
l-76 -364q-7 -32 -17.5 -68t-28.5 -67t-45 -51t-66 -20q-17 0 -34 1t-35 4z" />
    <glyph glyph-name="Aringacute" unicode="&#x1fa;" horiz-adv-x="634" 
d="M271 779l103 100h95l-134 -100h-64zM258 658q0 -26 17.5 -42t41.5 -16q26 0 43 16t17 42q0 25 -17 42t-43 17t-42.5 -17t-16.5 -42zM184 245h262l-130 314zM473 181h-316l-76 -181h-77l251 587q-15 13 -24 31t-9 40q0 19 7.5 36t20.5 30t30 20t37 7q19 0 36.5 -7t31 -20
t21 -30t7.5 -36q0 -22 -9.5 -40.5t-25.5 -31.5l252 -586h-82z" />
    <glyph glyph-name="aringacute" unicode="&#x1fb;" horiz-adv-x="493" 
d="M185 779l103 100h95l-134 -100h-64zM355 0l-3 80q-22 -48 -64.5 -69.5t-90.5 -21.5q-33 0 -63 9t-52 27t-35 46t-13 66q0 48 20 80t54.5 51t81.5 27t102 8h56v24q0 57 -25 90t-87 33q-77 0 -141 -42l-6 65q32 16 73.5 25.5t76.5 9.5q94 0 137.5 -46t43.5 -140v-216
q0 -28 1 -54t5 -52h-71zM311 250q-35 0 -71 -3t-65 -14.5t-47.5 -33.5t-18.5 -59q0 -25 8 -42.5t21.5 -28.5t31 -16t35.5 -5q40 0 67 14t44 37.5t24.5 54.5t7.5 66v30h-37zM180 653q0 -25 17.5 -42t41.5 -17q25 0 42.5 17t17.5 42q0 24 -17.5 41t-42.5 17t-42 -17t-17 -41z
M202 567q-26 11 -42 34t-16 52q0 39 28 65.5t67 26.5q19 0 36.5 -7t31 -19.5t21 -29.5t7.5 -36q0 -20 -7.5 -36.5t-21 -29.5t-31 -20t-36.5 -7q-22 0 -37 7z" />
    <glyph glyph-name="AEacute" unicode="&#x1fc;" horiz-adv-x="854" 
d="M230 245h227v367zM-4 0l418 667h382v-65h-261v-229h247v-62h-247v-246h273v-65h-351v181h-264l-111 -181h-86zM468 724l72 136h85l-96 -136h-61z" />
    <glyph glyph-name="aeacute" unicode="&#x1fd;" horiz-adv-x="790" 
d="M331 240q-45 0 -85 -3.5t-70.5 -14.5t-48.5 -32t-18 -56q0 -26 9.5 -43t23.5 -26.5t31 -13t31 -3.5q37 0 64.5 12.5t44.5 35t25.5 52t8.5 64.5v28h-16zM88 473q32 15 72 25t78 10q121 0 157 -87q27 42 69.5 64.5t91.5 22.5q58 0 96 -21.5t60 -57t30.5 -82t8.5 -95.5v-12
h-336q0 -36 9 -70.5t29 -61.5t53 -43.5t80 -16.5q36 0 70.5 10t62.5 28l3 -65q-67 -32 -136 -32q-34 0 -65 6.5t-58 20t-48 34t-34 47.5q-27 -51 -74.5 -79.5t-110.5 -28.5q-29 0 -58 7.5t-52 24t-37.5 43.5t-14.5 67q0 49 23 81t61.5 50t87.5 25t100 7h41v33q0 57 -25 90
t-86 33q-78 0 -142 -42zM680 294q-2 25 -8 53t-19.5 50.5t-36.5 37.5t-59 15t-62 -14.5t-43.5 -37t-26.5 -50t-10 -54.5h265zM370 585l72 136h85l-96 -136h-61z" />
    <glyph glyph-name="Oslashacute" unicode="&#x1fe;" horiz-adv-x="701" 
d="M204 123q26 -30 63 -49t86 -19q58 0 99.5 24.5t67 64t37.5 89t12 100.5q0 45 -9.5 88t-30.5 79zM501 547q-26 29 -62.5 46.5t-85.5 17.5q-57 0 -98.5 -24.5t-67.5 -64.5t-38.5 -89.5t-12.5 -99.5q0 -43 10 -85.5t30 -78.5zM35 10l80 93q-32 46 -47 105t-15 125
q0 69 18.5 131.5t56 109.5t94 75t131.5 28q66 0 115 -19t85 -53l74 86l40 -35l-78 -90q33 -46 48.5 -106t15.5 -127q0 -69 -18.5 -131.5t-56 -110t-94 -75t-131.5 -27.5q-66 0 -116.5 19.5t-86.5 54.5l-76 -88zM313 724l72 136h85l-96 -136h-61z" />
    <glyph glyph-name="oslashacute" unicode="&#x1ff;" horiz-adv-x="551" 
d="M27 -1l67 77q-26 35 -38 79.5t-12 95.5q0 54 15 100.5t44.5 81.5t73 55t100.5 20q48 0 85.5 -13t66.5 -38l59 68l37 -27l-64 -74q25 -34 37 -78t12 -95q0 -54 -15 -101.5t-44 -83.5t-72.5 -56.5t-101.5 -20.5q-48 0 -86 14.5t-66 39.5l-61 -71zM382 405q-37 42 -105 42
q-41 0 -70.5 -17t-48.5 -45t-27.5 -63t-8.5 -71q0 -30 5.5 -61.5t21.5 -56.5zM172 97q18 -22 44 -34.5t61 -12.5q41 0 70.5 17.5t48 46t27.5 64.5t9 73q0 32 -5.5 62t-19.5 55zM230 585l72 136h85l-96 -136h-61z" />
    <glyph glyph-name="Scommaaccent" unicode="&#x218;" horiz-adv-x="484" 
d="M57 94q35 -22 73.5 -30.5t80.5 -8.5q28 0 53 6.5t43.5 21t29 37.5t10.5 56q0 26 -9.5 46t-25 35.5t-36.5 28.5t-44 25l-54 29q-24 13 -45 28t-36.5 34t-24.5 44t-9 58q0 45 18.5 78t48.5 54t68.5 31t79.5 10q35 0 66.5 -5.5t62.5 -18.5l-9 -71q-27 15 -57.5 22t-61.5 7
q-26 0 -50.5 -5t-43.5 -17t-30 -32t-11 -50q0 -41 26.5 -67t66.5 -47l54 -29q28 -15 53 -31t44 -37t30 -49t11 -66q0 -47 -18 -83t-48 -60t-69 -36.5t-82 -12.5t-84.5 7t-79.5 24zM174 -227l47 159h67l-64 -159h-50z" />
    <glyph glyph-name="scommaaccent" unicode="&#x219;" horiz-adv-x="389" 
d="M51 80q30 -16 59 -23.5t63 -7.5q42 0 68.5 20.5t26.5 62.5q0 30 -16 49t-40 32.5t-51.5 25.5t-51.5 28.5t-40 40.5t-16 62q0 37 14 63.5t37 43t52 24t58 7.5q31 0 59 -5.5t54 -15.5l-10 -63q-23 11 -49.5 18t-52.5 7q-15 0 -30.5 -3.5t-28.5 -11.5t-21.5 -23t-8.5 -37
q0 -25 16 -40.5t40 -28t52.5 -24.5t52.5 -30t40 -44.5t16 -68.5q0 -36 -14 -64t-37.5 -46.5t-54 -28.5t-63.5 -10q-36 0 -69 5t-63 18zM127 -227l47 159h67l-64 -159h-50z" />
    <glyph glyph-name="uni021A" unicode="&#x21a;" horiz-adv-x="496" 
d="M208 0v599h-198v68h477v-68h-199v-599h-80zM165 -227l47 159h67l-64 -159h-50z" />
    <glyph glyph-name="uni021B" unicode="&#x21b;" horiz-adv-x="328" 
d="M307 4q-19 -8 -40 -11.5t-41 -3.5q-38 0 -61 13t-35 35.5t-15.5 52.5t-3.5 64v287h-94v57h94v112l72 25v-137h113v-57h-113v-306q0 -33 12.5 -58t51.5 -25q15 0 28.5 3.5t27.5 9.5zM115 -227l47 159h67l-64 -159h-50z" />
    <glyph glyph-name="dotlessj" unicode="&#x237;" horiz-adv-x="224" 
d="M-20 -158q16 -6 34 -6q22 0 35 8t20 20.5t8.5 29.5t1.5 35v569h72v-580q0 -30 -5 -56.5t-18 -46t-35.5 -31t-56.5 -11.5q-16 0 -31.5 1t-30.5 5z" />
    <glyph glyph-name="uni0259" unicode="&#x259;" horiz-adv-x="491" 
d="M227 47q36 0 63 14.5t45 37t28 50t11 54.5h-274q2 -26 8.5 -53.5t20.5 -50t38 -37.5t60 -15zM228 -11q-58 0 -96.5 21.5t-61 57t-32 81.5t-9.5 96v12h345q0 36 -10 70.5t-31 61.5t-54.5 43.5t-80.5 16.5q-37 0 -73.5 -10.5t-64.5 -28.5l-6 64q32 17 69.5 25.5t74.5 8.5
q64 0 111.5 -20t79 -55t46.5 -83t15 -104q0 -48 -13.5 -94t-41.5 -82t-69.5 -58.5t-97.5 -22.5z" />
    <glyph glyph-name="apostrophe" unicode="&#x2bc;" horiz-adv-x="271" 
d="M29 554l45 167h65l-64 -167h-46z" />
    <glyph glyph-name="circumflex" unicode="&#x2c6;" horiz-adv-x="218" 
d="M-31 585l103 136h74l103 -136h-65l-75 96l-75 -96h-65z" />
    <glyph glyph-name="caron" unicode="&#x2c7;" horiz-adv-x="218" 
d="M72 585l-103 136h65l75 -97l75 97h65l-103 -136h-74z" />
    <glyph glyph-name="uni02C9" unicode="&#x2c9;" horiz-adv-x="218" 
d="M-13 628v51h245v-51h-245z" />
    <glyph glyph-name="breve" unicode="&#x2d8;" horiz-adv-x="218" 
d="M33 710q3 -30 22.5 -50.5t53.5 -20.5t53.5 20.5t23.5 50.5h43q0 -11 -5 -30.5t-18.5 -38.5t-36.5 -33.5t-60 -14.5q-36 0 -59.5 14.5t-36.5 33.5t-18 38.5t-5 30.5h43z" />
    <glyph glyph-name="dotaccent" unicode="&#x2d9;" horiz-adv-x="218" 
d="M73 609v87h73v-87h-73z" />
    <glyph glyph-name="ring" unicode="&#x2da;" horiz-adv-x="218" 
d="M50 653q0 -25 17.5 -42t41.5 -17q25 0 42.5 17t17.5 42q0 24 -17.5 41t-42.5 17t-42 -17t-17 -41zM72 567q-26 11 -42 34t-16 52q0 39 28 65.5t67 26.5q19 0 36.5 -7t31 -19.5t21 -29.5t7.5 -36q0 -20 -7.5 -36.5t-21 -29.5t-31 -20t-36.5 -7q-22 0 -37 7z" />
    <glyph glyph-name="ogonek" unicode="&#x2db;" horiz-adv-x="218" 
d="M200 -160q-18 -9 -36.5 -14.5t-44.5 -5.5q-43 0 -67.5 22.5t-24.5 53.5q0 34 21.5 60.5t60.5 43.5h45q-73 -45 -73 -93q0 -26 16 -36.5t33 -10.5q16 0 29 3.5t30 11.5z" />
    <glyph glyph-name="tilde" unicode="&#x2dc;" horiz-adv-x="218" 
d="M-37 599q0 18 6 35.5t17.5 32t28 23.5t37.5 9q18 0 34 -6.5t30.5 -14t27.5 -14t25 -6.5q19 0 29 15.5t10 29.5h47q0 -16 -6 -33.5t-17 -32t-27 -24t-35 -9.5t-34 6t-28.5 13.5t-26.5 14t-27 6.5q-18 0 -30.5 -15t-12.5 -30h-48z" />
    <glyph glyph-name="hungarumlaut" unicode="&#x2dd;" horiz-adv-x="218" 
d="M-51 585l72 136h85l-97 -136h-60zM119 585l72 136h85l-97 -136h-60z" />
    <glyph glyph-name="uni0374" unicode="&#x374;" horiz-adv-x="173" 
d="M97 525h-58l45 196h79z" />
    <glyph glyph-name="uni0375" unicode="&#x375;" horiz-adv-x="171" 
d="M76 68h57l-44 -196h-80z" />
    <glyph glyph-name="uni037E" unicode="&#x37e;" horiz-adv-x="271" 
d="M38 -128l58 217h84l-83 -217h-59zM92 409v89h86v-89h-86z" />
    <glyph glyph-name="tonos" unicode="&#x384;" horiz-adv-x="218" 
d="M162 585h-62l33 136h86z" />
    <glyph glyph-name="dieresistonos" unicode="&#x385;" horiz-adv-x="218" 
d="M7 609v87h66v-87h-66zM252 609v87h66v-87h-66zM168 595h-61l36 136h85z" />
    <glyph glyph-name="Alphatonos" unicode="&#x386;" horiz-adv-x="634" 
d="M95 531h-62l33 136h86zM316 603l-141 -358h280zM548 0l-69 181h-327l-71 -181h-77l266 667h93l267 -667h-82z" />
    <glyph glyph-name="anoteleia" unicode="&#x387;" horiz-adv-x="271" 
d="M93 409v89h86v-89h-86z" />
    <glyph glyph-name="Epsilontonos" unicode="&#x388;" horiz-adv-x="486" 
d="M-30 531h-62l33 136h86zM85 0v667h344v-65h-265v-228h252v-63h-252v-246h276v-65h-355z" />
    <glyph glyph-name="Etatonos" unicode="&#x389;" horiz-adv-x="653" 
d="M-25 531h-62l33 136h86zM489 0v309h-325v-309h-79v667h79v-289h325v289h80v-667h-80z" />
    <glyph glyph-name="Iotatonos" unicode="&#x38a;" horiz-adv-x="248" 
d="M-26 531h-62l33 136h86zM85 0v667h79v-667h-79z" />
    <glyph glyph-name="Omicrontonos" unicode="&#x38c;" horiz-adv-x="701" 
d="M31 531h-62l33 136h86zM567 333q0 51 -12 100.5t-37.5 89t-67 64t-99.5 24.5q-57 0 -98.5 -24.5t-67.5 -64.5t-38.5 -89.5t-12.5 -99.5t12.5 -99.5t39 -89.5t67.5 -64.5t98 -24.5q58 0 99.5 24.5t67 64t37.5 89t12 100.5zM651 333q0 -69 -18.5 -131.5t-56 -110t-94 -75
t-131.5 -27.5q-77 0 -133.5 27t-93.5 73.5t-55 109.5t-18 134q0 69 18.5 131.5t56 109.5t94 75t131.5 28q77 0 133.5 -27t93.5 -74t55 -109.5t18 -133.5z" />
    <glyph glyph-name="Upsilontonos" unicode="&#x38e;" horiz-adv-x="576" 
d="M-103 531h-62l33 136h86zM327 278v-278h-79v278l-246 389h88l200 -325l200 325h85z" />
    <glyph glyph-name="Omegatonos" unicode="&#x38f;" horiz-adv-x="701" 
d="M13 531h-62l33 136h86zM404 54q44 18 75 47.5t50.5 67t28.5 80t9 84.5q0 51 -12 100.5t-37.5 89t-67 64t-99.5 24.5q-57 0 -98.5 -24.5t-67.5 -64.5t-38.5 -89.5t-12.5 -99.5q0 -42 10.5 -84.5t31.5 -80.5t53 -68t75 -46v-54h-258v66h86q11 0 23.5 -1.5t22.5 -3.5
q-60 45 -93.5 117t-33.5 155q0 69 18.5 131.5t56 109.5t94 75t131.5 28q77 0 133.5 -27t93.5 -74t55 -109.5t18 -133.5q0 -49 -11.5 -91.5t-30 -77t-43 -61t-49.5 -42.5q6 1 16 2t21 2t20 1h13h68v-66h-251v54z" />
    <glyph glyph-name="iotadieresistonos" unicode="&#x390;" horiz-adv-x="241" 
d="M76 498h72v-395q0 -29 7 -39t24 -10q11 0 17 4l4 -63q-6 -2 -14.5 -4t-19.5 -2q-47 0 -68.5 24.5t-21.5 78.5v406zM-17 609v87h66v-87h-66zM228 609v87h66v-87h-66zM144 595h-61l36 136h85z" />
    <glyph glyph-name="Alpha" unicode="&#x391;" horiz-adv-x="634" 
d="M175 245h280l-139 358zM4 0l266 667h93l267 -667h-82l-69 181h-327l-71 -181h-77z" />
    <glyph glyph-name="Beta" unicode="&#x392;" horiz-adv-x="549" 
d="M163 62h71q31 0 63 5t58 19t42 38t16 63q0 42 -17 67.5t-44.5 39.5t-61.5 18.5t-67 4.5h-60v-255zM163 376h75q30 0 58.5 5.5t50.5 19.5t35 37.5t13 58.5q0 31 -12 52t-32 33.5t-45 17.5t-52 5h-91v-229zM85 0v667h177q41 0 79.5 -8t68.5 -27t48 -51t18 -79
q0 -63 -34 -101t-94 -52q31 -5 58 -18t47 -33.5t31 -47.5t11 -60q0 -57 -22.5 -94t-59 -58.5t-83 -29.5t-94.5 -8h-151z" />
    <glyph glyph-name="Gamma" unicode="&#x393;" horiz-adv-x="450" 
d="M85 0v667h356v-68h-277v-599h-79z" />
    <glyph glyph-name="uni0394" unicode="&#x394;" horiz-adv-x="696" 
d="M139 64h413l-205 539zM301 667h93l267 -667h-626z" />
    <glyph glyph-name="Epsilon" unicode="&#x395;" horiz-adv-x="486" 
d="M85 0v667h344v-65h-265v-228h252v-63h-252v-246h276v-65h-355z" />
    <glyph glyph-name="Zeta" unicode="&#x396;" horiz-adv-x="494" 
d="M26 0v66l348 535h-336v66h422v-66l-345 -535h353v-66h-442z" />
    <glyph glyph-name="Eta" unicode="&#x397;" horiz-adv-x="653" 
d="M85 0v667h79v-289h325v289h80v-667h-80v309h-325v-309h-79z" />
    <glyph glyph-name="Theta" unicode="&#x398;" horiz-adv-x="701" 
d="M199 375h301v-69h-301v69zM567 333q0 51 -12 100.5t-37.5 89t-67 64t-99.5 24.5q-57 0 -98.5 -24.5t-67.5 -64.5t-38.5 -89.5t-12.5 -99.5t12.5 -99.5t39 -89.5t67.5 -64.5t98 -24.5q58 0 99.5 24.5t67 64t37.5 89t12 100.5zM651 333q0 -69 -18.5 -131.5t-56 -110
t-94 -75t-131.5 -27.5q-77 0 -133.5 27t-93.5 73.5t-55 109.5t-18 134q0 69 18.5 131.5t56 109.5t94 75t131.5 28q77 0 133.5 -27t93.5 -74t55 -109.5t18 -133.5z" />
    <glyph glyph-name="Iota" unicode="&#x399;" horiz-adv-x="248" 
d="M85 0v667h79v-667h-79z" />
    <glyph glyph-name="Kappa" unicode="&#x39a;" horiz-adv-x="586" 
d="M85 0v667h79v-301l292 301h98l-315 -313l343 -354h-106l-312 333v-333h-79z" />
    <glyph glyph-name="Lambda" unicode="&#x39b;" horiz-adv-x="576" 
d="M289 599l-204 -599h-81l239 667h93l236 -667h-84z" />
    <glyph glyph-name="Mu" unicode="&#x39c;" horiz-adv-x="869" 
d="M85 0v667h122l229 -579l227 579h122v-667h-77v602l-236 -602h-77l-236 602v-602h-74z" />
    <glyph glyph-name="Nu" unicode="&#x39d;" horiz-adv-x="676" 
d="M85 0v667h111l321 -585v585h74v-667h-111l-321 585v-585h-74z" />
    <glyph glyph-name="Xi" unicode="&#x39e;" horiz-adv-x="525" 
d="M113 310v71h304v-71h-304zM46 596v71h434v-71h-434zM480 69v-69h-435v69h435z" />
    <glyph glyph-name="Omicron" unicode="&#x39f;" horiz-adv-x="701" 
d="M185 144q27 -40 68 -64.5t98 -24.5q58 0 99.5 24.5t67 64t37.5 89t12 100.5t-12 100.5t-37.5 89t-67 64t-99.5 24.5q-57 0 -98.5 -24.5t-67.5 -64.5t-38.5 -89.5t-12.5 -99.5q0 -51 12.5 -100t38.5 -89zM217 16q-42 20 -73 52t-52 73t-31 89.5t-10 102.5q0 69 18.5 131.5
t56 109.5t94 75t131.5 28q77 0 133.5 -27t93.5 -74t55 -109.5t18 -133.5q0 -69 -18.5 -131.5t-56 -110t-94 -75t-131.5 -27.5q-77 0 -134 27z" />
    <glyph glyph-name="Pi" unicode="&#x3a0;" horiz-adv-x="629" 
d="M465 0v602h-301v-602h-79v667h459v-667h-79z" />
    <glyph glyph-name="Rho" unicode="&#x3a1;" horiz-adv-x="508" 
d="M85 0v667h156q50 0 93.5 -10t76 -32t51 -57.5t18.5 -86.5q0 -56 -20 -94t-54.5 -61.5t-80 -34t-96.5 -10.5h-65v-281h-79zM163 345h51q38 0 71.5 5t58.5 20t39.5 41.5t14.5 68.5q0 34 -13 58t-36 38t-54 20.5t-68 6.5h-64v-258z" />
    <glyph glyph-name="Sigma" unicode="&#x3a3;" horiz-adv-x="549" 
d="M41 0v66l246 277l-234 258v66h449v-66h-357l234 -255l-249 -280h378v-66h-467z" />
    <glyph glyph-name="Tau" unicode="&#x3a4;" horiz-adv-x="496" 
d="M208 0v599h-198v68h477v-68h-199v-599h-80z" />
    <glyph glyph-name="Upsilon" unicode="&#x3a5;" horiz-adv-x="576" 
d="M248 0v278l-246 389h88l200 -325l200 325h85l-248 -389v-278h-79z" />
    <glyph glyph-name="Phi" unicode="&#x3a6;" horiz-adv-x="768" 
d="M132 363q0 -47 15.5 -85.5t43.5 -67t67.5 -44.5t88.5 -18v437q-56 -2 -96.5 -20.5t-66.5 -48.5t-39 -69.5t-13 -83.5zM636 370q0 47 -15.5 85.5t-43.5 67t-67.5 44.5t-88.5 18v-437q55 2 96 20.5t67 48.5t39 69.5t13 83.5zM347 721h74v-73q69 -3 124 -24t93.5 -57
t59 -86.5t20.5 -111.5q0 -59 -19 -110t-56.5 -89t-93 -61t-128.5 -25v-84h-74v84q-69 3 -124 24t-93.5 57t-59 86.5t-20.5 111.5q0 58 19 109t56.5 89.5t93 61.5t128.5 25v73z" />
    <glyph glyph-name="Chi" unicode="&#x3a7;" horiz-adv-x="602" 
d="M8 0l247 350l-223 317h92l182 -268l181 268h86l-221 -317l243 -350h-95l-198 303l-206 -303h-88z" />
    <glyph glyph-name="Psi" unicode="&#x3a8;" horiz-adv-x="699" 
d="M126 667v-210q0 -47 13.5 -82t38 -58.5t58 -36t74.5 -13.5v400h79v-400q39 0 72.5 14t58.5 38.5t39 59t14 75.5v213h79v-213q0 -53 -17 -98t-50.5 -78t-82.5 -53t-113 -24v-201h-79v201q-131 2 -197 69t-66 180v217h79z" />
    <glyph glyph-name="uni03A9" unicode="&#x3a9;" horiz-adv-x="701" 
d="M404 54q44 18 75 47.5t50.5 67t28.5 80t9 84.5q0 51 -12 100.5t-37.5 89t-67 64t-99.5 24.5q-57 0 -98.5 -24.5t-67.5 -64.5t-38.5 -89.5t-12.5 -99.5q0 -42 10.5 -84.5t31.5 -80.5t53 -68t75 -46v-54h-258v66h86q11 0 23.5 -1.5t22.5 -3.5q-60 45 -93.5 117t-33.5 155
q0 69 18.5 131.5t56 109.5t94 75t131.5 28q77 0 133.5 -27t93.5 -74t55 -109.5t18 -133.5q0 -49 -11.5 -91.5t-30 -77t-43 -61t-49.5 -42.5q6 1 16 2t21 2t20 1h13h68v-66h-251v54z" />
    <glyph glyph-name="Iotadieresis" unicode="&#x3aa;" horiz-adv-x="248" 
d="M168 748v87h66v-87h-66zM13 748v87h66v-87h-66zM85 0v667h79v-667h-79z" />
    <glyph glyph-name="Upsilondieresis" unicode="&#x3ab;" horiz-adv-x="576" 
d="M334 748v87h66v-87h-66zM179 748v87h66v-87h-66zM327 278v-278h-79v278l-246 389h88l200 -325l200 325h85z" />
    <glyph glyph-name="alphatonos" unicode="&#x3ac;" horiz-adv-x="542" 
d="M394 250q0 37 -7.5 72.5t-24 63t-42.5 44t-63 16.5q-36 0 -62 -17t-42.5 -44.5t-24 -63t-7.5 -71.5t6.5 -71.5t22.5 -64t42.5 -46t67.5 -17.5q37 0 62.5 17.5t41.5 46t23 64t7 71.5zM517 -4q-8 -3 -16 -5t-19 -2q-31 0 -55 25t-24 82v3q-9 -26 -25 -46.5t-36.5 -34.5
t-45 -21.5t-49.5 -7.5q-55 0 -93.5 22t-63 58.5t-36 84t-11.5 97.5q0 51 13 97.5t39 82t65 56.5t90 21q36 0 62 -11t43.5 -27.5t27.5 -36t14 -36.5v111h67v-359q0 -49 3.5 -72t26.5 -23q8 0 19 3zM299 585h-62l33 136h86z" />
    <glyph glyph-name="epsilontonos" unicode="&#x3ad;" horiz-adv-x="441" 
d="M244 231q-57 0 -87 -19.5t-30 -61.5q0 -27 9.5 -46.5t27 -31.5t41 -17.5t51.5 -5.5q24 0 43.5 2.5t37 8t34 12.5t34.5 16l3 -66q-26 -14 -64 -23.5t-88 -9.5q-42 0 -79.5 9t-65.5 27.5t-44.5 46.5t-16.5 66q0 55 31 84t76 41q-14 4 -31 11.5t-31 20t-23.5 31t-9.5 44.5
q0 37 16.5 63t42.5 42.5t59 24.5t66 8q44 0 84 -7.5t67 -18.5l-6 -65q-32 13 -64 22.5t-79 9.5q-58 0 -85 -23t-27 -54q0 -39 28.5 -58.5t79.5 -19.5h80v-63h-80zM272 585h-62l33 136h86z" />
    <glyph glyph-name="etatonos" unicode="&#x3ae;" horiz-adv-x="545" 
d="M397 -216v511q0 30 -4 57t-16 48t-34 33.5t-58 12.5q-39 0 -65 -15.5t-42 -40.5t-22.5 -57t-6.5 -65v-268h-73v381q0 29 -1 58.5t-4 58.5h67l3 -86q53 96 161 96q48 0 80 -15t51.5 -41.5t27.5 -63t8 -79.5v-525h-72zM311 585h-62l33 136h86z" />
    <glyph glyph-name="iotatonos" unicode="&#x3af;" horiz-adv-x="241" 
d="M76 498h72v-395q0 -29 7 -39t24 -10q11 0 17 4l4 -63q-6 -2 -14.5 -4t-19.5 -2q-47 0 -68.5 24.5t-21.5 78.5v406zM148 585h-62l33 136h86z" />
    <glyph glyph-name="upsilondieresistonos" unicode="&#x3b0;" horiz-adv-x="518" 
d="M424 498q7 -15 14 -39t12.5 -54.5t9 -66.5t3.5 -76q0 -74 -17 -126t-46 -84.5t-66.5 -47.5t-79.5 -15q-41 0 -75.5 12.5t-59 39t-38 66.5t-13.5 94v297h73v-291q0 -81 31.5 -118t90.5 -37q57 0 92 51.5t35 162.5q0 61 -11.5 122.5t-37.5 109.5h83zM85 609v87h66v-87h-66z
M330 609v87h66v-87h-66zM246 595h-61l36 136h85z" />
    <glyph glyph-name="alpha" unicode="&#x3b1;" horiz-adv-x="542" 
d="M394 250q0 37 -7.5 72.5t-24 63t-42.5 44t-63 16.5q-36 0 -62 -17t-42.5 -44.5t-24 -63t-7.5 -71.5t6.5 -71.5t22.5 -64t42.5 -46t67.5 -17.5q37 0 62.5 17.5t41.5 46t23 64t7 71.5zM517 -4q-8 -3 -16 -5t-19 -2q-31 0 -55 25t-24 82v3q-9 -26 -25 -46.5t-36.5 -34.5
t-45 -21.5t-49.5 -7.5q-55 0 -93.5 22t-63 58.5t-36 84t-11.5 97.5q0 51 13 97.5t39 82t65 56.5t90 21q36 0 62 -11t43.5 -27.5t27.5 -36t14 -36.5v111h67v-359q0 -49 3.5 -72t26.5 -23q8 0 19 3z" />
    <glyph glyph-name="beta" unicode="&#x3b2;" horiz-adv-x="547" 
d="M142 262q0 -107 39.5 -159t102.5 -52t98.5 42.5t35.5 106.5q0 31 -8.5 61t-26.5 53t-46.5 37t-69.5 14h-45v65h43q25 0 44.5 12t33 30.5t20 41.5t6.5 45q0 52 -30 83t-78 31q-57 0 -88 -41t-31 -130v-240zM442 561q0 -28 -8.5 -53t-22 -45t-30.5 -34t-34 -20
q74 -19 112 -73t38 -132q0 -41 -12.5 -79.5t-37.5 -68.5t-62 -48.5t-86 -18.5q-59 0 -97.5 27t-55.5 65v-297h-73v724q0 63 16 106t42 69t60.5 37t71.5 11q45 0 78.5 -14.5t56 -38t33.5 -54t11 -63.5z" />
    <glyph glyph-name="gamma" unicode="&#x3b3;" horiz-adv-x="469" 
d="M422 498q1 -15 1 -24.5v-20.5q0 -75 -18 -145t-44.5 -131t-57 -110t-54.5 -81q2 -35 4 -74t2 -72v-28t-1 -28h-72q2 20 3 37t1 34q0 53 -2 93.5t-7 75.5q-7 53 -22.5 115.5t-37.5 126t-49.5 124t-57.5 108.5h84q25 -44 47 -95t40.5 -106t33 -111t23.5 -109
q31 46 52.5 96.5t35 99.5t20 93.5t6.5 80.5q0 11 -1 24t-3 27h74z" />
    <glyph glyph-name="delta" unicode="&#x3b4;" horiz-adv-x="539" 
d="M282 426q-42 -15 -71 -38t-47 -50t-26 -57t-8 -59q0 -79 39.5 -125t101.5 -46q36 0 62 14.5t43.5 38.5t26 55.5t8.5 66.5q0 62 -36 113.5t-93 86.5zM334 472q30 -22 58 -47.5t49.5 -56t34.5 -66t13 -77.5q0 -41 -13 -83t-40 -76t-68.5 -55.5t-98.5 -21.5q-50 0 -90 17.5
t-69 48t-44.5 73t-15.5 93.5q0 85 45.5 145.5t136.5 95.5l-30 25q-34 28 -54 57t-20 62q0 31 13.5 54.5t37 39.5t54 23.5t64.5 7.5q45 0 84 -11t59 -21l-12 -66q-11 7 -27 14t-34 12.5t-37.5 9t-38.5 3.5q-36 0 -61.5 -18t-25.5 -46q0 -26 24.5 -50.5t65.5 -55.5z" />
    <glyph glyph-name="epsilon" unicode="&#x3b5;" horiz-adv-x="441" 
d="M244 231q-57 0 -87 -19.5t-30 -61.5q0 -27 9.5 -46.5t27 -31.5t41 -17.5t51.5 -5.5q24 0 43.5 2.5t37 8t34 12.5t34.5 16l3 -66q-26 -14 -64 -23.5t-88 -9.5q-42 0 -79.5 9t-65.5 27.5t-44.5 46.5t-16.5 66q0 55 31 84t76 41q-14 4 -31 11.5t-31 20t-23.5 31t-9.5 44.5
q0 37 16.5 63t42.5 42.5t59 24.5t66 8q44 0 84 -7.5t67 -18.5l-6 -65q-32 13 -64 22.5t-79 9.5q-58 0 -85 -23t-27 -54q0 -39 28.5 -58.5t79.5 -19.5h80v-63h-80z" />
    <glyph glyph-name="zeta" unicode="&#x3b6;" horiz-adv-x="414" 
d="M397 -82q0 -25 -7.5 -52t-18.5 -54h-74q13 22 21.5 44.5t8.5 44.5q0 30 -19 46.5t-65 33.5q-40 14 -74 36t-58.5 55t-38.5 78t-14 104q0 100 64.5 204t203.5 203q-11 -2 -25.5 -2.5t-27.5 -0.5h-181v63h314v-66q-127 -104 -198 -203t-71 -202q0 -45 9 -78.5t26 -57.5
t41 -40.5t55 -29.5q42 -17 67 -33t39 -31t18.5 -30.5t4.5 -31.5z" />
    <glyph glyph-name="eta" unicode="&#x3b7;" horiz-adv-x="545" 
d="M397 -216v511q0 30 -4 57t-16 48t-34 33.5t-58 12.5q-39 0 -65 -15.5t-42 -40.5t-22.5 -57t-6.5 -65v-268h-73v381q0 29 -1 58.5t-4 58.5h67l3 -86q53 96 161 96q48 0 80 -15t51.5 -41.5t27.5 -63t8 -79.5v-525h-72z" />
    <glyph glyph-name="theta" unicode="&#x3b8;" horiz-adv-x="552" 
d="M276 664q-36 0 -62 -22.5t-44 -58.5t-28.5 -82t-13.5 -94h295q-3 48 -13 94t-27.5 82t-44 58.5t-62.5 22.5zM276 54q39 0 66.5 26t45.5 68t27 94t10 105h-298q1 -52 10 -104t27 -94t46 -68.5t66 -26.5zM502 361q0 -75 -14 -142.5t-42.5 -118.5t-70.5 -81t-99 -30
q-58 0 -100.5 29.5t-70.5 80t-41.5 118t-13.5 144.5q0 75 14 142t42.5 117.5t70.5 80.5t99 30t99.5 -29t70.5 -79.5t42 -118t14 -143.5z" />
    <glyph glyph-name="iota" unicode="&#x3b9;" horiz-adv-x="241" 
d="M76 498h72v-395q0 -29 7 -39t24 -10q11 0 17 4l4 -63q-6 -2 -14.5 -4t-19.5 -2q-47 0 -68.5 24.5t-21.5 78.5v406z" />
    <glyph glyph-name="kappa" unicode="&#x3ba;" horiz-adv-x="485" 
d="M382 0l-233 260v-260h-73v498h73v-206l211 206h91l-229 -220l256 -278h-96z" />
    <glyph glyph-name="lambda" unicode="&#x3bb;" horiz-adv-x="503" 
d="M392 167q8 -32 14.5 -54t14 -35.5t16.5 -19t21 -5.5q11 0 17 3l4 -61q-6 -2 -15 -4t-20 -2q-41 0 -65 22.5t-39 84.5l-76 317l-156 -413h-82l211 511l-14 57q-13 49 -34.5 75.5t-56.5 26.5q-11 0 -21 -2.5t-17 -5.5l-6 61q11 3 24 5.5t26 2.5q53 0 92.5 -32t59.5 -113z
" />
    <glyph glyph-name="uni03BC" unicode="&#x3bc;" horiz-adv-x="547" 
d="M517 -4q-8 -4 -17 -5.5t-17 -1.5q-38 0 -59.5 25.5t-21.5 60.5v8q-9 -18 -22.5 -35t-31 -30t-40 -21t-50.5 -8q-12 0 -28 3t-31.5 9.5t-29.5 18t-23 28.5v-264h-73v714h73v-293q0 -38 10 -66.5t27.5 -48t40.5 -29.5t50 -10q55 0 86.5 36.5t31.5 101.5v309h72v-381
q0 -38 7.5 -50.5t24.5 -12.5q4 0 9.5 1t7.5 2z" />
    <glyph glyph-name="nu" unicode="&#x3bd;" horiz-adv-x="468" 
d="M448 498q-8 -48 -27.5 -114t-45.5 -135.5t-55.5 -135.5t-57.5 -113h-71l-175 498h80l139 -421q15 31 36 83t41 111t35 119t20 108h81z" />
    <glyph glyph-name="xi" unicode="&#x3be;" horiz-adv-x="429" 
d="M384 407v-67h-73q-88 0 -134.5 -40.5t-46.5 -104.5q0 -57 41 -92t108 -60q39 -14 64 -28.5t39.5 -29.5t20.5 -32t6 -36q0 -18 -7 -44t-23 -61h-72q15 29 23 49.5t8 37.5q0 11 -1.5 21.5t-9.5 20.5t-25 20t-48 20q-106 35 -152.5 84.5t-46.5 121.5q0 36 11 66t29 54
t42 41.5t50 26.5q-18 7 -38 20.5t-36.5 34.5t-27 49t-10.5 66q0 46 16 80.5t44.5 58t69 35.5t89.5 12q35 0 68 -6.5t59 -14.5l-5 -68q-68 27 -132 27q-21 0 -45 -6t-44.5 -20.5t-34 -38t-13.5 -59.5q0 -21 8 -45t26 -45t47.5 -34.5t73.5 -13.5h82z" />
    <glyph glyph-name="omicron" unicode="&#x3bf;" horiz-adv-x="551" 
d="M156 114q19 -28 48 -46t71 -18q41 0 70.5 18t48 46.5t27.5 64.5t9 72q0 37 -8.5 72.5t-27 63t-48 44t-71.5 16.5q-41 0 -70.5 -17t-48.5 -45t-27.5 -63t-8.5 -71t8.5 -72t27.5 -65zM173 9q-66 32 -98.5 96t-32.5 146q0 54 15.5 100.5t45.5 81.5t73 55t99 20
q58 0 102 -19.5t73 -54t43.5 -81.5t14.5 -102q0 -54 -15 -101.5t-44 -83.5t-72.5 -56.5t-101.5 -20.5q-57 0 -102 20z" />
    <glyph glyph-name="pi" unicode="&#x3c0;" horiz-adv-x="572" 
d="M386 435h-202v-435h-73v435h-88v63h521v-63h-86v-331q0 -29 7 -39.5t24 -10.5q11 0 17 4l4 -63q-6 -2 -14.5 -4t-19.5 -2q-47 0 -68.5 24.5t-21.5 79.5v342z" />
    <glyph glyph-name="rho" unicode="&#x3c1;" horiz-adv-x="535" 
d="M412 251q0 42 -8.5 77.5t-26 62t-44.5 41.5t-64 15q-39 0 -65 -18t-41.5 -46t-22.5 -61t-7 -64v-23q0 -36 9.5 -69.5t27.5 -59t44 -40.5t58 -15q71 0 105.5 53.5t34.5 146.5zM492 251q0 -53 -12 -100.5t-37.5 -83.5t-65 -57t-94.5 -21q-29 0 -52 7.5t-41.5 19.5t-31.5 27
t-21 29v-288h-73v482q0 52 13 96t39 76.5t64.5 51t89.5 18.5q60 0 102.5 -21t69 -56t38.5 -81.5t12 -98.5z" />
    <glyph glyph-name="sigma1" unicode="&#x3c2;" horiz-adv-x="429" 
d="M396 418q-21 11 -49.5 18t-63.5 7q-33 0 -63 -14.5t-53 -40.5t-36.5 -62.5t-13.5 -80.5q0 -48 18.5 -84t46 -62.5t59 -45.5t57.5 -34q42 -23 59.5 -47.5t17.5 -53.5q0 -25 -9 -54.5t-20 -51.5h-74q17 23 24.5 45.5t7.5 36.5q0 27 -16 44.5t-51 35.5q-33 17 -67 40.5
t-62.5 55.5t-46.5 74t-18 96q0 67 20.5 117t55 83.5t79 50.5t92.5 17q34 0 62 -6.5t53 -15.5z" />
    <glyph glyph-name="sigma" unicode="&#x3c3;" horiz-adv-x="549" 
d="M416 243q0 34 -9 68.5t-26.5 62.5t-42.5 45t-57 17h-12q-23 0 -49 -10t-48 -32.5t-36 -58.5t-14 -87q0 -94 42 -146t108 -52t105 49.5t39 143.5zM43 248q0 57 18 103.5t49.5 79t73 50t88.5 17.5h243v-63h-67q-6 0 -16 0.5t-19.5 1.5t-18 2.5t-12.5 2.5q24 -10 44 -29.5
t35 -46t23 -58t8 -64.5q0 -62 -16 -109.5t-44.5 -79.5t-69 -49t-89.5 -17q-51 0 -93.5 18t-73 51.5t-47 81.5t-16.5 108z" />
    <glyph glyph-name="tau" unicode="&#x3c4;" horiz-adv-x="418" 
d="M354 4q-19 -8 -40 -11.5t-41 -3.5q-38 0 -61 13t-35 35.5t-15.5 52.5t-3.5 64v287h-137v57h371v-57h-162v-306q0 -33 12.5 -58t51.5 -25q15 0 28.5 3.5t27.5 9.5l4 -61v0z" />
    <glyph glyph-name="upsilon" unicode="&#x3c5;" horiz-adv-x="518" 
d="M424 498q7 -15 14 -39t12.5 -54.5t9 -66.5t3.5 -76q0 -74 -17 -126t-46 -84.5t-66.5 -47.5t-79.5 -15q-41 0 -75.5 12.5t-59 39t-38 66.5t-13.5 94v297h73v-291q0 -81 31.5 -118t90.5 -37q57 0 92 51.5t35 162.5q0 61 -11.5 122.5t-37.5 109.5h83z" />
    <glyph glyph-name="phi" unicode="&#x3c6;" horiz-adv-x="717" 
d="M396 50q43 3 79.5 15.5t63.5 36.5t42.5 60t15.5 85q0 48 -13 85t-35.5 61.5t-53.5 37.5t-68 13q-18 0 -24.5 -8t-6.5 -28v-358zM268 442q-67 -15 -106.5 -64t-39.5 -131q0 -53 16 -89.5t43 -60.5t63.5 -35.5t77.5 -12.5v366q0 41 23 65t65 24q64 0 113.5 -19t83.5 -53
t51 -81t17 -103q0 -59 -20 -105.5t-56.5 -79.5t-88 -51.5t-114.5 -21.5v-206h-74v205q-57 1 -108 16.5t-89.5 47t-60.5 79.5t-22 114q0 105 60 171t160 86z" />
    <glyph glyph-name="chi" unicode="&#x3c7;" horiz-adv-x="462" 
d="M371 -216l-142 309l-141 -309h-79l173 369l-171 345h83l132 -274l129 274h80l-163 -333l184 -381h-85z" />
    <glyph glyph-name="psi" unicode="&#x3c8;" horiz-adv-x="687" 
d="M310 -216v205q-109 4 -170.5 61t-61.5 163v285h73v-280q0 -45 13 -76t34.5 -51t50.5 -29.5t61 -10.5v594h73v-594q45 2 78.5 20t55 48t32 69.5t10.5 83.5q0 61 -11.5 117.5t-38.5 108.5h85q38 -103 38 -220q0 -64 -17.5 -116.5t-49.5 -90t-78 -59t-104 -23.5v-205h-73z
" />
    <glyph glyph-name="omega" unicode="&#x3c9;" horiz-adv-x="747" 
d="M231 -11q-86 0 -131 64.5t-45 189.5q0 74 18 140.5t45 114.5h93q-48 -65 -63.5 -129t-15.5 -128q0 -36 5.5 -70.5t18 -61.5t32 -43t47.5 -16q27 0 46 13t30.5 34t17 46.5t5.5 49.5v175h78v-174q0 -63 22 -103.5t69 -40.5q29 0 50 16.5t35 43.5t20.5 61.5t6.5 71.5
q0 75 -21 141t-59 114h93q28 -51 46 -115t18 -138q0 -54 -12 -100.5t-35 -81t-57.5 -54.5t-79.5 -20q-115 0 -135 113q-3 -18 -13 -37.5t-28 -36.5t-43 -28t-58 -11z" />
    <glyph glyph-name="iotadieresis" unicode="&#x3ca;" horiz-adv-x="241" 
d="M76 498h72v-395q0 -29 7 -39t24 -10q11 0 17 4l4 -63q-6 -2 -14.5 -4t-19.5 -2q-47 0 -68.5 24.5t-21.5 78.5v406zM3 609v87h66v-87h-66zM158 609v87h66v-87h-66z" />
    <glyph glyph-name="upsilondieresis" unicode="&#x3cb;" horiz-adv-x="518" 
d="M424 498q7 -15 14 -39t12.5 -54.5t9 -66.5t3.5 -76q0 -74 -17 -126t-46 -84.5t-66.5 -47.5t-79.5 -15q-41 0 -75.5 12.5t-59 39t-38 66.5t-13.5 94v297h73v-291q0 -81 31.5 -118t90.5 -37q57 0 92 51.5t35 162.5q0 61 -11.5 122.5t-37.5 109.5h83zM144 609v87h66v-87h-66
zM299 609v87h66v-87h-66z" />
    <glyph glyph-name="omicrontonos" unicode="&#x3cc;" horiz-adv-x="533" 
d="M430 251q0 37 -8.5 72.5t-27 63t-48 44t-71.5 16.5q-41 0 -70.5 -17t-48.5 -45t-27.5 -63t-8.5 -71t8.5 -72t27.5 -64.5t48.5 -46.5t70.5 -18t70.5 18t48 46.5t27.5 64.5t9 72zM508 251q0 -54 -15 -101.5t-44 -83.5t-72.5 -56.5t-101.5 -20.5t-101.5 20.5t-73 56.5
t-44 83.5t-14.5 101.5t15.5 100.5t45.5 81.5t73.5 55t98.5 20q58 0 102 -19.5t73 -54t43.5 -81.5t14.5 -102zM299 585h-62l33 136h86z" />
    <glyph glyph-name="upsilontonos" unicode="&#x3cd;" horiz-adv-x="518" 
d="M424 498q7 -15 14 -39t12.5 -54.5t9 -66.5t3.5 -76q0 -74 -17 -126t-46 -84.5t-66.5 -47.5t-79.5 -15q-41 0 -75.5 12.5t-59 39t-38 66.5t-13.5 94v297h73v-291q0 -81 31.5 -118t90.5 -37q57 0 92 51.5t35 162.5q0 61 -11.5 122.5t-37.5 109.5h83zM279 585h-62l33 136h86
z" />
    <glyph glyph-name="omegatonos" unicode="&#x3ce;" horiz-adv-x="747" 
d="M231 -11q-86 0 -131 64.5t-45 189.5q0 74 18 140.5t45 114.5h93q-48 -65 -63.5 -129t-15.5 -128q0 -36 5.5 -70.5t18 -61.5t32 -43t47.5 -16q27 0 46 13t30.5 34t17 46.5t5.5 49.5v175h78v-174q0 -63 22 -103.5t69 -40.5q29 0 50 16.5t35 43.5t20.5 61.5t6.5 71.5
q0 75 -21 141t-59 114h93q28 -51 46 -115t18 -138q0 -54 -12 -100.5t-35 -81t-57.5 -54.5t-79.5 -20q-115 0 -135 113q-3 -18 -13 -37.5t-28 -36.5t-43 -28t-58 -11zM404 585h-62l33 136h86z" />
    <glyph glyph-name="theta1" unicode="&#x3d1;" horiz-adv-x="552" 
d="M337 398q18 0 39.5 1t46.5 3q-2 46 -9 93t-24.5 85t-46.5 62.5t-75 24.5q-30 0 -52.5 -10.5t-38.5 -29.5t-24 -44t-8 -54q0 -27 7 -51t27.5 -42t58 -28t99.5 -10zM136 314q-4 -26 -5 -44t-1 -35q0 -31 5.5 -63.5t20 -59t41 -43.5t68.5 -17q47 0 77.5 22.5t48.5 62
t25 93.5t8 116q-30 -3 -57 -4t-49 -1q-73 0 -121.5 13.5t-77 38t-40.5 58t-12 73.5q0 41 14.5 78.5t41 66t62.5 45.5t80 17q71 0 115.5 -32.5t69 -80.5t34.5 -104t12 -104q13 1 26 3.5t26 5.5v-57q-12 -3 -24.5 -4.5t-26.5 -3.5q0 -65 -9.5 -130t-35 -117.5t-70 -85
t-116.5 -32.5q-65 0 -106.5 23t-65 58.5t-32.5 78.5t-9 82q0 24 3 44.5t8 38.5h72z" />
    <glyph glyph-name="omega1" unicode="&#x3d6;" horiz-adv-x="747" 
d="M632 441q30 -52 46.5 -107.5t16.5 -109.5q0 -48 -11.5 -90.5t-34.5 -74.5t-57 -51t-80 -19q-33 0 -56.5 9.5t-39.5 24.5t-26.5 33.5t-17.5 37.5q-8 -19 -19 -38t-28 -34t-41 -24t-57 -9q-88 0 -131.5 57.5t-43.5 163.5q0 44 7.5 81t22.5 73h81q-17 -40 -25 -76.5
t-8 -75.5q0 -30 6 -59t18.5 -52.5t31.5 -37.5t45 -14q29 0 48.5 12.5t31.5 33t17.5 46.5t5.5 53v148h78v-147q0 -29 5 -55t16.5 -46.5t30.5 -32.5t47 -12q27 0 47 15t32.5 39.5t18.5 55.5t6 63q0 55 -10.5 106t-45.5 113h-517v57h667v-57h-77z" />
    <glyph glyph-name="uni0400" unicode="&#x400;" horiz-adv-x="486" 
d="M247 724l-97 136h85l71 -136h-59zM85 0v667h344v-65h-265v-228h252v-63h-252v-246h276v-65h-355z" />
    <glyph glyph-name="afii10023" unicode="&#x401;" horiz-adv-x="486" 
d="M85 0v667h344v-65h-265v-228h252v-63h-252v-246h276v-65h-355zM148 748v87h66v-87h-66zM303 748v87h66v-87h-66z" />
    <glyph glyph-name="afii10051" unicode="&#x402;" horiz-adv-x="707" 
d="M431 -11q-35 0 -63.5 4.5t-58.5 15.5l6 69q17 -8 44 -15t59 -7q72 0 114.5 42.5t42.5 130.5q0 42 -12 72.5t-33.5 50.5t-51 30t-64.5 10q-33 0 -63 -12t-53 -33.5t-36.5 -51.5t-13.5 -66v-229h-80v601h-158v66h473v-66h-235v-237q13 21 33.5 38t45 29t51.5 18t54 6
q49 0 91 -13t72 -40.5t47 -69.5t17 -99q0 -59 -16 -104.5t-46 -76.5t-72 -47t-94 -16z" />
    <glyph glyph-name="afii10052" unicode="&#x403;" horiz-adv-x="445" 
d="M215 724l72 136h85l-96 -136h-61zM85 667h351v-68h-271v-599h-80v667z" />
    <glyph glyph-name="afii10053" unicode="&#x404;" horiz-adv-x="586" 
d="M390 -10q-79 0 -142 24.5t-106.5 69.5t-67 108.5t-23.5 141.5q0 77 24.5 140t69 108t107.5 70t141 25q49 0 90 -8t67 -18l-6 -66q-32 17 -71.5 22t-74.5 5q-59 0 -105 -17t-79 -47.5t-52 -74t-25 -95.5h310v-65h-312q3 -57 21 -104t51 -81t80 -53t109 -19q16 0 36 1
t39.5 3.5t38.5 7.5t34 13l5 -64q-13 -8 -33.5 -13t-43 -8t-44.5 -4.5t-38 -1.5z" />
    <glyph glyph-name="afii10054" unicode="&#x405;" horiz-adv-x="484" 
d="M57 94q35 -22 73.5 -30.5t80.5 -8.5q28 0 53 6.5t43.5 21t29 37.5t10.5 56q0 26 -9.5 46t-25 35.5t-36.5 28.5t-44 25l-54 29q-24 13 -45 28t-36.5 34t-24.5 44t-9 58q0 45 18.5 78t48.5 54t68.5 31t79.5 10q35 0 66.5 -5.5t62.5 -18.5l-9 -71q-27 15 -57.5 22t-61.5 7
q-26 0 -50.5 -5t-43.5 -17t-30 -32t-11 -50q0 -41 26.5 -67t66.5 -47l54 -29q28 -15 53 -31t44 -37t30 -49t11 -66q0 -47 -18 -83t-48 -60t-69 -36.5t-82 -12.5t-84.5 7t-79.5 24z" />
    <glyph glyph-name="afii10055" unicode="&#x406;" horiz-adv-x="248" 
d="M85 0v667h79v-667h-79z" />
    <glyph glyph-name="afii10056" unicode="&#x407;" horiz-adv-x="248" 
d="M85 0v667h79v-667h-79zM14 748v87h66v-87h-66zM169 748v87h66v-87h-66z" />
    <glyph glyph-name="afii10057" unicode="&#x408;" horiz-adv-x="319" 
d="M10 67q14 -6 28 -7.5t29 -1.5q27 0 46 10t30 26.5t16 38t5 44.5v490h79v-492q0 -40 -9.5 -74t-29 -59t-50 -39t-73.5 -14q-42 0 -77 13z" />
    <glyph glyph-name="afii10058" unicode="&#x409;" horiz-adv-x="932" 
d="M664 66q69 0 111 31t42 109q0 66 -40.5 97t-114.5 31h-96v-268h98zM82 -7q-19 0 -39.5 2.5t-35.5 10.5l5 63q13 -5 28 -7.5t29 -2.5q39 0 62 33.5t35.5 106.5t16.5 188.5t4 279.5h379v-267h105q109 0 169 -52t60 -144q0 -43 -12.5 -80.5t-40.5 -65t-71.5 -43
t-106.5 -15.5h-183v601h-221q0 -150 -5 -264t-23 -190.5t-54.5 -115t-100.5 -38.5z" />
    <glyph glyph-name="afii10059" unicode="&#x40a;" horiz-adv-x="909" 
d="M671 66q60 0 93 34.5t33 94.5q0 42 -15.5 66.5t-41 36.5t-58.5 15.5t-68 3.5h-63v-251h120zM85 667h80v-284h306v284h80v-284h112q44 0 83 -11.5t68 -35t46 -59t17 -82.5q0 -98 -57 -146.5t-151 -48.5h-198v317h-306v-317h-80v667z" />
    <glyph glyph-name="afii10060" unicode="&#x40b;" horiz-adv-x="707" 
d="M168 601h-158v66h473v-66h-235v-237q27 43 76 67t103 24q100 0 156 -57t56 -170v-228h-80v223q0 85 -40 127t-110 42q-33 0 -62 -12t-51 -33t-35 -50.5t-13 -65.5v-231h-80v601z" />
    <glyph glyph-name="afii10061" unicode="&#x40c;" horiz-adv-x="586" 
d="M85 0v667h79v-301l292 301h98l-315 -313l343 -354h-106l-312 333v-333h-79zM264 724l72 136h85l-96 -136h-61z" />
    <glyph glyph-name="uni040D" unicode="&#x40d;" horiz-adv-x="663" 
d="M322 724l-97 136h85l71 -136h-59zM85 667h80v-564l323 564h91v-667h-80v563l-322 -563h-92v667z" />
    <glyph glyph-name="afii10062" unicode="&#x40e;" horiz-adv-x="585" 
d="M298 722q-35 0 -60 10.5t-42.5 26t-28 32.5t-14.5 29l46 28q11 -25 34 -44.5t65 -19.5q41 0 64.5 21t34.5 43l46 -28q-4 -12 -14 -29t-27.5 -32t-43 -26t-60.5 -11zM157 -7q-38 0 -76 8l7 65q9 -3 23.5 -5.5t32.5 -2.5q34 0 56.5 31.5t51.5 89.5l-249 488h90l201 -411
l204 411h84l-260 -511q-17 -33 -33.5 -62.5t-35.5 -52t-42 -35.5t-54 -13z" />
    <glyph glyph-name="afii10145" unicode="&#x40f;" horiz-adv-x="647" 
d="M287 0h-202v667h80v-601h318v601h80v-667h-203v-171h-73v171z" />
    <glyph glyph-name="afii10017" unicode="&#x410;" horiz-adv-x="634" 
d="M175 245h280l-139 358zM4 0l266 667h93l267 -667h-82l-69 181h-327l-71 -181h-77z" />
    <glyph glyph-name="afii10018" unicode="&#x411;" horiz-adv-x="549" 
d="M258 66q70 0 113 31t43 106q0 66 -41 97t-114 31h-94v-265h93zM85 667h363v-66h-283v-204h99q111 0 171 -50.5t60 -143.5q0 -44 -13.5 -81.5t-42.5 -64.5t-73.5 -42t-107.5 -15h-173v667z" />
    <glyph glyph-name="afii10019" unicode="&#x412;" horiz-adv-x="549" 
d="M163 62h71q31 0 63 5t58 19t42 38t16 63q0 42 -17 67.5t-44.5 39.5t-61.5 18.5t-67 4.5h-60v-255zM163 376h75q30 0 58.5 5.5t50.5 19.5t35 37.5t13 58.5q0 31 -12 52t-32 33.5t-45 17.5t-52 5h-91v-229zM85 0v667h177q41 0 79.5 -8t68.5 -27t48 -51t18 -79
q0 -63 -34 -101t-94 -52q31 -5 58 -18t47 -33.5t31 -47.5t11 -60q0 -57 -22.5 -94t-59 -58.5t-83 -29.5t-94.5 -8h-151z" />
    <glyph glyph-name="afii10020" unicode="&#x413;" horiz-adv-x="445" 
d="M85 667h351v-68h-271v-599h-80v667z" />
    <glyph glyph-name="afii10021" unicode="&#x414;" horiz-adv-x="673" 
d="M489 65v536h-242v-168q0 -106 -22 -201t-70 -167h334zM10 65h55q57 77 81 179.5t24 222.5v200h399v-602h87v-236h-73v171h-500v-171h-73v236z" />
    <glyph glyph-name="afii10022" unicode="&#x415;" horiz-adv-x="486" 
d="M85 0v667h344v-65h-265v-228h252v-63h-252v-246h276v-65h-355z" />
    <glyph glyph-name="afii10024" unicode="&#x416;" horiz-adv-x="885" 
d="M318 353l-281 314h99l266 -308v308h80v-308l267 308h99l-282 -314l314 -353h-104l-294 341v-341h-80v341l-292 -341h-105z" />
    <glyph glyph-name="afii10025" unicode="&#x417;" horiz-adv-x="498" 
d="M191 -11q-51 0 -89 6.5t-67 18.5l7 75q31 -19 71 -26.5t78 -7.5q29 0 58.5 7t53.5 22.5t39.5 41t15.5 63.5q0 43 -18.5 67.5t-46 37t-59 16t-56.5 3.5h-19.5t-18.5 -1v66q6 -1 13.5 -1h15.5q27 0 58.5 5.5t58 20t44 39.5t17.5 65q0 28 -12 48t-32 33t-45.5 19t-53.5 6
q-35 0 -74.5 -10t-65.5 -23l-10 67q37 13 81 21.5t80 8.5q43 0 82 -9.5t69 -29.5t47.5 -52.5t17.5 -77.5q0 -60 -36 -101t-98 -58q33 -3 60 -17t46.5 -36.5t30 -51.5t10.5 -63q0 -46 -19 -81.5t-52.5 -60t-80 -37.5t-101.5 -13z" />
    <glyph glyph-name="afii10026" unicode="&#x418;" horiz-adv-x="663" 
d="M85 667h80v-564l323 564h91v-667h-80v563l-322 -563h-92v667z" />
    <glyph glyph-name="afii10027" unicode="&#x419;" horiz-adv-x="663" 
d="M85 667h80v-564l323 564h91v-667h-80v563l-322 -563h-92v667zM331 722q-35 0 -60 10.5t-42.5 26t-28 32.5t-14.5 29l46 28q11 -25 34 -44.5t65 -19.5q41 0 64.5 21t34.5 43l46 -28q-4 -12 -14 -29t-27.5 -32t-43 -26t-60.5 -11z" />
    <glyph glyph-name="afii10028" unicode="&#x41a;" horiz-adv-x="586" 
d="M85 0v667h79v-301l292 301h98l-315 -313l343 -354h-106l-312 333v-333h-79z" />
    <glyph glyph-name="afii10029" unicode="&#x41b;" horiz-adv-x="668" 
d="M82 -7q-19 0 -39.5 2.5t-35.5 10.5l5 63q13 -5 28 -7.5t29 -2.5q39 0 62 33.5t35.5 106.5t16.5 188.5t4 279.5h397v-667h-80v601h-239q0 -150 -5 -264t-23 -190.5t-54.5 -115t-100.5 -38.5z" />
    <glyph glyph-name="afii10030" unicode="&#x41c;" horiz-adv-x="869" 
d="M85 0v667h122l229 -579l227 579h122v-667h-77v602l-236 -602h-77l-236 602v-602h-74z" />
    <glyph glyph-name="afii10031" unicode="&#x41d;" horiz-adv-x="653" 
d="M85 0v667h79v-289h325v289h80v-667h-80v309h-325v-309h-79z" />
    <glyph glyph-name="afii10032" unicode="&#x41e;" horiz-adv-x="701" 
d="M185 144q27 -40 68 -64.5t98 -24.5q58 0 99.5 24.5t67 64t37.5 89t12 100.5t-12 100.5t-37.5 89t-67 64t-99.5 24.5q-57 0 -98.5 -24.5t-67.5 -64.5t-38.5 -89.5t-12.5 -99.5q0 -51 12.5 -100t38.5 -89zM217 16q-42 20 -73 52t-52 73t-31 89.5t-10 102.5q0 69 18.5 131.5
t56 109.5t94 75t131.5 28q77 0 133.5 -27t93.5 -74t55 -109.5t18 -133.5q0 -69 -18.5 -131.5t-56 -110t-94 -75t-131.5 -27.5q-77 0 -134 27z" />
    <glyph glyph-name="afii10033" unicode="&#x41f;" horiz-adv-x="646" 
d="M85 667h477v-667h-80v601h-317v-601h-80v667z" />
    <glyph glyph-name="afii10034" unicode="&#x420;" horiz-adv-x="508" 
d="M85 0v667h156q50 0 93.5 -10t76 -32t51 -57.5t18.5 -86.5q0 -56 -20 -94t-54.5 -61.5t-80 -34t-96.5 -10.5h-65v-281h-79zM163 345h51q38 0 71.5 5t58.5 20t39.5 41.5t14.5 68.5q0 34 -13 58t-36 38t-54 20.5t-68 6.5h-64v-258z" />
    <glyph glyph-name="afii10035" unicode="&#x421;" horiz-adv-x="589" 
d="M553 19q-33 -17 -77.5 -23.5t-81.5 -6.5q-79 0 -142.5 24.5t-108 69.5t-68.5 108.5t-24 141.5q0 75 25 138t70.5 108.5t108.5 71.5t139 26q36 0 80 -6t77 -20l-6 -71q-32 15 -72 22t-75 7q-62 0 -111 -21t-83 -58t-52 -87.5t-18 -109.5q0 -62 17.5 -112.5t51 -87
t82.5 -56.5t112 -20q38 0 76.5 6t73.5 23z" />
    <glyph glyph-name="afii10036" unicode="&#x422;" horiz-adv-x="496" 
d="M208 0v599h-198v68h477v-68h-199v-599h-80z" />
    <glyph glyph-name="afii10037" unicode="&#x423;" horiz-adv-x="585" 
d="M157 -7q-38 0 -76 8l7 65q9 -3 23.5 -5.5t32.5 -2.5q34 0 56.5 31.5t51.5 89.5l-249 488h90l201 -411l204 411h84l-260 -511q-17 -33 -33.5 -62.5t-35.5 -52t-42 -35.5t-54 -13z" />
    <glyph glyph-name="afii10038" unicode="&#x424;" horiz-adv-x="770" 
d="M425 128q49 0 89.5 15t70 43t45.5 68t16 91q0 49 -16 88.5t-45 67.5t-69.5 42.5t-90.5 14.5v-430v0zM345 558q-50 0 -90.5 -14.5t-69.5 -42.5t-45 -67.5t-16 -88.5q0 -51 16 -91t45.5 -68t70 -43t89.5 -15v430zM345 67q-76 0 -132.5 21.5t-94.5 59.5q-38 37 -57.5 87
t-19.5 110q0 61 20 111t58 86q38 37 94 57t132 20v58h80v-58q75 0 130.5 -20t93.5 -55q80 -74 80 -199q0 -60 -20.5 -111t-58.5 -89q-38 -37 -94 -57.5t-131 -20.5v-77h-80v77z" />
    <glyph glyph-name="afii10039" unicode="&#x425;" horiz-adv-x="602" 
d="M8 0l247 350l-223 317h92l182 -268l181 268h86l-221 -317l243 -350h-95l-198 303l-206 -303h-88z" />
    <glyph glyph-name="afii10040" unicode="&#x426;" horiz-adv-x="667" 
d="M577 0h-492v667h80v-601h316v601h80v-601h89v-237h-73v171z" />
    <glyph glyph-name="afii10041" unicode="&#x427;" horiz-adv-x="596" 
d="M431 284q-9 -3 -27 -6.5t-39 -7t-43.5 -5.5t-40.5 -2q-41 0 -80.5 5.5t-70 26.5t-49.5 62.5t-19 112.5v197h80v-196q0 -39 8 -66.5t25.5 -44t46.5 -24t71 -7.5q19 0 40 2t40.5 5t34.5 6.5t23 6.5v318h80v-667h-80v284z" />
    <glyph glyph-name="afii10042" unicode="&#x428;" horiz-adv-x="977" 
d="M85 667h80v-601h284v601h80v-601h284v601h80v-667h-808v667z" />
    <glyph glyph-name="afii10043" unicode="&#x429;" horiz-adv-x="998" 
d="M908 0h-823v667h80v-601h284v601h80v-601h284v601h80v-601h88v-237h-73v171z" />
    <glyph glyph-name="afii10044" unicode="&#x42a;" horiz-adv-x="630" 
d="M361 66q69 0 111 31t42 109q0 66 -40.5 97t-114.5 31h-103v-268h105zM176 601h-167v66h247v-266h114q110 0 169 -52.5t59 -143.5q0 -44 -12.5 -81t-40 -65t-71 -43.5t-105.5 -15.5h-193v601z" />
    <glyph glyph-name="afii10045" unicode="&#x42b;" horiz-adv-x="766" 
d="M601 667h80v-667h-80v667zM270 66q69 0 111 31t42 109q0 66 -40.5 97t-114.5 31h-103v-268h105zM85 667h80v-266h113q110 0 169 -52.5t59 -143.5q0 -44 -12.5 -81t-40 -65t-71 -43.5t-105.5 -15.5h-192v667z" />
    <glyph glyph-name="afii10046" unicode="&#x42c;" horiz-adv-x="538" 
d="M270 66q69 0 111 31t42 109q0 66 -40.5 97t-114.5 31h-103v-268h105zM85 667h80v-266h113q110 0 169 -52.5t59 -143.5q0 -44 -12.5 -81t-40 -65t-71 -43.5t-105.5 -15.5h-192v667z" />
    <glyph glyph-name="afii10047" unicode="&#x42d;" horiz-adv-x="592" 
d="M214 -9q-17 0 -39 1.5t-45.5 5t-44.5 8.5t-35 12l6 63q13 -5 31.5 -9.5t39 -7.5t41.5 -5t40 -2q61 0 109 19t81 53t51.5 81t21.5 104h-314v63h312q-5 52 -25 95.5t-53 74t-79.5 47.5t-104.5 17q-35 0 -74 -6t-71 -22l-5 67q28 13 70 19.5t88 6.5q84 0 147.5 -24.5
t106 -69.5t64.5 -108t22 -139q0 -78 -24 -141.5t-68 -108.5t-107 -69.5t-142 -24.5z" />
    <glyph glyph-name="afii10048" unicode="&#x42e;" horiz-adv-x="933" 
d="M584 55q48 0 87 19t66.5 54.5t42.5 86.5t15 115q0 54 -11 104.5t-35 89.5t-62.5 63t-93.5 24q-48 0 -88 -19.5t-68.5 -56t-44 -88t-15.5 -115.5q0 -53 13 -102.5t39 -88.5t64.5 -62.5t90.5 -23.5zM583 -10q-66 0 -118.5 23t-89.5 65t-58 101.5t-23 133.5h-129v-313h-80
v667h80v-288h131q6 69 30 124t62 94t88.5 59.5t110.5 20.5q66 0 120.5 -23.5t93.5 -67.5t60 -107t21 -143q0 -81 -20.5 -145t-59.5 -108.5t-94.5 -68.5t-124.5 -24z" />
    <glyph glyph-name="afii10049" unicode="&#x42f;" horiz-adv-x="562" 
d="M399 349v254h-88q-33 0 -63.5 -5t-53.5 -18.5t-37 -38t-14 -64.5q0 -34 13.5 -58.5t36 -40t50.5 -22.5t57 -7h99zM127 229q19 36 38 56.5t51 28.5q-31 5 -59 18.5t-49.5 34.5t-34 49t-12.5 64q0 46 15 81t42 58.5t65 35.5t84 12h210v-667h-80v286h-69q-25 0 -42 -2.5
t-31.5 -11.5t-27.5 -27t-30 -50l-102 -195h-87z" />
    <glyph glyph-name="afii10065" unicode="&#x430;" horiz-adv-x="493" 
d="M355 0l-3 80q-22 -48 -64.5 -69.5t-90.5 -21.5q-33 0 -63 9t-52 27t-35 46t-13 66q0 48 20 80t54.5 51t81.5 27t102 8h56v24q0 57 -25 90t-87 33q-77 0 -141 -42l-6 65q32 16 73.5 25.5t76.5 9.5q94 0 137.5 -46t43.5 -140v-216q0 -28 1 -54t5 -52h-71zM311 250
q-35 0 -71 -3t-65 -14.5t-47.5 -33.5t-18.5 -59q0 -25 8 -42.5t21.5 -28.5t31 -16t35.5 -5q40 0 67 14t44 37.5t24.5 54.5t7.5 66v30h-37z" />
    <glyph glyph-name="afii10066" unicode="&#x431;" horiz-adv-x="555" 
d="M287 48q34 0 62 14t47 39.5t29.5 61.5t10.5 81q0 93 -38 144.5t-109 51.5q-73 0 -116.5 -53t-43.5 -146q0 -45 12 -81t33 -60.5t50 -38t63 -13.5zM285 -12q-63 0 -108 23t-73 62.5t-41 91.5t-13 109t3 111t12.5 102t28 88.5t50.5 70.5q21 20 44 32.5t48.5 20t52.5 11.5
t55 7q37 3 73 6t69 13l-5 -73q-29 -8 -65 -11t-69 -6q-64 -6 -107 -20t-70 -42.5t-40.5 -76t-18.5 -120.5q6 15 20 34.5t36.5 36.5t53.5 28.5t71 11.5q58 0 100 -19t69.5 -52.5t40.5 -80.5t13 -102q0 -58 -16 -105t-45.5 -80.5t-72 -52t-96.5 -18.5z" />
    <glyph glyph-name="afii10067" unicode="&#x432;" horiz-adv-x="496" 
d="M258 290q48 0 74 18.5t26 60.5q0 39 -27.5 56t-77.5 17h-107v-152h112zM260 58q57 0 86 25.5t29 67.5q0 40 -27.5 62t-88.5 22h-113v-177h114zM73 498h196q33 0 63.5 -6t53 -20t36 -37t13.5 -57q0 -42 -25 -72t-67 -41q18 -3 37.5 -11.5t35 -23t25.5 -34.5t10 -45
q0 -43 -14.5 -72t-39.5 -46.5t-58 -25t-70 -7.5h-196v498z" />
    <glyph glyph-name="afii10068" unicode="&#x433;" horiz-adv-x="383" 
d="M73 498h302v-60h-229v-438h-73v498z" />
    <glyph glyph-name="afii10069" unicode="&#x434;" horiz-adv-x="550" 
d="M391 58v382h-190v-100q0 -84 -11 -153.5t-51 -128.5h252zM6 58h56q20 32 33.5 60t22 61t12 76t3.5 104v139h331v-440h71v-203h-67v145h-395v-145h-67v203z" />
    <glyph glyph-name="afii10070" unicode="&#x435;" horiz-adv-x="491" 
d="M117 240q0 -36 10 -70.5t31 -61.5t54.5 -43.5t80.5 -16.5q36 0 72.5 10t64.5 28l3 -65q-32 -16 -68.5 -24t-71.5 -8q-65 0 -112 20t-78.5 55t-46.5 83t-15 104q0 48 13.5 94t41.5 82t69.5 58.5t97.5 22.5q58 0 96.5 -21.5t61 -57t32 -82t9.5 -95.5v-12h-345zM391 294
q-2 25 -8.5 53t-20.5 50.5t-38 37.5t-60 15t-63 -14.5t-45 -37t-28 -50t-11 -54.5h274z" />
    <glyph glyph-name="afii10072" unicode="&#x436;" horiz-adv-x="723" 
d="M243 266l-217 232h87l212 -235v235h73v-235l212 235h87l-218 -232l242 -266h-95l-228 260v-260h-73v260l-228 -260h-95z" />
    <glyph glyph-name="afii10073" unicode="&#x437;" horiz-adv-x="435" 
d="M190 -11q-58 0 -93 8t-65 21l6 68q24 -14 57 -25t84 -11q60 0 95.5 26.5t35.5 65.5q0 53 -34 73.5t-98 20.5h-17t-28 -1v59q3 0 10 -0.5t14 -0.5h12.5h5.5q56 0 90.5 20t34.5 66q0 21 -9.5 35t-24.5 21.5t-34 10.5t-38 3q-21 0 -41.5 -4t-39 -10t-33.5 -13t-25 -12l-6 64
q24 11 62.5 22.5t94.5 11.5q37 0 69 -6t55.5 -20t36.5 -37t13 -56q0 -44 -29.5 -77t-78.5 -44q52 -8 85.5 -38.5t33.5 -84.5q0 -39 -16.5 -68.5t-44.5 -49t-64.5 -29t-75.5 -9.5z" />
    <glyph glyph-name="afii10074" unicode="&#x438;" horiz-adv-x="555" 
d="M73 498h73v-406l252 406h84v-498h-73v405l-252 -405h-84v498z" />
    <glyph glyph-name="afii10075" unicode="&#x439;" horiz-adv-x="555" 
d="M73 498h73v-406l252 406h84v-498h-73v405l-252 -405h-84v498zM281 585q-35 0 -60 10.5t-42.5 26t-28 32.5t-14.5 29l46 28q11 -25 34 -44.5t65 -19.5q41 0 64.5 21t34.5 43l46 -28q-4 -12 -14 -29t-27.5 -32t-43 -26t-60.5 -11z" />
    <glyph glyph-name="afii10076" unicode="&#x43a;" horiz-adv-x="488" 
d="M73 498h73v-229l220 229h90l-228 -232l258 -266h-97l-243 254v-254h-73v498z" />
    <glyph glyph-name="afii10077" unicode="&#x43b;" horiz-adv-x="540" 
d="M56 -6q-14 0 -30 1.5t-27 4.5l5 61q7 -3 18.5 -4t22.5 -1q30 0 48.5 23t29.5 75.5t15 136.5t4 207h325v-498h-73v440h-181q0 -104 -4.5 -187t-20.5 -140.5t-47 -88t-85 -30.5z" />
    <glyph glyph-name="afii10078" unicode="&#x43c;" horiz-adv-x="691" 
d="M73 498h113l160 -428l159 428h113v-498h-72v431l-166 -431h-70l-166 431v-431h-71v498z" />
    <glyph glyph-name="afii10079" unicode="&#x43d;" horiz-adv-x="544" 
d="M73 498h73v-204h252v204h73v-498h-73v234h-252v-234h-73v498z" />
    <glyph glyph-name="afii10080" unicode="&#x43e;" horiz-adv-x="551" 
d="M157 114q19 -28 48 -46t71 -18q41 0 70.5 18t48 46.5t27.5 64.5t9 72q0 37 -8.5 72.5t-27 63t-48 44t-71.5 16.5q-41 0 -70.5 -17t-48.5 -45t-27.5 -63t-8.5 -71t8.5 -72t27.5 -65zM174 9q-66 32 -98.5 96t-32.5 146q0 54 15.5 100.5t45.5 81.5t73 55t99 20
q58 0 102 -19.5t73 -54t43.5 -81.5t14.5 -102q0 -54 -15 -101.5t-44 -83.5t-72.5 -56.5t-101.5 -20.5q-57 0 -102 20z" />
    <glyph glyph-name="afii10081" unicode="&#x43f;" horiz-adv-x="539" 
d="M73 498h393v-498h-73v440h-247v-440h-73v498z" />
    <glyph glyph-name="afii10082" unicode="&#x440;" horiz-adv-x="543" 
d="M173 118q17 -29 44 -48t67 -19q42 0 68.5 18.5t42 47.5t21.5 64.5t6 69.5t-5.5 69t-21 63t-42.5 45.5t-69 17.5q-39 0 -66 -18t-43.5 -46.5t-24 -63t-7.5 -67.5t7 -68t23 -65zM73 -216v547q0 45 -1.5 85t-3.5 82h69l4 -87q10 22 26.5 40t37.5 30.5t45 19.5t49 7
q57 0 95.5 -21.5t62.5 -57.5t34 -82.5t10 -95.5q0 -48 -11 -95t-35 -84t-63 -60t-94 -23q-49 0 -91 23.5t-61 68.5v-297h-73z" />
    <glyph glyph-name="afii10083" unicode="&#x441;" horiz-adv-x="443" 
d="M410 8q-32 -11 -64 -15t-65 -4q-57 0 -101.5 20.5t-75 56t-46 83.5t-15.5 102q0 55 17 102.5t48.5 81.5t77 53.5t102.5 19.5q31 0 62 -5.5t60 -15.5l-6 -65q-24 11 -50.5 18t-53.5 7q-45 0 -78.5 -15t-56 -41t-33.5 -62t-11 -78q0 -39 11 -75.5t33 -64.5t54.5 -44.5
t75.5 -16.5q56 0 110 23z" />
    <glyph glyph-name="afii10084" unicode="&#x442;" horiz-adv-x="420" 
d="M173 438h-165v60h403v-60h-165v-438h-73v438z" />
    <glyph glyph-name="afii10085" unicode="&#x443;" horiz-adv-x="444" 
d="M37 -156q11 -4 22 -6.5t23 -2.5q21 0 36.5 13t26.5 31.5t18.5 38t11.5 32.5l10 33l-173 515h79l134 -429l133 429h76l-200 -585q-10 -29 -23 -54.5t-30 -44.5t-39.5 -30t-50.5 -11q-18 0 -30.5 2t-29.5 6z" />
    <glyph glyph-name="afii10086" unicode="&#x444;" horiz-adv-x="770" 
d="M523 49q36 0 60.5 18t38.5 47t20 64.5t6 70.5q0 34 -6 69.5t-20.5 64.5t-38.5 47t-60 18q-39 0 -63.5 -23.5t-38.5 -57.5v-237q14 -35 38.5 -58t63.5 -23zM246 49q38 0 63.5 23t39.5 58v237q-14 34 -39 57.5t-63 23.5q-36 0 -60 -18t-39 -47t-21 -64.5t-6 -69.5
q0 -35 6 -70.5t20 -64.5t38.5 -47t60.5 -18zM348 52q-20 -29 -50.5 -46t-72.5 -17q-45 0 -79 20t-57.5 54.5t-35 82t-11.5 102.5q0 57 10.5 104.5t33 82t57.5 54t83 19.5q46 0 76.5 -20.5t45.5 -43.5v277h73v-277q15 22 45.5 43t76.5 21q48 0 82.5 -19.5t57 -54t33.5 -82
t11 -104.5q0 -55 -11.5 -102.5t-35 -82t-57.5 -54.5t-79 -20q-42 0 -72.5 17t-50.5 46v-268h-73v268z" />
    <glyph glyph-name="afii10087" unicode="&#x445;" horiz-adv-x="452" 
d="M13 0l172 261l-155 237h85l116 -191l113 191h81l-153 -237l168 -261h-86l-126 215l-134 -215h-81z" />
    <glyph glyph-name="afii10088" unicode="&#x446;" horiz-adv-x="547" 
d="M465 0h-392v498h73v-440h243v440h73v-440h70v-203h-67v145z" />
    <glyph glyph-name="afii10089" unicode="&#x447;" horiz-adv-x="497" 
d="M351 202q-17 -5 -53 -12.5t-78 -7.5q-88 0 -129 38.5t-41 119.5v158h72v-142q0 -67 29.5 -90.5t88.5 -23.5q15 0 32 2t32.5 5t28 6.5t18.5 5.5v237h73v-498h-73v202z" />
    <glyph glyph-name="afii10090" unicode="&#x448;" horiz-adv-x="795" 
d="M73 498h73v-440h215v440h73v-440h215v440h73v-498h-649v498z" />
    <glyph glyph-name="afii10091" unicode="&#x449;" horiz-adv-x="808" 
d="M726 0h-653v498h73v-440h215v440h73v-440h215v440h73v-440h71v-203h-67v145z" />
    <glyph glyph-name="afii10092" unicode="&#x44a;" horiz-adv-x="547" 
d="M334 58q60 0 84.5 27.5t24.5 74.5q0 45 -26.5 69.5t-88.5 24.5h-106v-196h112zM149 440h-141v58h214v-186h123q36 0 67.5 -8.5t55 -26.5t37 -46t13.5 -68q0 -43 -13 -74t-36.5 -50.5t-56 -29t-71.5 -9.5h-192v440z" />
    <glyph glyph-name="afii10093" unicode="&#x44b;" horiz-adv-x="683" 
d="M258 58q60 0 84.5 27.5t24.5 74.5q0 45 -26.5 69.5t-88.5 24.5h-106v-196h112zM73 498h73v-186h123q36 0 67.5 -8.5t55 -26.5t37 -46t13.5 -68q0 -43 -13 -74t-36.5 -50.5t-56 -29t-71.5 -9.5h-192v498zM537 498h73v-498h-73v498z" />
    <glyph glyph-name="afii10094" unicode="&#x44c;" horiz-adv-x="471" 
d="M258 58q60 0 84.5 27.5t24.5 74.5q0 45 -26.5 69.5t-88.5 24.5h-106v-196h112zM73 498h73v-186h123q36 0 67.5 -8.5t55 -26.5t37 -46t13.5 -68q0 -43 -13 -74t-36.5 -50.5t-56 -29t-71.5 -9.5h-192v498z" />
    <glyph glyph-name="afii10095" unicode="&#x44d;" horiz-adv-x="447" 
d="M160 -10q-37 0 -67.5 3.5t-63.5 15.5l6 63q29 -10 54.5 -16t55.5 -6q39 0 72 14t56.5 38.5t37 58t14.5 72.5h-228v57h227q-11 70 -53.5 114t-123.5 44q-26 0 -53.5 -7t-53.5 -18l-4 63q16 5 48 13t77 8q56 0 101 -18.5t76.5 -52t48.5 -80.5t17 -105q0 -53 -15 -100.5
t-45.5 -83t-76.5 -56.5t-107 -21z" />
    <glyph glyph-name="afii10096" unicode="&#x44e;" horiz-adv-x="743" 
d="M471 50q36 0 63.5 15t47 41.5t29.5 63.5t10 82q0 94 -40.5 144.5t-106.5 50.5q-75 0 -113.5 -53t-38.5 -145q0 -91 40 -145t109 -54zM469 -11q-49 0 -89.5 17.5t-69.5 49.5t-46.5 77t-19.5 101h-98v-234h-73v498h73v-206h99q12 104 74 160t156 56q52 0 94 -19t71.5 -53.5
t45 -81.5t15.5 -103q0 -59 -16.5 -107.5t-46.5 -83t-73 -53t-96 -18.5z" />
    <glyph glyph-name="afii10097" unicode="&#x44f;" horiz-adv-x="495" 
d="M349 255v185h-80q-74 0 -106.5 -18.5t-32.5 -72.5q0 -42 26.5 -68t93.5 -26h99zM84 142q13 25 23.5 40t21 23t21 11.5t24.5 6.5q-31 6 -54 19.5t-38 31.5t-22 38.5t-7 41.5q0 67 47.5 105.5t123.5 38.5h198v-498h-74v200h-77q-26 0 -43.5 -4.5t-30 -14.5t-22 -25
t-19.5 -36l-59 -120h-86z" />
    <glyph glyph-name="uni0450" unicode="&#x450;" horiz-adv-x="491" 
d="M238 585l-97 136h85l71 -136h-59zM391 294q-2 25 -8.5 53t-20.5 50.5t-38 37.5t-60 15t-63 -14.5t-45 -37t-28 -50t-11 -54.5h274zM117 240q0 -36 10 -70.5t31 -61.5t54.5 -43.5t80.5 -16.5q36 0 72.5 10t64.5 28l3 -65q-32 -16 -68.5 -24t-71.5 -8q-65 0 -112 20
t-78.5 55t-46.5 83t-15 104q0 48 13.5 94t41.5 82t69.5 58.5t97.5 22.5q58 0 96.5 -21.5t61 -57t32 -82t9.5 -95.5v-12h-345z" />
    <glyph glyph-name="afii10071" unicode="&#x451;" horiz-adv-x="491" 
d="M391 294q-2 25 -8.5 53t-20.5 50.5t-38 37.5t-60 15t-63 -14.5t-45 -37t-28 -50t-11 -54.5h274zM117 240q0 -36 10 -70.5t31 -61.5t54.5 -43.5t80.5 -16.5q36 0 72.5 10t64.5 28l3 -65q-32 -16 -68.5 -24t-71.5 -8q-65 0 -112 20t-78.5 55t-46.5 83t-15 104q0 48 13.5 94
t41.5 82t69.5 58.5t97.5 22.5q58 0 96.5 -21.5t61 -57t32 -82t9.5 -95.5v-12h-345zM298 609v87h66v-87h-66zM143 609v87h66v-87h-66z" />
    <glyph glyph-name="afii10099" unicode="&#x452;" horiz-adv-x="539" 
d="M271 -223q-17 0 -35.5 2.5t-32.5 6.5l5 61q12 -4 28 -5.5t22 -1.5q42 0 68.5 13.5t41.5 36.5t20.5 53.5t5.5 64.5v288q0 30 -4 57t-16 47.5t-34 33t-58 12.5q-39 0 -65 -15.5t-41.5 -40t-22.5 -56.5t-7 -65v-269h-73v590h-85v52h85v79h73v-79h153v-52h-153v-176
q48 94 154 94q46 0 77.5 -15t51 -41.5t28.5 -63t9 -79.5v-292q0 -53 -8.5 -97t-30 -76t-59.5 -49.5t-97 -17.5z" />
    <glyph glyph-name="afii10100" unicode="&#x453;" horiz-adv-x="383" 
d="M175 585l72 136h85l-96 -136h-61zM73 498h302v-60h-229v-438h-73v498z" />
    <glyph glyph-name="afii10101" unicode="&#x454;" horiz-adv-x="447" 
d="M285 -10q-56 0 -100.5 19t-76 53t-48.5 82t-17 107q0 57 18 104.5t51 81t79 52t103 18.5q29 0 57.5 -3.5t58.5 -14.5l-4 -64q-28 13 -49.5 18t-50.5 5q-75 0 -124 -41.5t-57 -116.5h224v-57h-227q2 -39 15 -73t36 -59t55 -39t72 -14q27 0 55 6t54 17l7 -61
q-34 -11 -64 -15.5t-67 -4.5z" />
    <glyph glyph-name="afii10102" unicode="&#x455;" horiz-adv-x="389" 
d="M51 80q30 -16 59 -23.5t63 -7.5q42 0 68.5 20.5t26.5 62.5q0 30 -16 49t-40 32.5t-51.5 25.5t-51.5 28.5t-40 40.5t-16 62q0 37 14 63.5t37 43t52 24t58 7.5q31 0 59 -5.5t54 -15.5l-10 -63q-23 11 -49.5 18t-52.5 7q-15 0 -30.5 -3.5t-28.5 -11.5t-21.5 -23t-8.5 -37
q0 -25 16 -40.5t40 -28t52.5 -24.5t52.5 -30t40 -44.5t16 -68.5q0 -36 -14 -64t-37.5 -46.5t-54 -28.5t-63.5 -10q-36 0 -69 5t-63 18z" />
    <glyph glyph-name="afii10103" unicode="&#x456;" horiz-adv-x="218" 
d="M73 0v498h73v-498h-73zM73 609v87h73v-87h-73z" />
    <glyph glyph-name="afii10104" unicode="&#x457;" horiz-adv-x="218" 
d="M154 609v87h66v-87h-66zM-1 609v87h66v-87h-66zM73 0v498h73v-498h-73z" />
    <glyph glyph-name="afii10105" unicode="&#x458;" horiz-adv-x="224" 
d="M-20 -158q16 -6 34 -6q22 0 35 8t20 20.5t8.5 29.5t1.5 35v569h72v-580q0 -30 -5 -56.5t-18 -46t-35.5 -31t-56.5 -11.5q-16 0 -31.5 1t-30.5 5zM79 609v87h72v-87h-72z" />
    <glyph glyph-name="afii10106" unicode="&#x459;" horiz-adv-x="792" 
d="M579 58q60 0 84.5 27.5t24.5 74.5q0 45 -26.5 69.5t-88.5 24.5h-106v-196h112zM56 -6q-14 0 -30 1.5t-27 4.5l5 61q7 -3 18.5 -4t22.5 -1q30 0 48.5 23t29.5 75.5t15 136.5t4 207h325v-186h123q36 0 67.5 -8.5t55 -26.5t37 -46t13.5 -68q0 -43 -13 -74t-36.5 -50.5
t-56 -29t-71.5 -9.5h-192v440h-181q0 -104 -4.5 -187t-20.5 -140.5t-47 -88t-85 -30.5z" />
    <glyph glyph-name="afii10107" unicode="&#x45a;" horiz-adv-x="779" 
d="M568 58q57 0 81.5 27t24.5 70q0 41 -26 64.5t-87 23.5h-107v-185h114zM73 498h73v-197h235v197h73v-197h130q35 0 65.5 -8.5t53 -26t35 -44.5t12.5 -64q0 -81 -47.5 -119.5t-122.5 -38.5h-199v243h-235v-243h-73v498z" />
    <glyph glyph-name="afii10108" unicode="&#x45b;" horiz-adv-x="539" 
d="M73 0v590h-85v52h85v79h73v-79h153v-52h-153v-176q48 94 154 94q46 0 77.5 -15t51 -41.5t28.5 -63t9 -79.5v-309h-72v296q0 30 -4 57t-16 47.5t-34 33t-58 12.5q-39 0 -65 -15.5t-41.5 -40t-22.5 -56.5t-7 -65v-269h-73z" />
    <glyph glyph-name="afii10109" unicode="&#x45c;" horiz-adv-x="488" 
d="M73 498h73v-229l220 229h90l-228 -232l258 -266h-97l-243 254v-254h-73v498zM208 585l72 136h85l-96 -136h-61z" />
    <glyph glyph-name="uni045D" unicode="&#x45d;" horiz-adv-x="555" 
d="M274 585l-97 136h85l71 -136h-59zM73 498h73v-406l252 406h84v-498h-73v405l-252 -405h-84v498z" />
    <glyph glyph-name="afii10110" unicode="&#x45e;" horiz-adv-x="444" 
d="M224 585q-35 0 -60 10.5t-42.5 26t-28 32.5t-14.5 29l46 28q11 -25 34 -44.5t65 -19.5q41 0 64.5 21t34.5 43l46 -28q-4 -12 -14 -29t-27.5 -32t-43 -26t-60.5 -11zM37 -156q11 -4 22 -6.5t23 -2.5q21 0 36.5 13t26.5 31.5t18.5 38t11.5 32.5l10 33l-173 515h79l134 -429
l133 429h76l-200 -585q-10 -29 -23 -54.5t-30 -44.5t-39.5 -30t-50.5 -11q-18 0 -30.5 2t-29.5 6z" />
    <glyph glyph-name="afii10193" unicode="&#x45f;" horiz-adv-x="539" 
d="M239 0h-166v498h73v-440h247v440h73v-498h-159v-145h-68v145z" />
    <glyph glyph-name="afii10146" unicode="&#x462;" horiz-adv-x="600" 
d="M317 66q70 0 113 31t43 106q0 66 -41 97t-114 31h-94v-265h93zM144 0v572h-126v66h126v83h80v-83h205v-66h-205v-175h99q111 0 171 -50.5t60 -143.5q0 -44 -13.5 -81.5t-42.5 -64.5t-73.5 -42t-107.5 -15h-173z" />
    <glyph glyph-name="afii10194" unicode="&#x463;" horiz-adv-x="522" 
d="M192 252v-194h112q60 0 85.5 27.5t25.5 74.5q0 45 -27.5 68.5t-89.5 23.5h-106zM315 310q36 0 67.5 -8t55.5 -25.5t38 -45.5t14 -68q0 -43 -13.5 -74t-37 -50.5t-56.5 -29t-72 -9.5h-192v441h-111v57h111v223h73v-223h182v-57h-182v-131h123z" />
    <glyph glyph-name="afii10147" unicode="&#x472;" horiz-adv-x="702" 
d="M351 611q-53 0 -91.5 -20.5t-64.5 -54t-40.5 -77t-18.5 -88.5h430q-4 46 -18.5 89t-40.5 76.5t-65 54t-91 20.5zM351 55q55 0 94.5 21.5t65.5 57.5t39.5 81.5t16.5 93.5h-433q3 -47 17 -92.5t40.5 -81.5t66 -58t93.5 -22zM651 333q0 -69 -19 -131.5t-56.5 -110t-93.5 -75
t-131 -27.5q-78 0 -134.5 27t-93 73.5t-54.5 109.5t-18 134q0 69 18.5 131.5t56 109.5t94 75t131.5 28q77 0 133.5 -27t93.5 -74t55 -109.5t18 -133.5z" />
    <glyph glyph-name="afii10195" unicode="&#x473;" horiz-adv-x="552" 
d="M276 447q-37 0 -64.5 -13.5t-46.5 -36.5t-29.5 -53t-13.5 -62h307q-3 33 -13 62.5t-28.5 52.5t-46 36.5t-65.5 13.5zM276 50q38 0 65.5 15t46.5 40t29 57t13 66h-308q2 -34 12 -66t29 -57t47 -40t66 -15zM509 251q0 -54 -15 -101.5t-44 -83.5t-72.5 -56.5t-101.5 -20.5
t-101.5 20.5t-73 56.5t-44 83.5t-14.5 101.5t15.5 100.5t45.5 81.5t73.5 55t98.5 20q58 0 102 -19.5t73 -54t43.5 -81.5t14.5 -102z" />
    <glyph glyph-name="afii10148" unicode="&#x474;" horiz-adv-x="668" 
d="M255 0l-249 667h84l210 -591l146 443q14 43 29.5 72.5t34 48t40 26.5t47.5 8q35 0 66 -13l-4 -62q-11 5 -22.5 7.5t-23.5 2.5q-15 0 -27 -4t-23 -16t-21.5 -32.5t-22.5 -53.5l-177 -503h-87z" />
    <glyph glyph-name="afii10196" unicode="&#x475;" horiz-adv-x="497" 
d="M178 0l-167 498h79l133 -434l90 313q20 70 48.5 99t75.5 29q30 0 49 -10l-5 -58q-7 3 -14.5 5t-18.5 2q-22 0 -37 -15.5t-30 -62.5l-117 -366h-86z" />
    <glyph glyph-name="afii10050" unicode="&#x490;" horiz-adv-x="450" 
d="M85 667h283v147h73v-215h-276v-599h-80v667z" />
    <glyph glyph-name="afii10098" unicode="&#x491;" horiz-adv-x="386" 
d="M73 498h238v133h67v-193h-232v-438h-73v498z" />
    <glyph glyph-name="Wgrave" unicode="&#x1e80;" horiz-adv-x="922" 
d="M202 0l-191 667h81l161 -588l166 588h92l165 -588l161 588h75l-190 -667h-94l-165 589l-166 -589h-95zM440 724l-97 136h85l71 -136h-59z" />
    <glyph glyph-name="wgrave" unicode="&#x1e81;" horiz-adv-x="771" 
d="M171 0l-158 498h78l127 -430l129 430h87l129 -430l126 430h70l-155 -498h-89l-127 429l-129 -429h-88zM361 585l-97 136h85l71 -136h-59z" />
    <glyph glyph-name="Wacute" unicode="&#x1e82;" horiz-adv-x="922" 
d="M202 0l-191 667h81l161 -588l166 588h92l165 -588l161 588h75l-190 -667h-94l-165 589l-166 -589h-95zM431 724l72 136h85l-96 -136h-61z" />
    <glyph glyph-name="wacute" unicode="&#x1e83;" horiz-adv-x="771" 
d="M171 0l-158 498h78l127 -430l129 430h87l129 -430l126 430h70l-155 -498h-89l-127 429l-129 -429h-88zM353 585l72 136h85l-96 -136h-61z" />
    <glyph glyph-name="Wdieresis" unicode="&#x1e84;" horiz-adv-x="922" 
d="M202 0l-191 667h81l161 -588l166 588h92l165 -588l161 588h75l-190 -667h-94l-165 589l-166 -589h-95zM505 748v87h66v-87h-66zM350 748v87h66v-87h-66z" />
    <glyph glyph-name="wdieresis" unicode="&#x1e85;" horiz-adv-x="771" 
d="M171 0l-158 498h78l127 -430l129 430h87l129 -430l126 430h70l-155 -498h-89l-127 429l-129 -429h-88zM275 609v87h66v-87h-66zM430 609v87h66v-87h-66z" />
    <glyph glyph-name="Ygrave" unicode="&#x1ef2;" horiz-adv-x="576" 
d="M248 0v278l-246 389h88l200 -325l200 325h85l-248 -389v-278h-79zM272 724l-97 136h85l71 -136h-59z" />
    <glyph glyph-name="ygrave" unicode="&#x1ef3;" horiz-adv-x="444" 
d="M37 -156q11 -4 22 -6.5t23 -2.5q21 0 36.5 13t26.5 31.5t18.5 38t11.5 32.5l10 33l-173 515h79l134 -429l133 429h76l-200 -585q-10 -29 -23 -54.5t-30 -44.5t-39.5 -30t-50.5 -11q-18 0 -30.5 2t-29.5 6zM202 585l-97 136h85l71 -136h-59z" />
    <glyph glyph-name="uni2010" unicode="&#x2010;" horiz-adv-x="320" 
d="M39 277v66h242v-66h-242z" />
    <glyph glyph-name="endash" unicode="&#x2013;" horiz-adv-x="500" 
d="M0 282v56h500v-56h-500z" />
    <glyph glyph-name="emdash" unicode="&#x2014;" horiz-adv-x="1000" 
d="M0 282v56h1000v-56h-1000z" />
    <glyph glyph-name="afii00208" unicode="&#x2015;" horiz-adv-x="1000" 
d="M0 282v56h1000v-56h-1000z" />
    <glyph glyph-name="quoteleft" unicode="&#x2018;" horiz-adv-x="271" 
d="M38 504l83 217h59l-58 -217h-84z" />
    <glyph glyph-name="quoteright" unicode="&#x2019;" horiz-adv-x="271" 
d="M38 504l58 217h84l-83 -217h-59z" />
    <glyph glyph-name="quotesinglbase" unicode="&#x201a;" horiz-adv-x="271" 
d="M38 -128l58 217h84l-83 -217h-59z" />
    <glyph glyph-name="quotedblleft" unicode="&#x201c;" horiz-adv-x="443" 
d="M38 504l83 217h59l-58 -217h-84zM211 504l83 217h58l-58 -217h-83z" />
    <glyph glyph-name="quotedblright" unicode="&#x201d;" horiz-adv-x="443" 
d="M38 504l58 217h84l-83 -217h-59zM210 504l58 217h84l-83 -217h-59z" />
    <glyph glyph-name="quotedblbase" unicode="&#x201e;" horiz-adv-x="443" 
d="M38 -128l58 217h84l-83 -217h-59zM211 -128l58 217h83l-83 -217h-58z" />
    <glyph glyph-name="dagger" unicode="&#x2020;" horiz-adv-x="542" 
d="M233 -128v556h-176v66h176v227h77v-227h176v-66h-176v-556h-77z" />
    <glyph glyph-name="daggerdbl" unicode="&#x2021;" horiz-adv-x="542" 
d="M233 -128v227h-176v66h176v263h-176v66h176v227h77v-227h176v-66h-176v-263h176v-66h-176v-227h-77z" />
    <glyph glyph-name="bullet" unicode="&#x2022;" horiz-adv-x="422" 
d="M422 81h-422v423h422v-423z" />
    <glyph glyph-name="ellipsis" unicode="&#x2026;" horiz-adv-x="1000" 
d="M123 0v89h87v-89h-87zM457 0v89h87v-89h-87zM790 0v89h87v-89h-87z" />
    <glyph glyph-name="perthousand" unicode="&#x2030;" horiz-adv-x="1250" 
d="M143 372q9 -23 27 -38.5t49 -15.5t48.5 15.5t26.5 38.5t11.5 49.5t2.5 49.5t-2 50t-11 50t-27 38t-49 15q-30 0 -48 -15.5t-27 -38.5t-11.5 -50t-2.5 -49q0 -23 2 -49.5t11 -49.5zM607 96q9 -23 27 -38.5t49 -15.5t48.5 15.5t26.5 38.5t11.5 49.5t2.5 49.5t-2 50t-11 50
t-27 38t-49 15q-30 0 -48 -15.5t-27 -38.5t-11.5 -50t-2.5 -49q0 -23 2 -49.5t11 -49.5zM955 96q8 -23 25.5 -38.5t48.5 -15.5t49 15.5t27.5 38.5t12.5 49.5t3 49.5t-2.5 50t-12 50t-28 38t-49.5 15q-30 0 -47.5 -15.5t-26 -38.5t-10.5 -50t-2 -49q0 -23 2 -49.5t10 -49.5z
M142 284q-23 14 -37.5 35t-23.5 45.5t-12.5 52t-3.5 54.5q0 34 7 70.5t24.5 66.5t47.5 49.5t75 19.5q46 0 76 -19.5t47.5 -49.5t24.5 -66.5t7 -70.5q0 -35 -7 -71.5t-24.5 -66.5t-47.5 -49t-76 -19q-48 0 -77 19zM210 -24l424 715h60l-424 -715h-60zM606 8q-23 14 -37.5 35
t-23.5 45.5t-12.5 52t-3.5 54.5q0 34 7 70.5t24.5 66.5t47.5 49.5t75 19.5q46 0 76 -19.5t47 -49.5t24 -66.5t7 -70.5q0 -35 -7 -71.5t-24 -66.5t-47 -49t-76 -19q-48 0 -77 19zM952 8q-22 14 -36.5 35t-22.5 45.5t-11.5 52t-3.5 54.5q0 34 6.5 70.5t23.5 66.5t46.5 49.5
t74.5 19.5q46 0 76.5 -19.5t48.5 -49.5t25 -66.5t7 -70.5q0 -35 -7 -71.5t-25 -66.5t-48.5 -49t-76.5 -19q-48 0 -77 19z" />
    <glyph glyph-name="guilsinglleft" unicode="&#x2039;" horiz-adv-x="266" 
d="M161 55l-131 200l131 198h66l-126 -198l126 -200h-66z" />
    <glyph glyph-name="guilsinglright" unicode="&#x203a;" horiz-adv-x="266" 
d="M40 55l125 199l-125 199h66l131 -199l-131 -199h-66z" />
    <glyph glyph-name="interrobang" unicode="&#x203d;" horiz-adv-x="408" 
d="M123 0v89h87v-89h-87zM132 169l-9 364h73l-6 -233q7 14 18 31.5t30 40.5q16 19 28 34.5t19.5 30.5t11 31t3.5 37q0 54 -34.5 83.5t-95.5 29.5q-35 0 -69.5 -7t-66.5 -20l-6 61q36 11 69.5 18t79.5 7q41 0 76.5 -11t61.5 -32t41 -52.5t15 -73.5q0 -39 -12.5 -68
t-31.5 -52.5t-41 -44t-41 -43.5t-31.5 -51t-12.5 -65v-15h-69z" />
    <glyph glyph-name="fraction" unicode="&#x2044;" horiz-adv-x="169" 
d="M-157 -24l424 715h59l-424 -715h-59z" />
    <glyph glyph-name="zero.superior" unicode="&#x2070;" 
d="M124 381q-22 14 -36.5 35t-23.5 46t-12.5 53t-3.5 57q0 36 7 73t24.5 67t47 49t73.5 19q45 0 74.5 -19t47 -49t24.5 -67t7 -73t-7 -73.5t-24.5 -68t-47 -49.5t-74.5 -19q-47 0 -76 19zM126 469q9 -24 26.5 -39.5t47.5 -15.5t47.5 15.5t26.5 39.5t11.5 51.5t2.5 51.5
q0 25 -2.5 52.5t-11.5 50.5t-26.5 38t-47.5 15q-29 0 -46.5 -15t-26.5 -38t-12 -50.5t-3 -52.5q0 -24 2.5 -51.5t11.5 -51.5z" />
    <glyph glyph-name="uni2071" unicode="&#x2071;" horiz-adv-x="160" 
d="M51 731v64h59v-64h-59zM51 369v305h59v-305h-59z" />
    <glyph glyph-name="four.superior" unicode="&#x2074;" 
d="M41 457v59l189 258h71v-265h61v-52h-61v-88h-61v88h-199zM95 509h146v203z" />
    <glyph glyph-name="five.superior" unicode="&#x2075;" 
d="M70 430q39 -15 87 -15q21 0 41 5t36 15t25.5 25.5t9.5 36.5q0 42 -31.5 59.5t-73.5 17.5q-21 0 -42 -3.5t-45 -9.5l4 213h233v-51h-176l-3 -111q16 5 30 6.5t27 1.5q28 0 54 -7t45.5 -21t31 -37t11.5 -54q0 -35 -14 -61.5t-37.5 -43.5t-54 -25.5t-62.5 -8.5q-25 0 -51 3
t-49 11z" />
    <glyph glyph-name="six.superior" unicode="&#x2076;" 
d="M325 719q-36 11 -72 11t-61 -13t-41.5 -34t-24.5 -48.5t-9 -55.5q19 23 46.5 35.5t58.5 12.5q60 0 95 -34t35 -94q0 -32 -11.5 -57.5t-31 -43t-46 -27t-56.5 -9.5q-45 0 -74 17t-46 44t-24 61.5t-7 70.5q0 46 11.5 87t35.5 72t61 48.5t88 17.5q41 0 77 -10zM143 439
q11 -12 26.5 -20t36.5 -8q42 0 63.5 25t21.5 60q0 34 -19.5 58.5t-61.5 24.5q-36 0 -62 -21.5t-26 -56.5t21 -62z" />
    <glyph glyph-name="seven.superior" unicode="&#x2077;" 
d="M99 369l171 349h-212v56h276v-53l-161 -352h-74z" />
    <glyph glyph-name="eight.superior" unicode="&#x2078;" 
d="M73 542q23 23 62 37q-32 14 -53 35.5t-21 59.5q0 28 13.5 48t34 33t45 19t46.5 6q24 0 49 -5.5t45.5 -18t33 -32.5t12.5 -49q0 -36 -23.5 -59t-52.5 -36q40 -12 64.5 -35.5t24.5 -69.5q0 -30 -14 -51.5t-36 -35t-49.5 -20t-53.5 -6.5q-27 0 -53.5 6t-48.5 19.5
t-35.5 34.5t-13.5 51q0 45 24 69zM146 627q22 -15 56 -25q13 4 27 10.5t25 15.5t18 20t7 25q0 30 -24 45t-55 15q-30 0 -54 -16t-24 -45t24 -45zM266 529q-23 18 -65 31q-40 -10 -65 -29.5t-25 -51.5t26.5 -50t62.5 -18q37 0 63.5 18t26.5 51q0 31 -24 49z" />
    <glyph glyph-name="nine.superior" unicode="&#x2079;" 
d="M76 424q31 -12 72 -12q36 0 61 13t41.5 34.5t24.5 48.5t9 55q-19 -23 -46.5 -35.5t-58.5 -12.5q-60 0 -95 34t-35 94q0 32 11.5 57.5t31 43t46 27t56.5 9.5q44 0 73 -16.5t46 -44t24 -62t7 -70.5q0 -47 -11 -87.5t-35 -71.5t-60.5 -48.5t-87.5 -17.5q-39 0 -78 10z
M129 588q19 -24 62 -24q36 0 62 21.5t26 55.5q0 16 -5.5 32.5t-16 29.5t-26.5 21t-37 8q-42 0 -63 -25.5t-21 -60.5t19 -58z" />
    <glyph glyph-name="plus.superior" unicode="&#x207a;" 
d="M39 494v49h136v126h51v-126h136v-49h-136v-125h-51v125h-136z" />
    <glyph glyph-name="minus.superior" unicode="&#x207b;" 
d="M39 494v49h323v-49h-323z" />
    <glyph glyph-name="uni207F" unicode="&#x207f;" horiz-adv-x="364" 
d="M51 369v233q0 37 -3 72h54l2 -54q40 60 105 60q56 0 80 -33t24 -86v-192h-59v179q0 15 -2.5 29t-9.5 25.5t-20 18t-34 6.5q-23 0 -38 -8t-24 -21t-12.5 -30t-3.5 -34v-165h-59z" />
    <glyph glyph-name="zero.inferior" unicode="&#x2080;" 
d="M124 -154q-22 14 -36.5 35t-23.5 46t-12.5 53t-3.5 57q0 36 7 73t24.5 67t47 49t73.5 19q45 0 74.5 -19t47 -49t24.5 -67t7 -73t-7 -73.5t-24.5 -68t-47 -49.5t-74.5 -19q-47 0 -76 19zM126 -66q9 -24 26.5 -39.5t47.5 -15.5t47.5 15.5t26.5 39.5t11.5 51.5t2.5 51.5
q0 25 -2.5 52.5t-11.5 50.5t-26.5 38t-47.5 15q-29 0 -46.5 -15t-26.5 -38t-12 -50.5t-3 -52.5q0 -24 2.5 -51.5t11.5 -51.5z" />
    <glyph glyph-name="one.inferior" unicode="&#x2081;" 
d="M195 -166v335l-85 -62l-29 45l123 87h54v-405h-63z" />
    <glyph glyph-name="two.inferior" unicode="&#x2082;" 
d="M55 -166v52l73 67q66 60 96.5 100t30.5 76q0 30 -24 46t-56 16q-30 0 -54.5 -7t-47.5 -18l-3 54q26 11 54.5 18t57.5 7q27 0 52 -6.5t44 -20t30.5 -35.5t11.5 -52q0 -51 -34.5 -96t-83.5 -89l-66 -60h192v-52h-273z" />
    <glyph glyph-name="three.inferior" unicode="&#x2083;" 
d="M58 -105q22 -8 48.5 -12t51.5 -4q21 0 40.5 4.5t34.5 13.5t24 23.5t9 34.5q0 19 -9 31.5t-23.5 20t-33 11t-37.5 3.5h-54v49h45q21 0 40.5 3t34 10.5t23 20t8.5 32.5q0 16 -8.5 27t-22 18t-30.5 10t-34 3q-25 0 -50 -4.5t-46 -13.5l-3 52q53 17 108 17q27 0 53.5 -5
t47.5 -17t34.5 -32t13.5 -50q0 -38 -21 -61t-54 -32q34 -8 58.5 -31.5t24.5 -60.5q0 -34 -14.5 -58.5t-38 -40t-54 -23t-62.5 -7.5q-29 0 -55 3.5t-52 11.5z" />
    <glyph glyph-name="four.inferior" unicode="&#x2084;" 
d="M41 -78v59l189 258h71v-265h61v-52h-61v-88h-61v88h-199zM95 -26h146v203z" />
    <glyph glyph-name="five.inferior" unicode="&#x2085;" 
d="M70 -105q39 -15 87 -15q21 0 41 5t36 15t25.5 25.5t9.5 36.5q0 42 -31.5 59.5t-73.5 17.5q-21 0 -42 -3.5t-45 -9.5l4 213h233v-51h-176l-3 -111q16 5 30 6.5t27 1.5q28 0 54 -7t45.5 -21t31 -37t11.5 -54q0 -35 -14 -61.5t-37.5 -43.5t-54 -25.5t-62.5 -8.5q-25 0 -51 3
t-49 11z" />
    <glyph glyph-name="six.inferior" unicode="&#x2086;" 
d="M325 184q-36 11 -72 11t-61 -13t-41.5 -34t-24.5 -48.5t-9 -55.5q19 23 46.5 35.5t58.5 12.5q60 0 95 -34t35 -94q0 -32 -11.5 -57.5t-31 -43t-46 -27t-56.5 -9.5q-45 0 -74 17t-46 44t-24 61.5t-7 70.5q0 46 11.5 87t35.5 72t61 48.5t88 17.5q41 0 77 -10zM143 -96
q11 -12 26.5 -20t36.5 -8q42 0 63.5 25t21.5 60q0 34 -19.5 58.5t-61.5 24.5q-36 0 -62 -21.5t-26 -56.5t21 -62z" />
    <glyph glyph-name="seven.inferior" unicode="&#x2087;" 
d="M99 -166l171 349h-212v56h276v-53l-161 -352h-74z" />
    <glyph glyph-name="eight.inferior" unicode="&#x2088;" 
d="M73 7q23 23 62 37q-32 14 -53 35.5t-21 59.5q0 28 13.5 48t34 33t45 19t46.5 6q24 0 49 -5.5t45.5 -18t33 -32.5t12.5 -49q0 -36 -23.5 -59t-52.5 -36q40 -12 64.5 -35.5t24.5 -69.5q0 -30 -14 -51.5t-36 -35t-49.5 -20t-53.5 -6.5q-27 0 -53.5 6t-48.5 19.5t-35.5 34.5
t-13.5 51q0 45 24 69zM146 92q22 -15 56 -25q13 4 27 10.5t25 15.5t18 20t7 25q0 30 -24 45t-55 15q-30 0 -54 -16t-24 -45t24 -45zM266 -6q-23 18 -65 31q-40 -10 -65 -29.5t-25 -51.5t26.5 -50t62.5 -18q37 0 63.5 18t26.5 51q0 31 -24 49z" />
    <glyph glyph-name="nine.inferior" unicode="&#x2089;" 
d="M76 -111q31 -12 72 -12q36 0 61 13t41.5 34.5t24.5 48.5t9 55q-19 -23 -46.5 -35.5t-58.5 -12.5q-60 0 -95 34t-35 94q0 32 11.5 57.5t31 43t46 27t56.5 9.5q44 0 73 -16.5t46 -44t24 -62t7 -70.5q0 -47 -11 -87.5t-35 -71.5t-60.5 -48.5t-87.5 -17.5q-39 0 -78 10z
M129 53q19 -24 62 -24q36 0 62 21.5t26 55.5q0 16 -5.5 32.5t-16 29.5t-26.5 21t-37 8q-42 0 -63 -25.5t-21 -60.5t19 -58z" />
    <glyph glyph-name="plus.inferior" unicode="&#x208a;" 
d="M39 -38v49h136v126h51v-126h136v-49h-136v-125h-51v125h-136z" />
    <glyph glyph-name="minus.inferior" unicode="&#x208b;" 
d="M39 -38v49h323v-49h-323z" />
    <glyph glyph-name="a.inferior" unicode="&#x2090;" horiz-adv-x="337" 
d="M235 -166l-3 49q-16 -28 -44 -42t-58 -14q-42 0 -72 22t-30 70q0 30 12.5 50.5t34.5 32.5t51.5 17t62.5 5h42v9q0 32 -18 48.5t-57 16.5q-47 0 -90 -22l-4 50q20 9 48 14t51 5q60 0 93.5 -27.5t33.5 -88.5v-126q0 -21 1 -37.5t3 -31.5h-57zM207 -19q-21 0 -43 -2t-39 -8
t-28 -17.5t-11 -30.5q0 -26 17.5 -37.5t40.5 -11.5q46 0 66.5 28t20.5 65v14h-24z" />
    <glyph glyph-name="e.inferior" unicode="&#x2091;" horiz-adv-x="333" 
d="M92 -28q0 -40 26 -68.5t82 -28.5q23 0 46 4.5t40 13.5l3 -49q-45 -17 -94 -17q-82 0 -122.5 44t-40.5 117q0 31 9.5 59.5t28 50.5t45 34.5t61.5 12.5q37 0 62 -12t40 -33t21.5 -49t6.5 -60v-19h-214zM251 15q0 15 -3.5 30t-12 27t-22.5 19t-36 7q-21 0 -36.5 -7.5
t-26 -19t-16 -26.5t-6.5 -30h159z" />
    <glyph glyph-name="o.inferior" unicode="&#x2092;" horiz-adv-x="370" 
d="M185 -173q-75 0 -114 45t-39 114q0 34 10.5 63t30.5 50.5t48.5 33.5t65.5 12q75 0 113.5 -44.5t38.5 -114.5q0 -34 -10.5 -63t-30 -50.5t-48 -33.5t-65.5 -12zM116 -88q11 -16 28 -25.5t41 -9.5t41.5 9.5t28.5 24.5t16 34.5t5 40.5q0 19 -5 38.5t-15.5 35t-27.5 25.5
t-41 10q-25 0 -42 -9.5t-28 -25t-16 -35t-5 -39.5q0 -42 20 -74z" />
    <glyph glyph-name="x.inferior" unicode="&#x2093;" horiz-adv-x="318" 
d="M238 -166l-78 128l-83 -128h-66l110 160l-100 145h70l72 -115l69 115h66l-99 -145l109 -160h-70z" />
    <glyph glyph-name="schwa.inferior" unicode="&#x2094;" horiz-adv-x="333" 
d="M32 0h214q0 40 -26 68.5t-82 28.5q-23 0 -46 -4.5t-40 -13.5l-3 49q45 17 94 17q82 0 122.5 -44t40.5 -117q0 -32 -9.5 -60t-28 -50t-45.5 -34.5t-61 -12.5q-37 0 -62 12t-40 33t-21.5 49t-6.5 60v19zM87 -43q0 -15 3.5 -30t12 -27t22.5 -19t36 -7q21 0 36.5 7.5t26 19
t16 26.5t6.5 30h-159z" />
    <glyph glyph-name="Euro" unicode="&#x20ac;" horiz-adv-x="542" 
d="M29 241l11 50h72q-1 11 -1.5 21.5t-0.5 21.5q0 10 0.5 20.5t1.5 20.5h-82l11 50h78q10 51 32.5 97t56 80.5t79 54.5t101.5 20q31 0 64.5 -6.5t61.5 -20.5l-14 -65q-23 13 -51 19t-55 6q-42 0 -74.5 -15t-56.5 -40t-39.5 -59t-23.5 -71h269l-11 -50h-266q-1 -11 -1.5 -21
t-0.5 -21t0.5 -21t1.5 -21h250l-11 -50h-231q7 -38 22.5 -71.5t39.5 -59t56.5 -40t74.5 -14.5q26 0 55.5 5.5t52.5 19.5l6 -68q-24 -14 -57.5 -19t-61.5 -5q-57 0 -103 19.5t-80 53t-56 79.5t-31 100h-89z" />
    <glyph glyph-name="afii61248" unicode="&#x2105;" horiz-adv-x="1018" 
d="M774 44q32 0 55 13t38 34t22 48.5t7 56.5t-6.5 56t-21.5 48t-38 33.5t-56 12.5t-56 -13t-37.5 -34t-21.5 -48t-7 -55q0 -29 6.5 -56.5t21.5 -48.5t38 -34t56 -13zM774 -11q-46 0 -82 15t-60.5 42.5t-37.5 65.5t-13 84q0 43 13.5 80.5t38.5 65t60.5 43.5t80.5 16
q48 0 84 -15.5t60 -42.5t36.5 -64.5t12.5 -82.5q0 -44 -12.5 -82t-37.5 -65.5t-61 -43.5t-82 -16zM238 -24l473 715h62l-473 -715h-62zM357 279q-24 -8 -47.5 -11t-48.5 -3q-50 0 -89 16t-66 44t-41 66t-14 82q0 45 15 82.5t43 64.5t66 42t85 15q26 0 48.5 -2.5t45.5 -10.5
l-4 -60q-17 8 -37.5 13t-40.5 5q-71 0 -111 -41.5t-40 -107.5q0 -30 10 -58t29.5 -49t47.5 -33.5t63 -12.5q24 0 42.5 4t38.5 14z" />
    <glyph glyph-name="afii61289" unicode="&#x2113;" horiz-adv-x="500" 
d="M98 166l-26 37l86 84v259q0 84 37.5 129.5t91.5 45.5q48 0 79 -34t31 -94q0 -75 -43 -153t-128 -165v-150q0 -26 7 -43t18 -26.5t24 -13.5t26 -4q20 0 42.5 9t45.5 29h2l24 -35q-58 -55 -130 -55q-55 0 -91 31t-36 97v114l-58 -62h-2zM226 335q57 66 85.5 131t28.5 122
q0 38 -15 61.5t-38 23.5t-42 -28t-19 -88v-222z" />
    <glyph glyph-name="afii61352" unicode="&#x2116;" horiz-adv-x="1009" 
d="M808 283q83 0 83 132q0 59 -19.5 87t-61.5 28q-27 0 -43.5 -11.5t-26 -29.5t-13 -41t-3.5 -46q0 -24 3.5 -45.5t12.5 -38t25.5 -26t42.5 -9.5zM805 230q-70 0 -109.5 45t-39.5 126q0 85 41.5 134t111.5 49q72 0 111.5 -44.5t39.5 -125.5q0 -89 -41.5 -136.5t-113.5 -47.5
zM662 178h292v-55h-292v55zM85 667h102l308 -579v579h78v-667h-108l-302 567v-567h-78v667z" />
    <glyph glyph-name="trademark" unicode="&#x2122;" horiz-adv-x="916" 
d="M136 266v353h-131v48h326v-48h-132v-353h-63zM390 266v401h98l141 -336l137 336h97v-401h-62v357l-145 -357h-59l-148 357v-357h-59z" />
    <glyph glyph-name="Omega" unicode="&#x2126;" horiz-adv-x="750" 
d="M75 0v62h201v73q-46 9 -83 34.5t-63.5 62t-40.5 80t-14 88.5q0 61 25 113t66.5 89.5t95.5 58.5t113 21t113.5 -21t96 -58.5t66.5 -89.5t25 -113q0 -45 -14.5 -89t-40.5 -80t-63.5 -61.5t-83.5 -34.5v-73h201v-62h-263v177q44 1 80 19.5t61 48.5t38.5 69t13.5 81
q0 47 -18.5 88t-50 72t-73.5 48.5t-88 17.5q-47 0 -88.5 -17.5t-72.5 -48.5t-49.5 -72t-18.5 -88q0 -42 13.5 -81t38.5 -69t60.5 -48.5t79.5 -19.5v-177h-263z" />
    <glyph glyph-name="estimated" unicode="&#x212e;" horiz-adv-x="600" 
d="M157 78q59 -59 145 -59q63 0 109 28.5t84 91.5l35 -21q-23 -36 -46.5 -61.5t-51 -42t-59.5 -24t-71 -7.5q-59 0 -106.5 21.5t-81.5 59t-52 87.5t-18 108t18 108.5t52 87.5t81.5 58.5t106.5 21.5q58 0 105.5 -20.5t81.5 -57t53 -87t19 -111.5h-404v-181zM157 295h291v145
q-63 60 -147 60t-144 -60v-145z" />
    <glyph glyph-name="onethird" unicode="&#x2153;" horiz-adv-x="900" 
d="M180 265v335l-85 -62l-29 45l123 87h54v-405h-63zM164 -24l424 715h59l-424 -715h-59zM542 61q22 -8 48.5 -12t51.5 -4q21 0 40.5 4.5t34.5 13.5t24 23.5t9 34.5q0 19 -9 31.5t-23.5 20t-33 11t-37.5 3.5h-54v49h45q21 0 40.5 3t34 10.5t23 20t8.5 32.5q0 16 -8.5 27
t-22 18t-30.5 10t-34 3q-25 0 -50 -4.5t-46 -13.5l-3 52q53 17 108 17q27 0 53.5 -5t47.5 -17t34.5 -32t13.5 -50q0 -38 -21 -61t-54 -32q34 -8 58.5 -31.5t24.5 -60.5q0 -34 -14.5 -58.5t-38 -40t-54 -23t-62.5 -7.5q-29 0 -55 3.5t-52 11.5z" />
    <glyph glyph-name="twothirds" unicode="&#x2154;" horiz-adv-x="900" 
d="M52 265v52l73 67q66 60 96.5 100t30.5 76q0 30 -24 46t-56 16q-30 0 -54.5 -7t-47.5 -18l-3 54q26 11 54.5 18t57.5 7q27 0 52 -6.5t44 -20t30.5 -35.5t11.5 -52q0 -51 -34.5 -96t-83.5 -89l-66 -60h192v-52h-273zM219 -24l424 715h59l-424 -715h-59zM583 61
q22 -8 48.5 -12t51.5 -4q21 0 40.5 4.5t34.5 13.5t24 23.5t9 34.5q0 19 -9 31.5t-23.5 20t-33 11t-37.5 3.5h-54v49h45q21 0 40.5 3t34 10.5t23 20t8.5 32.5q0 16 -8.5 27t-22 18t-30.5 10t-34 3q-25 0 -50 -4.5t-46 -13.5l-3 52q53 17 108 17q27 0 53.5 -5t47.5 -17
t34.5 -32t13.5 -50q0 -38 -21 -61t-54 -32q34 -8 58.5 -31.5t24.5 -60.5q0 -34 -14.5 -58.5t-38 -40t-54 -23t-62.5 -7.5q-29 0 -55 3.5t-52 11.5z" />
    <glyph glyph-name="oneeighth" unicode="&#x215b;" horiz-adv-x="900" 
d="M180 265v335l-85 -62l-29 45l123 87h54v-405h-63zM164 -24l424 715h59l-424 -715h-59zM536 173q23 23 62 37q-32 14 -53 35.5t-21 59.5q0 28 13.5 48t34 33t45 19t46.5 6q24 0 49 -5.5t45.5 -18t33 -32.5t12.5 -49q0 -36 -23.5 -59t-52.5 -36q40 -12 64.5 -35.5
t24.5 -69.5q0 -30 -14 -51.5t-36 -35t-49.5 -20t-53.5 -6.5q-27 0 -53.5 6t-48.5 19.5t-35.5 34.5t-13.5 51q0 45 24 69zM609 258q22 -15 56 -25q13 4 27 10.5t25 15.5t18 20t7 25q0 30 -24 45t-55 15q-30 0 -54 -16t-24 -45t24 -45zM729 160q-23 18 -65 31
q-40 -10 -65 -29.5t-25 -51.5t26.5 -50t62.5 -18q37 0 63.5 18t26.5 51q0 31 -24 49z" />
    <glyph glyph-name="threeeighths" unicode="&#x215c;" horiz-adv-x="900" 
d="M63 326q22 -8 48.5 -12t51.5 -4q21 0 40.5 4.5t34.5 13.5t24 23.5t9 34.5q0 19 -9 31.5t-23.5 20t-33 11t-37.5 3.5h-54v49h45q21 0 40.5 3t34 10.5t23 20t8.5 32.5q0 16 -8.5 27t-22 18t-30.5 10t-34 3q-25 0 -50 -4.5t-46 -13.5l-3 52q53 17 108 17q27 0 53.5 -5
t47.5 -17t34.5 -32t13.5 -50q0 -38 -21 -61t-54 -32q34 -8 58.5 -31.5t24.5 -60.5q0 -34 -14.5 -58.5t-38 -40t-54 -23t-62.5 -7.5q-29 0 -55 3.5t-52 11.5zM197 -24l424 715h59l-424 -715h-59zM561 173q23 23 62 37q-32 14 -53 35.5t-21 59.5q0 28 13.5 48t34 33t45 19
t46.5 6q24 0 49 -5.5t45.5 -18t33 -32.5t12.5 -49q0 -36 -23.5 -59t-52.5 -36q40 -12 64.5 -35.5t24.5 -69.5q0 -30 -14 -51.5t-36 -35t-49.5 -20t-53.5 -6.5q-27 0 -53.5 6t-48.5 19.5t-35.5 34.5t-13.5 51q0 45 24 69zM634 258q22 -15 56 -25q13 4 27 10.5t25 15.5t18 20
t7 25q0 30 -24 45t-55 15q-30 0 -54 -16t-24 -45t24 -45zM754 160q-23 18 -65 31q-40 -10 -65 -29.5t-25 -51.5t26.5 -50t62.5 -18q37 0 63.5 18t26.5 51q0 31 -24 49z" />
    <glyph glyph-name="fiveeighths" unicode="&#x215d;" horiz-adv-x="900" 
d="M78 326q39 -15 87 -15q21 0 41 5t36 15t25.5 25.5t9.5 36.5q0 42 -31.5 59.5t-73.5 17.5q-21 0 -42 -3.5t-45 -9.5l4 213h233v-51h-176l-3 -111q16 5 30 6.5t27 1.5q28 0 54 -7t45.5 -21t31 -37t11.5 -54q0 -35 -14 -61.5t-37.5 -43.5t-54 -25.5t-62.5 -8.5q-25 0 -51 3
t-49 11zM197 -24l424 715h59l-424 -715h-59zM561 173q23 23 62 37q-32 14 -53 35.5t-21 59.5q0 28 13.5 48t34 33t45 19t46.5 6q24 0 49 -5.5t45.5 -18t33 -32.5t12.5 -49q0 -36 -23.5 -59t-52.5 -36q40 -12 64.5 -35.5t24.5 -69.5q0 -30 -14 -51.5t-36 -35t-49.5 -20
t-53.5 -6.5q-27 0 -53.5 6t-48.5 19.5t-35.5 34.5t-13.5 51q0 45 24 69zM634 258q22 -15 56 -25q13 4 27 10.5t25 15.5t18 20t7 25q0 30 -24 45t-55 15q-30 0 -54 -16t-24 -45t24 -45zM754 160q-23 18 -65 31q-40 -10 -65 -29.5t-25 -51.5t26.5 -50t62.5 -18q37 0 63.5 18
t26.5 51q0 31 -24 49z" />
    <glyph glyph-name="seveneighths" unicode="&#x215e;" horiz-adv-x="900" 
d="M135 265l171 349h-212v56h276v-53l-161 -352h-74zM173 -24l424 715h59l-424 -715h-59zM547 173q23 23 62 37q-32 14 -53 35.5t-21 59.5q0 28 13.5 48t34 33t45 19t46.5 6q24 0 49 -5.5t45.5 -18t33 -32.5t12.5 -49q0 -36 -23.5 -59t-52.5 -36q40 -12 64.5 -35.5
t24.5 -69.5q0 -30 -14 -51.5t-36 -35t-49.5 -20t-53.5 -6.5q-27 0 -53.5 6t-48.5 19.5t-35.5 34.5t-13.5 51q0 45 24 69zM620 258q22 -15 56 -25q13 4 27 10.5t25 15.5t18 20t7 25q0 30 -24 45t-55 15q-30 0 -54 -16t-24 -45t24 -45zM740 160q-23 18 -65 31
q-40 -10 -65 -29.5t-25 -51.5t26.5 -50t62.5 -18q37 0 63.5 18t26.5 51q0 31 -24 49z" />
    <glyph glyph-name="partialdiff" unicode="&#x2202;" horiz-adv-x="542" 
d="M94 664q33 27 67.5 41.5t77.5 14.5q71 0 118 -34.5t74.5 -87t39 -115.5t11.5 -120q0 -35 -4 -77t-14 -83.5t-26.5 -80.5t-41.5 -69t-59.5 -48t-80.5 -18q-47 0 -83.5 19.5t-62 51.5t-39 73t-13.5 84t13.5 81.5t38.5 66.5t61 44.5t81 16.5q49 0 89 -20t74 -54v34
q-2 40 -8 90t-23.5 94t-49.5 74.5t-85 30.5q-34 0 -65 -13.5t-54 -39.5zM155 87q18 -24 43.5 -39.5t60.5 -15.5q30 0 52.5 14t39 36t27.5 51t18 59t11 58.5t6 51.5q-30 32 -66 54t-82 22q-37 0 -64 -14.5t-45 -38.5t-26.5 -55.5t-8.5 -64.5q0 -31 8.5 -62t25.5 -56z" />
    <glyph glyph-name="Delta" unicode="&#x2206;" horiz-adv-x="750" 
d="M147 59h456l-229 546zM55 0l280 672h78l282 -672h-640z" />
    <glyph glyph-name="product" unicode="&#x220f;" horiz-adv-x="750" 
d="M106 -200v1000h539v-1000h-65v937h-408v-937h-66z" />
    <glyph glyph-name="summation" unicode="&#x2211;" horiz-adv-x="750" 
d="M80 -200v60l274 448l-255 435v57h569v-58h-491l255 -434l-275 -445h528v-63h-605z" />
    <glyph glyph-name="minus" unicode="&#x2212;" horiz-adv-x="542" 
d="M20 215v59h503v-59h-503z" />
    <glyph glyph-name="uni2215" unicode="&#x2215;" horiz-adv-x="169" 
d="M-157 -24l424 715h59l-424 -715h-59z" />
    <glyph glyph-name="uni2219" unicode="&#x2219;" horiz-adv-x="271" 
d="M93 266v88h86v-88h-86z" />
    <glyph glyph-name="radical" unicode="&#x221a;" horiz-adv-x="600" 
d="M294 -200l-158 345l-46 -22l-23 45l102 47l149 -331l160 916h56l-182 -1000h-58z" />
    <glyph glyph-name="infinity" unicode="&#x221e;" horiz-adv-x="777" 
d="M423 157l-16 22l-16 22q-17 -22 -34.5 -42t-37 -35t-43 -23.5t-53.5 -8.5q-33 0 -62 11.5t-50 32.5t-33.5 49.5t-12.5 61.5t11.5 62t32 50.5t49 34t62.5 12.5q29 0 53 -9.5t44.5 -25.5t37.5 -36.5t32 -42.5q17 22 33.5 42t36 35.5t43 24.5t53.5 9q34 0 63 -11.5
t50.5 -32.5t34 -49.5t12.5 -62.5q0 -33 -11.5 -62t-32 -50.5t-49 -34t-62.5 -12.5q-47 0 -78 19.5t-57 49.5zM450 274q-8 -9 -14.5 -17t-11.5 -15q13 -17 27 -35t30.5 -32.5t35.5 -24t42 -9.5q21 0 39.5 8.5t32 23t21 33.5t7.5 40q0 20 -7.5 38.5t-21 32.5t-31 22.5
t-38.5 8.5q-29 0 -58.5 -23t-52.5 -51zM146 176q30 -30 72 -30q24 0 43 11t35 27t30 34.5t28 33.5q-12 16 -26.5 34t-31 33t-36 24.5t-41.5 9.5q-21 0 -39.5 -8.5t-32 -22.5t-21.5 -33t-8 -40t7.5 -39.5t20.5 -33.5z" />
    <glyph glyph-name="integral" unicode="&#x222b;" horiz-adv-x="542" 
d="M117 -156q20 -10 47 -10t41.5 12t21 29t8 35t1.5 30v676q0 27 4 56.5t17.5 54.5t40.5 41.5t73 16.5q14 0 31 -1.5t30 -8.5l-6 -61q-20 10 -47 10t-41.5 -12t-21 -28.5t-8 -35t-1.5 -30.5v-676q0 -27 -3.5 -56.5t-17 -54.5t-40.5 -41.5t-73 -16.5q-14 0 -31.5 2t-30.5 8z
" />
    <glyph glyph-name="approxequal" unicode="&#x2248;" horiz-adv-x="600" 
d="M37 86q4 26 12.5 51.5t23 45t36 31.5t53.5 12q34 0 70 -11.5t72 -25t70.5 -24.5t66.5 -11q35 0 53.5 23t25.5 55h43q-2 -26 -10.5 -51t-23.5 -44.5t-37 -31.5t-51 -12q-35 0 -71.5 11.5t-73 25t-71 25t-64.5 11.5q-34 0 -54 -24t-25 -56h-45zM37 256q4 26 12.5 51.5
t23 45.5t36.5 32t53 12q34 0 70 -11.5t72 -25t70.5 -25t66.5 -11.5q35 0 53.5 23t25.5 55h43q-2 -26 -10.5 -50.5t-23.5 -44t-37 -31.5t-51 -12q-35 0 -71.5 11t-73 24.5t-71 25t-64.5 11.5q-34 0 -54 -24t-25 -56h-45z" />
    <glyph glyph-name="estimate" unicode="&#x2259;" horiz-adv-x="542" 
d="M404 489l-134 178l-132 -178h-82l187 241h57l185 -241h-81zM20 119v60h503v-60h-503zM20 309v60h503v-60h-503z" />
    <glyph glyph-name="notequal" unicode="&#x2260;" horiz-adv-x="542" 
d="M107 4l62 115h-149v60h181l68 130h-249v60h281l77 147l53 -27l-64 -120h156v-60h-188l-69 -130h257v-60h-288l-76 -143z" />
    <glyph glyph-name="lessequal" unicode="&#x2264;" horiz-adv-x="542" 
d="M20 -28v60h503v-60h-503zM20 263v66l503 188v-66l-420 -155l420 -157v-65z" />
    <glyph glyph-name="greaterequal" unicode="&#x2265;" horiz-adv-x="542" 
d="M20 -28v60h503v-60h-503zM20 74v65l419 157l-419 155v66l503 -188v-66z" />
    <glyph glyph-name="lozenge" unicode="&#x25ca;" horiz-adv-x="600" 
d="M300 67l137 333l-137 333l-137 -333zM268 0l-170 400l170 400h63l172 -400l-172 -400h-63z" />
    <glyph glyph-name="exclam.sc" unicode="&#xe000;" horiz-adv-x="271" 
d="M107 165l-12 368h83l-13 -368h-58zM94 0v84h82v-84h-82z" />
    <glyph glyph-name="dollar.sc" unicode="&#xe001;" horiz-adv-x="455" 
d="M197 -86v75q-35 1 -68 6.5t-64 16.5l5 66q57 -29 130 -29q51 0 84 22.5t33 70.5q0 34 -27 55t-66 41l-60 31q-45 23 -73.5 52.5t-28.5 78.5q0 31 12 55t32 41t46 27.5t55 15.5v80h45v-76q26 0 56 -4.5t57 -12.5l-5 -63q-26 8 -53.5 14t-53.5 6q-23 0 -43.5 -4t-36.5 -14
t-25.5 -25.5t-9.5 -37.5q0 -29 23.5 -47.5t55.5 -35.5l64 -33q26 -14 47 -27.5t35.5 -30t22.5 -36.5t8 -47q0 -34 -12 -60.5t-32.5 -45.5t-48.5 -31t-59 -16v-78h-45z" />
    <glyph glyph-name="percent.sc" unicode="&#xe002;" horiz-adv-x="748" 
d="M120 230q-37 23 -50.5 64t-13.5 85q0 28 6 57t21 53t39.5 39t60.5 15t60.5 -15t39.5 -39t21.5 -53t6.5 -57q0 -29 -6.5 -58t-21.5 -52.5t-39.5 -38.5t-60.5 -15q-38 0 -63 15zM126 296q8 -17 22 -27.5t35 -10.5t35 10.5t21.5 28t10.5 39t3 43.5q0 23 -3 44.5t-10.5 38.5
t-21.5 27t-35 10q-20 0 -33.5 -10t-21.5 -27t-11.5 -38.5t-3.5 -44.5t3 -44.5t10 -38.5zM502 4q-37 23 -50.5 64t-13.5 85q0 28 6 57t21 53t39.5 39t60.5 15t60.5 -15t39.5 -39t21.5 -53t6.5 -57q0 -29 -6.5 -58t-21.5 -52.5t-39.5 -38.5t-60.5 -15q-38 0 -63 15zM508 70
q8 -17 22 -27.5t35 -10.5t35 10.5t21.5 28t10.5 39t3 43.5q0 23 -3 44.5t-10.5 38.5t-21.5 27t-35 10q-20 0 -33.5 -10t-21.5 -27t-11.5 -38.5t-3.5 -44.5t3 -44.5t10 -38.5zM181 -19l332 571h55l-331 -571h-56z" />
    <glyph glyph-name="ampersand.sc" unicode="&#xe003;" horiz-adv-x="532" 
d="M430 13q-52 -13 -92.5 -18.5t-80.5 -5.5q-42 0 -81 7.5t-68.5 25.5t-47.5 47t-18 73q0 55 33.5 91t87.5 41q-48 11 -77.5 41t-29.5 81q0 36 16.5 63.5t44 46t63.5 28t75 9.5q36 0 68 -4t61 -13l-3 -61q-31 11 -61.5 16t-65.5 5q-24 0 -47 -5.5t-40 -16.5t-27.5 -28
t-10.5 -40q0 -29 10.5 -47t28.5 -28t42 -14t51 -4h101v60h68v-60h85v-55h-85v-235zM257 248q-29 0 -54.5 -5t-44.5 -17.5t-30 -32.5t-11 -50q0 -29 12 -48t31.5 -30t44.5 -15t52 -4q29 0 53 2.5t52 9.5v190h-105z" />
    <glyph glyph-name="question.sc" unicode="&#xe004;" horiz-adv-x="353" 
d="M113 165q0 44 18 72.5t52 60.5q29 26 42.5 50t13.5 56q0 39 -27 58.5t-69 19.5q-29 0 -54 -5t-54 -14l-4 61q30 10 58.5 14.5t62.5 4.5t63 -8.5t51 -25t34.5 -42t12.5 -58.5q0 -44 -21 -75t-49 -57q-17 -16 -29 -29t-20 -26t-11.5 -26.5t-3.5 -30.5h-66zM105 0v84h82v-84
h-82z" />
    <glyph glyph-name="a.sc" unicode="&#xe005;" horiz-adv-x="528" 
d="M11 0l212 533h81l213 -533h-78l-53 141h-247l-54 -141h-74zM158 199h207l-103 268z" />
    <glyph glyph-name="b.sc" unicode="&#xe006;" horiz-adv-x="466" 
d="M75 0v533h154q31 0 62.5 -6t57.5 -21t42.5 -40.5t16.5 -64.5q0 -49 -26.5 -80.5t-72.5 -42.5q48 -11 81 -44t33 -84q0 -49 -20.5 -78.5t-52.5 -45.5t-71.5 -21t-77.5 -5h-126zM148 54h55q24 0 49 3.5t46 14t34 29t13 49.5q0 32 -14 52t-35.5 30.5t-48.5 14t-52 3.5h-47
v-196zM148 301h59q24 0 46.5 4.5t40 15t28 28.5t10.5 46q0 25 -10 41t-25.5 25.5t-36 13.5t-41.5 4h-71v-178z" />
    <glyph glyph-name="c.sc" unicode="&#xe007;" horiz-adv-x="482" 
d="M453 11q-29 -12 -61.5 -17t-67.5 -5q-64 0 -115.5 19.5t-88 55.5t-56.5 87.5t-20 114.5q0 60 21 111t58 88t88.5 57.5t112.5 20.5q29 0 63.5 -5t62.5 -16l-5 -64q-25 10 -56 16t-59 6q-49 0 -87.5 -16t-65.5 -44.5t-41 -68t-14 -85.5q0 -48 14 -87t40 -67.5t64.5 -44
t88.5 -15.5q65 0 118 22z" />
    <glyph glyph-name="d.sc" unicode="&#xe008;" horiz-adv-x="546" 
d="M75 0v533h143q61 0 113 -14.5t90 -46.5t59.5 -82t21.5 -120q0 -76 -25 -127.5t-67.5 -83t-99.5 -45.5t-120 -14h-115zM148 57h45q50 0 92.5 11t73 36t48 66t17.5 100q0 97 -51 151t-151 54h-74v-418z" />
    <glyph glyph-name="e.sc" unicode="&#xe009;" horiz-adv-x="417" 
d="M75 0v533h293v-57h-220v-174h209v-57h-209v-187h228v-58h-301z" />
    <glyph glyph-name="f.sc" unicode="&#xe00a;" horiz-adv-x="391" 
d="M75 0v533h285v-57h-212v-177h203v-57h-203v-242h-73z" />
    <glyph glyph-name="g.sc" unicode="&#xe00b;" horiz-adv-x="555" 
d="M500 21q-88 -32 -175 -32q-63 0 -115 19.5t-89 55.5t-57 87.5t-20 114.5q0 61 21 112t59 87.5t91 57t116 20.5q38 0 74 -6t70 -20l-5 -64q-31 13 -65 20t-71 7q-49 0 -88 -15.5t-66.5 -44t-42.5 -68t-15 -86.5q0 -44 13 -83.5t38.5 -69t63.5 -47t89 -17.5q27 0 53.5 3.5
t50.5 12.5v163h-103v56h173v-263z" />
    <glyph glyph-name="h.sc" unicode="&#xe00c;" horiz-adv-x="554" 
d="M75 0v533h73v-227h257v227h73v-533h-73v242h-257v-242h-73z" />
    <glyph glyph-name="i.sc" unicode="&#xe00d;" horiz-adv-x="223" 
d="M75 0v533h73v-533h-73z" />
    <glyph glyph-name="j.sc" unicode="&#xe00e;" horiz-adv-x="279" 
d="M11 60q11 -4 24 -6.5t25 -2.5q44 0 59.5 28t15.5 67v387h73v-393q0 -67 -32 -109t-103 -42q-34 0 -67 10z" />
    <glyph glyph-name="k.sc" unicode="&#xe00f;" horiz-adv-x="495" 
d="M75 0v533h73v-240l230 240h90l-251 -250l272 -283h-96l-245 265v-265h-73z" />
    <glyph glyph-name="l.sc" unicode="&#xe010;" horiz-adv-x="385" 
d="M75 0v533h73v-471h223v-62h-296z" />
    <glyph glyph-name="m.sc" unicode="&#xe011;" horiz-adv-x="722" 
d="M75 0v533h119l168 -447l169 447h116v-533h-72v474l-182 -474h-68l-181 474v-474h-69z" />
    <glyph glyph-name="n.sc" unicode="&#xe012;" horiz-adv-x="571" 
d="M75 0v533h99l254 -457v457h68v-533h-101l-252 456v-456h-68z" />
    <glyph glyph-name="o.sc" unicode="&#xe013;" horiz-adv-x="580" 
d="M181 10q-69 33 -103 99.5t-34 156.5q0 57 15.5 107t46.5 88t77 60t107 22q62 0 108.5 -21.5t77 -59t45.5 -88t15 -108.5q0 -57 -15.5 -107.5t-46 -88t-77 -59.5t-107.5 -22q-63 0 -109 21zM161 118q21 -30 52.5 -48.5t76.5 -18.5q46 0 78 18.5t52 49t29 69t9 78.5
t-9 78.5t-29 69t-52 49t-78 18.5q-45 0 -76.5 -18.5t-52 -49t-30 -69t-9.5 -78.5t9.5 -78.5t29.5 -69.5z" />
    <glyph glyph-name="p.sc" unicode="&#xe014;" horiz-adv-x="444" 
d="M75 0v533h166q36 0 68 -10t55 -29.5t36.5 -48.5t13.5 -68q0 -41 -14.5 -71t-39 -49.5t-56.5 -29t-67 -9.5h-90v-218h-72zM147 275h41q28 0 55 3t47.5 13t33 30t12.5 55q0 51 -31.5 75.5t-79.5 24.5h-78v-201z" />
    <glyph glyph-name="q.sc" unicode="&#xe015;" horiz-adv-x="580" 
d="M419 -104l-92 96q-18 -3 -37 -3q-63 0 -109 21.5t-76.5 58.5t-45.5 87.5t-15 109.5q0 57 15.5 107t46.5 88t77 60t107 22q62 0 108.5 -21.5t77 -59t45.5 -88t15 -108.5q0 -85 -34.5 -152.5t-101.5 -99.5l115 -118h-96zM161 118q21 -30 52.5 -48.5t76.5 -18.5
q46 0 78 18.5t52 49t29 69t9 78.5t-9 78.5t-29 69t-52 49t-78 18.5q-45 0 -76.5 -18.5t-52 -49t-30 -69t-9.5 -78.5t9.5 -78.5t29.5 -69.5z" />
    <glyph glyph-name="r.sc" unicode="&#xe016;" horiz-adv-x="466" 
d="M75 0v533h158q32 0 64 -7t57 -23.5t40.5 -43t15.5 -66.5q0 -51 -34 -84t-85 -41q27 -8 43.5 -25.5t27.5 -42.5l85 -200h-81l-69 170q-8 19 -16 32.5t-19.5 21.5t-28 12t-40.5 4h-46v-240h-72zM147 298h57q23 0 46 4t41.5 14.5t30 28t11.5 44.5t-10 44t-27 26.5t-40 13
t-49 3.5h-60v-178z" />
    <glyph glyph-name="s.sc" unicode="&#xe017;" horiz-adv-x="408" 
d="M46 78q29 -15 60 -22t60 -7q57 0 87 22t30 68q0 36 -26 59.5t-65 43.5l-47 24q-45 23 -71 52t-26 82q0 37 15.5 64t41 44.5t58 26t66.5 8.5q55 0 112 -17l-5 -63q-54 20 -104 20q-22 0 -41.5 -4t-34.5 -14t-23.5 -25.5t-8.5 -37.5q0 -33 21 -51t53 -35l51 -26
q26 -14 46.5 -28t35 -31t22 -38t7.5 -48q0 -37 -14 -66t-39 -49t-59.5 -30.5t-76.5 -10.5q-29 0 -63.5 5t-67.5 17z" />
    <glyph glyph-name="t.sc" unicode="&#xe018;" horiz-adv-x="415" 
d="M170 0v470h-162v63h399v-63h-163v-470h-74z" />
    <glyph glyph-name="u.sc" unicode="&#xe019;" horiz-adv-x="555" 
d="M144 191q0 -61 33 -100.5t99 -39.5q67 0 100.5 38.5t33.5 101.5v342h74v-342q0 -46 -15 -83t-42 -63.5t-65.5 -41t-85.5 -14.5q-96 0 -150.5 51.5t-54.5 148.5v344h73v-342z" />
    <glyph glyph-name="v.sc" unicode="&#xe01a;" horiz-adv-x="496" 
d="M206 0l-199 533h78l164 -459l167 459h72l-201 -533h-81z" />
    <glyph glyph-name="w.sc" unicode="&#xe01b;" horiz-adv-x="757" 
d="M163 0l-153 533h72l126 -458l134 458h79l132 -458l125 458h69l-152 -533h-83l-133 460l-133 -460h-83z" />
    <glyph glyph-name="x.sc" unicode="&#xe01c;" horiz-adv-x="502" 
d="M9 0l199 277l-181 256h86l142 -211l140 211h81l-180 -254l196 -279h-87l-154 234l-161 -234h-81z" />
    <glyph glyph-name="y.sc" unicode="&#xe01d;" horiz-adv-x="476" 
d="M200 0v217l-197 316h82l154 -257l155 257h78l-199 -316v-217h-73z" />
    <glyph glyph-name="z.sc" unicode="&#xe01e;" horiz-adv-x="418" 
d="M26 0v62l283 412h-274v59h350v-62l-279 -412h286v-59h-366z" />
    <glyph glyph-name="agrave.sc" unicode="&#xe01f;" horiz-adv-x="528" 
d="M11 0l212 533h81l213 -533h-78l-53 141h-247l-54 -141h-74zM158 199h207l-103 268zM238 610l-97 136h85l71 -136h-59z" />
    <glyph glyph-name="aacute.sc" unicode="&#xe020;" horiz-adv-x="528" 
d="M11 0l212 533h81l213 -533h-78l-53 141h-247l-54 -141h-74zM158 199h207l-103 268zM224 610l72 136h85l-96 -136h-61z" />
    <glyph glyph-name="acircumflex.sc" unicode="&#xe021;" horiz-adv-x="528" 
d="M11 0l212 533h81l213 -533h-78l-53 141h-247l-54 -141h-74zM158 199h207l-103 268zM122 610l103 136h74l103 -136h-65l-75 96l-75 -96h-65z" />
    <glyph glyph-name="atilde.sc" unicode="&#xe022;" horiz-adv-x="528" 
d="M11 0l212 533h81l213 -533h-78l-53 141h-247l-54 -141h-74zM158 199h207l-103 268zM116 624q0 18 6 35.5t17.5 32t28 23.5t37.5 9q18 0 34 -6.5t30.5 -14t27.5 -14t25 -6.5q19 0 29 15.5t10 29.5h47q0 -16 -6 -33.5t-17 -32t-27 -24t-35 -9.5t-34 6t-28.5 13.5t-26.5 14
t-27 6.5q-18 0 -30.5 -15t-12.5 -30h-48z" />
    <glyph glyph-name="adieresis.sc" unicode="&#xe023;" horiz-adv-x="528" 
d="M11 0l212 533h81l213 -533h-78l-53 141h-247l-54 -141h-74zM158 199h207l-103 268zM307 634v87h66v-87h-66zM152 634v87h66v-87h-66z" />
    <glyph glyph-name="aring.sc" unicode="&#xe024;" horiz-adv-x="528" 
d="M11 0l212 533h81l213 -533h-78l-53 141h-247l-54 -141h-74zM158 199h207l-103 268zM224 592q-26 11 -42 34t-16 52q0 39 28 65.5t67 26.5q19 0 36.5 -7t31 -19.5t21 -29.5t7.5 -36q0 -20 -7.5 -36.5t-21 -29.5t-31 -20t-36.5 -7q-22 0 -37 7zM202 678q0 -25 17.5 -42
t41.5 -17q25 0 42.5 17t17.5 42q0 24 -17.5 41t-42.5 17t-42 -17t-17 -41z" />
    <glyph glyph-name="amacron.sc" unicode="&#xe025;" horiz-adv-x="528" 
d="M11 0l212 533h81l213 -533h-78l-53 141h-247l-54 -141h-74zM158 199h207l-103 268zM140 653v51h245v-51h-245z" />
    <glyph glyph-name="abreve.sc" unicode="&#xe026;" horiz-adv-x="528" 
d="M11 0l212 533h81l213 -533h-78l-53 141h-247l-54 -141h-74zM158 199h207l-103 268zM186 735q3 -30 22.5 -50.5t53.5 -20.5t53.5 20.5t23.5 50.5h43q0 -11 -5 -30.5t-18.5 -38.5t-36.5 -33.5t-60 -14.5q-36 0 -59.5 14.5t-36.5 33.5t-18 38.5t-5 30.5h43z" />
    <glyph glyph-name="aogonek.sc" unicode="&#xe027;" horiz-adv-x="528" 
d="M11 0l212 533h81l213 -533h-25q-73 -45 -73 -93q0 -26 16 -36.5t33 -10.5q16 0 29 3.5t30 11.5l11 -35q-18 -9 -36.5 -14.5t-44.5 -5.5q-43 0 -67.5 22.5t-24.5 53.5q0 34 21.5 60.5t60.5 43.5h-8l-53 141h-247l-54 -141h-74zM158 199h207l-103 268z" />
    <glyph glyph-name="ae.sc" unicode="&#xe028;" horiz-adv-x="711" 
d="M0 0l337 533h325v-57h-216v-174h205v-57h-205v-187h224v-58h-295v143h-208l-89 -143h-78zM196 199h179v283z" />
    <glyph glyph-name="cacute.sc" unicode="&#xe029;" horiz-adv-x="482" 
d="M453 11q-29 -12 -61.5 -17t-67.5 -5q-64 0 -115.5 19.5t-88 55.5t-56.5 87.5t-20 114.5q0 60 21 111t58 88t88.5 57.5t112.5 20.5q29 0 63.5 -5t62.5 -16l-5 -64q-25 10 -56 16t-59 6q-49 0 -87.5 -16t-65.5 -44.5t-41 -68t-14 -85.5q0 -48 14 -87t40 -67.5t64.5 -44
t88.5 -15.5q65 0 118 22zM256 610l72 136h85l-96 -136h-61z" />
    <glyph glyph-name="ccircumflex.sc" unicode="&#xe02a;" horiz-adv-x="482" 
d="M453 11q-29 -12 -61.5 -17t-67.5 -5q-64 0 -115.5 19.5t-88 55.5t-56.5 87.5t-20 114.5q0 60 21 111t58 88t88.5 57.5t112.5 20.5q29 0 63.5 -5t62.5 -16l-5 -64q-25 10 -56 16t-59 6q-49 0 -87.5 -16t-65.5 -44.5t-41 -68t-14 -85.5q0 -48 14 -87t40 -67.5t64.5 -44
t88.5 -15.5q65 0 118 22zM158 610l103 136h74l103 -136h-65l-75 96l-75 -96h-65z" />
    <glyph glyph-name="ccaron.sc" unicode="&#xe02b;" horiz-adv-x="482" 
d="M453 11q-29 -12 -61.5 -17t-67.5 -5q-64 0 -115.5 19.5t-88 55.5t-56.5 87.5t-20 114.5q0 60 21 111t58 88t88.5 57.5t112.5 20.5q29 0 63.5 -5t62.5 -16l-5 -64q-25 10 -56 16t-59 6q-49 0 -87.5 -16t-65.5 -44.5t-41 -68t-14 -85.5q0 -48 14 -87t40 -67.5t64.5 -44
t88.5 -15.5q65 0 118 22zM266 610l-103 136h65l75 -97l75 97h65l-103 -136h-74z" />
    <glyph glyph-name="cdotaccent.sc" unicode="&#xe02c;" horiz-adv-x="482" 
d="M453 11q-29 -12 -61.5 -17t-67.5 -5q-64 0 -115.5 19.5t-88 55.5t-56.5 87.5t-20 114.5q0 60 21 111t58 88t88.5 57.5t112.5 20.5q29 0 63.5 -5t62.5 -16l-5 -64q-25 10 -56 16t-59 6q-49 0 -87.5 -16t-65.5 -44.5t-41 -68t-14 -85.5q0 -48 14 -87t40 -67.5t64.5 -44
t88.5 -15.5q65 0 118 22zM267 634v87h73v-87h-73z" />
    <glyph glyph-name="ccedilla.sc" unicode="&#xe02d;" horiz-adv-x="482" 
d="M208 -126q39 -17 74 -17q20 0 35 8.5t15 25.5t-12.5 23t-26.5 6q-19 0 -39 -7l-15 18l43 61q-111 12 -174.5 84.5t-63.5 189.5q0 60 21 111t58 88t88.5 57.5t112.5 20.5q29 0 63.5 -5t62.5 -16l-5 -64q-25 10 -56 16t-59 6q-49 0 -87.5 -16t-65.5 -44.5t-41 -68
t-14 -85.5q0 -48 14 -87t40 -67.5t64.5 -44t88.5 -15.5q65 0 118 22l6 -63q-29 -12 -61.5 -17t-67.5 -5h-7l-31 -42l16.5 3t15.5 1q29 0 47.5 -15t18.5 -42q0 -34 -27.5 -54t-73.5 -20q-23 0 -43 4t-45 15z" />
    <glyph glyph-name="dcaron.sc" unicode="&#xe02e;" horiz-adv-x="546" 
d="M74 0v533h143q61 0 113 -14.5t90 -46.5t59.5 -82t21.5 -120q0 -76 -25 -127.5t-67.5 -83t-99.5 -45.5t-120 -14h-115zM147 57h45q50 0 92.5 11t73 36t48 66t17.5 100q0 97 -51 151t-151 54h-74v-418zM213 610l-103 136h65l75 -97l75 97h65l-103 -136h-74z" />
    <glyph glyph-name="dcroat.sc" unicode="&#xe02f;" horiz-adv-x="546" 
d="M76 0v245h-58v52h58v236h142q61 0 113 -14.5t90 -46.5t59.5 -82t21.5 -120q0 -76 -25 -127.5t-67.5 -83t-99.5 -45.5t-120 -14h-114zM148 57h45q50 0 92.5 11t73 36t48 66t17.5 100q0 97 -51 151t-151 54h-74v-178h137v-52h-137v-188z" />
    <glyph glyph-name="eth.sc" unicode="&#xe030;" horiz-adv-x="546" 
d="M76 0v245h-58v52h58v236h142q61 0 113 -14.5t90 -46.5t59.5 -82t21.5 -120q0 -76 -25 -127.5t-67.5 -83t-99.5 -45.5t-120 -14h-114zM148 57h45q50 0 92.5 11t73 36t48 66t17.5 100q0 97 -51 151t-151 54h-74v-178h137v-52h-137v-188z" />
    <glyph glyph-name="egrave.sc" unicode="&#xe031;" horiz-adv-x="417" 
d="M75 0v533h293v-57h-220v-174h209v-57h-209v-187h228v-58h-301zM206 610l-97 136h85l71 -136h-59z" />
    <glyph glyph-name="eacute.sc" unicode="&#xe032;" horiz-adv-x="417" 
d="M75 0v533h293v-57h-220v-174h209v-57h-209v-187h228v-58h-301zM177 610l72 136h85l-96 -136h-61z" />
    </font>
</defs>
</svg>
