<svg width="33" height="33" viewBox="0 0 33 33" fill="none" xmlns="http://www.w3.org/2000/svg">
<circle cx="16.5" cy="16.5" r="16.5" fill="#32373E"/>
<path d="M26.8463 11.3421C26.6015 10.4203 25.8802 9.69375 24.9638 9.44713C23.3039 9 16.6458 9 16.6458 9C16.6458 9 9.98776 9 8.327 9.44713C7.41146 9.69375 6.69021 10.4194 6.44535 11.3421C6 13.0135 6 16.5 6 16.5C6 16.5 6 19.9865 6.44535 21.6579C6.69021 22.5797 7.41146 23.3062 8.32789 23.5529C9.98776 24 16.6458 24 16.6458 24C16.6458 24 23.3039 24 24.9647 23.5529C25.8802 23.3062 26.6015 22.5806 26.8472 21.6579C27.2917 19.9865 27.2917 16.5 27.2917 16.5C27.2917 16.5 27.2917 13.0135 26.8463 11.3421ZM14.4688 19.6663V13.3337L20.033 16.5L14.4688 19.6663Z" fill="white"/>
</svg>
