<svg width="25" height="26" viewBox="0 0 25 26" fill="none" xmlns="http://www.w3.org/2000/svg">
<path d="M23.4375 11.4097H1.5625C0.699561 11.4097 0 12.1187 0 12.9933C0 13.8679 0.699561 14.5769 1.5625 14.5769H23.4375C24.3004 14.5769 25 13.8679 25 12.9933C25 12.1187 24.3004 11.4097 23.4375 11.4097Z" fill="#0F2DB3"/>
<path d="M1.5625 7.18676H23.4375C24.3004 7.18676 25 6.47775 25 5.60315C25 4.72855 24.3004 4.01953 23.4375 4.01953H1.5625C0.699561 4.01953 0 4.72855 0 5.60315C0 6.47775 0.699561 7.18676 1.5625 7.18676Z" fill="#0F2DB3"/>
<path d="M23.4375 18.7998H1.5625C0.699561 18.7998 0 19.5088 0 20.3834C0 21.258 0.699561 21.967 1.5625 21.967H23.4375C24.3004 21.967 25 21.258 25 20.3834C25 19.5088 24.3004 18.7998 23.4375 18.7998Z" fill="#0F2DB3"/>
</svg>
