<svg width="33" height="33" viewBox="0 0 33 33" fill="none" xmlns="http://www.w3.org/2000/svg">
<circle cx="16.5" cy="16.5" r="16.5" fill="#32373E"/>
<g clip-path="url(#clip0_1006_2729)">
<path d="M16.5 9.53142C18.7695 9.53142 19.0387 9.53992 19.9347 9.581C20.8612 9.6235 21.8153 9.83458 22.4904 10.5096C23.1718 11.191 23.3765 12.136 23.419 13.0653C23.4601 13.9613 23.4686 14.2305 23.4686 16.5C23.4686 18.7695 23.4601 19.0387 23.419 19.9347C23.3772 20.8563 23.1612 21.8196 22.4904 22.4904C21.809 23.1718 20.8647 23.3765 19.9347 23.419C19.0387 23.4601 18.7695 23.4686 16.5 23.4686C14.2305 23.4686 13.9613 23.4601 13.0653 23.419C12.1508 23.3772 11.1747 23.1562 10.5096 22.4904C9.83175 21.8125 9.6235 20.8584 9.581 19.9347C9.53992 19.0387 9.53142 18.7695 9.53142 16.5C9.53142 14.2305 9.53992 13.9613 9.581 13.0653C9.62279 12.1473 9.84096 11.1783 10.5096 10.5096C11.1896 9.82963 12.1381 9.6235 13.0653 9.581C13.9613 9.53992 14.2305 9.53142 16.5 9.53142ZM16.5 8C14.1915 8 13.9018 8.00992 12.9952 8.051C11.6812 8.11121 10.3765 8.47671 9.42658 9.42658C8.47317 10.38 8.11121 11.6819 8.051 12.9952C8.00992 13.9018 8 14.1915 8 16.5C8 18.8085 8.00992 19.0982 8.051 20.0048C8.11121 21.3174 8.47812 22.6257 9.42658 23.5734C10.3793 24.5261 11.6833 24.8888 12.9952 24.949C13.9018 24.9901 14.1915 25 16.5 25C18.8085 25 19.0982 24.9901 20.0048 24.949C21.3181 24.8888 22.6242 24.5226 23.5734 23.5734C24.5275 22.6193 24.8888 21.3181 24.949 20.0048C24.9901 19.0982 25 18.8085 25 16.5C25 14.1915 24.9901 13.9018 24.949 12.9952C24.8888 11.6812 24.5226 10.3757 23.5734 9.42658C22.6221 8.47529 21.3145 8.1105 20.0048 8.051C19.0982 8.00992 18.8085 8 16.5 8Z" fill="#F3F7FA"/>
<path d="M16.4995 12.1353C14.0891 12.1353 12.1348 14.0895 12.1348 16.5C12.1348 18.9105 14.0891 20.8648 16.4995 20.8648C18.91 20.8648 20.8643 18.9105 20.8643 16.5C20.8643 14.0895 18.91 12.1353 16.4995 12.1353ZM16.4995 19.3333C14.9348 19.3333 13.6662 18.0647 13.6662 16.5C13.6662 14.9353 14.9348 13.6667 16.4995 13.6667C18.0642 13.6667 19.3328 14.9353 19.3328 16.5C19.3328 18.0647 18.0642 19.3333 16.4995 19.3333Z" fill="#F3F7FA"/>
<path d="M21.0376 12.9824C21.6009 12.9824 22.0576 12.5257 22.0576 11.9624C22.0576 11.3991 21.6009 10.9424 21.0376 10.9424C20.4742 10.9424 20.0176 11.3991 20.0176 11.9624C20.0176 12.5257 20.4742 12.9824 21.0376 12.9824Z" fill="#F3F7FA"/>
</g>
<defs>
<clipPath id="clip0_1006_2729">
<rect width="17" height="17" fill="white" transform="translate(8 8)"/>
</clipPath>
</defs>
</svg>
