<svg width="89" height="90" viewBox="0 0 89 90" fill="none" xmlns="http://www.w3.org/2000/svg">
<g clip-path="url(#clip0_1295_604)">
<path d="M73.9374 59.1247C64.6489 54.9521 54.5831 52.7948 44.402 52.7948C34.2209 52.7948 24.1552 54.9521 14.8667 59.1247V0H73.9374V59.1247Z" fill="#0F2DB3"/>
<path d="M21.8721 18.0405C21.1089 18.045 20.3755 18.338 19.819 18.8609C19.2625 19.3837 18.9239 20.0977 18.8712 20.8599H17.5456V16.686H27.8832C27.8832 16.686 27.966 19.9108 24.9099 23.3292C24.9099 23.3292 22.001 26.7106 21.9273 28.194H23.6027C26.0053 28.194 26.2538 25.3746 26.2538 25.3746H27.6347V29.5577H17.0669C17.0669 29.5577 16.6803 26.3881 20.344 22.546C20.344 22.546 22.5993 20.0214 23.124 18.0312L21.8721 18.0405Z" fill="white"/>
<path d="M48.1993 29.5484V28.1848H47.8863C47.7509 28.185 47.6167 28.1585 47.4915 28.1067C47.3663 28.0549 47.2526 27.9789 47.1568 27.8831C47.061 27.7872 46.9851 27.6733 46.9333 27.548C46.8816 27.4227 46.8551 27.2884 46.8553 27.1529V19.0816C46.8551 18.946 46.8816 18.8117 46.9333 18.6864C46.9851 18.5611 47.061 18.4473 47.1568 18.3514C47.2526 18.2556 47.3663 18.1795 47.4915 18.1278C47.6167 18.076 47.7509 18.0494 47.8863 18.0497H48.1993V16.686H41.3413V18.0497H41.6543C41.7904 18.0485 41.9255 18.0743 42.0516 18.1257C42.1777 18.177 42.2925 18.2528 42.3892 18.3487C42.4859 18.4447 42.5627 18.5588 42.6151 18.6846C42.6675 18.8104 42.6945 18.9453 42.6945 19.0816V27.1529C42.6945 27.2891 42.6675 27.4241 42.6151 27.5499C42.5627 27.6756 42.4859 27.7898 42.3892 27.8857C42.2925 27.9817 42.1777 28.0575 42.0516 28.1088C41.9255 28.1602 41.7904 28.186 41.6543 28.1848H41.3413V29.5484H48.1993Z" fill="white"/>
<path d="M39.9236 29.5576V25.3745H38.5428C38.5428 25.3745 38.2851 28.194 35.8825 28.194H34.5017V23.8082H34.9895C35.1264 23.8073 35.2621 23.8336 35.3887 23.8856C35.5153 23.9376 35.6303 24.0142 35.7271 24.1111C35.8239 24.208 35.9005 24.3231 35.9524 24.4498C36.0044 24.5766 36.0307 24.7124 36.0297 24.8494V25.3653H37.3921V20.8598H36.0297V21.385C36.0307 21.522 36.0044 21.6578 35.9524 21.7845C35.9005 21.9112 35.8239 22.0264 35.7271 22.1232C35.6303 22.2201 35.5153 22.2968 35.3887 22.3488C35.2621 22.4008 35.1264 22.4271 34.9895 22.4261H34.5017V18.0404H35.8825C38.2851 18.0404 38.5428 20.8598 38.5428 20.8598H39.9236V16.6768H29.0337V18.0496H29.3467C29.4821 18.0494 29.6163 18.0759 29.7415 18.1277C29.8667 18.1795 29.9804 18.2555 30.0762 18.3514C30.172 18.4472 30.2479 18.5611 30.2996 18.6864C30.3514 18.8117 30.3779 18.946 30.3777 19.0815V27.1528C30.3779 27.2884 30.3514 27.4227 30.2996 27.548C30.2479 27.6733 30.172 27.7871 30.0762 27.883C29.9804 27.9789 29.8667 28.0549 29.7415 28.1066C29.6163 28.1584 29.4821 28.185 29.3467 28.1847H29.0337V29.5484L39.9236 29.5576Z" fill="white"/>
<path d="M55.3979 18.0405C56.161 18.0424 56.8948 18.3348 57.4504 18.8584C58.006 19.382 58.3418 20.0975 58.3896 20.8599H59.7244V16.686H49.8471C49.8471 16.686 48.2821 18.7315 52.3693 23.3292C52.3693 23.3292 55.269 26.7106 55.3426 28.194H53.6765C51.2739 28.194 51.0161 25.3746 51.0161 25.3746H49.6261V29.5577H59.5863C59.5863 29.5577 61.3998 27.6043 56.9168 22.546C56.9168 22.546 54.5694 20.132 54.1367 18.0312L55.3979 18.0405Z" fill="white"/>
<path d="M66.9506 18.0405C67.7131 18.0445 68.4457 18.3376 69.0009 18.8608C69.556 19.384 69.8925 20.0983 69.9423 20.8599H71.2679V16.686H61.3998C61.3998 16.686 59.8349 18.7315 63.9221 23.3292C63.9221 23.3292 66.8217 26.7106 66.8954 28.194H65.2292C62.8266 28.194 62.5689 25.3746 62.5689 25.3746H61.1881V29.5577H71.1482C71.1482 29.5577 72.9525 27.6043 68.4787 22.546C68.4787 22.546 66.1313 20.132 65.7079 18.0312L66.9506 18.0405Z" fill="white"/>
<path d="M0.0552321 85.1904C0.388429 85.3745 0.744349 85.5139 1.11385 85.6051C1.488 85.6925 1.8711 85.7358 2.25531 85.734C2.47277 85.7343 2.68936 85.7064 2.89968 85.6511C3.10392 85.5988 3.29511 85.5047 3.46121 85.3747C3.63091 85.2466 3.76679 85.079 3.85704 84.8864C3.96236 84.6586 4.01281 84.4093 4.00432 84.1585C4.00837 83.9545 3.96421 83.7525 3.87545 83.5688C3.78689 83.401 3.67188 83.2485 3.53485 83.1173C3.38594 82.9759 3.21876 82.855 3.03776 82.758C2.84445 82.6566 2.64193 82.5461 2.43942 82.4447L1.7306 82.0854C1.51248 81.9759 1.30319 81.8496 1.10464 81.7076C0.907248 81.5742 0.733096 81.4092 0.589142 81.2193C0.440296 81.0235 0.322325 80.806 0.239339 80.5743C0.0284512 79.8961 0.0776818 79.1635 0.377419 78.5197C0.54346 78.1929 0.78293 77.909 1.07702 77.6904C1.36775 77.4759 1.69537 77.3166 2.04359 77.2205C2.39094 77.1219 2.75035 77.0723 3.11141 77.0731C3.8104 77.0659 4.50619 77.1685 5.1734 77.3772L5.09055 78.6394C4.79094 78.5027 4.47556 78.4037 4.15161 78.3446C3.83313 78.2829 3.50945 78.252 3.18505 78.2525C2.98952 78.2543 2.79488 78.279 2.60511 78.3262C2.41649 78.3716 2.23836 78.453 2.08041 78.5657C1.91962 78.678 1.78723 78.8263 1.69378 78.9988C1.58723 79.2031 1.53642 79.4319 1.5465 79.6622C1.5435 79.8394 1.57801 80.0152 1.64776 80.1781C1.71507 80.3231 1.80871 80.4544 1.92392 80.5651C2.0484 80.6838 2.18762 80.786 2.33816 80.8692C2.49465 80.9613 2.65114 81.0442 2.81683 81.1364L3.57167 81.4957C3.83059 81.6235 4.08255 81.765 4.32651 81.9195C4.55341 82.0642 4.75808 82.2411 4.93406 82.4447C5.11245 82.6518 5.25271 82.8889 5.3483 83.145C5.45432 83.453 5.5042 83.7775 5.49559 84.1032C5.50694 84.5372 5.42206 84.9683 5.24704 85.3655C5.09268 85.7074 4.86293 86.0098 4.57505 86.25C4.2778 86.4865 3.93682 86.6618 3.57167 86.766C3.17077 86.8821 2.75551 86.9411 2.33816 86.941C1.95583 86.9406 1.57415 86.9098 1.19669 86.8489C0.78979 86.7866 0.389286 86.688 0 86.5541L0.0552321 85.1904Z" fill="black"/>
<path d="M8.33072 83.4858C8.32723 83.8051 8.37701 84.1228 8.47801 84.4256C8.56729 84.7101 8.71608 84.9723 8.91449 85.1947C9.11289 85.4171 9.35636 85.5947 9.62868 85.7156C9.9425 85.8503 10.2815 85.9162 10.6229 85.909C10.9421 85.9081 11.2601 85.8711 11.571 85.7985C11.8821 85.7283 12.1824 85.6168 12.4639 85.4668L12.5468 86.5264C12.2217 86.6633 11.8819 86.7622 11.5342 86.8212C11.1694 86.8847 10.7998 86.9155 10.4295 86.9134C9.91092 86.9212 9.39552 86.8305 8.91066 86.6462C8.49242 86.4732 8.11813 86.2087 7.81522 85.8722C7.51315 85.5271 7.28729 85.1221 7.15244 84.6836C6.99982 84.1884 6.92529 83.6724 6.93151 83.1541C6.93077 82.6793 7.00216 82.207 7.14324 81.7536C7.27372 81.3255 7.48289 80.9256 7.75999 80.5743C8.02651 80.2365 8.36241 79.96 8.74496 79.7635C9.15242 79.5562 9.60434 79.4518 10.0613 79.4594C10.5277 79.4451 10.991 79.5398 11.4145 79.7358C11.7682 79.913 12.072 80.1759 12.2982 80.5006C12.5308 80.8465 12.6934 81.2346 12.7769 81.6431C12.8748 82.1097 12.9241 82.5852 12.9242 83.062V83.495H8.33072V83.4858ZM11.5986 82.6013C11.6004 82.3358 11.5789 82.0707 11.5342 81.8089C11.4938 81.5668 11.4129 81.3331 11.2948 81.1179C11.1841 80.9196 11.0259 80.7518 10.8346 80.6296C10.6047 80.4997 10.3435 80.4359 10.0797 80.4453C9.815 80.4379 9.55349 80.5049 9.3249 80.6388C9.11263 80.7669 8.928 80.936 8.78179 81.1363C8.63147 81.3453 8.51928 81.5793 8.45039 81.8274C8.37918 82.0795 8.339 82.3394 8.33072 82.6013H11.5986Z" fill="black"/>
<path d="M15.6032 83.4858C15.5997 83.8051 15.6495 84.1227 15.7505 84.4256C15.8398 84.7101 15.9885 84.9723 16.187 85.1947C16.3854 85.4171 16.6288 85.5947 16.9011 85.7156C17.215 85.8503 17.5539 85.9162 17.8953 85.909C18.2145 85.9081 18.5326 85.8711 18.8435 85.7985C19.155 85.7299 19.4555 85.6182 19.7364 85.4668L19.8192 86.5264C19.4941 86.6633 19.1544 86.7622 18.8066 86.8212C18.4419 86.8847 18.0722 86.9155 17.702 86.9133C17.1834 86.9212 16.668 86.8305 16.1831 86.6462C15.7649 86.4732 15.3906 86.2087 15.0877 85.8722C14.7856 85.5271 14.5598 85.1221 14.4249 84.6836C14.2723 84.1884 14.1977 83.6724 14.204 83.1541C14.2032 82.6793 14.2746 82.207 14.4157 81.7536C14.5462 81.3255 14.7554 80.9256 15.0325 80.5743C15.299 80.2365 15.6349 79.96 16.0174 79.7635C16.4249 79.5562 16.8768 79.4518 17.3338 79.4594C17.8002 79.4451 18.2635 79.5398 18.687 79.7358C19.0406 79.913 19.3444 80.1759 19.5707 80.5006C19.8033 80.8465 19.9659 81.2346 20.0494 81.6431C20.1472 82.1097 20.1966 82.5852 20.1967 83.062V83.495H15.6032V83.4858ZM18.8619 82.6013C18.8637 82.3358 18.8421 82.0707 18.7974 81.8089C18.757 81.5668 18.6761 81.3331 18.5581 81.1179C18.4473 80.9196 18.2892 80.7518 18.0978 80.6296C17.868 80.4997 17.6068 80.4359 17.343 80.4453C17.0783 80.4379 16.8167 80.5049 16.5882 80.6388C16.3759 80.7669 16.1913 80.936 16.045 81.1363C15.8947 81.3453 15.7825 81.5793 15.7136 81.8274C15.6424 82.0795 15.6023 82.3394 15.594 82.6013H18.8619Z" fill="black"/>
<path d="M21.8535 78.1232V76.7319H23.2159V78.1232H21.8535ZM21.8535 86.7473V79.5974H23.2159V86.7565H21.8535V86.7473Z" fill="black"/>
<path d="M25.287 86.7474V81.2375C25.287 80.9611 25.2778 80.6847 25.2686 80.4175C25.2594 80.1503 25.241 79.8739 25.2134 79.5975H26.4929L26.5297 80.8321C26.7212 80.4104 27.0333 80.0549 27.4265 79.8105C27.8197 79.5662 28.2764 79.444 28.739 79.4593C29.1055 79.4481 29.4699 79.5173 29.8068 79.662C30.087 79.786 30.331 79.9794 30.5157 80.224C30.7023 80.4901 30.8338 80.7908 30.9023 81.1086C30.9869 81.4802 31.0271 81.8607 31.022 82.2419V86.7658H29.6411V82.5459C29.6399 82.3026 29.6245 82.0596 29.5951 81.818C29.5742 81.5981 29.5084 81.3849 29.4018 81.1915C29.3099 81.0121 29.1696 80.862 28.9968 80.7584C28.7836 80.639 28.5413 80.5816 28.2972 80.5926C28.0161 80.5803 27.7377 80.6508 27.4963 80.7953C27.2851 80.9268 27.1084 81.1068 26.9808 81.3205C26.8481 81.5456 26.7547 81.7918 26.7046 82.0484C26.6488 82.3243 26.6211 82.6052 26.6218 82.8868V86.775H25.287V86.7474Z" fill="black"/>
<path d="M33.36 88.3967C33.6686 88.5619 33.9963 88.6888 34.3357 88.7744C34.6812 88.8662 35.037 88.9126 35.3944 88.9126C35.7408 88.9189 36.0849 88.8563 36.407 88.7283C36.6811 88.6159 36.9219 88.4351 37.1066 88.2032C37.296 87.965 37.4311 87.6883 37.5024 87.3923C37.5867 87.0519 37.6269 86.7019 37.6221 86.3512V85.5035C37.4193 85.8903 37.1092 86.2103 36.7291 86.4249C36.3456 86.6351 35.9156 86.746 35.4784 86.7476C35.0411 86.7492 34.6104 86.6415 34.2253 86.4341C33.8828 86.2276 33.5903 85.9475 33.3692 85.6141C33.1405 85.2617 32.9754 84.8719 32.8813 84.4624C32.7814 84.0304 32.7319 83.5882 32.734 83.1448C32.7309 82.68 32.7804 82.2164 32.8813 81.7627C32.9737 81.344 33.1388 80.9449 33.3692 80.5834C33.5911 80.2473 33.8871 79.9668 34.2345 79.7634C34.6297 79.5499 35.0744 79.445 35.5232 79.4593C35.9647 79.4532 36.3999 79.5645 36.7844 79.7818C37.1756 80.0211 37.4841 80.3749 37.6681 80.7953V79.5975H38.9752V86.3512C39.0383 87.325 38.7436 88.2884 38.1468 89.06C37.8152 89.3924 37.4155 89.6486 36.9752 89.8109C36.5349 89.9731 36.0646 90.0376 35.5969 89.9998C35.2051 89.9985 34.814 89.9646 34.4278 89.8985C34.038 89.8305 33.6535 89.7351 33.2771 89.6129L33.36 88.3967ZM34.5475 84.8309C34.6732 85.0635 34.8493 85.265 35.063 85.4206C35.3162 85.5729 35.6065 85.6526 35.9019 85.651C36.1974 85.6494 36.4868 85.5665 36.7383 85.4114C36.9606 85.2535 37.1459 85.0491 37.2815 84.8125C37.4205 84.5621 37.5198 84.2917 37.576 84.0109C37.633 83.7318 37.6638 83.448 37.6681 83.1632C37.6671 82.8665 37.6393 82.5705 37.5852 82.2787C37.5349 81.983 37.4386 81.697 37.2999 81.431C37.1729 81.1808 36.9864 80.9656 36.7568 80.8045C36.5146 80.6353 36.2233 80.5511 35.9283 80.565C35.6219 80.5518 35.3191 80.6356 35.063 80.8045C34.8391 80.963 34.6587 81.1753 34.5383 81.4218C34.406 81.6881 34.3189 81.9746 34.2805 82.2695C34.2368 82.5716 34.2153 82.8764 34.2161 83.1817C34.2185 83.4688 34.2431 83.7552 34.2897 84.0385C34.3293 84.3156 34.4165 84.5837 34.5475 84.8309Z" fill="black"/>
<path d="M45.373 86.7476V76.4282H46.7354V80.7771C46.8957 80.3606 47.1949 80.0123 47.5823 79.7912C47.9584 79.5678 48.3877 79.4501 48.8251 79.4503C49.2799 79.435 49.7307 79.5399 50.1322 79.7544C50.4834 79.9527 50.7805 80.2343 50.9975 80.5744C51.2287 80.9344 51.391 81.3344 51.4762 81.7538C51.5726 82.2082 51.622 82.6713 51.6235 83.1358C51.626 83.6036 51.5766 84.0703 51.4762 84.5271C51.3838 84.9516 51.2188 85.3568 50.9883 85.7249C50.7664 86.0715 50.467 86.3617 50.1138 86.5726C49.7153 86.7965 49.2635 86.908 48.8066 86.8951C48.3638 86.9025 47.9275 86.7878 47.5455 86.5634C47.1583 86.3192 46.851 85.9669 46.6618 85.5498L46.6342 86.7384H45.373V86.7476ZM47.0668 84.9049C47.1983 85.1572 47.3838 85.3774 47.6099 85.5498C47.8481 85.7289 48.1408 85.8201 48.4384 85.8078C48.7432 85.8199 49.0436 85.7326 49.2945 85.5591C49.5169 85.3914 49.6967 85.1736 49.8192 84.9233C49.9492 84.6521 50.0391 84.3635 50.0862 84.0664C50.1328 83.7646 50.1574 83.4597 50.1598 83.1543C50.1609 82.8521 50.1394 82.5503 50.0954 82.2513C50.0543 81.9599 49.9673 81.6769 49.8376 81.4129C49.7151 81.1704 49.5388 80.9593 49.3221 80.7955C49.0689 80.6279 48.7694 80.5441 48.466 80.556C48.1716 80.5466 47.8816 80.6304 47.6376 80.7955C47.4103 80.9592 47.2243 81.1738 47.0944 81.4221C46.9514 81.6837 46.8519 81.9669 46.7999 82.2605C46.7429 82.552 46.7121 82.8481 46.7078 83.1451C46.7093 83.4448 46.737 83.7439 46.7907 84.0388C46.8379 84.3399 46.931 84.632 47.0668 84.9049Z" fill="black"/>
<path d="M54.3761 83.4858C54.3726 83.8051 54.4224 84.1227 54.5234 84.4256C54.6127 84.7101 54.7615 84.9723 54.9599 85.1947C55.1583 85.4171 55.4018 85.5947 55.6741 85.7156C55.9879 85.8503 56.3269 85.9162 56.6683 85.909C56.9875 85.9081 57.3056 85.8711 57.6164 85.7985C57.928 85.7299 58.2285 85.6182 58.5093 85.4668L58.5922 86.5264C58.2671 86.6633 57.9273 86.7622 57.5796 86.8212C57.2148 86.8847 56.8452 86.9155 56.475 86.9133C55.9563 86.9212 55.4409 86.8305 54.9561 86.6462C54.5347 86.4788 54.1592 86.2135 53.8606 85.8722C53.5586 85.5271 53.3327 85.1221 53.1979 84.6836C53.0452 84.1884 52.9707 83.6724 52.9769 83.1541C52.9762 82.6793 53.0476 82.207 53.1886 81.7536C53.3191 81.3255 53.5283 80.9256 53.8054 80.5743C54.0719 80.2365 54.4078 79.96 54.7904 79.7635C55.1978 79.5562 55.6497 79.4518 56.1067 79.4594C56.5731 79.4451 57.0364 79.5398 57.4599 79.7358C57.8136 79.913 58.1174 80.1759 58.3436 80.5006C58.5762 80.8465 58.7389 81.2346 58.8223 81.6431C58.9202 82.1097 58.9695 82.5852 58.9696 83.062V83.495H54.3761V83.4858ZM57.644 82.6013C57.6458 82.3358 57.6243 82.0707 57.5796 81.8089C57.5392 81.5668 57.4583 81.3331 57.3403 81.1179C57.2295 80.9196 57.0714 80.7518 56.88 80.6296C56.6502 80.4997 56.3889 80.4359 56.1252 80.4453C55.8604 80.4379 55.5989 80.5049 55.3703 80.6388C55.158 80.7669 54.9734 80.936 54.8272 81.1363C54.6769 81.3453 54.5647 81.5792 54.4958 81.8274C54.4246 82.0795 54.3844 82.3394 54.3761 82.6013H57.644Z" fill="black"/>
<path d="M60.0557 88.793C60.2737 88.8588 60.5 88.8929 60.7277 88.8943C60.8777 88.9044 61.0278 88.8768 61.1645 88.814C61.3011 88.7513 61.4199 88.6554 61.5102 88.535C61.7307 88.2015 61.8955 87.8343 61.998 87.4478L62.1361 87.0055L59.6875 79.5977H61.1788L62.8449 85.476L64.4835 79.5977H65.8735L63.2684 87.715C63.1763 87.9914 63.0751 88.2678 62.9554 88.535C62.8388 88.7959 62.6937 89.0431 62.5227 89.2721C62.351 89.4906 62.1344 89.6697 61.8876 89.7973C61.6061 89.9416 61.2923 90.0114 60.9762 90C60.6421 90.003 60.3087 89.969 59.9821 89.8986L60.0557 88.793Z" fill="black"/>
<path d="M68.4787 86.6368C67.8649 86.3626 67.362 85.8885 67.0519 85.2916C66.5024 84.1562 66.4134 82.8519 66.8033 81.6522C66.951 81.2229 67.1791 80.8258 67.4753 80.482C67.769 80.156 68.1303 79.8982 68.5339 79.7265C68.9725 79.537 69.4463 79.4428 69.924 79.4501C70.4155 79.4436 70.9036 79.5344 71.36 79.7173C71.7644 79.8833 72.1263 80.1384 72.4186 80.4636C72.7165 80.8016 72.9365 81.2011 73.063 81.6338C73.2149 82.126 73.2895 82.6389 73.2839 83.154C73.2888 83.6631 73.2143 84.1698 73.063 84.6559C72.9288 85.0936 72.7098 85.5006 72.4186 85.8537C72.1306 86.1927 71.7683 86.4607 71.36 86.6368C70.9058 86.8281 70.4166 86.9223 69.924 86.9132C69.4285 86.9195 68.9369 86.8255 68.4787 86.6368ZM68.4695 84.9784C68.6192 85.2217 68.8203 85.4292 69.0586 85.5865C69.3218 85.7433 69.6223 85.826 69.9286 85.826C70.2348 85.826 70.5353 85.7433 70.7985 85.5865C71.0368 85.4292 71.2379 85.2217 71.3876 84.9784C71.5442 84.7161 71.6562 84.4297 71.719 84.1307C71.785 83.8093 71.8189 83.4821 71.8203 83.154C71.8216 82.8384 71.7907 82.5236 71.7282 82.2142C71.6685 81.9158 71.5596 81.6293 71.406 81.3666C71.2647 81.1224 71.0655 80.9167 70.8261 80.7677C70.5606 80.6055 70.2532 80.5254 69.9424 80.5373C69.6345 80.5253 69.33 80.6055 69.0679 80.7677C68.8301 80.9227 68.6315 81.1308 68.4879 81.3758C68.3352 81.6399 68.2235 81.9257 68.1565 82.2234C68.091 82.5325 68.0571 82.8474 68.0553 83.1632C68.0571 83.4883 68.091 83.8123 68.1565 84.1307C68.2121 84.429 68.3179 84.7156 68.4695 84.9784Z" fill="black"/>
<path d="M74.9775 86.7474V81.2375C74.9775 80.9611 74.9775 80.6847 74.9683 80.4175C74.9591 80.1503 74.9407 79.8739 74.9131 79.5975H76.1926L76.2294 80.8321C76.4209 80.4104 76.733 80.0549 77.1262 79.8105C77.5194 79.5662 77.9762 79.444 78.4387 79.4593C78.8052 79.4481 79.1697 79.5173 79.5066 79.662C79.7867 79.786 80.0307 79.9794 80.2154 80.224C80.402 80.4901 80.5335 80.7908 80.602 81.1086C80.6866 81.4802 80.7268 81.8607 80.7217 82.2419V86.7658H79.3409V82.5459C79.3396 82.3026 79.3242 82.0596 79.2948 81.818C79.2739 81.5981 79.2081 81.3849 79.1015 81.1915C79.0088 81.0096 78.8648 80.859 78.6873 80.7584C78.4741 80.639 78.2318 80.5816 77.9877 80.5926C77.7067 80.5803 77.4282 80.6508 77.1868 80.7953C76.9756 80.9268 76.7989 81.1068 76.6713 81.3205C76.5386 81.5456 76.4452 81.7918 76.3951 82.0484C76.3393 82.3243 76.3116 82.6052 76.3123 82.8868V86.775H74.9775V86.7474Z" fill="black"/>
<path d="M87.4968 86.7477L87.414 85.5591C87.2366 85.9808 86.9305 86.3356 86.5395 86.5726C86.1537 86.796 85.7147 86.9106 85.2691 86.9043C84.8121 86.9185 84.36 86.8069 83.962 86.5818C83.6087 86.371 83.3093 86.0808 83.0875 85.7342C82.851 85.3692 82.6854 84.9628 82.5996 84.5364C82.4991 84.0795 82.4497 83.6129 82.4523 83.1451C82.4492 82.6803 82.4986 82.2167 82.5996 81.7631C82.6919 81.3444 82.8571 80.9452 83.0875 80.5837C83.3103 80.2452 83.61 79.9642 83.962 79.7637C84.3638 79.5502 84.8144 79.4454 85.2691 79.4596C85.7037 79.4582 86.1304 79.5761 86.5026 79.8005C86.8833 80.0272 87.1779 80.3739 87.3403 80.7864V76.4375H88.7027V84.6101C88.7027 85.0063 88.7119 85.3841 88.7211 85.7342C88.7303 86.0843 88.7487 86.4252 88.7671 86.7569H87.4968V86.7477ZM84.2565 84.9234C84.379 85.1736 84.5588 85.3915 84.7812 85.5591C85.0315 85.7339 85.3324 85.8214 85.6373 85.8079C85.935 85.8202 86.2277 85.729 86.4658 85.5499C86.6895 85.3749 86.8745 85.1553 87.0089 84.9049C87.1476 84.639 87.2439 84.353 87.2943 84.0573C87.348 83.7624 87.3757 83.4633 87.3771 83.1635C87.3775 82.8663 87.3466 82.5698 87.2851 82.279C87.2316 81.9828 87.1322 81.6968 86.9905 81.4314C86.8635 81.1811 86.677 80.9659 86.4474 80.8048C86.2052 80.6356 85.9139 80.5514 85.6189 80.5653C85.3152 80.5506 85.0149 80.6347 84.7628 80.8048C84.5393 80.9612 84.3614 81.1742 84.2473 81.4221C84.1151 81.6884 84.028 81.9749 83.9896 82.2698C83.9006 82.8749 83.9037 83.49 83.9988 84.0941C84.0425 84.3819 84.1294 84.6615 84.2565 84.9234Z" fill="black"/>
</g>
<defs>
<clipPath id="clip0_1295_604">
<rect width="88.7671" height="90" fill="white"/>
</clipPath>
</defs>
</svg>
